<!-- Generator: Adobe Illustrator 25.1.0, SVG Export Plug-In  -->
<svg version="1.1" xmlns="http://www.w3.org/2000/svg" xmlns:xlink="http://www.w3.org/1999/xlink" x="0px" y="0px" width="16px"
	 height="16.1px" viewBox="0 0 16 16.1" style="overflow:visible;enable-background:new 0 0 16 16.1;" xml:space="preserve">
<style type="text/css">
	.st0{fill:#FFFFFF;}
</style>
<defs>
</defs>
<g id="Ebene_4_1_">
	<rect width="16" height="16"/>
	<circle class="st0" cx="8" cy="8" r="7.5"/>
</g>
<path d="M11.3,9.9c-0.1-0.1-0.2-0.1-0.3-0.1l-3,2V8.3l1.7-1.2C9.8,7,9.8,6.9,9.8,6.8C9.7,6.7,9.6,6.7,9.5,6.7L8,7.8v-2
	c0-0.1-0.1-0.2-0.2-0.2S7.6,5.7,7.6,5.8l0,0v6l-3-2c-0.1-0.1-0.2,0-0.3,0.1c-0.1,0.1,0,0.2,0.1,0.3l3.2,2.2v3.5
	C7.7,16,7.8,16,7.8,16.1C7.9,16,7.9,16,7.9,15.9v-3.5l3.2-2.2C11.3,10.1,11.3,10,11.3,9.9z"/>
<path d="M11.5,7.9c0.5-2.5-1-5-3.4-5.6S3.4,3.4,2.9,5.9C2.7,6.7,2.8,7.6,3,8.4c-0.8,0.8-0.9,2.2-0.1,3.1s1.4,0.8,2.2,0
	c0,0-0.6-0.5-0.5-0.6L4,10.4C3.5,9.9,3.8,9.6,4,9.3c0.6-0.6,1.1,0,1.1,0l1.7,1.1V5.5c0-1.1,1.7-1.6,1.7,0v1.1l1-0.6
	c1.1-0.6,1.6,1.1,0.5,1.7L8.4,8.8v1.6l2.8-1.6c0.5-0.4,1.6,0.6,0.6,1.6L9,12.6c0.9,1.3,2.2,1.2,3.4,0.2s1.4-2.8,0.5-4
	C12.5,8.4,12,8,11.5,7.9L11.5,7.9z"/>
</svg>
