<svg width="1650" height="1576" viewBox="0 0 1650 1576" fill="none" xmlns="http://www.w3.org/2000/svg">
<path d="M11.1357 0.0190057C28.8476 1.80106 -1.05301 134.579 87.93 274.712C160.639 389.216 230.256 378.751 295.669 485.408C380.458 623.66 296.013 694.273 366.556 807.36C463.809 963.265 737.502 1010.46 925.776 973.751C1005.8 958.146 1032.23 934.831 1107.92 940.276C1242.02 949.924 1265.58 1030.83 1402.3 1069.25C1572.72 1117.15 1650.85 1023.71 1739.99 1084.02C1826.77 1142.73 1852.03 1298.48 1821.71 1388.25C1727.69 1526.66 746.306 1724.97 -69.5969 1397.11C-885.5 1069.25 -35.197 -4.63797 11.1357 0.0190057Z" fill="#E1BFB6"/>
</svg>
