<!-- Generator: Adobe Illustrator 25.1.0, SVG Export Plug-In  -->
<svg version="1.1" xmlns="http://www.w3.org/2000/svg" xmlns:xlink="http://www.w3.org/1999/xlink" x="0px" y="0px"
	 width="1824.7px" height="1589.9px" viewBox="0 0 1824.7 1589.9"
	 style="overflow:visible;enable-background:new 0 0 1824.7 1589.9;" xml:space="preserve">
<style type="text/css">
	.st0{fill:#E1BFB6;}
</style>
<defs>
</defs>
<path class="st0" d="M0,0c17.7,1.8-10.4,134.6,78.6,274.7c72.7,114.5,142.3,104,207.7,210.7c84.8,138.3,0.3,208.9,70.9,322
	c97.3,155.9,370.9,203.1,559.2,166.4c80-15.6,106.5-38.9,182.1-33.5c134.1,9.6,157.7,90.6,294.4,129
	c170.4,47.9,248.5-45.5,337.7,14.8c86.8,58.7,112,214.5,81.7,304.2c-94,138.4-996.5,358.6-1812.4,30.8V0z"/>
</svg>
