<svg width="649" height="821" fill="none" xmlns="http://www.w3.org/2000/svg"><path d="M392.896 173.717c27.05-5.91 39.94 27.17 75 27 19.56-.1 22.46-10.43 61-31 58.65-31.31 83.34-24.14 91-44 11.31-29.32-32.7-70.44-44-81-7.74-7.23-64.3-58.81-99-41-24.92 12.79-11.84 47.64-41 68-24.07 16.81-41.66-.88-85 13-14.78 4.73-58.27 18.66-65 51-7.5 36.02 33.79 79.63 61 76 21.19-2.82 21.38-32.62 46-38z" fill="#E9EFC6"/><path d="M523.014 247.202C618.746 225.509 638.916 165.103 663 141c0 208.644-2.709 613.277-13.547 562.66-13.547-63.271-144.502-112.984-230.3-112.984-85.976 0-177.028 51.973-246.104 51.973C96.282 642.649 15 601.974 15 520.625c0-81.348 99.345-119.763 130.955-183.034 31.609-63.271 20.392-110.744 155.791-144.622 117.407-29.376 101.602 81.349 221.268 54.233z" fill="#E0E7B4"/><path d="M315.951 677.885c11.003-7.462 22.088-14.978 35.082-20.915 57.236-26.144 139.179-15.903 149.771 14.168 4.844 13.744-8.319 22.852-1.349 38.457 9.289 20.808 38.825 18.386 40.478 31.036 1.525 11.665-23.315 15.882-51.947 45.204-21.603 22.123-21.339 33.943-32.383 35.083-23.802 2.463-32.451-51.653-68.814-57.348-20.901-3.272-26.109 13.352-52.623 12.819-33.165-.661-69.299-27.554-68.139-50.601.736-14.54 17.136-25.659 49.924-47.903zM90.167 304.964c-7.773 1.186-18.841 2.882-22.186 10.861-3.713 8.847 3.583 21.804 13.969 26.733 8.48 4.027 20.821 3.542 27.937-5.012 7.904-9.507 6.088-25.046-1.643-30.911-4.865-3.693-11.035-2.749-18.077-1.671zM14.48 412.611c-4.859.753-11.776 1.828-13.867 6.888-2.32 5.61 2.24 13.827 8.73 16.953 5.3 2.553 13.014 2.246 17.461-3.179 4.94-6.029 3.806-15.883-1.027-19.602-3.04-2.342-6.897-1.743-11.298-1.06zM31.024 345.026c-6.94-.63-16.57 10.33-16 21 .74 13.79 18.15 20.33 20 21 18.32 6.6 41.78-3.05 43-13 .74-6.06-6.65-13.06-13-16-9.17-4.25-15.16.41-24-5-6.09-3.73-6-7.63-10-8z" fill="#D5DDA3"/></svg>