<svg width="649" height="821" viewBox="0 0 649 821" fill="none" xmlns="http://www.w3.org/2000/svg">
<path d="M392.896 173.717C419.946 167.807 432.836 200.887 467.896 200.717C487.456 200.617 490.356 190.287 528.896 169.717C587.546 138.407 612.236 145.577 619.896 125.717C631.206 96.3973 587.196 55.2773 575.896 44.7173C568.156 37.4873 511.596 -14.0927 476.896 3.71727C451.976 16.5073 465.056 51.3573 435.896 71.7173C411.826 88.5273 394.236 70.8373 350.896 84.7173C336.116 89.4473 292.626 103.377 285.896 135.717C278.396 171.737 319.686 215.347 346.896 211.717C368.086 208.897 368.276 179.097 392.896 173.717Z" fill="#E9EFC6"/>
<path d="M523.014 247.202C618.746 225.509 638.916 165.103 663 141C663 349.644 660.291 754.277 649.453 703.66C635.906 640.389 504.951 590.676 419.153 590.676C333.177 590.676 242.125 642.649 173.049 642.649C96.2822 642.649 15 601.974 15 520.625C15 439.277 114.345 400.862 145.955 337.591C177.564 274.32 166.347 226.847 301.746 192.969C419.153 163.593 403.348 274.318 523.014 247.202Z" fill="#E0E7B4"/>
<path d="M315.951 677.885C326.954 670.423 338.039 662.907 351.033 656.97C408.269 630.826 490.212 641.067 500.804 671.138C505.648 684.882 492.485 693.99 499.455 709.595C508.744 730.403 538.28 727.981 539.933 740.631C541.458 752.296 516.618 756.513 487.986 785.835C466.383 807.958 466.647 819.778 455.603 820.918C431.801 823.381 423.152 769.265 386.789 763.57C365.888 760.298 360.68 776.922 334.166 776.389C301.001 775.728 264.867 748.835 266.027 725.788C266.763 711.248 283.163 700.129 315.951 677.885Z" fill="#D5DDA3"/>
<path d="M90.1667 304.964C82.3937 306.15 71.3257 307.846 67.9815 315.825C64.2676 324.672 71.564 337.629 81.95 342.558C90.4297 346.585 102.771 346.1 109.887 337.546C117.791 328.039 115.975 312.5 108.244 306.635C103.379 302.942 97.2085 303.886 90.1667 304.964Z" fill="#D5DDA3"/>
<path d="M14.4792 412.611C9.62105 413.364 2.70359 414.439 0.613454 419.499C-1.70777 425.109 2.85252 433.326 9.34374 436.452C14.6435 439.005 22.357 438.698 26.8043 433.273C31.7446 427.244 30.6097 417.39 25.7772 413.671C22.737 411.329 18.8803 411.928 14.4792 412.611Z" fill="#D5DDA3"/>
<path d="M31.0242 345.026C24.0842 344.396 14.4542 355.356 15.0242 366.026C15.7642 379.816 33.1742 386.356 35.0242 387.026C53.3442 393.626 76.8042 383.976 78.0242 374.026C78.7642 367.966 71.3742 360.966 65.0242 358.026C55.8542 353.776 49.8642 358.436 41.0242 353.026C34.9342 349.296 35.0242 345.396 31.0242 345.026Z" fill="#D5DDA3"/>
</svg>
