<svg width="1650" height="1762" viewBox="0 0 1650 1762" fill="none" xmlns="http://www.w3.org/2000/svg">
<path d="M11.1357 0.0182671C28.8477 1.80032 -1.05292 134.578 87.9301 274.711C160.639 389.216 230.256 378.75 295.669 485.407C380.458 623.659 296.013 694.272 366.556 807.359C463.809 963.264 737.502 1010.45 925.776 973.75C1005.8 958.145 1032.24 934.83 1107.92 940.275C1242.02 949.924 1265.58 1030.82 1402.3 1069.25C1572.72 1117.15 1650.85 1023.71 1739.99 1084.02C1826.77 1142.73 1852.03 1298.48 1821.71 1388.25C1701.28 1744.83 384.288 2007.04 -69.5968 1397.11C-452.752 882.235 -35.1969 -4.63871 11.1357 0.0182671Z" fill="#E1BFB6"/>
</svg>
