<!-- Generator: Adobe Illustrator 25.1.0, SVG Export Plug-In  -->
<svg version="1.1" xmlns="http://www.w3.org/2000/svg" xmlns:xlink="http://www.w3.org/1999/xlink" x="0px" y="0px" width="126.2px"
	 height="134px" viewBox="0 0 126.2 134" style="overflow:visible;enable-background:new 0 0 126.2 134;" xml:space="preserve">
<style type="text/css">
	.st0{fill:#FECF70;}
	.st1{fill:#403535;}
	.st2{fill:#FFFFFF;}
</style>
<defs>
</defs>
<g>
	<g>
		<path class="st0" d="M76.7,134c-4.4,0-8.8-0.2-13-1.4c-3.7-1.1-7.4-2.3-11.1-3.7c-6.8-2.6-13.2-6.1-18.9-10.5
			c-2.9-2.3-5.6-4.9-8.1-7.6c-3.6-3.8-6.8-8-9.7-12.4c-2.2-3.4-4.2-6.8-6.3-10.3c-3.1-5.3-4.9-11.2-7.2-16.9
			c-0.9-4.5-1.5-9.1-2-13.6c-0.2-1.7-0.4-3.4-0.5-5.2c-0.1-1.5,0-3,0.2-4.6c0.4-3,0.8-6,1.4-9c0.9-4.7,3.4-8.9,5.6-13.2c0,0,0,0,0,0
			c2-3.2,4.1-6.4,6.8-9.1c1.4-1.4,3-2.7,4.6-3.8c7.7-5.4,16-9.3,25.2-11.3c2.8-0.6,5.5-1,8.3-1.2c4.9-0.4,9.7,0.2,14.5,1.1
			c3.4,0.6,6.8,1.3,10,2.6c3.5,1.4,6.8,3,10,5c3.6,2.3,7,4.8,10.3,7.6c3.5,3,6.5,6.4,9.1,10.2c2.6,3.9,5.3,7.7,7.7,11.7
			c0.5,0.8,1.2,2.1,1.6,3c4,8,6.9,16.5,9,25.2c0.2,0.9,0.4,1.9,0.4,2.8c0.1,2.8,0.6,5.6,0.5,8.3c-0.1,2.8-0.2,5.6-0.6,8.3
			c-0.5,4.6-1.3,9.1-2.7,13.5c-1.9,4.9-4.4,9.6-7.6,13.7c-2.5,3.1-5.2,6.1-8.2,8.7c-2.1,1.9-4.2,3.7-6.6,5.2
			c-3.2,2-6.5,3.9-10.1,4.9c-2.2,0.6-4.5,1.1-6.8,1.3C80.7,133.6,78.7,133.8,76.7,134z"/>
	</g>
	<g>
		<path class="st1" d="M107.5,106.9c-0.1,1.3-0.1,2.5-0.3,3.8c-0.2,2.3-0.7,4.6-1.8,6.6c-0.6,1.2-1.5,2.4-2.8,2.8
			c-2.2-1.2-3.2-3.1-3.4-5.3c-0.2-2.3-0.1-4.6,0.4-6.8c0-0.2,0.1-0.5,0.1-0.7c0,0,0-0.1-0.1-0.3c-0.9,0.8-1.2,0.7-1.7,4.5
			c-12.6,4.7-24.7,5.5-36.2,1.1c-6.1-2.3-11.8-5.3-17-9.3c-6.2-4.8-11-10.8-15.1-17.4c-2.9-4.7-4.9-9.9-7-15c-1.2-3-1.8-6.1-2.2-9.2
			c-0.4-2.8-0.7-5.6-0.9-8.5c-0.2-3.2,0.2-6.4,1.2-9.5c0.9-2.6,1.6-5.2,3-7.6c2.5-4.2,5.3-8.2,9.4-10.9c6.2-4,13-6.3,20.5-6.2
			c3.5,0,6.9,0.7,10.2,1.7C71.4,22.8,78,26.4,84,31.2c5.2,4.2,9.4,9.3,13.2,14.7c3.7,5.4,6.7,11.1,9,17.2c1.6,4.1,2.4,8.3,2.8,12.7
			c0.4,4.2,0.3,8.5-0.4,12.7c0,0.1,0,0.2,0,0.4c0.5-0.5,0.9-0.7,1.1-1.5c3.6-3.2,7.8-5.5,12.6-2.4c1.1,3.8,0,6.5-2.3,8.5
			c-0.5,0.4-1.1,0.9-1.6,1.2c-2.8,1.7-5.7,3.2-8.8,4.4c-0.2,0.1-0.3,0.1-0.6,0.3c0.1,0.2,0.2,0.3,0.4,0.4c2.3,1.6,4.2,3.6,6.2,5.6
			c3.2,3.2,6.3,6.5,9.8,9.4c0.2,0.1,0.3,0.3,0.4,0.5c0.3,0.4,0.3,0.8,0,1.2c-0.3,0.4-0.7,0.4-1.1,0.3c-0.3-0.1-0.6-0.3-0.8-0.5
			c-2.4-2.1-4.8-4.1-7.1-6.3c-2.5-2.3-4.9-4.7-7.3-7.1c-0.2-0.2-0.5-0.4-0.8-0.6c-0.1,0-0.1,0.1-0.2,0.1c0.1,0.3,0.1,0.5,0.2,0.8
			c2,5.5,4.2,10.9,6.9,16.2c1.6,3,2.7,6.3,4.1,9.5c0.1,0.3,0.2,0.7,0.2,1c0.1,0.7-0.2,1.2-0.8,1.4c-0.5,0.1-1-0.2-1.2-0.8
			c-0.3-0.8-0.5-1.7-0.9-2.5c-1.6-3.4-3.3-6.7-4.9-10.2c-1.5-3.3-2.9-6.6-4.3-10c-0.1-0.3-0.2-0.5-0.3-0.8
			C107.7,106.9,107.6,106.9,107.5,106.9z M77.4,109.5c6.9,0,6.5-0.1,12.6-2.6c3.7-3.5,6.5-7.4,8-12.2c2-6.5,3.6-13.1,3.1-20
			c-0.2-3.3-0.8-6.5-1.8-9.6c-1.3-4-3.2-7.7-5.6-11.1c-2.3-3.3-4.7-6.6-7.1-9.8c-3.2-4.2-7.1-7.6-11.2-11c-2.4-2-5.1-3.6-8.1-4.5
			c-3.4-1.1-6.9-2-10.4-2.3c-2.4-0.2-4.9-0.4-7.3,0.2c-1.8,0.5-3.5,1.1-5.2,1.7c-3.2,1.2-5.9,3-7.8,5.8c-1.2,1.7-2.3,3.5-3.3,5.4
			c-0.8,1.4-1.5,2.8-2.2,4.3c-0.8,1.7-1.6,3.4-2.3,5.2c-0.1,0.3-0.1,0.7,0.1,0.9c0.9,0.9,0.8,1.9,0.6,3.1c0,0.3-0.1,0.8-0.1,1
			c-0.3,6.5,0.2,13,2.1,19.2c0.7,2.3,1.4,4.6,3,6.5c1.3,1.6,2.5,3.2,3.8,4.8c1.3,1.5,2.6,3,3.9,4.5c0.7,0.8,1.1,1.5,0.8,2.6
			c-0.1,0.2,0.1,0.6,0.2,0.8c0.5,0.6,1.1,1.2,1.6,1.7c4.5,4,9.3,7.5,14.7,10.4c1.9,0.9,3.9,1.7,5.9,2.4
			C69.5,108.4,73.5,110.1,77.4,109.5z M106.6,97.5c0.3,0,0.4,0,0.5,0c4.2-1.1,7.9-3.1,11.1-5.8c1.5-1.2,2.4-3.1,2.2-5.4
			c-2.1-0.7-4-0.5-5.6,0.5c-2.3,1.3-3.9,3.1-5.3,5.3c-0.9,1.5-1.7,3.1-2.5,4.6C106.8,96.9,106.8,97.1,106.6,97.5z M104.9,101.7
			c-0.1,0-0.2-0.1-0.3-0.1c-0.4,0.7-0.9,1.3-1.2,2.1c-1.4,3.2-2.1,6.6-1.9,10.1c0,0.8,0.3,1.7,0.5,2.5c0.1,0.4,0.4,0.7,0.6,1
			c0.1,0,0.2,0,0.3,0C105.6,112.3,105.2,107,104.9,101.7z"/>
	</g>
	<g>
		<path class="st0" d="M79,110.4c-3,0-5.8-0.7-8.7-1.2c-4.8-0.9-9.2-2.8-13.4-5.2c-4-2.3-7.9-4.9-11.4-7.9c-0.1-0.1-0.3-0.3-0.4-0.4
			C40.9,91,36.9,86.3,33.9,81c-2.6-4.6-5.3-9.2-6.8-14.3c-0.6-2.1-1.1-4.3-1.4-6.5c-0.4-2.8-0.7-5.7-0.6-8.6
			c0.7-6.1,2.1-11.5,5.4-16c3-4,6.7-7,11.2-9.2c2.3-1.1,4.8-1.9,7.3-2.4c1.7-0.4,3.5-0.6,5.3-0.4c1.5,0.2,3,0.2,4.5,0.4
			c2.3,0.3,4.5,1.2,6.7,2c2.9,1,5.4,2.6,7.9,4.3c3,2,5.7,4.2,8.2,6.8c2.4,2.4,4.6,5,6.8,7.5c2.2,2.5,4.2,5.1,5.7,8
			c1.6,3,3.2,5.9,4.6,8.9c1.8,3.8,2.9,7.7,3.5,11.8c0.3,2.2,0.4,4.5,0.7,6.7c-0.1,2.2-0.3,4.4-0.6,6.5c-0.6,3.7-1.7,7.3-3.4,10.7
			c-1.1,2.2-2.6,4.1-4.1,6c-1.3,1.7-3,3.1-4.8,4.2c-2.1,1.3-4.5,2-6.9,2.3C81.8,110.1,80.4,110.2,79,110.4z"/>
	</g>
	<g>
		<path class="st2" d="M48,90.3c-0.3-0.2-0.7-0.4-0.9-0.6c-1.4-2.1-2.8-4.1-4.2-6.2c0,0-0.1-0.1-0.1-0.1c-0.1-0.4-0.3-0.9,0.2-1.2
			c0.4-0.3,0.9-0.1,1.3,0.5c1.4,2,2.9,4.1,4.3,6.1c0.2,0.3,0.2,0.7,0.1,1C48.6,90,48.3,90.1,48,90.3z"/>
		<path class="st2" d="M80.6,107c-0.6,0-1.1,0-1.7,0c-0.3,0-0.6,0-0.9-0.1c-0.4-0.1-0.6-0.4-0.6-0.8c0.1-0.5,0.4-0.7,0.8-0.7
			c1.3-0.1,2.7-0.1,4-0.2c0.6,0,1.1-0.1,1.7-0.2c0.7,0,1.1,0.2,1.1,0.7c0.1,0.5-0.3,0.9-1,1C83,106.9,81.8,107,80.6,107
			C80.6,107.1,80.6,107,80.6,107z"/>
		<path class="st2" d="M55.2,93.9c0.3,0.1,0.6,0.2,0.7,0.3c1.4,1.1,2.8,2.2,4.1,3.3c0.5,0.4,0.6,1,0.3,1.3c-0.4,0.5-0.9,0.3-1.3,0
			c-1-0.7-1.9-1.5-2.8-2.3c-0.5-0.4-1.1-0.9-1.5-1.4c-0.2-0.2-0.2-0.6-0.1-0.8C54.6,94.2,55,94.1,55.2,93.9z"/>
		<path class="st2" d="M94.3,100c-0.2,0.5-0.3,0.9-0.5,1.2c-0.7,1-1.5,1.9-2.3,2.8c-0.2,0.3-0.6,0.5-0.9,0.6
			c-0.6,0.3-1.1,0.3-1.4-0.2c-0.3-0.6,0.1-0.8,0.5-1.1c1.2-0.9,2.3-2,2.9-3.5c0.2-0.4,0.5-0.8,0.9-0.6C93.8,99.3,94,99.7,94.3,100z"
			/>
		<path class="st2" d="M68.4,96.1c-0.4-0.1-0.7-0.2-0.9-0.3c-1.4-0.9-2.7-1.7-4-2.6c-0.4-0.3-0.6-0.7-0.3-1.2
			c0.3-0.4,0.7-0.3,1.1-0.2c0.3,0.1,0.5,0.3,0.7,0.5c1.1,0.7,2.3,1.4,3.4,2.1c0.1,0.1,0.3,0.1,0.3,0.2c0.1,0.3,0.4,0.6,0.3,0.8
			C68.9,95.7,68.6,95.9,68.4,96.1z"/>
		<path class="st2" d="M66.6,101.5c0.3,0.1,0.6,0.2,0.8,0.3c1.1,0.5,2.3,1.1,3.4,1.6c0.2,0.1,0.4,0.2,0.6,0.3c0.3,0.3,0.5,0.6,0.2,1
			c-0.2,0.2-0.6,0.4-0.9,0.4c-0.3,0-0.7-0.2-1-0.4c-1.1-0.6-2.2-1.2-3.3-1.7c-0.4-0.2-0.5-0.6-0.4-1
			C66.1,101.8,66.4,101.7,66.6,101.5z"/>
		<path class="st2" d="M54.6,83.8c0.1,0.1,0.5,0.2,0.7,0.4c0.7,0.7,1.4,1.4,2.2,2.1c0.1,0.1,0.2,0.2,0.3,0.4c0.4,0.6,0.4,1,0,1.3
			c-0.5,0.4-0.8,0.1-1.2-0.3c-0.8-0.7-1.6-1.5-2.3-2.2c-0.2-0.2-0.4-0.5-0.5-0.8C53.6,84.2,53.9,83.8,54.6,83.8z"/>
		<path class="st2" d="M84.1,99.9c-0.2-0.2-0.5-0.4-0.7-0.6c-0.2-0.4,0-0.7,0.4-0.9c0.8-0.5,1.5-1,2.3-1.4c0.3-0.1,0.6-0.2,0.9-0.2
			c0.6,0,0.9,0.6,0.5,1.1C86.7,98.8,85.6,99.5,84.1,99.9z"/>
		<path class="st2" d="M75.1,97.6c1.3,0.3,2.4,0.5,3.5,0.9c0.2,0.1,0.5,0.5,0.4,0.8c0,0.4-0.4,0.7-0.8,0.6c-1.1-0.2-2.1-0.4-3.1-0.7
			c-0.4-0.1-0.7-0.5-0.5-0.9C74.7,98,75,97.8,75.1,97.6z"/>
	</g>
</g>
</svg>
