<svg width="20" height="15" viewBox="0 0 20 15" fill="none" xmlns="http://www.w3.org/2000/svg">
<path d="M14.5 7.5C15.88 7.5 16.99 6.38 16.99 5C16.99 3.62 15.88 2.5 14.5 2.5C13.12 2.5 12 3.62 12 5C12 6.38 13.12 7.5 14.5 7.5ZM7 6.5C8.66 6.5 9.99 5.16 9.99 3.5C9.99 1.84 8.66 0.5 7 0.5C5.34 0.5 4 1.84 4 3.5C4 5.16 5.34 6.5 7 6.5ZM14.5 9.5C12.67 9.5 9 10.42 9 12.25V14.5H20V12.25C20 10.42 16.33 9.5 14.5 9.5ZM7 8.5C4.67 8.5 0 9.67 0 12V14.5H7V12.25C7 11.4 7.33 9.91 9.37 8.78C8.5 8.6 7.66 8.5 7 8.5Z" fill="#666666"/>
</svg>
