<!-- Generator: Adobe Illustrator 25.1.0, SVG Export Plug-In  -->
<svg version="1.1" xmlns="http://www.w3.org/2000/svg" xmlns:xlink="http://www.w3.org/1999/xlink" x="0px" y="0px" width="204.6px"
	 height="232.3px" viewBox="0 0 204.6 232.3" style="overflow:visible;enable-background:new 0 0 204.6 232.3;"
	 xml:space="preserve">
<style type="text/css">
	.st0{fill:#F2A7B2;}
	.st1{fill:#F6B7C2;}
	.st2{fill:#1E2C3E;}
</style>
<defs>
</defs>
<g>
	<path class="st0" d="M202.1,211.8c0,0.1,0,0.1-0.1,0.3c-0.8,1-5.7,3.9-16.4,5.2c-0.2,0-0.5,0.1-0.7,0.1c-0.7,0.1-3.3-9.5-4.2-12.5
		c-0.2-0.6-0.3-0.9-0.3-0.9l1.5-0.4l6.2-1.7l3.6-1l5.6-1.6l0.7-0.2c0,0,0.2,0.6,0.5,1.5C199.5,203.9,202,211.4,202.1,211.8z"/>
	<path class="st0" d="M25.7,210.5c0,0-0.6,1.4-1.4,3.4c-1.3,3.3-3.4,8-4.5,9.6c-0.3,0.4-0.8,0.6-1.6,0.7c-3.3,0.4-10.2-1.8-13.1-4.3
		c-1-0.9-1.6-1.9-1.2-2.8c0.9-2.4,2.2-6.5,3-9.3v0c0.6-2,1-3.5,1-3.5l0.7-1.6l1.3,0.6l14.9,6.9L25.7,210.5z"/>
	<path class="st1" d="M164.1,223c-2.8,3.8-17.2,8.5-41.6,9.2c-4.2,0.1-8.8,0.1-13.6,0c-32.6-1-72.1-5.5-72.7-12.1
		c-0.7-6.6,2.2-18.2,2.2-18.2l9,0.4l114.8,4.8C162.1,207.2,167.4,218.5,164.1,223z"/>
	<path class="st1" d="M198.4,200.7l-3.7,0.9l-14.2,3.3c-18.8-11.3-19.2-38.6-19.2-38.6c-3-3.6-5.3-7.8-7.2-12.3
		c-10.1-24.7-4.9-59.1-4.9-59.1c0.9-3.7,1.6-7.4,2.1-10.9c4.3-27.9-8.1-52.8-14.2-63.1c-1.9-3.2-3.2-5-3.2-5s8.6,1,18.4,5.2
		c9.6,4.2,20.4,11.5,25.6,24.2c10.2,25,7.7,49.4,7.7,49.4c19,26.5,8.2,57.3,8.2,57.3C214.9,176.1,198.4,200.7,198.4,200.7z"/>
	<path class="st0" d="M194.6,201.6l-14.2,3.3c-18.8-11.3-19.2-38.6-19.2-38.6c-19.3-23.2-12.1-71.4-12.1-71.4
		c0.9-3.7,1.6-7.4,2.1-10.9l7.2-3.8c1.3,12.4,3.3,21.1,3.3,21.1s-5,15.6-2.3,30.9c3,16.9,12.5,29.1,12.5,29.1
		S157.6,193.9,194.6,201.6z"/>
	<path class="st1" d="M162.5,207.2c0,0-53.3,17.2-112.5-1.3c-0.9-0.3-1.8-0.6-2.6-0.8c-2.9-0.9-5.7-2-8.6-3.1
		c0,0-5.8-32.3,16.4-52.7c0,0,2.7-33.5,8-48.1l1.9-15l0.4-3.1c0,0,0,0,0,0l7.7-60.5c0,0,1.6-4.7,12.3-9.9l34.2,10.2l14.6-6.9
		c0,0,7,1.5,11.2,6.9c2.7,3.6,25.8,34.5,6.8,80.9c0,0,6.9,29.6,1.3,55C153.6,158.8,165.8,180.1,162.5,207.2z"/>
	<path class="st0" d="M71.3,125.9c-1.7,22.3-10.5,30.4-10.5,30.4s7.4,30.9-11.2,48.6c-0.7-0.2-1.6-0.1-2.6,0.1
		c-2.9-0.9-5.7-2-8.6-3.1c0,0-9.1-36.7,13.1-57.2c0,0,6-29,11.4-43.7l1.9-15C67.8,105.3,72.5,110.4,71.3,125.9z"/>
	<path class="st1" d="M97.8,21.1c-5.9-3.5-11-7.2-12.4-8.2c-0.2-0.2-0.4-0.3-0.4-0.3S85,8.7,86,5.2c0.7-2.4,2-4.7,4.2-5.1
		c5.3-1.1,26.4,5.7,29,22.7C120.8,33,108.2,27.3,97.8,21.1z"/>
	<path class="st1" d="M133.9,15.9c0,0-2.5,3.9-5.5,7c-3.5,3.6-7.7,6.2-9.2-0.1c-2.8-11.6,6.1-22.2,10-19.7c1.8,1.1,2.9,3.8,3.6,6.5
		C133.7,12.8,133.9,15.9,133.9,15.9z"/>
	<path class="st1" d="M85.2,17.7c-2.5,16.2-16.6,66-18.5,79c-0.4,2.4-0.6,3.7-0.6,3.7s1.1,11.7-3.2,27.9c-2.1,7.9-5.4,14.9-8.1,19.9
		c-0.4,0.8-0.8,1.5-1.2,2.1c-2,3.4-3.4,5.4-3.4,5.4s3,8.2-3.6,25.6C35.6,210.2,23,217.7,23,217.7l-17.8-6.3
		c-15.8-35.7,8.9-63.1,8.9-63.1C2.3,114.5,27.6,92.9,27.6,92.9C21,76.5,31.5,44.2,46.4,31c8.6-7.6,18.6-12.4,26.4-15.1l0,0
		c0,0,0,0,0,0c0,0,0,0,0,0c5.7-2,10.3-3,12.3-3.3c0.1,0,0.2,0,0.2,0.1c0,0,0.1,0.1,0.1,0.2C85.7,13.5,85.6,15.2,85.2,17.7z"/>
	<path class="st2" d="M55.6,202.2l-0.1-0.5c15.5-3.9,23.7-13.4,27.8-20.7c4.5-7.9,5.3-14.9,5.3-15l0.5,0.1c0,0.1-0.8,7.2-5.4,15.2
		C79.6,188.7,71.3,198.3,55.6,202.2z"/>
	<path class="st2" d="M162.5,199.3c-12.2-9.3-14.9-32.9-14.9-33.2l0.5-0.1c0,0.2,2.6,23.7,14.7,32.8L162.5,199.3z"/>
	<path class="st0" d="M72.8,15.9C72.8,15.9,72.8,15.9,72.8,15.9C72.8,15.9,72.8,15.9,72.8,15.9L72.8,15.9z"/>
	<path class="st0" d="M97.8,21.1c-1.9-0.5-4-1-6-1.6c-2.5-0.7-4.7-1.3-6.6-1.8c-2.8-0.7-4.9-1.1-6.6-1.4c-4.3-0.7-5.6-0.5-5.8-0.4
		c5.7-2,10.3-3,12.3-3.3c0,0-0.1-3.9,1-7.4c2.5,5,7.8,8.8,13.3,11.6c6.1,3.1,12.6,5,15.7,6C120.7,24.5,111,24.2,97.8,21.1z"/>
	<path class="st0" d="M152.3,21.1c-3.1-0.9-6.5-1.1-9.8-0.9c-1.9,0.1-3.7,0.4-5.5,0.7c-3.3,0.6-6.3,1.4-8.7,2
		c-2.5,0.7-3.8,0.5-4.2,0.3c-0.9-0.4,1.4-1.8,4.2-4.7c2.4-2.5,4.7-5.7,4.5-9c0,0,0,0,0,0c0.8,3.2,1.1,6.4,1.1,6.4
		S142.5,16.9,152.3,21.1z"/>
	<path class="st2" d="M122.1,36.1L122.1,36.1c-1.1,0.2-2.1-0.5-2.2-1.6l-1.3-11c-0.1-0.5,0.3-1,0.8-1.1l0,0c0.5-0.1,1,0.2,1.2,0.7
		l3,10.6C123.8,34.8,123.2,35.9,122.1,36.1z"/>
	<path class="st0" d="M119.7,48.5c-40.8,0-81.6-6-82.2-6.1l0.2-1.5c0.9,0.1,92.4,13.6,138.2,0l0.4,1.4
		C160.9,46.9,140.3,48.5,119.7,48.5z"/>
	<path class="st0" d="M114.6,106.3c-32.7,0-47.2-4.6-48.6-5.1c-2.1-0.1-26.3-1.4-38.8-7.6l0.7-1.3c12.5,6.2,38,7.5,38.3,7.5l0.1,0
		l0.1,0c0.2,0.1,24.5,8.6,85.8,3.3l0.1,1.5C137.7,105.8,125.2,106.3,114.6,106.3z"/>
	<path class="st0" d="M50.3,156.4c-16.9-0.6-36.2-7.5-36.4-7.5l0.5-1.4c0.2,0.1,19.3,6.9,35.9,7.4L50.3,156.4z"/>
	<path class="st0" d="M155.3,102.8l-0.1-1.5c17.9-1.5,30-7.1,30.1-7.1l0.6,1.3C185.8,95.5,173.5,101.3,155.3,102.8z"/>
	<path class="st0" d="M164,163.6l-0.1-1.5c11.1-0.7,29.4-10.6,29.6-10.7l0.7,1.3C193.4,153.1,175.4,162.9,164,163.6z"/>
	<path class="st0" d="M116,161.6c-35.4,0-62.1-5.1-62.5-5.1l0.3-1.5c0.5,0.1,47.5,9,99.7,3.1l0.2,1.5
		C140.6,161,127.8,161.6,116,161.6z"/>
	<path class="st0" d="M108.1,214.2c-13.7,0-25.5-1.2-34.8-2.6c-21.9-3.4-35.1-8.8-35.3-8.9l0.6-1.4c0.1,0.1,13.3,5.5,35,8.8
		c20,3.1,51.7,4.9,88.7-3.6l0.3,1.4C142.6,212.6,124.1,214.2,108.1,214.2z"/>
	<path class="st2" d="M126.8,232.3l-1,0l0-15.3c2.3-8.9,1.7-30.1,0.9-56.9c-0.5-18.3-1.1-39-0.9-60c0.5-51.1-7-76.9-7-77.2l0.9-0.3
		c0.1,0.3,7.6,26.2,7.1,77.4c-0.2,21,0.4,41.7,0.9,60c0.8,26.8,1.4,48.1-0.9,57.1L126.8,232.3z"/>
</g>
</svg>
