<svg width="148" height="180" viewBox="0 0 148 180" fill="none" xmlns="http://www.w3.org/2000/svg">
<g clip-path="url(#clip0)">
<path d="M90.7959 108.376C84.5747 108.376 81.0797 111.478 77.0965 111.532C77.039 111.532 76.9816 111.532 76.9242 111.532C70.5793 111.532 63.6644 106.842 61.4419 101.004C58.4617 93.1719 64.252 85.8928 69.8502 78.8513C75.4506 71.8076 79.9773 64.6306 78.5214 56.481C78.0686 53.9407 73.6479 45.4114 72.7355 39.5268C71.7126 32.9405 75.9079 25.9257 75.1413 20.3209C74.3747 14.7161 70.4401 11.1343 68.6307 7.66796C65.297 1.28154 53.5572 -2.02048 48.9001 1.56577C42.7894 6.27121 51.7257 20.6385 44.8086 27.4424C39.3319 32.8317 30.9921 26.5097 25.5574 31.8369C19.1595 38.1079 28.151 49.384 21.2251 61.6195C17.1469 68.8275 12.4125 67.7683 10.3977 74.5589C8.26357 81.7536 13.1924 84.2407 13.2851 95.5546C13.3625 104.968 9.96689 105.654 10.1569 115.329C10.2629 120.598 10.4375 129.461 15.934 134.368C23.7171 141.319 35.4437 134.522 38.7929 139.496C43.0015 145.742 25.2371 161.231 29.1673 167.326C31.1932 170.471 37.0012 167.964 52.7486 166.838C67.6631 165.772 79.0053 164.961 92.212 168.059C100.276 169.949 107.049 172.831 108.576 170.5C110.31 167.848 102.77 162.259 104.484 157.072C106.406 151.258 117.512 153.35 119.644 148.527C127.869 128.382 106.72 118.378 103.112 115.502C99.5047 112.629 97.0171 108.376 90.7959 108.376Z" fill="#FADAC6"/>
<path d="M79.2838 38.4997C79.9686 42.9075 81.2986 44.8794 82.7103 46.969C84.069 48.9831 85.6088 51.2636 86.3113 55.1963C88.2996 66.3193 81.2478 75.1861 75.0288 83.0092C70.1884 89.0959 66.0085 94.352 67.6345 98.6222C69.0042 102.222 73.6458 104.869 76.9287 104.869C76.9552 104.869 76.984 104.869 77.0105 104.869C78.7955 104.844 79.9797 104.038 81.9216 102.615C83.9452 101.131 86.466 99.284 90.1974 99.1063C90.3962 99.0974 90.5928 99.093 90.7894 99.093C96.0275 99.093 100.567 104.187 107.036 104.187C114.002 104.187 135.007 98.5689 137.457 87.2528C140.064 75.215 119.346 63.881 123.742 48.1926C125.108 43.3206 127.427 43.2762 128.313 38.1843C130.193 27.3767 122.368 12.481 111.949 9.86511C100.455 6.98056 87.2989 17.0643 83.4614 21.9696C80.3928 25.8845 78.4862 33.3568 79.2838 38.4997Z" fill="#AA6451"/>
<path d="M69.9099 78.7618C67.2633 82.0905 64.5724 85.4725 62.7874 88.9433C62.9752 76.337 74.9823 68.5027 72.5058 54.9549C70.7561 45.3885 63.5363 44.1206 64.4797 34.8829C65.2374 27.475 70.1596 24.4017 68.5866 18.566C66.7419 11.7221 58.0464 8.7865 56.4557 8.24912C52.8193 7.02113 49.4215 6.93675 46.6865 7.25207C46.7263 4.82941 47.2631 2.7798 48.9576 1.47631C53.6147 -2.10995 65.3545 1.18986 68.6904 7.5785C70.4998 11.0448 74.4322 14.6267 75.1988 20.2314C75.9654 25.8362 71.7723 32.8511 72.793 39.4374C73.7076 45.3219 78.1261 53.8512 78.579 56.3916C80.0348 64.5389 75.5103 71.7159 69.9099 78.7618Z" fill="#FFDDC4"/>
<path d="M137.855 87.1648C137.183 90.2714 135.111 92.9495 132.314 95.1989C133.821 92.119 134.705 88.7126 134.243 85.1552C133.834 81.9931 132.621 80.694 128.645 74.2765C120.323 60.8419 115.56 53.9159 116.702 48.391C118.029 41.9669 122.945 40.1571 122.673 33.7596C122.196 22.5211 110.887 16.7809 108.863 15.755C103.977 13.2724 99.1162 12.7483 95.0977 12.9815C100.331 10.1657 106.55 8.32265 112.347 9.77714C122.764 12.3908 130.589 27.2887 128.711 38.0964C127.825 43.1882 125.503 43.2326 124.138 48.1046C119.744 63.7931 140.46 75.127 137.855 87.1648Z" fill="#D18A7C"/>
</g>
<defs>
<clipPath id="clip0">
<rect width="128.219" height="171.37" fill="white" transform="translate(9.86328)"/>
</clipPath>
</defs>
</svg>
