<svg width="216" height="170" viewBox="0 0 216 170" fill="none" xmlns="http://www.w3.org/2000/svg">
<path d="M124.926 94.1064C124.633 95.2383 124.308 96.3702 123.959 97.502C123.367 99.4015 122.734 101.277 122.056 103.126C121.978 103.338 121.901 103.547 121.82 103.756C121.044 105.831 120.207 107.874 119.308 109.881C117.833 113.181 116.185 116.392 114.345 119.51C112.723 122.266 110.949 124.948 109.017 127.561C103.372 135.189 95.8971 141.649 87.2123 145.358C85.4742 146.102 83.6882 146.735 81.8575 147.243C70.888 150.292 58.3476 148.497 49.5254 141.299C40.7032 134.099 38.1318 122.012 38.1318 110.625C38.1318 100.444 42.7639 91.9322 49.3701 87.1836C52.046 85.2603 55.9614 84.3076 60.023 83.4475C61.0116 83.2354 62.0091 83.0323 62.9976 82.8173C67.4027 81.8766 71.6675 80.7835 74.4181 78.4361C74.7824 78.1225 75.1229 77.788 75.4305 77.4296C75.5171 77.3311 75.6007 77.2295 75.6844 77.128C81.6186 70.0111 83.0671 60.9381 88.7862 53.5972C90.8977 50.8914 95.0311 47.7108 98.0863 46.1458C111.666 39.1813 124.648 49.5027 126.849 63.8529C128.143 72.263 127.811 83.11 124.926 94.1064Z" fill="#353535"/>
<path d="M72.0201 74.1835L62.9979 82.8175C62.0093 83.0325 61.0118 83.2356 60.0233 83.4477C55.5913 75.9097 47.7815 62.6346 43.5078 55.4102C37.3108 44.9335 35.5039 23.9412 34.2944 18.1384C33.5358 14.4919 32.1023 12.6044 30.7195 10.9259L28.5812 8.05888C28.5603 8.02305 28.5364 7.98721 28.5155 7.95436L28.5065 7.93942C27.9391 6.83142 28.1003 5.4845 28.9366 4.56167C29.6772 3.74336 30.621 2.86234 31.8006 2.03806H31.8036C31.9709 1.92158 32.1411 1.80809 32.3084 1.70058C33.0072 1.24663 33.6911 0.879286 34.3422 0.577647C34.6498 0.434294 34.9514 0.305874 35.2381 0.192386C35.2471 0.189399 35.2561 0.183426 35.265 0.18044C36.5582 -0.333242 38.0216 0.287954 38.58 1.56021C39.028 2.58459 39.5387 3.72843 39.8583 4.37352C40.5571 5.79211 41.1455 7.95436 41.2171 8.41129C41.7577 11.8338 41.0619 13.805 41.4382 14.7965C41.8174 15.785 52.3808 40.9196 56.4365 47.2421C59.0288 51.2798 66.7698 64.8864 72.0201 74.1835Z" fill="#E4C8AC"/>
<path d="M28.5811 8.05859L30.7194 10.9257C29.9489 9.99386 29.1963 9.12777 28.5811 8.05859Z" fill="#E4C8AC"/>
<path d="M77.1621 83.3194L63.3285 89.0654C63.3285 89.0654 62.3758 87.4438 60.8587 84.8664C60.5989 84.4214 60.3181 83.9465 60.0225 83.4478C61.011 83.2357 62.0085 83.0327 62.997 82.8176L72.0193 74.1836C72.9003 75.7455 73.7127 77.1851 74.4175 78.4364C76.087 81.402 77.1621 83.3194 77.1621 83.3194Z" fill="#E4C8AC"/>
<path d="M192.141 44.3664C191.926 44.7188 191.687 45.11 191.412 45.5222C191.4 45.5431 191.388 45.564 191.373 45.5849C191.215 45.8238 191.048 46.0687 190.869 46.3196C190.242 47.1916 189.489 48.0995 188.596 48.9059C186.084 51.1727 182.363 54.9536 182.363 54.9536C181.518 56.4439 177.349 64.3223 172.591 73.249C172.597 73.255 161.837 90.7083 161.099 91.3892C160.26 92.1687 149.941 99.8351 140.674 106.686C132.853 112.468 125.78 117.671 125.78 117.671L121.82 103.756V103.753L121.716 103.383L122.056 103.126V103.123L134.125 93.9815L151.823 80.572C152.378 79.8194 158.077 72.7533 163.27 65.6245C163.273 65.6274 163.273 65.6274 163.273 65.6274C166.314 61.1835 176.16 48.9925 176.181 48.1025C176.199 47.1677 177.28 43.7422 179.424 40.6153C179.568 40.4063 179.774 40.1136 180.055 39.7134C180.058 39.7104 180.061 39.7074 180.061 39.7014C180.293 39.3699 180.577 38.9608 180.912 38.462C180.915 38.459 180.915 38.4561 180.918 38.4561C182.059 37.0793 183.635 35.9892 184.749 35.377C187.264 38.459 188.88 41.9592 192.108 44.3425C192.12 44.3515 192.129 44.3574 192.141 44.3664Z" fill="#E4C8AC"/>
<path d="M97.3066 115.69C97.3066 115.69 100.341 103.365 132.551 90.9316L141.788 108.848C139.043 111.076 135.809 113.441 132.067 115.759C128.468 117.987 125.039 119.775 121.928 121.209C113.721 119.369 105.514 117.53 97.3066 115.69Z" fill="#E9EFC6"/>
<path d="M96.3869 95.4279C96.3869 95.4279 83.3239 94.5977 78.1572 100.218C72.9905 105.839 89.6194 150.308 90.5602 157.461C90.7597 158.978 90.5279 160.815 90.0386 162.768C91.2974 167.84 106.053 169.224 106.053 169.224C106.053 169.224 112.047 169.685 118.502 167.84C118.502 167.84 121.269 167.379 126.748 160.463C126.279 145.529 125.695 129.999 125.228 127.449C124.287 122.339 116.459 101.556 114.578 99.5135C112.696 97.4707 96.3869 95.4279 96.3869 95.4279Z" fill="#F2F6DA"/>
<path d="M100.736 78.0065C100.736 78.0065 100.667 78.3918 100.547 79.0428C99.9651 82.1757 97.7222 92.5747 96.2081 95.4328C94.3773 98.8882 102.477 109.903 110.272 108.559C112.592 108.158 108.309 98.4373 108.516 97.4069C108.91 95.4358 109.444 92.745 109.991 89.9884C110.298 88.4324 110.612 86.8555 110.905 85.3742C111.738 81.1603 112.419 77.7168 112.419 77.7168L100.736 78.0065Z" fill="#E4C8AC"/>
<path d="M100.548 79.0448C100.67 78.3907 100.736 78.0084 100.736 78.0084L112.416 77.7188C112.416 77.7188 111.735 81.1652 110.902 85.3762C110.609 86.8515 110.299 88.4195 109.994 89.9665C108.19 89.7007 106.306 88.8256 104.418 87.1771C102.358 85.3762 101.008 83.214 100.192 80.9054C100.336 80.1647 100.458 79.5286 100.548 79.0448Z" fill="#CCA386"/>
<path d="M108.599 51.5079C108.599 51.5079 103.092 50.8718 99.6426 55.3277C96.1902 59.7836 92.4719 73.5574 101.046 81.0476C109.621 88.5378 118.09 80.0591 119.348 71.0697C120.599 62.0802 121.089 51.1824 108.599 51.5079Z" fill="#E4C8AC"/>
<path d="M121.881 70.9406C120.856 72.9267 119.139 74.0257 118.043 73.3956C116.947 72.7654 116.89 70.648 117.912 68.6619C118.936 66.6759 120.653 65.5768 121.749 66.207C122.845 66.8342 122.902 68.9546 121.881 70.9406Z" fill="#E4C8AC"/>
<path d="M109.214 50.0332C109.214 50.0332 101.858 63.1351 96.5957 63.7384C91.3334 64.3447 90.6436 71.3033 90.6436 71.3033C90.6436 71.3033 92.5251 55.2626 97.7336 52.1686C102.942 49.0805 109.214 50.0332 109.214 50.0332Z" fill="#353535"/>
<path d="M97.9759 67.0354C98.4029 69.3619 97.5428 71.4943 96.0525 71.8019C94.5623 72.1065 93.0093 70.4699 92.5792 68.1434C92.1521 65.8169 93.0123 63.6845 94.5025 63.3769C95.9928 63.0693 97.5488 64.7089 97.9759 67.0354Z" fill="#E4C8AC"/>
<path d="M83.5809 121.323C82.455 121.397 81.1201 120.654 79.6656 119.334C71.4706 111.897 59.4678 86.1983 59.4678 86.1983L60.8595 84.8663L62.9978 82.8175L72.0201 74.1835L72.5487 73.6758C72.5487 73.6758 73.7941 75.0108 75.6846 77.1282C79.6328 81.5483 86.3972 89.3789 90.5306 95.57C92.0358 97.8278 93.1916 99.8646 93.7321 101.441C96.4738 109.415 91.0592 120.824 83.5809 121.323Z" fill="#F2F6DA"/>
<path d="M52.0756 28.0104C52.2996 28.0224 52.4937 27.8522 52.4997 27.6252C52.5415 26.4395 52.6161 22.8079 52.1532 18.6656C51.3917 11.8504 49.6147 6.95546 46.8701 4.11827C45.0214 2.20689 42.7457 1.26912 40.0966 1.32886C36.2172 1.41845 33.1052 2.68772 30.8444 5.10083C26.0062 10.2675 25.6717 19.9259 26.0331 28.7869C26.0421 29.0109 26.2302 29.1812 26.4542 29.1722C26.6752 29.1632 26.8454 28.9781 26.8365 28.7571C26.4841 20.0633 26.7947 10.605 31.4327 5.65334C33.5681 3.37164 36.4083 2.22182 40.1146 2.13522C42.5277 2.08146 44.6033 2.9356 46.2907 4.67973C52.0188 10.605 51.7829 25.0329 51.6933 27.5983C51.6873 27.8163 51.8546 27.9985 52.0756 28.0104Z" fill="#2B2B2B"/>
<path d="M5.60272 23.6092L2.82525 20.0762L0 96.1996L5.5848 93.4072L10.184 97.8004L5.60272 23.6092Z" fill="#588074"/>
<path d="M68.9737 16.3262L2.8252 20.0743L10.184 97.7985L73.9701 94.5372L68.9737 16.3262Z" fill="#84A394"/>
<path d="M51.8137 28.8109C52.3393 28.8945 52.85 28.4286 52.9545 27.7686C53.0591 27.1116 52.7156 26.5113 52.19 26.4277C51.6644 26.3441 51.1537 26.8099 51.0491 27.47C50.9446 28.127 51.2851 28.7273 51.8137 28.8109Z" fill="#F0F0F0"/>
<path d="M26.4371 30.382C26.9687 30.3909 27.4107 29.8563 27.4197 29.1903C27.4286 28.5244 27.0045 27.9778 26.4729 27.9689C25.9413 27.9599 25.4993 28.4945 25.4904 29.1605C25.4814 29.8265 25.9055 30.373 26.4371 30.382Z" fill="#F0F0F0"/>
<path d="M52.0756 28.0104C52.2996 28.0224 52.4937 27.8522 52.4997 27.6252C52.5415 26.4395 52.6161 22.8079 52.1532 18.6656C51.3917 11.8504 49.6147 6.95546 46.8701 4.11827C45.0214 2.20689 42.7457 1.26912 40.0966 1.32886C36.2172 1.41845 33.1052 2.68772 30.8444 5.10083C26.0062 10.2675 25.6717 19.9259 26.0331 28.7869C26.0421 29.0109 26.2302 29.1812 26.4542 29.1722C26.6752 29.1632 26.8454 28.9781 26.8365 28.7571C26.4841 20.0633 26.7947 10.605 31.4327 5.65334C33.5681 3.37164 36.4083 2.22182 40.1146 2.13522C42.5277 2.08146 44.6033 2.9356 46.2907 4.67973C52.0188 10.605 51.7829 25.0329 51.6933 27.5983C51.6873 27.8163 51.8546 27.9985 52.0756 28.0104Z" fill="#2B2B2B"/>
<path d="M196.113 60.2833C196.316 60.2952 196.487 60.1399 196.496 59.9368C196.534 58.8706 196.6 55.6064 196.185 51.8852C195.501 45.7568 193.903 41.3577 191.436 38.8072C189.776 37.0899 187.727 36.2448 185.35 36.3015C181.865 36.3821 179.066 37.523 177.032 39.6912C172.684 44.3353 172.382 53.0201 172.705 60.9821C172.714 61.1822 172.884 61.3375 173.081 61.3286C173.281 61.3196 173.434 61.1524 173.425 60.9552C173.108 53.1395 173.389 44.6369 177.555 40.184C179.475 38.1322 182.029 37.0989 185.359 37.0213C187.527 36.9705 189.394 37.741 190.911 39.3089C196.06 44.6339 195.848 57.6044 195.767 59.91C195.764 60.1071 195.916 60.2713 196.113 60.2833Z" fill="#2B2B2B"/>
<path d="M154.338 56.3231L151.838 53.1484L149.3 121.579L154.32 119.07L158.453 123.018L154.338 56.3231Z" fill="#AFB878"/>
<path d="M211.304 49.7793L151.839 53.1481L158.454 123.018L215.795 120.085L211.304 49.7793Z" fill="#CFD59F"/>
<path d="M195.878 61.0006C196.35 61.0753 196.81 60.6572 196.903 60.0628C196.995 59.4715 196.688 58.9309 196.213 58.8563C195.738 58.7816 195.281 59.1997 195.188 59.7941C195.096 60.3854 195.403 60.9259 195.878 61.0006Z" fill="#F0F0F0"/>
<path d="M173.066 62.4144C173.544 62.4203 173.941 61.9425 173.95 61.3422C173.959 60.7449 173.577 60.2521 173.099 60.2461C172.621 60.2402 172.224 60.718 172.215 61.3183C172.206 61.9156 172.585 62.4084 173.066 62.4144Z" fill="#F0F0F0"/>
<path d="M196.113 60.2833C196.316 60.2952 196.487 60.1399 196.496 59.9368C196.534 58.8706 196.6 55.6064 196.185 51.8852C195.501 45.7568 193.903 41.3577 191.436 38.8072C189.776 37.0899 187.727 36.2448 185.35 36.3015C181.865 36.3821 179.066 37.523 177.032 39.6912C172.684 44.3353 172.382 53.0201 172.705 60.9821C172.714 61.1822 172.884 61.3375 173.081 61.3286C173.281 61.3196 173.434 61.1524 173.425 60.9552C173.108 53.1395 173.389 44.6369 177.555 40.184C179.475 38.1322 182.029 37.0989 185.359 37.0213C187.527 36.9705 189.394 37.741 190.911 39.3089C196.06 44.6339 195.848 57.6044 195.767 59.91C195.764 60.1071 195.916 60.2713 196.113 60.2833Z" fill="#2B2B2B"/>
<path d="M56.6541 67.2014C56.7317 67.3089 56.657 67.4552 56.5227 67.4642L49.0892 67.9361C49.0265 67.939 48.9697 67.9152 48.9369 67.8614L46.0549 63.5399C46.0071 63.4593 46.028 63.3517 46.1027 63.298L51.4784 59.7231C51.5591 59.6694 51.6666 59.6903 51.7144 59.7709L56.6541 67.2014Z" fill="white"/>
<path d="M56.7915 67.9443C56.911 67.9353 57.0036 68.0578 56.9617 68.1713L54.6054 74.7864C54.5815 74.8521 54.5218 74.8969 54.459 74.8999L46.2192 75.4225C46.1296 75.4285 46.055 75.5091 46.0609 75.6017L46.2371 78.3732C46.2461 78.5345 46.055 78.6181 45.9504 78.5046L39.9057 72.5346C39.846 72.4689 39.84 72.3703 39.8908 72.3046L45.1321 65.6118C45.2217 65.4923 45.4248 65.5521 45.4338 65.7133L45.61 68.4848C45.616 68.5744 45.6966 68.6491 45.7892 68.6431L56.7915 67.9443Z" fill="white"/>
<path d="M35.7366 69.4916L36.1458 75.9305C36.1518 76.0291 36.0801 76.1037 35.9875 76.1097L27.0847 76.6742C26.9503 76.6831 26.8577 76.5487 26.9145 76.4323L30.2295 69.7574C30.2534 69.7006 30.3071 69.6678 30.3699 69.6648L35.5575 69.3363C35.647 69.3303 35.7307 69.402 35.7366 69.4916Z" fill="white"/>
<path d="M26.3707 76.4215C26.3139 76.538 26.1616 76.5529 26.084 76.4603L21.5355 71.1115C21.4907 71.0577 21.4788 70.9801 21.5086 70.9233L25.1731 63.5287C25.2179 63.4481 25.182 63.3465 25.0954 63.3017L22.6077 62.0683C22.4703 61.9996 22.4912 61.7935 22.6375 61.7487L30.8385 59.5059C30.9221 59.479 31.0087 59.5238 31.0416 59.6044L34.2193 67.4858C34.279 67.6292 34.1237 67.7726 33.9803 67.7039L31.4926 66.4704C31.4119 66.4256 31.3104 66.4615 31.2656 66.5481L26.3707 76.4215Z" fill="white"/>
<path d="M38.1798 52.3067C38.2186 52.3545 38.2216 52.4232 38.1918 52.474L35.8862 57.1329C35.8414 57.2196 35.7398 57.2554 35.6592 57.2106L29.8773 54.3435C29.7907 54.2987 29.7548 54.1972 29.7996 54.1166L33.7628 46.1186C33.8195 46.0022 33.9867 45.9932 34.0554 46.1007L38.1798 52.3067Z" fill="white"/>
<path d="M38.1553 56.9002C38 56.8763 37.9522 56.6733 38.0806 56.5896L40.3952 55.0516C40.4758 54.9978 40.4967 54.8903 40.4429 54.8097L34.3445 45.6381C34.2758 45.5365 34.3355 45.3932 34.455 45.3722L41.3598 44.106C41.4285 44.094 41.4942 44.1269 41.533 44.1806L46.1024 51.0526C46.1562 51.1332 46.2637 51.1542 46.3443 51.1004L48.6589 49.5623C48.7873 49.4757 48.9545 49.5922 48.9157 49.7505L46.7594 57.9694C46.7355 58.047 46.6549 58.1038 46.5713 58.0948L38.1553 56.9002Z" fill="white"/>
<path d="M28.5811 8.0577L29.6502 9.61666L39.0309 2.57444L38.1379 0.869141L31.8543 3.33302L28.5811 8.0577Z" fill="#E4C8AC"/>
<path d="M192.386 43.8552C192.35 43.9179 192.218 44.1479 192.108 44.342C191.848 44.7989 191.621 45.1902 191.412 45.5217C191.4 45.5426 191.388 45.5635 191.373 45.5844C191.194 45.8711 191.03 46.113 190.869 46.3191C190.636 46.6177 190.412 46.8357 190.17 47C187.225 48.9621 180.066 46.5401 179.493 42.4336C179.362 41.4809 179.6 40.564 180.054 39.7129C180.057 39.7099 180.06 39.7069 180.06 39.7009C180.296 39.2679 180.586 38.8528 180.912 38.4615C180.915 38.4585 180.915 38.4556 180.917 38.4556C181.216 38.0822 181.658 37.5805 182.249 37.0549C182.674 36.6786 183.623 35.8394 184.749 35.3765C186.248 34.7582 188.228 34.7463 189.946 35.5825C192.123 36.6457 193.864 39.0648 193.547 40.9045C193.41 41.6989 192.741 43.2221 192.386 43.8552Z" fill="#E4C8AC"/>
<path d="M175.081 84.6677L175.451 92.9954L166.585 84.4847L167.107 96.2331L168.465 96.1727L168.095 87.8449L176.962 96.3557L176.44 84.6073L175.081 84.6677ZM180.252 95.6489L185.894 95.3982L185.838 94.1195L180.195 94.3702L180.252 95.6489ZM179.812 85.7387L185.454 85.488L185.397 84.2093L179.755 84.46L179.812 85.7387ZM180.01 90.2143L185.333 89.9778L185.276 88.6991L179.954 88.9356L180.01 90.2143ZM179.003 84.4934L179.501 95.6823L180.859 95.622L180.362 84.433L179.003 84.4934ZM198.116 91.8922L194.4 83.2487L191.53 92.1849L188.191 84.0851L186.673 84.1526L191.59 95.7057L194.561 86.8611L198.304 95.4074L202.177 83.4636L200.659 83.5311L198.116 91.8922Z" fill="white"/>
</svg>
