<!-- Generator: Adobe Illustrator 25.1.0, SVG Export Plug-In  -->
<svg version="1.1" xmlns="http://www.w3.org/2000/svg" xmlns:xlink="http://www.w3.org/1999/xlink" x="0px" y="0px" width="199.2px"
	 height="197.3px" viewBox="0 0 199.2 197.3" style="overflow:visible;enable-background:new 0 0 199.2 197.3;"
	 xml:space="preserve">
<style type="text/css">
	.st0{fill:#FACCB5;}
	.st1{fill:#E2DFDF;}
	.st2{fill:#EAEAEA;}
	.st3{fill:#499188;}
	.st4{fill:#2B6061;}
	.st5{fill:#2C3840;}
	.st6{fill:#CAC8C8;}
	.st7{fill:#DCDAD8;}
	.st8{fill:#6A1E34;}
	.st9{fill:#5D1B2E;}
</style>
<defs>
</defs>
<g>
	<g>
		<g>
			<path class="st0" d="M171.9,19.3c0,0,8,23.6,10.7,47.7c2.7,24.1,6.1,40,5.2,44.3c-0.9,4.4-8.5,22.3-26.3,9.8
				c-3.1-2.2-15.3-55.3-15.9-60.3C144.9,55.9,139.2,4.9,171.9,19.3z"/>
		</g>
	</g>
</g>
<g>
	<g>
		<g>
			<path class="st0" d="M41.4,16.5c0,0-9.2,22.9-13.9,46.7c-4.7,23.8-9.4,39.3-8.9,43.7c0.6,4.4,6.7,22.9,25.4,12
				c3.3-1.9,19.8-53.8,20.8-58.8C65.9,55.2,75.1,4.8,41.4,16.5z"/>
		</g>
	</g>
</g>
<g>
	<g>
		<g>
			<path class="st1" d="M162.2,15.5c2.4-0.1,16.3,1,18.2,9.7c1.9,8.7,10.4,88,10.4,88s-1.5,5.6-15.2,9.2c-11.5,3-17.2-6-17.2-6
				s-13.5-70-15.5-79.3C140.9,27.9,157.5,15.7,162.2,15.5z"/>
		</g>
	</g>
</g>
<g>
	<g>
		<g>
			<path class="st1" d="M170.7,96c12-3.2,19.1,9.3,19.8,15.7c0.7,6.6,6.7,68.6,6.7,68.6l-28,5.1c0,0-9-55.2-10.6-61.8
				C157.1,117,156.5,99.7,170.7,96z"/>
		</g>
	</g>
</g>
<g>
	<g>
		<g>
			<path class="st2" d="M168.5,183.4l1.6,13.9c0,0,28.2-1.8,28.9-3.6c0.6-1.8,0.1-15.2,0.1-15.2S169.9,182.5,168.5,183.4z"/>
		</g>
	</g>
</g>
<g>
	<g>
		<g>
			<path class="st3" d="M56,11c-2.3-0.4-16.1,0.1-19,8.6C34.1,28,17,105.8,17,105.8s0.9,5.7,14.1,10.8c11.1,4.2,17.8-4,17.8-4
				S70,44.5,73,35.6C76,26.6,60.6,11.7,56,11z"/>
		</g>
	</g>
</g>
<path class="st3" d="M3.2,171.9l27.3,8.1c0,0,15.1-53.9,17.3-60.3c2.3-6.4,4.7-23.5-8.9-28.8c-11.6-4.5-20,7.2-21.4,13.5
	C16,110.9,3.2,171.9,3.2,171.9"/>
<path class="st4" d="M1.6,169.8c0,0,28.5,7.1,29.8,8.2l-3.1,13.6c0,0-27.9-4.9-28.3-6.8"/>
<g>
	<g>
		<g>
			<path class="st3" d="M162.2,15.5c2.4-0.1,16.3,1,18.2,9.7c1.9,8.7,10.4,88,10.4,88s-1.5,5.6-15.2,9.2c-11.5,3-17.2-6-17.2-6
				s-13.5-70-15.5-79.3C140.9,27.9,157.5,15.7,162.2,15.5z"/>
		</g>
	</g>
</g>
<g>
	<g>
		<g>
			<path class="st3" d="M170.7,96c12-3.2,19.1,9.3,19.8,15.7c0.7,6.6,6.7,68.6,6.7,68.6l-28,5.1c0,0-9-55.2-10.6-61.8
				C157.1,117,156.5,99.7,170.7,96z"/>
		</g>
	</g>
</g>
<g>
	<g>
		<g>
			<path class="st4" d="M168.5,183.4l1.6,13.9c0,0,28.2-1.8,28.9-3.6c0.6-1.8,0.1-15.2,0.1-15.2S169.9,182.5,168.5,183.4z"/>
		</g>
	</g>
</g>
<g>
	<g>
		<g>
			<path class="st5" d="M99.7,160.6c0.1-1.4-1.1-2.7-2.6-2.8c-1.5-0.1-2.9,1-3,2.4c-0.1,1.4,1.1,2.7,2.6,2.8
				C98.3,163.1,99.6,162.1,99.7,160.6z"/>
		</g>
	</g>
</g>
<g>
	<g>
		<g>
			<path class="st4" d="M76,2c0,0-33.3,10.7-35.6,12.4c-2.4,1.7,6,83.6,5.9,99.6c-0.1,16-0.5,30,1.7,35.1
				c2.2,5.1,5.9,10.5,15.7,13.4c3.6,1.1,53.3,5.1,79,0c10.5-2.1,11.3-22.5,12-31.6c0.7-9-1.1-32.1,1.9-45.9
				c3-13.8,8.5-65.5,8.6-68.6C165.3,13.4,127.1,3,127.1,3c-23.5,12.4-29.2,27-29.2,27C97,15,76,2,76,2z"/>
		</g>
	</g>
	<g>
		<g>
			<g>
				<path class="st3" d="M77.7,0c0,0,0.7-0.3-1.7,2c-2.4,2.2,0.6,19.4,0.6,19.4s8.6-7,13.6-3.7c6.9,4.6,7.6,12.3,7.6,12.3
					s-0.1-10.9-4.8-16.3C86.3,5.9,77,4.2,77.7,0z"/>
			</g>
		</g>
		<g>
			<g>
				<path class="st3" d="M130.5,5.1c-2.2-2.4-6-4.7-6-4.7c0.4,4.2-13.9,7.4-19.4,13.3c-3,3.2-7.1,16.4-7.1,16.4s6-9.2,13.5-12.9
					c4.3-2.1,14.6,5.4,14.6,5.4S132.6,7.5,130.5,5.1z"/>
			</g>
		</g>
	</g>
	<g>
		<g>
			<g>
				<path class="st6" d="M97.8,43.1c1.9,2,5.1-0.8,3.2-2.8c-0.1-0.1-0.2-0.2-0.3-0.3c-1.9-2-5.1,0.8-3.2,2.8
					C97.6,43,97.7,43,97.8,43.1z"/>
			</g>
		</g>
		<g>
			<g>
				<path class="st6" d="M99.8,60.5c-1.9-2-5.1,0.8-3.2,2.8c0.1,0.1,0.2,0.2,0.3,0.3c1.9,2,5.1-0.8,3.2-2.8
					C100,60.7,99.9,60.6,99.8,60.5z"/>
			</g>
		</g>
		<g>
			<g>
				<path class="st6" d="M99,81c-1.9-2-5.1,0.8-3.2,2.8c0.1,0.1,0.2,0.2,0.3,0.3c1.9,2,5.1-0.8,3.2-2.8C99.2,81.2,99.1,81.1,99,81z"
					/>
			</g>
		</g>
		<g>
			<g>
				<path class="st6" d="M98.1,101.5c-1.9-2-5.1,0.8-3.2,2.8c0.1,0.1,0.2,0.2,0.3,0.3c1.9,2,5.1-0.8,3.2-2.8
					C98.3,101.6,98.2,101.6,98.1,101.5z"/>
			</g>
		</g>
		<g>
			<g>
				<path class="st6" d="M97.3,121.9c-1.9-2-5.1,0.8-3.2,2.8c0.1,0.1,0.2,0.2,0.3,0.3c1.9,2,5.1-0.8,3.2-2.8
					C97.5,122.1,97.4,122,97.3,121.9z"/>
			</g>
		</g>
		<g>
			<g>
				<path class="st6" d="M96.4,142.4c-1.9-2-5.1,0.8-3.2,2.8c0.1,0.1,0.2,0.2,0.3,0.3c1.9,2,5.1-0.8,3.2-2.8
					C96.6,142.6,96.5,142.5,96.4,142.4z"/>
			</g>
		</g>
	</g>
	<g>
		<g>
			<polygon class="st7" points="125.5,40.4 150.3,41.4 150.1,45.9 125.4,44.9 			"/>
		</g>
	</g>
</g>
<g>
	<g>
		<g>
			<path class="st8" d="M116.7,11.5c-3.8-0.1-17.7,13.8-17.5,14.2c1.1,1.7,15.9,11.2,18.7,9.7C121.1,33.8,122.1,11.6,116.7,11.5z"/>
		</g>
		<g>
			<path class="st8" d="M82.3,10.1C76.9,9.7,76,32,79,33.9c2.7,1.7,18.2-6.6,19.5-8.2C98.8,25.4,86.1,10.4,82.3,10.1z"/>
		</g>
	</g>
	<g>
		<path class="st9" d="M103.4,20.4l-8.6-0.4c-0.4,0-0.8,0.3-0.8,0.7l-0.4,8.6c0,0.4,0.3,0.8,0.7,0.8l8.6,0.4c0.4,0,0.8-0.3,0.8-0.7
			l0.4-8.6C104.1,20.8,103.8,20.5,103.4,20.4z"/>
	</g>
</g>
</svg>
