<!-- Generator: Adobe Illustrator 25.1.0, SVG Export Plug-In  -->
<svg version="1.1" xmlns="http://www.w3.org/2000/svg" xmlns:xlink="http://www.w3.org/1999/xlink" x="0px" y="0px" width="146.4px"
	 height="140.3px" viewBox="0 0 146.4 140.3" style="overflow:visible;enable-background:new 0 0 146.4 140.3;"
	 xml:space="preserve">
<style type="text/css">
	.st0{fill:#8D5F39;}
	.st1{fill:#D9A857;}
	.st2{fill:#BA904C;}
	.st3{fill:#FDEAB6;}
</style>
<defs>
</defs>
<g>
	<path class="st0" d="M11.9,105l0,7.8c0,2.4,1.2,4.7,3.1,6.1c3.1,2.2,9,5,19.7,6.4c18.8,2.3,26.8,0.4,41.1,5.6
		c14.4,5.1,34,9,47.9,9.4c7.2,0.2,13-0.8,17-1.8c3.3-0.8,5.7-3.9,5.7-7.3l0-4.9c0,0,0,0,0,0L77.4,98c0,0,0,0,0,0L11.9,105
		C11.9,105,11.9,105,11.9,105z"/>
	<path class="st1" d="M146.4,125c0.1,2.6-1.4,4.9-3.8,5.9c-19.6,8.4-56.9-7.2-85.6-11c0,0,0,0,0,0c-0.1-0.3-0.2-0.5-0.3-0.8
		C43.3,81.5,13.8,71.1,10.2,70c0,0,0,0,0,0L7.5,12.9C31.4,17.7,41.3,34,41.3,34C49.6,9.8,75.9,7.5,75.9,7.5l10,63.6c0,0,0,0,0,0
		C139.2,96,146.1,116.5,146.4,125z"/>
	<path class="st2" d="M43.2,110.4c-0.3,0-0.6-0.1-0.9-0.4c-0.5-0.4-0.5-1.2-0.1-1.7C53.4,92.6,83.9,71,85.2,70.1
		c0.6-0.4,1.4-0.3,1.8,0.3c0.4,0.6,0.3,1.4-0.3,1.8c-0.3,0.2-31.4,22.3-42.3,37.7C44,110.3,43.6,110.4,43.2,110.4z"/>
	<path class="st2" d="M56.9,119.9C56.9,120,56.9,120,56.9,119.9c-2.8-0.3-5.4-0.6-8-0.7c-30.8-1.4-36.9-14-37-14.2c0,0,0,0,0,0
		l-1.7-35c0,0,0,0,0,0c3.6,1.2,33,11.6,46.4,49.2C56.7,119.4,56.8,119.7,56.9,119.9z"/>
	<path class="st3" d="M2.9,9c-9.1,3.3,4.9,9.2,17.9,13.9c13,4.7,18.8,14.3,19.2,25.4c0.4,11.1-2.3,50.6,2.2,53.5
		c4.5,2.9,6.1,2.4,6.7-22.3s-1.9-40.3,1.9-50.2c3.8-9.8,18.5-17.3,25.6-18.1c7.1-0.7,5.6-11.6-2.1-11.2S48.6,10.7,41.6,24.1
		C41.6,24.1,19.8,2.8,2.9,9z"/>
</g>
</svg>
