<svg width="436" height="388" viewBox="0 0 436 388" fill="none" xmlns="http://www.w3.org/2000/svg">
<g filter="url(#filter0_d)">
<path d="M355.923 30.9943L59.299 110.126C33.853 117.731 19.3497 144.76 27.079 170.182L48.4432 240.579C56.1291 266 84.0501 284.643 110.451 281.992L121.003 280.949L161.126 349C161.126 349 153.874 318 157.5 302.5C161.126 287 174.891 275.604 174.891 275.604L312.89 261.829C339.291 259.178 365.519 235.799 371.164 209.856L391.877 64.3679C397.522 38.3817 381.325 23.3461 355.923 30.9943Z" fill="url(#paint0_linear)"/>
</g>
<g style="mix-blend-mode:overlay" opacity="0.4">
<path d="M72.827 186.112C70.7205 186.618 68.6288 186.343 66.5518 185.287C64.5233 184.151 62.7383 182.484 61.1967 180.285C59.6552 178.085 58.554 175.611 57.8931 172.862C56.8173 168.386 56.6085 164.007 57.2668 159.723C57.9097 155.375 59.0816 151.543 60.7826 148.226C62.4681 144.845 64.2501 142.286 66.1283 140.55L66.2241 140.527L70.7652 142.986L71.1341 144.52C69.8917 146.374 68.8989 148.845 68.1554 151.932C67.4758 155.003 67.6201 158.553 68.5884 162.581C69.0649 164.563 69.744 166.124 70.6259 167.265C71.5078 168.405 72.6604 169.549 74.0836 170.694C75.3485 171.743 76.3273 172.725 77.0201 173.64C77.6974 174.492 78.2129 175.653 78.5664 177.124C79.0582 179.17 78.7391 181.072 77.609 182.832C76.5275 184.512 74.9335 185.605 72.827 186.112ZM100.403 179.483C98.2962 179.989 96.2045 179.714 94.1275 178.658C92.099 177.523 90.314 175.855 88.7725 173.656C87.2309 171.456 86.1297 168.982 85.4689 166.233C84.393 161.757 84.1842 157.378 84.8425 153.094C85.4854 148.746 86.6574 144.914 88.3583 141.597C90.0438 138.216 91.8258 135.658 93.7041 133.921L93.7998 133.898L98.3409 136.357L98.7098 137.891C97.4675 139.746 96.4823 142.248 95.7542 145.399C95.0108 148.486 95.1155 152.011 96.0684 155.975C96.5448 157.957 97.224 159.518 98.1059 160.659C98.9877 161.8 100.14 162.943 101.564 164.088C102.828 165.137 103.807 166.119 104.5 167.035C105.177 167.886 105.693 169.047 106.046 170.518C106.538 172.564 106.251 174.459 105.185 176.203C104.103 177.883 102.509 178.976 100.403 179.483Z" fill="#3D3D3D"/>
</g>
<g style="mix-blend-mode:overlay" opacity="0.4">
<path d="M323.5 187.039C325.195 186.653 326.871 186.892 328.527 187.759C330.144 188.689 331.561 190.043 332.777 191.822C333.993 193.601 334.854 195.596 335.358 197.807C336.18 201.408 336.307 204.923 335.739 208.354C335.183 211.836 334.208 214.899 332.812 217.545C331.429 220.241 329.976 222.278 328.453 223.653L328.376 223.671L324.755 221.656L324.474 220.422C325.487 218.946 326.307 216.973 326.932 214.504C327.505 212.046 327.422 209.197 326.683 205.956C326.319 204.362 325.789 203.103 325.092 202.18C324.395 201.256 323.481 200.329 322.35 199.396C321.344 198.543 320.568 197.747 320.021 197.006C319.485 196.316 319.083 195.38 318.813 194.197C318.437 192.551 318.711 191.027 319.634 189.626C320.517 188.288 321.806 187.426 323.5 187.039ZM301.316 192.102C303.011 191.715 304.686 191.955 306.343 192.822C307.96 193.752 309.376 195.106 310.593 196.885C311.809 198.663 312.67 200.658 313.174 202.87C313.996 206.471 314.123 209.986 313.555 213.417C312.999 216.899 312.024 219.962 310.628 222.607C309.245 225.304 307.791 227.34 306.269 228.716L306.191 228.734L302.571 226.719L302.289 225.485C303.303 224.009 304.117 222.01 304.73 219.489C305.355 217.02 305.304 214.19 304.576 211.001C304.212 209.407 303.682 208.148 302.985 207.225C302.288 206.302 301.374 205.374 300.242 204.442C299.237 203.589 298.461 202.792 297.914 202.051C297.378 201.361 296.976 200.425 296.706 199.242C296.33 197.596 296.578 196.078 297.45 194.689C298.333 193.351 299.622 192.489 301.316 192.102Z" fill="#3D3D3D"/>
</g>
<path d="M83.2073 156.67L90.5933 155.3L90.2432 153.413L82.8572 154.783L83.2073 156.67ZM84.4329 163.278L91.583 161.951L91.2328 160.064L84.0828 161.39L84.4329 163.278ZM81.7481 154.988L84.8121 171.507L86.8179 171.134L83.7539 154.616L81.7481 154.988ZM103.454 168.049L105.342 167.698L103.328 156.844L101.441 157.194L103.454 168.049ZM97.5928 164.742L96.3671 158.135L94.4794 158.485L95.7487 165.328C95.9209 166.256 96.2162 167.015 96.6348 167.605C97.0661 168.176 97.5942 168.566 98.2189 168.776C98.8436 168.985 99.5256 169.021 100.265 168.884C101.02 168.744 101.668 168.421 102.209 167.913C102.749 167.406 103.139 166.789 103.378 166.061C103.63 165.315 103.676 164.509 103.516 163.643L102.666 163.801C102.763 164.32 102.731 164.806 102.57 165.259C102.426 165.709 102.163 166.091 101.782 166.406C101.417 166.718 100.959 166.925 100.409 167.027C99.9053 167.12 99.4615 167.097 99.0775 166.956C98.6935 166.816 98.3785 166.565 98.1325 166.204C97.8835 165.827 97.7036 165.34 97.5928 164.742ZM99.3429 154.044C99.4071 154.39 99.5898 154.673 99.8911 154.894C100.19 155.099 100.512 155.169 100.858 155.105C101.22 155.038 101.503 154.855 101.708 154.557C101.926 154.24 102.003 153.908 101.939 153.562C101.871 153.2 101.681 152.918 101.367 152.716C101.068 152.511 100.738 152.442 100.376 152.509C100.03 152.573 99.7547 152.755 99.5497 153.053C99.3447 153.352 99.2758 153.682 99.3429 154.044ZM94.6234 154.919C94.6876 155.265 94.8703 155.548 95.1716 155.769C95.47 155.974 95.7923 156.045 96.1384 155.98C96.5002 155.913 96.7836 155.731 96.9887 155.432C97.2065 155.115 97.2833 154.784 97.2191 154.437C97.152 154.076 96.9614 153.794 96.6472 153.592C96.3488 153.387 96.0187 153.318 95.6569 153.385C95.3108 153.449 95.0352 153.63 94.8302 153.929C94.6252 154.227 94.5563 154.557 94.6234 154.919ZM108.765 155.835L106.877 156.185L108.891 167.04L110.779 166.69L108.765 155.835ZM112.43 157.303L113.18 155.553C112.841 155.307 112.49 155.169 112.126 155.138C111.776 155.09 111.404 155.102 111.01 155.175C110.507 155.268 110.048 155.557 109.633 156.04C109.218 156.524 108.916 157.133 108.727 157.868C108.551 158.584 108.543 159.375 108.703 160.24L109.553 160.083C109.457 159.564 109.418 159.091 109.436 158.664C109.471 158.235 109.599 157.877 109.823 157.592C110.047 157.306 110.395 157.119 110.867 157.032C111.181 156.974 111.45 156.973 111.672 157.029C111.891 157.07 112.144 157.161 112.43 157.303ZM128.781 144.311L132.195 162.717L134.083 162.367L130.669 143.961L128.781 144.311ZM122.103 158.975C122.319 160.139 122.75 161.101 123.395 161.86C124.04 162.619 124.814 163.151 125.717 163.455C126.62 163.76 127.559 163.821 128.534 163.641C129.211 163.515 129.801 163.275 130.305 162.922C130.821 162.549 131.231 162.083 131.534 161.522C131.853 160.958 132.058 160.31 132.15 159.577C132.238 158.828 132.201 158.013 132.038 157.132C131.874 156.251 131.618 155.485 131.27 154.834C130.918 154.167 130.493 153.627 129.993 153.216C129.509 152.801 128.961 152.52 128.348 152.374C127.748 152.208 127.109 152.188 126.433 152.314C125.458 152.495 124.603 152.889 123.87 153.497C123.136 154.105 122.605 154.879 122.275 155.819C121.942 156.743 121.884 157.795 122.103 158.975ZM124.015 158.621C123.86 157.787 123.894 157.048 124.116 156.405C124.354 155.759 124.729 155.234 125.24 154.83C125.751 154.426 126.337 154.162 126.997 154.04C127.406 153.964 127.831 153.975 128.272 154.072C128.714 154.169 129.13 154.352 129.522 154.621C129.929 154.887 130.28 155.245 130.575 155.695C130.867 156.129 131.072 156.661 131.188 157.29C131.305 157.919 131.306 158.497 131.192 159.022C131.075 159.532 130.874 159.984 130.59 160.379C130.321 160.771 129.998 161.091 129.621 161.34C129.244 161.589 128.851 161.751 128.442 161.827C127.781 161.95 127.14 161.914 126.518 161.72C125.896 161.526 125.358 161.17 124.904 160.652C124.466 160.132 124.169 159.454 124.015 158.621ZM134.667 146.393C134.731 146.739 134.914 147.022 135.215 147.243C135.529 147.445 135.859 147.514 136.205 147.45C136.567 147.383 136.851 147.2 137.056 146.902C137.258 146.588 137.327 146.257 137.262 145.911C137.195 145.549 137.013 145.266 136.714 145.061C136.416 144.856 136.086 144.787 135.724 144.854C135.378 144.918 135.094 145.101 134.874 145.402C134.669 145.701 134.6 146.031 134.667 146.393ZM135.852 150.811L137.866 161.665L139.754 161.315L137.74 150.46L135.852 150.811ZM147.886 160.051C149.05 159.835 150.014 159.42 150.779 158.806C151.557 158.174 152.144 157.349 152.542 156.331L150.828 155.648C150.557 156.382 150.17 156.967 149.665 157.402C149.157 157.822 148.533 158.1 147.793 158.237C147.054 158.375 146.396 158.334 145.818 158.116C145.241 157.897 144.763 157.514 144.384 156.966C144.006 156.418 143.738 155.719 143.581 154.869C143.467 154.256 143.443 153.691 143.51 153.174C143.577 152.657 143.729 152.205 143.967 151.82C144.204 151.434 144.52 151.115 144.912 150.863C145.321 150.608 145.792 150.431 146.327 150.332C146.941 150.218 147.5 150.253 148.006 150.436C148.512 150.619 148.935 150.923 149.274 151.348C149.629 151.77 149.866 152.304 149.986 152.949C150.006 153.059 150.009 153.205 149.994 153.387C149.976 153.553 149.95 153.68 149.918 153.767L150.472 152.541L142.684 153.986L142.982 155.59L152.256 153.87C152.25 153.839 152.237 153.768 152.216 153.658C152.209 153.529 152.195 153.41 152.174 153.3C151.961 152.151 151.573 151.198 151.009 150.44C150.446 149.682 149.738 149.154 148.885 148.857C148.045 148.541 147.091 148.482 146.021 148.68C145.218 148.829 144.513 149.106 143.905 149.512C143.294 149.902 142.799 150.393 142.42 150.984C142.039 151.559 141.779 152.217 141.64 152.959C141.516 153.698 141.533 154.492 141.691 155.342C141.898 156.459 142.293 157.403 142.875 158.173C143.473 158.941 144.203 159.497 145.064 159.842C145.939 160.168 146.879 160.238 147.886 160.051ZM159.797 140.511L161.854 151.602C162.006 152.42 162.272 153.152 162.652 153.797C163.048 154.44 163.536 154.967 164.117 155.38C164.714 155.79 165.385 156.073 166.129 156.228C166.874 156.382 167.671 156.381 168.521 156.223C169.37 156.066 170.115 155.781 170.754 155.37C171.394 154.958 171.911 154.455 172.305 153.861C172.715 153.265 172.982 152.597 173.105 151.858C173.244 151.116 173.238 150.336 173.086 149.518L171.029 138.427L169.023 138.799L171.081 149.89C171.221 150.645 171.202 151.332 171.024 151.951C170.861 152.567 170.542 153.082 170.065 153.496C169.589 153.91 168.957 154.19 168.171 154.336C167.384 154.481 166.694 154.447 166.101 154.231C165.508 154.016 165.017 153.651 164.629 153.137C164.256 152.621 164 151.985 163.86 151.23L161.802 140.139L159.797 140.511ZM191.229 144.688C191.063 143.792 190.78 143.055 190.38 142.478C189.993 141.883 189.509 141.468 188.929 141.234C188.348 141 187.688 140.951 186.949 141.089C186.225 141.223 185.612 141.515 185.11 141.967C184.605 142.402 184.227 142.993 183.974 143.739C183.735 143.328 183.431 143.002 183.061 142.762C182.707 142.518 182.31 142.356 181.872 142.274C181.434 142.193 180.963 142.199 180.46 142.292C180.019 142.374 179.623 142.521 179.272 142.732C178.918 142.928 178.616 143.188 178.367 143.51C178.133 143.83 177.944 144.215 177.8 144.665L177.506 143.084L175.619 143.434L177.632 154.289L179.52 153.939L178.294 147.332C178.189 146.765 178.201 146.259 178.33 145.812C178.458 145.365 178.693 145.004 179.032 144.729C179.369 144.439 179.797 144.246 180.316 144.15C180.788 144.062 181.192 144.093 181.529 144.242C181.879 144.372 182.161 144.621 182.375 144.988C182.606 145.352 182.779 145.849 182.896 146.478L184.121 153.085L186.009 152.735L184.784 146.128C184.679 145.562 184.69 145.055 184.819 144.608C184.948 144.161 185.182 143.8 185.521 143.526C185.858 143.235 186.286 143.042 186.805 142.946C187.277 142.858 187.682 142.889 188.018 143.038C188.368 143.169 188.65 143.417 188.865 143.784C189.095 144.148 189.268 144.645 189.385 145.274L190.611 151.882L192.499 151.532L191.229 144.688ZM192.264 140.347L199.15 151.152L200.775 142.673L205.522 149.97L208.074 137.414L205.951 137.808L204.531 145.419L199.898 138.076L198.41 146.505L194.388 139.953L192.264 140.347ZM215.867 147.441C217.031 147.225 217.995 146.81 218.76 146.196C219.538 145.564 220.125 144.739 220.523 143.721L218.809 143.038C218.538 143.772 218.151 144.357 217.646 144.792C217.138 145.212 216.514 145.49 215.774 145.627C215.035 145.765 214.377 145.724 213.799 145.506C213.222 145.287 212.744 144.904 212.365 144.356C211.987 143.808 211.719 143.109 211.562 142.259C211.448 141.646 211.424 141.081 211.491 140.564C211.558 140.047 211.71 139.595 211.948 139.21C212.185 138.824 212.501 138.505 212.893 138.253C213.302 137.998 213.773 137.821 214.308 137.722C214.922 137.608 215.481 137.643 215.987 137.826C216.493 138.009 216.916 138.313 217.255 138.738C217.61 139.16 217.847 139.694 217.967 140.339C217.987 140.449 217.99 140.595 217.975 140.777C217.957 140.943 217.931 141.07 217.899 141.157L218.453 139.931L210.665 141.376L210.963 142.981L220.237 141.26C220.231 141.229 220.218 141.158 220.197 141.048C220.19 140.919 220.176 140.8 220.155 140.69C219.942 139.541 219.554 138.588 218.99 137.83C218.427 137.072 217.719 136.545 216.866 136.247C216.026 135.931 215.071 135.872 214.002 136.07C213.199 136.219 212.494 136.497 211.886 136.902C211.275 137.292 210.78 137.783 210.401 138.374C210.02 138.949 209.76 139.607 209.621 140.349C209.497 141.088 209.514 141.882 209.672 142.732C209.879 143.849 210.274 144.793 210.856 145.563C211.454 146.331 212.184 146.887 213.045 147.232C213.919 147.558 214.86 147.628 215.867 147.441ZM220.353 127.325L223.767 145.731L225.655 145.381L222.241 126.975L220.353 127.325ZM225.54 134.174L225.869 135.944L231.296 134.937L230.968 133.167L225.54 134.174ZM226.61 130.07L229.324 144.701L231.211 144.351L228.498 129.72L226.61 130.07ZM241.78 138.948L240.464 140.144C240.748 140.531 241.124 140.893 241.593 141.229C242.078 141.562 242.636 141.808 243.268 141.968C243.897 142.111 244.573 142.116 245.297 141.982C246.036 141.845 246.655 141.584 247.153 141.198C247.664 140.794 248.031 140.319 248.255 139.773C248.477 139.212 248.529 138.616 248.412 137.987C248.292 137.342 248.037 136.844 247.647 136.493C247.272 136.14 246.799 135.869 246.227 135.683C245.653 135.48 245.027 135.311 244.351 135.176C243.945 135.089 243.552 134.991 243.174 134.882C242.796 134.773 242.476 134.629 242.215 134.45C241.954 134.27 241.797 134.039 241.745 133.756C241.678 133.394 241.77 133.1 242.021 132.875C242.272 132.649 242.594 132.5 242.987 132.427C243.553 132.322 244.082 132.362 244.572 132.548C245.078 132.731 245.518 132.999 245.893 133.353L247.223 132.105C246.927 131.737 246.553 131.432 246.102 131.19C245.65 130.948 245.147 130.781 244.593 130.689C244.055 130.593 243.494 130.6 242.912 130.708C242.33 130.816 241.783 131.023 241.27 131.33C240.773 131.633 240.391 132.03 240.124 132.519C239.872 133.005 239.806 133.57 239.926 134.215C240.043 134.844 240.298 135.342 240.691 135.709C241.097 136.056 241.561 136.32 242.083 136.5C242.617 136.661 243.138 136.793 243.645 136.894C244.099 136.972 244.532 137.071 244.945 137.19C245.354 137.293 245.702 137.456 245.987 137.68C246.286 137.885 246.47 138.176 246.54 138.554C246.619 138.978 246.524 139.346 246.256 139.656C246.001 139.947 245.606 140.143 245.071 140.242C244.631 140.324 244.207 140.321 243.801 140.234C243.407 140.128 243.042 139.959 242.706 139.729C242.37 139.498 242.062 139.238 241.78 138.948ZM251.309 135.008C251.169 134.253 251.202 133.556 251.409 132.915C251.629 132.256 251.983 131.71 252.472 131.278C252.977 130.842 253.584 130.559 254.292 130.428C254.874 130.32 255.434 130.313 255.973 130.409C256.524 130.486 257.016 130.638 257.449 130.867C257.882 131.096 258.211 131.377 258.435 131.709L257.997 129.35C257.538 128.979 256.933 128.742 256.181 128.637C255.442 128.514 254.703 128.521 253.963 128.658C252.909 128.853 252.003 129.274 251.244 129.919C250.485 130.564 249.932 131.358 249.587 132.301C249.256 133.241 249.194 134.262 249.398 135.363C249.599 136.448 250.024 137.379 250.672 138.153C251.333 138.909 252.134 139.453 253.074 139.783C254.014 140.113 255.011 140.18 256.065 139.985C256.804 139.847 257.498 139.597 258.146 139.232C258.807 138.849 259.286 138.403 259.582 137.892L259.144 135.532C259.051 135.908 258.845 136.288 258.526 136.672C258.204 137.041 257.8 137.368 257.316 137.653C256.845 137.92 256.318 138.107 255.736 138.215C255.028 138.346 254.361 138.299 253.733 138.074C253.118 137.83 252.592 137.447 252.153 136.927C251.731 136.403 251.449 135.764 251.309 135.008ZM261.209 119.747L259.321 120.097L262.735 138.503L264.623 138.153L261.209 119.747ZM268.471 130.605L269.696 137.212L271.584 136.862L270.315 130.018C270.14 129.075 269.837 128.317 269.405 127.746C268.99 127.172 268.469 126.781 267.845 126.571C267.236 126.359 266.554 126.322 265.799 126.463C265.043 126.603 264.411 126.923 263.902 127.424C263.409 127.923 263.06 128.541 262.855 129.279C262.647 130.001 262.623 130.794 262.784 131.66L263.397 131.546C263.301 131.027 263.325 130.542 263.469 130.092C263.63 129.639 263.892 129.257 264.258 128.945C264.638 128.63 265.104 128.422 265.655 128.32C266.174 128.224 266.618 128.247 266.986 128.39C267.37 128.531 267.687 128.789 267.935 129.166C268.181 129.527 268.36 130.007 268.471 130.605ZM275.007 124.998L273.12 125.349L275.133 136.203L277.021 135.853L275.007 124.998ZM278.673 126.467L279.422 124.717C279.083 124.47 278.732 124.332 278.369 124.302C278.018 124.253 277.646 124.265 277.253 124.338C276.749 124.431 276.29 124.72 275.875 125.204C275.461 125.687 275.159 126.297 274.97 127.031C274.793 127.748 274.785 128.538 274.946 129.404L275.795 129.246C275.699 128.727 275.66 128.254 275.679 127.827C275.713 127.398 275.842 127.041 276.065 126.755C276.289 126.469 276.637 126.283 277.109 126.195C277.424 126.137 277.692 126.136 277.914 126.192C278.133 126.233 278.386 126.324 278.673 126.467ZM283.48 131.36C283.399 130.919 283.431 130.523 283.577 130.17C283.723 129.818 283.985 129.517 284.362 129.268C284.754 129.016 285.265 128.832 285.894 128.715C286.587 128.587 287.225 128.566 287.811 128.653C288.394 128.723 288.988 128.898 289.593 129.176L289.387 128.067C289.25 127.946 289.012 127.803 288.673 127.638C288.33 127.458 287.891 127.328 287.355 127.248C286.833 127.15 286.225 127.165 285.533 127.293C284.668 127.454 283.907 127.741 283.252 128.156C282.612 128.567 282.141 129.094 281.837 129.736C281.53 130.363 281.455 131.101 281.613 131.95C281.735 132.611 281.99 133.15 282.376 133.566C282.778 133.98 283.287 134.268 283.903 134.43C284.516 134.577 285.193 134.582 285.932 134.444C286.687 134.304 287.348 134.052 287.915 133.686C288.479 133.305 288.896 132.837 289.168 132.282C289.452 131.709 289.53 131.076 289.401 130.384L288.805 129.274C288.931 129.95 288.89 130.519 288.682 130.981C288.491 131.439 288.169 131.808 287.716 132.088C287.263 132.367 286.722 132.565 286.093 132.681C285.59 132.775 285.153 132.791 284.784 132.729C284.427 132.649 284.139 132.499 283.919 132.279C283.697 132.044 283.55 131.737 283.48 131.36ZM282.53 126.239C282.68 126.081 282.888 125.888 283.155 125.66C283.435 125.412 283.775 125.186 284.177 124.982C284.575 124.761 285.034 124.603 285.553 124.507C285.946 124.434 286.328 124.428 286.697 124.49C287.067 124.552 287.385 124.688 287.652 124.899C287.916 125.094 288.081 125.372 288.148 125.734L289.593 133.521L291.481 133.171L290.036 125.384C289.905 124.676 289.613 124.112 289.161 123.691C288.724 123.268 288.168 122.988 287.492 122.853C286.829 122.7 286.081 122.7 285.247 122.855C284.271 123.036 283.465 123.34 282.829 123.767C282.192 124.195 281.697 124.596 281.343 124.97L282.53 126.239ZM285.805 119.944C285.869 120.29 286.052 120.574 286.354 120.795C286.668 120.997 286.998 121.066 287.344 121.001C287.706 120.934 287.989 120.752 288.194 120.453C288.396 120.139 288.465 119.809 288.401 119.463C288.334 119.101 288.151 118.818 287.853 118.613C287.554 118.408 287.224 118.339 286.862 118.406C286.516 118.47 286.233 118.653 286.012 118.954C285.807 119.252 285.738 119.583 285.805 119.944ZM281.086 120.82C281.15 121.166 281.333 121.449 281.634 121.67C281.948 121.872 282.278 121.941 282.624 121.877C282.986 121.81 283.27 121.627 283.475 121.329C283.677 121.014 283.746 120.684 283.681 120.338C283.614 119.976 283.432 119.693 283.133 119.488C282.835 119.283 282.505 119.214 282.143 119.281C281.797 119.345 281.513 119.528 281.293 119.829C281.088 120.128 281.019 120.458 281.086 120.82ZM300.41 124.68L301.636 131.287L303.524 130.937L302.254 124.094C302.091 123.213 301.794 122.487 301.362 121.916C300.947 121.342 300.431 120.933 299.817 120.689C299.202 120.445 298.509 120.395 297.738 120.538C297.03 120.669 296.43 120.943 295.938 121.36C295.461 121.774 295.103 122.345 294.864 123.073L294.549 121.374L292.661 121.724L294.675 132.579L296.563 132.228L295.337 125.621C295.238 125.086 295.26 124.594 295.405 124.144C295.565 123.691 295.829 123.317 296.197 123.021C296.578 122.706 297.044 122.497 297.594 122.395C298.098 122.302 298.542 122.325 298.926 122.466C299.31 122.606 299.626 122.865 299.875 123.242C300.121 123.603 300.299 124.082 300.41 124.68ZM303.54 111.895L306.955 130.301L308.842 129.951L305.428 111.545L303.54 111.895ZM310.84 118.352L306.953 123.711L313.326 129.119L315.686 128.681L309.312 123.273L313.2 117.914L310.84 118.352ZM321.364 127.872C322.528 127.656 323.493 127.241 324.258 126.627C325.035 125.995 325.623 125.17 326.02 124.153L324.306 123.47C324.036 124.203 323.648 124.788 323.143 125.223C322.635 125.643 322.011 125.921 321.272 126.058C320.532 126.196 319.874 126.155 319.296 125.937C318.719 125.718 318.241 125.335 317.863 124.787C317.484 124.239 317.216 123.54 317.059 122.69C316.945 122.077 316.922 121.512 316.988 120.995C317.055 120.478 317.207 120.027 317.445 119.641C317.683 119.255 317.998 118.936 318.391 118.684C318.799 118.429 319.271 118.253 319.805 118.153C320.419 118.039 320.979 118.074 321.484 118.257C321.99 118.44 322.413 118.744 322.752 119.169C323.107 119.591 323.344 120.125 323.464 120.77C323.484 120.88 323.487 121.026 323.472 121.208C323.454 121.374 323.429 121.501 323.396 121.588L323.95 120.362L316.163 121.807L316.46 123.412L325.734 121.691C325.728 121.66 325.715 121.589 325.695 121.479C325.687 121.35 325.673 121.231 325.653 121.121C325.44 119.972 325.051 119.019 324.488 118.261C323.924 117.503 323.216 116.976 322.363 116.678C321.524 116.362 320.569 116.303 319.499 116.501C318.697 116.65 317.991 116.928 317.383 117.333C316.772 117.723 316.277 118.214 315.899 118.805C315.517 119.38 315.257 120.038 315.118 120.78C314.995 121.519 315.012 122.313 315.169 123.163C315.376 124.28 315.771 125.224 316.354 125.994C316.952 126.762 317.681 127.318 318.543 127.663C319.417 127.989 320.357 128.059 321.364 127.872ZM88.5971 192.57C88.6613 192.916 88.844 193.199 89.1453 193.42C89.4595 193.622 89.7896 193.691 90.1357 193.627C90.4975 193.56 90.7809 193.377 90.9859 193.078C91.188 192.764 91.257 192.434 91.1928 192.088C91.1257 191.726 90.9429 191.443 90.6445 191.238C90.3461 191.033 90.016 190.964 89.6542 191.031C89.3081 191.095 89.0247 191.278 88.8039 191.579C88.5989 191.878 88.53 192.208 88.5971 192.57ZM89.7827 196.987L91.7962 207.842L93.684 207.492L91.6705 196.637L89.7827 196.987ZM97.4148 201.186C97.2747 200.431 97.308 199.733 97.5147 199.093C97.7342 198.433 98.0886 197.888 98.5779 197.455C99.0829 197.02 99.6894 196.736 100.397 196.605C100.979 196.497 101.54 196.491 102.078 196.586C102.629 196.663 103.121 196.816 103.554 197.045C103.987 197.273 104.316 197.554 104.541 197.887L104.103 195.527C103.644 195.157 103.038 194.919 102.286 194.814C101.548 194.691 100.808 194.698 100.069 194.835C99.0151 195.031 98.1085 195.451 97.3495 196.096C96.5904 196.742 96.038 197.536 95.6922 198.479C95.362 199.419 95.2991 200.439 95.5034 201.54C95.7047 202.626 96.1295 203.556 96.7777 204.331C97.4387 205.087 98.2392 205.63 99.1791 205.96C100.119 206.29 101.116 206.358 102.17 206.162C102.91 206.025 103.603 205.774 104.252 205.41C104.913 205.027 105.392 204.58 105.687 204.069L105.25 201.71C105.157 202.085 104.95 202.465 104.631 202.85C104.309 203.219 103.906 203.546 103.422 203.831C102.951 204.097 102.424 204.284 101.842 204.392C101.134 204.524 100.466 204.477 99.8385 204.251C99.2237 204.007 98.6971 203.625 98.2588 203.104C97.8362 202.58 97.5549 201.941 97.4148 201.186ZM107.314 185.924L105.427 186.275L108.841 204.681L110.729 204.33L107.314 185.924ZM114.576 196.782L115.802 203.389L117.69 203.039L116.42 196.196C116.245 195.252 115.942 194.495 115.511 193.924C115.095 193.35 114.575 192.958 113.95 192.749C113.341 192.536 112.659 192.5 111.904 192.64C111.149 192.78 110.517 193.101 110.008 193.602C109.514 194.1 109.165 194.718 108.96 195.456C108.753 196.178 108.729 196.972 108.889 197.837L109.503 197.723C109.407 197.204 109.431 196.719 109.575 196.27C109.735 195.817 109.998 195.434 110.363 195.123C110.744 194.808 111.21 194.599 111.76 194.497C112.28 194.401 112.723 194.424 113.092 194.568C113.476 194.708 113.792 194.967 114.041 195.344C114.287 195.705 114.466 196.184 114.576 196.782ZM141.91 191.468C141.744 190.571 141.461 189.834 141.061 189.258C140.674 188.662 140.19 188.247 139.61 188.013C139.029 187.779 138.369 187.731 137.63 187.868C136.906 188.002 136.293 188.295 135.791 188.746C135.286 189.181 134.908 189.772 134.656 190.519C134.417 190.108 134.112 189.782 133.742 189.541C133.388 189.298 132.991 189.135 132.553 189.054C132.115 188.972 131.644 188.978 131.141 189.072C130.7 189.153 130.304 189.3 129.953 189.512C129.599 189.708 129.297 189.967 129.048 190.29C128.814 190.61 128.625 190.995 128.481 191.445L128.188 189.864L126.3 190.214L128.313 201.069L130.201 200.718L128.975 194.111C128.87 193.545 128.882 193.038 129.011 192.591C129.139 192.144 129.374 191.783 129.713 191.509C130.05 191.219 130.478 191.025 130.997 190.929C131.469 190.841 131.873 190.872 132.21 191.021C132.56 191.152 132.842 191.4 133.056 191.767C133.287 192.132 133.46 192.628 133.577 193.258L134.803 199.865L136.69 199.515L135.465 192.907C135.36 192.341 135.372 191.834 135.5 191.387C135.629 190.94 135.863 190.58 136.203 190.305C136.539 190.015 136.967 189.822 137.486 189.725C137.958 189.638 138.363 189.669 138.699 189.818C139.049 189.948 139.331 190.197 139.546 190.564C139.776 190.928 139.95 191.425 140.066 192.054L141.292 198.661L143.18 198.311L141.91 191.468ZM143.881 182.315C143.945 182.661 144.128 182.944 144.429 183.165C144.743 183.367 145.073 183.436 145.419 183.372C145.781 183.305 146.064 183.122 146.269 182.824C146.472 182.51 146.541 182.179 146.476 181.833C146.409 181.472 146.226 181.188 145.928 180.983C145.63 180.778 145.3 180.709 144.938 180.776C144.592 180.84 144.308 181.023 144.087 181.324C143.882 181.623 143.813 181.953 143.881 182.315ZM145.066 186.733L147.08 197.588L148.967 197.237L146.954 186.383L145.066 186.733ZM152.698 190.931C152.558 190.176 152.592 189.478 152.798 188.838C153.018 188.179 153.372 187.633 153.861 187.2C154.366 186.765 154.973 186.482 155.681 186.35C156.263 186.242 156.823 186.236 157.362 186.332C157.913 186.408 158.405 186.561 158.838 186.79C159.271 187.019 159.6 187.3 159.824 187.632L159.386 185.272C158.927 184.902 158.322 184.664 157.57 184.56C156.831 184.436 156.092 184.443 155.353 184.581C154.299 184.776 153.392 185.196 152.633 185.842C151.874 186.487 151.322 187.281 150.976 188.224C150.646 189.164 150.583 190.184 150.787 191.286C150.988 192.371 151.413 193.301 152.061 194.076C152.722 194.832 153.523 195.375 154.463 195.705C155.403 196.036 156.4 196.103 157.454 195.907C158.193 195.77 158.887 195.519 159.535 195.155C160.197 194.772 160.675 194.325 160.971 193.815L160.533 191.455C160.44 191.83 160.234 192.21 159.915 192.595C159.593 192.964 159.19 193.291 158.705 193.576C158.234 193.842 157.707 194.03 157.125 194.138C156.417 194.269 155.75 194.222 155.122 193.997C154.507 193.753 153.981 193.37 153.542 192.849C153.12 192.326 152.838 191.686 152.698 190.931ZM162.598 175.67L160.71 176.02L164.124 194.426L166.012 194.076L162.598 175.67ZM169.86 186.527L171.086 193.135L172.973 192.784L171.704 185.941C171.529 184.997 171.226 184.24 170.794 183.669C170.379 183.095 169.858 182.703 169.234 182.494C168.625 182.281 167.943 182.245 167.188 182.385C166.433 182.525 165.8 182.846 165.291 183.347C164.798 183.846 164.449 184.464 164.244 185.201C164.036 185.923 164.012 186.717 164.173 187.582L164.786 187.468C164.69 186.949 164.714 186.465 164.859 186.015C165.019 185.562 165.281 185.18 165.647 184.868C166.028 184.553 166.493 184.345 167.044 184.243C167.563 184.146 168.007 184.17 168.375 184.313C168.759 184.453 169.076 184.712 169.325 185.089C169.571 185.45 169.749 185.93 169.86 186.527ZM180.752 175.476C180.816 175.822 180.999 176.105 181.3 176.326C181.614 176.528 181.944 176.597 182.29 176.533C182.652 176.466 182.935 176.283 183.141 175.984C183.343 175.67 183.412 175.34 183.347 174.994C183.28 174.632 183.097 174.349 182.799 174.144C182.501 173.939 182.171 173.87 181.809 173.937C181.463 174.001 181.179 174.184 180.958 174.485C180.753 174.784 180.685 175.114 180.752 175.476ZM181.937 179.893L183.951 190.748L185.839 190.398L183.825 179.543L181.937 179.893ZM195.462 181.778L196.688 188.386L198.576 188.035L197.306 181.192C197.143 180.311 196.845 179.585 196.414 179.014C195.998 178.441 195.483 178.032 194.868 177.788C194.254 177.544 193.561 177.493 192.79 177.636C192.082 177.768 191.482 178.042 190.99 178.458C190.513 178.872 190.155 179.443 189.916 180.171L189.601 178.472L187.713 178.822L189.727 189.677L191.614 189.327L190.389 182.719C190.29 182.185 190.312 181.692 190.457 181.242C190.617 180.789 190.881 180.415 191.249 180.119C191.63 179.804 192.096 179.596 192.646 179.494C193.15 179.4 193.593 179.424 193.977 179.564C194.362 179.704 194.678 179.963 194.927 180.34C195.173 180.701 195.351 181.18 195.462 181.778ZM224.091 176.077C223.931 175.212 223.684 174.493 223.35 173.92C223.013 173.332 222.563 172.927 222.001 172.706C221.452 172.466 220.753 172.425 219.904 172.582C219.164 172.72 218.533 172.999 218.009 173.422C217.482 173.829 217.076 174.36 216.791 175.015C216.577 174.648 216.311 174.355 215.994 174.138C215.677 173.92 215.294 173.787 214.846 173.74C214.411 173.675 213.91 173.694 213.344 173.799C212.856 173.89 212.422 174.052 212.042 174.285C211.675 174.499 211.367 174.768 211.118 175.091C210.884 175.411 210.695 175.796 210.551 176.246L210.253 174.641L206.784 175.284L208.798 186.139L212.267 185.496L211.041 178.889C210.962 178.464 210.958 178.09 211.029 177.768C211.115 177.443 211.263 177.188 211.472 177.002C211.695 176.798 211.963 176.667 212.278 176.609C212.608 176.547 212.883 176.578 213.101 176.7C213.331 176.804 213.522 176.996 213.672 177.278C213.818 177.543 213.933 177.897 214.014 178.337L215.24 184.944L218.827 184.279L217.601 177.672C217.522 177.247 217.52 176.881 217.593 176.575C217.663 176.253 217.81 175.989 218.032 175.785C218.255 175.581 218.524 175.45 218.838 175.392C219.169 175.331 219.443 175.361 219.661 175.483C219.891 175.587 220.074 175.781 220.208 176.065C220.355 176.331 220.469 176.684 220.551 177.125L221.777 183.732L225.387 183.062L224.091 176.077ZM233.768 181.752C235.152 181.495 236.275 181.01 237.135 180.297C237.996 179.584 238.618 178.639 239.001 177.461L235.648 177.278C235.483 177.796 235.195 178.216 234.783 178.537C234.37 178.857 233.849 179.076 233.22 179.193C232.685 179.292 232.198 179.252 231.758 179.073C231.334 178.892 230.985 178.59 230.711 178.169C230.435 177.732 230.243 177.182 230.137 176.518C230.035 175.968 229.994 175.487 230.016 175.076C230.05 174.647 230.144 174.279 230.299 173.974C230.454 173.668 230.669 173.425 230.945 173.244C231.233 173.044 231.582 172.906 231.991 172.83C232.4 172.754 232.779 172.781 233.129 172.912C233.494 173.039 233.788 173.262 234.009 173.578C234.228 173.88 234.383 174.274 234.473 174.762C234.493 174.872 234.495 175.01 234.477 175.176C234.456 175.326 234.419 175.48 234.367 175.636L235.015 174.393L228.313 175.636L228.681 177.618L238.615 175.775C238.608 175.647 238.589 175.503 238.56 175.346C238.531 175.189 238.5 175.024 238.468 174.851C238.252 173.686 237.84 172.738 237.232 172.004C236.624 171.271 235.848 170.772 234.904 170.508C233.957 170.228 232.855 170.204 231.596 170.438C230.652 170.613 229.828 170.904 229.122 171.312C228.414 171.704 227.837 172.193 227.393 172.78C226.948 173.367 226.65 174.04 226.498 174.801C226.359 175.543 226.372 176.354 226.535 177.235C226.748 178.383 227.185 179.336 227.846 180.092C228.507 180.848 229.337 181.377 230.337 181.68C231.35 181.964 232.494 181.988 233.768 181.752ZM238.727 165.161C238.832 165.727 239.114 166.147 239.571 166.42C240.028 166.693 240.556 166.774 241.154 166.663C241.736 166.556 242.192 166.292 242.521 165.873C242.866 165.451 242.985 164.957 242.88 164.39C242.775 163.824 242.485 163.398 242.009 163.112C241.548 162.823 241.027 162.733 240.445 162.841C239.847 162.952 239.385 163.224 239.059 163.659C238.733 164.094 238.622 164.595 238.727 165.161ZM239.81 169.158L241.824 180.013L245.293 179.37L243.279 168.515L239.81 169.158ZM254.081 170.905L255.306 177.512L259.035 176.821L257.739 169.836C257.578 168.971 257.3 168.258 256.903 167.697C256.521 167.133 256.009 166.739 255.366 166.517C254.738 166.292 253.976 166.262 253.079 166.429C252.293 166.574 251.655 166.864 251.165 167.296C250.676 167.729 250.33 168.273 250.126 168.929L249.824 167.301L246.213 167.971L248.227 178.825L251.837 178.156L250.612 171.548C250.536 171.139 250.549 170.771 250.651 170.443C250.75 170.099 250.928 169.83 251.185 169.636C251.439 169.426 251.754 169.286 252.132 169.216C252.525 169.143 252.847 169.165 253.096 169.281C253.358 169.379 253.564 169.569 253.714 169.85C253.88 170.129 254.002 170.48 254.081 170.905ZM267.413 175.511C268.797 175.254 269.92 174.769 270.78 174.056C271.64 173.343 272.263 172.398 272.646 171.22L269.292 171.037C269.128 171.556 268.84 171.975 268.428 172.296C268.015 172.616 267.494 172.835 266.865 172.952C266.33 173.051 265.843 173.011 265.403 172.832C264.978 172.651 264.63 172.349 264.356 171.928C264.08 171.491 263.888 170.941 263.781 170.277C263.679 169.727 263.639 169.246 263.66 168.835C263.695 168.406 263.789 168.038 263.944 167.733C264.099 167.428 264.314 167.184 264.59 167.003C264.878 166.803 265.227 166.665 265.636 166.589C266.045 166.513 266.424 166.541 266.774 166.671C267.139 166.798 267.433 167.021 267.654 167.338C267.873 167.639 268.027 168.033 268.118 168.521C268.138 168.631 268.14 168.769 268.121 168.935C268.101 169.086 268.064 169.239 268.012 169.395L268.66 168.152L261.958 169.395L262.326 171.377L272.26 169.534C272.253 169.406 272.234 169.263 272.205 169.105C272.176 168.948 272.145 168.783 272.113 168.61C271.897 167.446 271.485 166.497 270.877 165.763C270.269 165.03 269.493 164.531 268.549 164.267C267.602 163.987 266.5 163.964 265.241 164.197C264.297 164.372 263.472 164.663 262.767 165.071C262.058 165.463 261.482 165.952 261.038 166.539C260.593 167.126 260.295 167.8 260.143 168.56C260.004 169.302 260.016 170.113 260.18 170.994C260.393 172.143 260.83 173.095 261.491 173.851C262.152 174.607 262.982 175.137 263.982 175.439C264.995 175.723 266.139 175.747 267.413 175.511ZM290.621 163.737C290.46 162.871 290.213 162.152 289.879 161.58C289.542 160.991 289.092 160.586 288.531 160.365C287.982 160.125 287.282 160.084 286.433 160.242C285.694 160.379 285.062 160.659 284.538 161.081C284.012 161.488 283.606 162.019 283.32 162.674C283.106 162.307 282.84 162.015 282.523 161.797C282.206 161.579 281.823 161.447 281.375 161.4C280.94 161.334 280.439 161.354 279.873 161.459C279.385 161.549 278.951 161.711 278.572 161.944C278.204 162.159 277.896 162.427 277.647 162.75C277.413 163.07 277.225 163.455 277.08 163.905L276.782 162.3L273.314 162.944L275.327 173.799L278.796 173.155L277.57 166.548C277.492 166.123 277.487 165.75 277.558 165.427C277.644 165.102 277.792 164.847 278.002 164.662C278.224 164.458 278.493 164.326 278.807 164.268C279.138 164.207 279.412 164.237 279.63 164.36C279.861 164.463 280.051 164.656 280.201 164.937C280.348 165.203 280.462 165.556 280.544 165.996L281.769 172.604L285.356 171.938L284.13 165.331C284.052 164.906 284.049 164.541 284.122 164.234C284.193 163.912 284.339 163.649 284.562 163.445C284.784 163.241 285.053 163.11 285.367 163.051C285.698 162.99 285.972 163.02 286.19 163.143C286.421 163.246 286.603 163.44 286.737 163.725C286.884 163.99 286.998 164.343 287.08 164.784L288.306 171.391L291.916 170.721L290.621 163.737ZM95.1263 227.769L98.1903 244.287L102.32 243.521L99.2559 227.003L95.1263 227.769ZM104.848 225.966L99.5336 235.08L108.125 242.445L112.962 241.547L104.278 234.078L109.544 225.095L104.848 225.966ZM111.977 236.116C112.187 237.248 112.639 238.19 113.331 238.94C114.039 239.688 114.901 240.211 115.917 240.511C116.948 240.808 118.054 240.847 119.234 240.628C120.43 240.406 121.448 239.973 122.288 239.329C123.129 238.685 123.738 237.889 124.115 236.94C124.508 235.988 124.6 234.946 124.39 233.813C124.177 232.665 123.717 231.725 123.012 230.993C122.32 230.243 121.466 229.718 120.45 229.418C119.431 229.103 118.332 229.054 117.152 229.273C115.972 229.492 114.954 229.925 114.098 230.572C113.241 231.219 112.617 232.018 112.224 232.97C111.846 233.919 111.764 234.967 111.977 236.116ZM115.659 235.433C115.554 234.867 115.575 234.366 115.722 233.932C115.882 233.479 116.13 233.108 116.467 232.818C116.817 232.509 117.227 232.31 117.699 232.223C118.156 232.138 118.594 232.179 119.016 232.345C119.434 232.495 119.791 232.754 120.087 233.122C120.384 233.491 120.581 233.942 120.68 234.477C120.785 235.043 120.766 235.551 120.621 236.001C120.477 236.451 120.237 236.821 119.9 237.112C119.563 237.402 119.159 237.591 118.687 237.678C118.231 237.763 117.785 237.732 117.351 237.584C116.933 237.434 116.568 237.176 116.256 236.811C115.957 236.427 115.758 235.968 115.659 235.433ZM133.347 230.931L134.573 237.539L138.301 236.847L137.005 229.862C136.845 228.997 136.566 228.284 136.169 227.723C135.788 227.159 135.276 226.766 134.632 226.543C134.005 226.318 133.243 226.289 132.346 226.455C131.559 226.601 130.921 226.89 130.432 227.322C129.943 227.755 129.596 228.299 129.392 228.955L129.09 227.327L125.48 227.997L127.493 238.852L131.104 238.182L129.878 231.575C129.802 231.166 129.815 230.797 129.917 230.469C130.016 230.125 130.194 229.856 130.451 229.662C130.705 229.452 131.021 229.312 131.398 229.242C131.792 229.169 132.113 229.191 132.362 229.308C132.625 229.406 132.831 229.595 132.981 229.877C133.146 230.155 133.268 230.507 133.347 230.931ZM140.949 232.279L139.9 234.915C140.458 235.202 141.049 235.45 141.674 235.66C142.296 235.854 142.953 235.976 143.646 236.027C144.357 236.09 145.106 236.049 145.893 235.903C146.758 235.742 147.465 235.473 148.013 235.094C148.577 234.713 148.968 234.234 149.186 233.656C149.42 233.076 149.466 232.4 149.323 231.629C149.198 230.953 148.947 230.438 148.573 230.084C148.214 229.728 147.773 229.46 147.252 229.28C146.746 229.097 146.183 228.957 145.563 228.861C144.99 228.755 144.503 228.675 144.102 228.619C143.714 228.545 143.403 228.448 143.17 228.328C142.952 228.206 142.821 228.027 142.777 227.791C142.739 227.586 142.795 227.405 142.945 227.247C143.094 227.089 143.319 226.982 143.618 226.927C144.105 226.837 144.674 226.877 145.325 227.05C145.975 227.222 146.552 227.481 147.055 227.827L147.896 225.255C147.429 225.016 146.93 224.824 146.398 224.678C145.882 224.53 145.336 224.436 144.759 224.396C144.198 224.354 143.595 224.393 142.95 224.512C142.179 224.655 141.509 224.902 140.939 225.251C140.369 225.601 139.946 226.038 139.669 226.561C139.407 227.082 139.338 227.672 139.46 228.333C139.589 229.025 139.843 229.564 140.224 229.949C140.604 230.334 141.056 230.616 141.577 230.796C142.114 230.973 142.644 231.111 143.167 231.209C143.797 231.271 144.292 231.35 144.651 231.446C145.008 231.527 145.273 231.64 145.447 231.787C145.617 231.918 145.723 232.094 145.764 232.314C145.814 232.581 145.767 232.81 145.623 232.999C145.479 233.189 145.226 233.317 144.864 233.384C144.613 233.431 144.305 233.439 143.941 233.409C143.575 233.363 143.14 233.256 142.637 233.089C142.147 232.903 141.584 232.634 140.949 232.279ZM154.816 229.39L153.59 222.783L149.815 223.483L151.106 230.444C151.267 231.31 151.547 232.031 151.947 232.607C152.344 233.168 152.856 233.561 153.484 233.787C154.127 234.009 154.897 234.037 155.794 233.871C156.596 233.722 157.234 233.433 157.707 233.003C158.194 232.555 158.548 232.009 158.771 231.366L159.073 232.994L162.636 232.333L160.622 221.478L157.059 222.139L158.285 228.747C158.361 229.156 158.34 229.526 158.222 229.857C158.12 230.185 157.942 230.454 157.688 230.663C157.434 230.873 157.119 231.013 156.741 231.083C156.379 231.15 156.066 231.127 155.801 231.014C155.551 230.897 155.345 230.708 155.183 230.445C155.017 230.166 154.895 229.815 154.816 229.39ZM180.695 221.758C180.534 220.893 180.287 220.174 179.953 219.601C179.616 219.013 179.167 218.608 178.605 218.387C178.056 218.147 177.357 218.106 176.507 218.263C175.768 218.4 175.136 218.68 174.613 219.103C174.086 219.51 173.68 220.041 173.395 220.696C173.18 220.329 172.914 220.036 172.597 219.818C172.28 219.601 171.898 219.468 171.45 219.421C171.014 219.355 170.513 219.375 169.947 219.48C169.459 219.571 169.026 219.732 168.646 219.966C168.279 220.18 167.971 220.449 167.721 220.772C167.488 221.092 167.299 221.477 167.154 221.926L166.857 220.322L163.388 220.965L165.401 231.82L168.87 231.177L167.645 224.569C167.566 224.145 167.562 223.771 167.632 223.449C167.718 223.124 167.866 222.868 168.076 222.683C168.298 222.479 168.567 222.348 168.882 222.29C169.212 222.228 169.486 222.259 169.704 222.381C169.935 222.485 170.125 222.677 170.275 222.959C170.422 223.224 170.536 223.577 170.618 224.018L171.844 230.625L175.43 229.96L174.205 223.353C174.126 222.928 174.123 222.562 174.197 222.256C174.267 221.933 174.413 221.67 174.636 221.466C174.859 221.262 175.127 221.131 175.442 221.073C175.772 221.011 176.046 221.042 176.264 221.164C176.495 221.268 176.677 221.462 176.812 221.746C176.958 222.012 177.073 222.365 177.154 222.805L178.38 229.413L181.99 228.743L180.695 221.758ZM197.687 218.997L198.913 225.604L202.641 224.912L201.345 217.928C201.185 217.062 200.906 216.349 200.509 215.788C200.128 215.224 199.616 214.831 198.972 214.609C198.345 214.383 197.583 214.354 196.686 214.52C195.899 214.666 195.261 214.955 194.772 215.388C194.283 215.82 193.936 216.365 193.732 217.021L193.43 215.393L189.82 216.062L191.833 226.917L195.444 226.248L194.218 219.64C194.142 219.231 194.155 218.863 194.257 218.535C194.356 218.191 194.534 217.922 194.791 217.728C195.045 217.518 195.361 217.378 195.738 217.308C196.132 217.235 196.453 217.257 196.702 217.373C196.965 217.471 197.171 217.661 197.32 217.942C197.486 218.22 197.608 218.572 197.687 218.997ZM202.451 209.521C202.556 210.087 202.838 210.507 203.295 210.78C203.753 211.053 204.28 211.134 204.878 211.024C205.46 210.916 205.916 210.652 206.245 210.233C206.59 209.811 206.71 209.317 206.605 208.751C206.499 208.184 206.209 207.758 205.733 207.472C205.272 207.183 204.751 207.093 204.169 207.201C203.571 207.312 203.109 207.584 202.783 208.019C202.457 208.454 202.346 208.955 202.451 209.521ZM203.535 213.518L205.548 224.373L209.017 223.73L207.003 212.875L203.535 213.518ZM213.988 217.193C213.889 216.659 213.928 216.163 214.103 215.708C214.292 215.233 214.575 214.831 214.953 214.5C215.347 214.167 215.812 213.951 216.346 213.851C216.74 213.778 217.153 213.767 217.585 213.817C218.014 213.851 218.424 213.954 218.814 214.126C219.22 214.295 219.565 214.532 219.849 214.837L219.201 211.345C218.771 211.132 218.249 210.992 217.635 210.927C217.036 210.859 216.328 210.901 215.51 211.053C214.299 211.278 213.265 211.714 212.409 212.361C211.552 213.008 210.927 213.807 210.534 214.759C210.154 215.692 210.071 216.732 210.284 217.881C210.494 219.013 210.945 219.955 211.638 220.705C212.346 221.452 213.216 221.975 214.247 222.271C215.278 222.568 216.4 222.604 217.611 222.38C218.429 222.228 219.105 222.013 219.64 221.735C220.187 221.438 220.621 221.105 220.943 220.736L220.3 217.268C220.144 217.655 219.915 217.998 219.612 218.298C219.326 218.596 218.99 218.845 218.604 219.047C218.231 219.23 217.824 219.362 217.384 219.444C216.849 219.543 216.341 219.523 215.86 219.385C215.391 219.228 214.985 218.969 214.642 218.61C214.314 218.248 214.096 217.776 213.988 217.193ZM223.785 201.951L220.174 202.621L223.589 221.027L227.199 220.357L223.785 201.951ZM229.442 213.106L230.668 219.714L234.231 219.053L232.909 211.926C232.743 211.03 232.477 210.298 232.111 209.731C231.762 209.161 231.282 208.77 230.673 208.558C230.061 208.329 229.307 208.298 228.41 208.465C227.514 208.631 226.814 208.981 226.31 209.513C225.823 210.043 225.503 210.688 225.351 211.449C225.196 212.193 225.199 212.998 225.36 213.864L225.973 213.75C225.892 213.309 225.903 212.933 226.008 212.621C226.11 212.293 226.289 212.031 226.546 211.837C226.8 211.627 227.116 211.488 227.493 211.418C227.887 211.345 228.208 211.366 228.458 211.483C228.72 211.581 228.926 211.77 229.076 212.052C229.241 212.33 229.363 212.682 229.442 213.106ZM233.736 207.916L234.283 210.866L241.551 209.518L241.004 206.568L233.736 207.916ZM234.947 203.786L237.661 218.417L241.106 217.777L238.393 203.147L234.947 203.786ZM257.2 215.036C258.585 214.779 259.707 214.295 260.567 213.582C261.428 212.869 262.05 211.924 262.434 210.746L259.08 210.562C258.916 211.081 258.627 211.501 258.215 211.821C257.803 212.142 257.282 212.361 256.652 212.477C256.118 212.576 255.63 212.537 255.19 212.358C254.766 212.176 254.417 211.875 254.144 211.454C253.867 211.017 253.676 210.466 253.569 209.803C253.467 209.252 253.426 208.771 253.448 208.361C253.482 207.931 253.577 207.564 253.732 207.258C253.886 206.953 254.102 206.71 254.377 206.528C254.666 206.328 255.014 206.191 255.423 206.115C255.832 206.039 256.212 206.066 256.561 206.197C256.927 206.324 257.22 206.546 257.442 206.863C257.66 207.164 257.815 207.559 257.905 208.046C257.926 208.157 257.927 208.295 257.909 208.461C257.888 208.611 257.851 208.764 257.799 208.92L258.447 207.677L251.745 208.921L252.113 210.903L262.048 209.06C262.04 208.931 262.022 208.788 261.992 208.631C261.963 208.473 261.933 208.308 261.901 208.135C261.685 206.971 261.273 206.022 260.665 205.289C260.057 204.555 259.281 204.057 258.337 203.792C257.39 203.512 256.287 203.489 255.028 203.723C254.085 203.898 253.26 204.189 252.554 204.596C251.846 204.988 251.269 205.478 250.825 206.064C250.381 206.651 250.083 207.325 249.931 208.086C249.792 208.827 249.804 209.639 249.967 210.52C250.18 211.668 250.617 212.62 251.278 213.376C251.939 214.133 252.77 214.662 253.77 214.965C254.782 215.249 255.926 215.273 257.2 215.036ZM262.159 198.446C262.264 199.012 262.546 199.432 263.003 199.705C263.461 199.978 263.988 200.059 264.586 199.948C265.168 199.84 265.624 199.577 265.953 199.158C266.298 198.736 266.418 198.241 266.313 197.675C266.208 197.109 265.917 196.683 265.441 196.397C264.98 196.108 264.459 196.017 263.877 196.125C263.279 196.236 262.817 196.509 262.491 196.944C262.165 197.379 262.054 197.879 262.159 198.446ZM263.243 202.443L265.256 213.298L268.725 212.654L266.712 201.8L263.243 202.443ZM277.513 204.19L278.738 210.797L282.467 210.105L281.171 203.121C281.011 202.255 280.732 201.542 280.335 200.981C279.954 200.417 279.441 200.024 278.798 199.802C278.17 199.576 277.408 199.547 276.512 199.713C275.725 199.859 275.087 200.148 274.598 200.581C274.108 201.013 273.762 201.558 273.558 202.214L273.256 200.586L269.646 201.255L271.659 212.11L275.27 211.44L274.044 204.833C273.968 204.424 273.981 204.056 274.083 203.727C274.182 203.384 274.36 203.115 274.617 202.921C274.871 202.711 275.187 202.571 275.564 202.501C275.957 202.428 276.279 202.45 276.528 202.566C276.79 202.664 276.996 202.853 277.146 203.135C277.312 203.413 277.434 203.765 277.513 204.19Z" fill="#3D3D3D"/>
<defs>
<filter id="filter0_d" x="0" y="0" width="436" height="388" filterUnits="userSpaceOnUse" color-interpolation-filters="sRGB">
<feFlood flood-opacity="0" result="BackgroundImageFix"/>
<feColorMatrix in="SourceAlpha" type="matrix" values="0 0 0 0 0 0 0 0 0 0 0 0 0 0 0 0 0 0 127 0"/>
<feOffset dx="9" dy="5"/>
<feGaussianBlur stdDeviation="17"/>
<feColorMatrix type="matrix" values="0 0 0 0 0.696806 0 0 0 0 0.800602 0 0 0 0 0.811528 0 0 0 0.64 0"/>
<feBlend mode="normal" in2="BackgroundImageFix" result="effect1_dropShadow"/>
<feBlend mode="normal" in="SourceGraphic" in2="effect1_dropShadow" result="shape"/>
</filter>
<linearGradient id="paint0_linear" x1="25" y1="29" x2="332.692" y2="336.643" gradientUnits="userSpaceOnUse">
<stop stop-color="#ECF3F3"/>
<stop offset="1" stop-color="#B3CDD0"/>
</linearGradient>
</defs>
</svg>
