<svg width="415" height="370" viewBox="0 0 415 370" fill="none" xmlns="http://www.w3.org/2000/svg">
<g filter="url(#filter0_d)">
<path d="M59.9617 30.8821L339.658 105.563C363.652 112.74 377.328 138.249 370.04 162.24L349.895 228.678C342.647 252.669 316.32 270.263 291.425 267.761L281.475 266.777L243.642 331C243.642 331 246.49 301.666 243.642 287.239C240.794 272.812 230.662 261.733 230.662 261.733L100.538 248.732C75.6436 246.23 50.9128 224.167 45.5899 199.683L26.0591 62.3785C20.7362 37.8539 36.0087 23.6642 59.9617 30.8821Z" fill="url(#paint0_linear)"/>
</g>
<g style="mix-blend-mode:overlay" opacity="0.4">
<path d="M63.2518 124.15C61.118 123.775 59.3089 122.69 57.8246 120.894C56.4164 119.044 55.4434 116.804 54.9057 114.172C54.3679 111.541 54.3436 108.832 54.8326 106.048C55.6288 101.514 57.182 97.4137 59.4923 93.7468C61.814 90.0152 64.4156 86.967 67.2972 84.6022C70.1901 82.1726 72.8438 80.5356 75.2584 79.6911L75.3554 79.7082L78.541 83.7727L78.268 85.327C76.3899 86.5328 74.495 88.4032 72.5834 90.9383C70.7365 93.4848 69.4548 96.7982 68.7382 100.878C68.3857 102.886 68.3866 104.589 68.7411 105.986C69.0956 107.384 69.6974 108.892 70.5464 110.509C71.2888 111.975 71.7954 113.266 72.0661 114.382C72.3481 115.432 72.3583 116.703 72.0967 118.192C71.7328 120.265 70.6821 121.883 68.9447 123.047C67.2833 124.157 65.3856 124.525 63.2518 124.15ZM91.1856 129.055C89.0518 128.681 87.2428 127.595 85.7585 125.799C84.3502 123.949 83.3772 121.709 82.8395 119.077C82.3018 116.446 82.2774 113.738 82.7665 110.953C83.5626 106.419 85.1158 102.319 87.4262 98.6522C89.7478 94.9206 92.3495 91.8724 95.231 89.5076C98.1239 87.078 100.778 85.441 103.192 84.5965L103.289 84.6136L106.475 88.678L106.202 90.2324C104.324 91.4382 102.423 93.341 100.5 95.9409C98.5886 98.476 97.2802 101.751 96.5751 105.767C96.2225 107.775 96.2235 109.477 96.578 110.875C96.9324 112.272 97.5342 113.78 98.3832 115.398C99.1257 116.863 99.6322 118.154 99.9029 119.27C100.185 120.321 100.195 121.591 99.9336 123.081C99.5696 125.153 98.5513 126.777 96.8785 127.952C95.2171 129.062 93.3195 129.43 91.1856 129.055Z" fill="#3D3D3D"/>
</g>
<g style="mix-blend-mode:overlay" opacity="0.4">
<path d="M322.515 197.388C324.223 197.708 325.664 198.596 326.838 200.051C327.951 201.548 328.711 203.354 329.118 205.47C329.525 207.586 329.52 209.759 329.101 211.989C328.421 215.619 327.137 218.894 325.249 221.814C323.352 224.786 321.237 227.208 318.903 229.078C316.56 231 314.416 232.289 312.471 232.944L312.393 232.93L309.875 229.639L310.108 228.395C311.626 227.445 313.164 225.962 314.721 223.946C316.226 221.92 317.285 219.274 317.898 216.007C318.199 214.4 318.214 213.034 317.943 211.909C317.671 210.785 317.202 209.57 316.536 208.264C315.954 207.081 315.56 206.041 315.353 205.143C315.136 204.298 315.14 203.278 315.364 202.086C315.675 200.426 316.533 199.138 317.937 198.221C319.28 197.345 320.806 197.068 322.515 197.388ZM300.15 193.194C301.858 193.515 303.3 194.402 304.474 195.857C305.587 197.354 306.346 199.16 306.753 201.276C307.16 203.392 307.155 205.565 306.737 207.795C306.056 211.425 304.772 214.7 302.885 217.62C300.988 220.592 298.872 223.014 296.539 224.884C294.195 226.806 292.051 228.095 290.106 228.75L290.028 228.736L287.51 225.446L287.744 224.201C289.262 223.251 290.804 221.742 292.371 219.674C293.928 217.658 295.008 215.043 295.611 211.828C295.912 210.22 295.927 208.854 295.656 207.73C295.384 206.605 294.915 205.39 294.249 204.084C293.667 202.902 293.273 201.862 293.066 200.964C292.849 200.118 292.853 199.099 293.077 197.906C293.388 196.247 294.22 194.954 295.573 194.027C296.916 193.151 298.442 192.874 300.15 193.194Z" fill="#3D3D3D"/>
</g>
<path d="M79.2602 119.287L84.765 120.272C84.5078 120.892 84.171 121.457 83.7546 121.968C83.354 122.482 82.878 122.917 82.3266 123.273C81.7753 123.63 81.1463 123.875 80.4397 124.009C79.7517 124.129 78.9982 124.117 78.1792 123.97C77.313 123.815 76.5221 123.511 75.8067 123.058C75.107 122.608 74.5243 122.049 74.0587 121.381C73.5958 120.696 73.2694 119.931 73.0795 119.084C72.9081 118.225 72.9083 117.315 73.08 116.354C73.2518 115.393 73.5656 114.547 74.0214 113.816C74.4958 113.072 75.0671 112.467 75.7355 112.001C76.4067 111.52 77.1485 111.189 77.9608 111.009C78.7889 110.832 79.6361 110.821 80.5023 110.976C81.7624 111.202 82.8119 111.649 83.6511 112.319C84.4931 112.974 85.0951 113.788 85.4572 114.763L87.107 113.717C86.7725 112.861 86.3052 112.111 85.7051 111.468C85.1207 110.827 84.4194 110.295 83.601 109.872C82.7983 109.453 81.8851 109.151 80.8614 108.968C79.6643 108.754 78.5159 108.768 77.4161 109.01C76.3192 109.237 75.3237 109.668 74.4297 110.305C73.5385 110.926 72.7874 111.718 72.1763 112.682C71.5809 113.648 71.1734 114.745 70.9538 115.974C70.7341 117.202 70.7361 118.373 70.9598 119.486C71.1992 120.601 71.6279 121.612 72.246 122.519C72.8668 123.411 73.6511 124.16 74.5988 124.769C75.5494 125.361 76.6232 125.764 77.8202 125.978C79.0802 126.204 80.2393 126.175 81.2975 125.893C82.3742 125.598 83.323 125.109 84.1439 124.427C84.9648 123.745 85.64 122.923 86.1695 121.961C86.7019 120.984 87.0708 119.92 87.2764 118.77L79.5982 117.397L79.2602 119.287ZM92.7843 128.654C93.9498 128.862 94.9987 128.814 95.9308 128.509C96.8816 128.192 97.7221 127.627 98.4524 126.815L97.09 125.571C96.5779 126.162 96.0089 126.573 95.3827 126.802C94.7594 127.016 94.0776 127.056 93.3373 126.924C92.5971 126.792 91.9952 126.522 91.5318 126.114C91.0683 125.706 90.7562 125.179 90.5955 124.532C90.4347 123.886 90.4304 123.137 90.5825 122.287C90.6923 121.673 90.8696 121.135 91.1144 120.675C91.3592 120.215 91.6608 119.846 92.0192 119.569C92.3775 119.292 92.7849 119.105 93.2411 119.008C93.7131 118.913 94.2168 118.914 94.7523 119.01C95.3666 119.119 95.8782 119.349 96.287 119.698C96.6959 120.048 96.9841 120.481 97.1517 120.999C97.3349 121.519 97.3689 122.102 97.2534 122.748C97.2337 122.858 97.1847 122.996 97.1065 123.161C97.0311 123.31 96.9627 123.419 96.9014 123.49L97.8517 122.538L90.0553 121.144L89.7681 122.751L99.0529 124.411C99.0585 124.379 99.0712 124.308 99.0909 124.198C99.1292 124.075 99.1582 123.958 99.1779 123.848C99.3834 122.698 99.3561 121.669 99.0958 120.761C98.8356 119.853 98.359 119.11 97.666 118.531C96.9917 117.939 96.119 117.547 95.048 117.356C94.2447 117.212 93.487 117.223 92.7748 117.388C92.0654 117.538 91.4294 117.822 90.8668 118.242C90.307 118.645 89.8313 119.17 89.4396 119.815C89.0637 120.463 88.7997 121.212 88.6477 122.063C88.4478 123.181 88.4844 124.203 88.7576 125.13C89.0465 126.059 89.5332 126.837 90.2177 127.463C90.9208 128.077 91.7763 128.473 92.7843 128.654ZM105.846 111.728L103.956 111.39L100.662 129.818L102.552 130.156L105.846 111.728ZM112.619 126.349C112.83 125.167 112.766 124.116 112.427 123.194C112.091 122.256 111.554 121.485 110.817 120.882C110.095 120.282 109.239 119.893 108.246 119.715C107.569 119.594 106.923 119.617 106.308 119.783C105.712 119.937 105.165 120.221 104.668 120.636C104.187 121.054 103.773 121.598 103.426 122.267C103.082 122.92 102.831 123.688 102.673 124.57C102.515 125.452 102.483 126.267 102.577 127.016C102.674 127.748 102.875 128.394 103.182 128.952C103.504 129.514 103.917 129.978 104.42 130.344C104.942 130.697 105.542 130.934 106.219 131.056C107.211 131.233 108.15 131.165 109.035 130.852C109.935 130.542 110.706 130.005 111.346 129.242C111.986 128.478 112.411 127.514 112.619 126.349ZM110.705 126.006C110.556 126.841 110.256 127.519 109.806 128.04C109.371 128.563 108.843 128.924 108.222 129.122C107.618 129.323 106.977 129.363 106.299 129.241C105.89 129.168 105.496 129.008 105.117 128.762C104.739 128.515 104.406 128.196 104.118 127.803C103.847 127.413 103.651 126.964 103.531 126.455C103.413 125.93 103.411 125.352 103.523 124.722C103.636 124.092 103.837 123.559 104.126 123.123C104.418 122.672 104.759 122.31 105.149 122.039C105.555 121.77 105.978 121.585 106.418 121.485C106.859 121.385 107.284 121.372 107.693 121.445C108.371 121.566 108.958 121.826 109.456 122.223C109.969 122.624 110.339 123.145 110.566 123.787C110.808 124.432 110.855 125.172 110.705 126.006ZM118.087 121.719L116.197 121.381L114.254 132.248L116.144 132.586L118.087 121.719ZM120.999 124.385L122.317 123.011C122.087 122.661 121.808 122.408 121.478 122.252C121.167 122.082 120.814 121.962 120.421 121.892C119.917 121.802 119.385 121.91 118.827 122.217C118.268 122.523 117.771 122.987 117.335 123.608C116.917 124.216 116.631 124.953 116.476 125.819L117.327 125.971C117.419 125.451 117.55 124.995 117.718 124.603C117.901 124.213 118.148 123.924 118.458 123.735C118.768 123.547 119.159 123.495 119.631 123.579C119.946 123.636 120.198 123.729 120.386 123.861C120.576 123.976 120.781 124.151 120.999 124.385ZM123.802 130.493C123.873 130.1 124.028 129.778 124.267 129.528C124.507 129.278 124.83 129.109 125.236 129.019C125.658 128.932 126.176 128.943 126.79 129.053C127.452 129.171 128.059 129.369 128.61 129.646C129.165 129.908 129.684 130.277 130.168 130.754L130.366 129.643C130.281 129.482 130.101 129.263 129.826 128.986C129.553 128.693 129.164 128.413 128.66 128.144C128.174 127.862 127.537 127.65 126.749 127.509C125.867 127.352 125.077 127.365 124.378 127.549C123.697 127.72 123.137 128.034 122.697 128.492C122.274 128.952 121.998 129.537 121.872 130.246C121.739 130.986 121.8 131.647 122.054 132.229C122.307 132.81 122.692 133.294 123.208 133.679C123.743 134.051 124.342 134.296 125.003 134.414C125.602 134.521 126.22 134.518 126.858 134.404C127.511 134.293 128.084 134.046 128.575 133.663C129.082 133.282 129.397 132.745 129.521 132.052L129.397 130.567C129.295 131.134 129.063 131.613 128.701 132.003C128.357 132.38 127.928 132.645 127.413 132.797C126.914 132.951 126.373 132.977 125.791 132.872C125.334 132.791 124.937 132.647 124.6 132.44C124.282 132.221 124.047 131.943 123.896 131.607C123.76 131.274 123.729 130.903 123.802 130.493ZM124.414 125.434C124.61 125.339 124.873 125.232 125.203 125.112C125.533 124.992 125.922 124.907 126.37 124.857C126.834 124.81 127.333 124.834 127.869 124.93C128.2 124.989 128.509 125.077 128.797 125.194C129.085 125.31 129.327 125.459 129.522 125.64C129.733 125.824 129.879 126.053 129.959 126.328C130.043 126.587 130.051 126.905 129.984 127.283L128.636 134.82L130.526 135.158L131.92 127.361C132.047 126.652 131.973 126.022 131.698 125.469C131.439 124.918 131.009 124.459 130.408 124.092C129.826 123.712 129.11 123.445 128.259 123.293C127.251 123.113 126.358 123.108 125.58 123.278C124.818 123.45 124.205 123.649 123.742 123.875L124.414 125.434ZM136.377 131.815L137.559 125.2L135.669 124.862L134.444 131.713C134.29 132.58 134.304 133.362 134.488 134.062C134.69 134.748 135.036 135.314 135.525 135.759C136.03 136.207 136.661 136.498 137.417 136.633C138.141 136.763 138.8 136.718 139.391 136.499C139.986 136.264 140.522 135.856 141 135.275L140.696 136.976L142.586 137.314L144.529 126.446L142.639 126.108L141.456 132.723C141.36 133.259 141.158 133.71 140.848 134.077C140.555 134.447 140.174 134.713 139.706 134.873C139.258 135.02 138.757 135.044 138.206 134.946C137.702 134.856 137.295 134.677 136.985 134.411C136.678 134.128 136.473 133.775 136.37 133.35C136.27 132.909 136.272 132.398 136.377 131.815ZM147.961 132.667C148.096 131.911 148.373 131.27 148.792 130.743C149.23 130.204 149.754 129.818 150.365 129.586C150.991 129.357 151.658 129.305 152.367 129.432C152.95 129.536 153.476 129.728 153.946 130.007C154.435 130.273 154.842 130.59 155.166 130.956C155.491 131.323 155.7 131.702 155.792 132.092L156.215 129.73C155.915 129.221 155.433 128.785 154.766 128.422C154.118 128.047 153.424 127.792 152.684 127.66C151.629 127.471 150.632 127.545 149.694 127.881C148.756 128.218 147.959 128.766 147.303 129.526C146.663 130.29 146.244 131.222 146.047 132.325C145.853 133.412 145.922 134.432 146.256 135.385C146.608 136.326 147.165 137.117 147.929 137.757C148.692 138.397 149.601 138.812 150.656 139C151.397 139.133 152.134 139.143 152.87 139.03C153.623 138.905 154.229 138.656 154.686 138.282L155.108 135.92C154.889 136.238 154.562 136.521 154.127 136.768C153.696 137 153.203 137.164 152.65 137.26C152.115 137.343 151.556 137.333 150.973 137.228C150.264 137.102 149.656 136.822 149.148 136.39C148.659 135.945 148.301 135.402 148.074 134.76C147.864 134.121 147.826 133.423 147.961 132.667ZM162.606 121.876L160.716 121.538L157.421 139.966L159.311 140.304L162.606 121.876ZM165.573 134.597L164.39 141.212L166.28 141.55L167.505 134.698C167.674 133.753 167.658 132.938 167.455 132.251C167.269 131.568 166.92 131.018 166.409 130.602C165.914 130.188 165.289 129.914 164.533 129.779C163.777 129.643 163.072 129.721 162.419 130.01C161.782 130.303 161.237 130.758 160.785 131.376C160.336 131.978 160.034 132.713 159.879 133.579L160.494 133.689C160.587 133.169 160.78 132.724 161.074 132.354C161.383 131.987 161.764 131.722 162.215 131.558C162.683 131.398 163.192 131.367 163.744 131.466C164.263 131.559 164.67 131.737 164.964 132.001C165.274 132.268 165.479 132.621 165.579 133.062C165.682 133.487 165.68 133.998 165.573 134.597ZM170.123 131.022L169.806 132.794L175.24 133.765L175.557 131.993L170.123 131.022ZM172.57 127.558L169.952 142.206L171.842 142.544L174.46 127.896L172.57 127.558ZM179.672 144.188C180.838 144.396 181.887 144.348 182.819 144.043C183.769 143.726 184.61 143.161 185.34 142.349L183.978 141.106C183.466 141.697 182.897 142.107 182.271 142.336C181.647 142.55 180.966 142.591 180.225 142.458C179.485 142.326 178.883 142.056 178.42 141.648C177.956 141.24 177.644 140.713 177.483 140.066C177.323 139.42 177.318 138.672 177.47 137.821C177.58 137.207 177.758 136.67 178.002 136.209C178.247 135.749 178.549 135.381 178.907 135.103C179.265 134.826 179.673 134.639 180.129 134.542C180.601 134.447 181.105 134.448 181.64 134.544C182.255 134.654 182.766 134.883 183.175 135.233C183.584 135.582 183.872 136.015 184.04 136.533C184.223 137.053 184.257 137.636 184.141 138.282C184.122 138.392 184.073 138.53 183.994 138.695C183.919 138.844 183.851 138.954 183.789 139.024L184.74 138.072L176.943 136.678L176.656 138.285L185.941 139.945C185.946 139.913 185.959 139.843 185.979 139.732C186.017 139.609 186.046 139.492 186.066 139.382C186.271 138.232 186.244 137.203 185.984 136.295C185.723 135.387 185.247 134.644 184.554 134.065C183.88 133.473 183.007 133.081 181.936 132.89C181.133 132.746 180.375 132.757 179.663 132.922C178.953 133.072 178.317 133.356 177.755 133.776C177.195 134.18 176.719 134.704 176.328 135.349C175.952 135.997 175.688 136.746 175.536 137.597C175.336 138.715 175.372 139.738 175.646 140.664C175.934 141.594 176.421 142.371 177.106 142.998C177.809 143.611 178.664 144.008 179.672 144.188ZM197.826 130.123L194.869 146.661L196.877 147.02L199.834 130.482L197.826 130.123ZM198.598 132.212L201.977 132.816C202.685 132.943 203.286 133.172 203.78 133.504C204.292 133.823 204.656 134.238 204.874 134.748C205.107 135.261 205.163 135.856 205.042 136.533C204.921 137.211 204.662 137.749 204.266 138.15C203.885 138.553 203.397 138.824 202.804 138.961C202.229 139.086 201.587 139.085 200.878 138.958L197.5 138.354L197.162 140.244L200.541 140.848C201.612 141.04 202.6 141.013 203.505 140.769C204.429 140.511 205.201 140.056 205.821 139.403C206.46 138.737 206.87 137.9 207.05 136.892C207.233 135.869 207.139 134.942 206.767 134.111C206.412 133.284 205.844 132.597 205.063 132.051C204.302 131.492 203.386 131.117 202.315 130.926L198.936 130.322L198.598 132.212ZM211.066 138.342L209.176 138.004L207.233 148.871L209.123 149.209L211.066 138.342ZM213.978 141.008L215.296 139.634C215.066 139.284 214.786 139.031 214.457 138.875C214.146 138.705 213.793 138.586 213.4 138.515C212.896 138.425 212.364 138.533 211.806 138.84C211.247 139.146 210.75 139.61 210.313 140.231C209.896 140.839 209.61 141.576 209.455 142.442L210.305 142.594C210.398 142.074 210.529 141.618 210.696 141.226C210.88 140.836 211.127 140.547 211.437 140.358C211.747 140.17 212.138 140.118 212.61 140.203C212.925 140.259 213.177 140.353 213.365 140.484C213.555 140.599 213.76 140.774 213.978 141.008ZM215.011 144.655C214.817 145.741 214.886 146.762 215.22 147.715C215.572 148.656 216.129 149.446 216.893 150.086C217.656 150.727 218.565 151.141 219.62 151.33C220.691 151.521 221.688 151.448 222.61 151.109C223.548 150.772 224.337 150.223 224.977 149.46C225.636 148.683 226.063 147.752 226.257 146.665C226.454 145.563 226.377 144.541 226.025 143.6C225.688 142.663 225.139 141.874 224.376 141.233C223.628 140.596 222.719 140.181 221.648 139.99C220.593 139.801 219.596 139.875 218.658 140.211C217.72 140.547 216.923 141.096 216.267 141.856C215.627 142.619 215.208 143.552 215.011 144.655ZM216.925 144.997C217.06 144.241 217.337 143.599 217.756 143.073C218.194 142.534 218.718 142.148 219.329 141.916C219.955 141.686 220.622 141.635 221.331 141.762C222.04 141.888 222.64 142.166 223.132 142.596C223.64 143.028 223.998 143.571 224.206 144.226C224.433 144.868 224.478 145.567 224.343 146.323C224.208 147.079 223.923 147.719 223.488 148.242C223.069 148.769 222.545 149.155 221.916 149.4C221.305 149.632 220.646 149.685 219.937 149.558C219.228 149.431 218.62 149.152 218.112 148.72C217.623 148.275 217.265 147.731 217.038 147.089C216.828 146.45 216.79 145.753 216.925 144.997ZM239.327 135.593L236.033 154.02L237.923 154.358L241.217 135.931L239.327 135.593ZM227.908 146.96C227.7 148.126 227.764 149.178 228.1 150.115C228.436 151.053 228.973 151.824 229.71 152.427C230.448 153.03 231.305 153.419 232.281 153.594C232.958 153.715 233.595 153.698 234.192 153.545C234.806 153.379 235.354 153.086 235.835 152.669C236.332 152.254 236.753 151.719 237.097 151.066C237.444 150.396 237.697 149.621 237.855 148.739C238.012 147.857 238.043 147.049 237.946 146.317C237.852 145.569 237.644 144.914 237.322 144.352C237.016 143.794 236.602 143.338 236.08 142.984C235.576 142.618 234.986 142.374 234.309 142.253C233.332 142.079 232.393 142.147 231.493 142.457C230.592 142.767 229.822 143.304 229.181 144.067C228.544 144.815 228.119 145.779 227.908 146.96ZM229.822 147.303C229.971 146.468 230.263 145.789 230.698 145.265C231.149 144.744 231.685 144.385 232.305 144.187C232.926 143.989 233.567 143.949 234.228 144.067C234.638 144.141 235.032 144.301 235.41 144.547C235.789 144.793 236.114 145.112 236.385 145.502C236.673 145.894 236.875 146.353 236.993 146.878C237.113 147.387 237.117 147.957 237.004 148.587C236.891 149.217 236.689 149.757 236.397 150.209C236.108 150.645 235.76 150.997 235.355 151.266C234.965 151.538 234.55 151.724 234.109 151.824C233.669 151.924 233.244 151.937 232.834 151.864C232.173 151.746 231.585 151.486 231.072 151.086C230.558 150.685 230.18 150.162 229.938 149.518C229.711 148.876 229.673 148.137 229.822 147.303ZM244.006 151.057L245.189 144.442L243.299 144.104L242.074 150.956C241.919 151.822 241.933 152.605 242.117 153.304C242.319 153.99 242.665 154.556 243.155 155.001C243.66 155.449 244.29 155.741 245.046 155.876C245.771 156.005 246.429 155.96 247.021 155.741C247.615 155.506 248.152 155.098 248.629 154.517L248.325 156.218L250.215 156.556L252.158 145.688L250.268 145.35L249.085 151.966C248.99 152.501 248.787 152.952 248.478 153.32C248.184 153.69 247.803 153.955 247.336 154.115C246.887 154.262 246.387 154.287 245.836 154.188C245.332 154.098 244.925 153.92 244.615 153.653C244.308 153.371 244.103 153.017 244 152.592C243.9 152.152 243.902 151.64 244.006 151.057ZM256.945 138.742L253.65 157.17L255.54 157.508L258.835 139.08L256.945 138.742ZM261.499 147.358L255.972 151.002L260.029 158.311L262.392 158.733L258.334 151.425L263.862 147.781L261.499 147.358ZM264.463 147.888L264.146 149.66L269.58 150.632L269.897 148.86L264.463 147.888ZM266.91 144.425L264.292 159.073L266.182 159.411L268.801 144.763L266.91 144.425ZM274.012 161.054C275.178 161.263 276.227 161.215 277.159 160.91C278.11 160.592 278.95 160.027 279.68 159.215L278.318 157.972C277.806 158.563 277.237 158.973 276.611 159.203C275.987 159.416 275.306 159.457 274.565 159.325C273.825 159.192 273.223 158.922 272.76 158.514C272.296 158.106 271.984 157.579 271.823 156.933C271.663 156.286 271.658 155.538 271.81 154.687C271.92 154.073 272.098 153.536 272.342 153.076C272.587 152.616 272.889 152.247 273.247 151.97C273.606 151.693 274.013 151.505 274.469 151.408C274.941 151.314 275.445 151.314 275.98 151.41C276.595 151.52 277.106 151.75 277.515 152.099C277.924 152.448 278.212 152.882 278.38 153.4C278.563 153.92 278.597 154.503 278.481 155.149C278.462 155.259 278.413 155.397 278.334 155.561C278.259 155.71 278.191 155.82 278.129 155.89L279.08 154.939L271.283 153.545L270.996 155.151L280.281 156.811C280.286 156.78 280.299 156.709 280.319 156.599C280.357 156.476 280.386 156.359 280.406 156.249C280.611 155.099 280.584 154.07 280.324 153.162C280.064 152.254 279.587 151.511 278.894 150.932C278.22 150.34 277.347 149.948 276.276 149.756C275.473 149.613 274.715 149.624 274.003 149.789C273.293 149.938 272.657 150.223 272.095 150.642C271.535 151.046 271.059 151.571 270.668 152.216C270.292 152.864 270.028 153.613 269.876 154.463C269.676 155.582 269.712 156.604 269.986 157.531C270.275 158.46 270.761 159.238 271.446 159.864C272.149 160.477 273.004 160.874 274.012 161.054ZM290.135 160.255L288.482 160.911C288.611 161.373 288.836 161.844 289.156 162.323C289.492 162.806 289.928 163.233 290.463 163.605C291.001 163.962 291.632 164.204 292.356 164.334C293.097 164.466 293.768 164.44 294.37 164.255C294.99 164.057 295.502 163.742 295.904 163.31C296.309 162.863 296.568 162.324 296.68 161.694C296.796 161.048 296.733 160.492 296.491 160.026C296.265 159.563 295.917 159.144 295.448 158.767C294.982 158.375 294.456 157.997 293.871 157.632C293.522 157.407 293.189 157.177 292.873 156.942C292.558 156.706 292.31 156.459 292.128 156.199C291.947 155.939 291.882 155.667 291.933 155.384C291.998 155.022 292.187 154.779 292.502 154.657C292.816 154.534 293.17 154.508 293.564 154.578C294.131 154.68 294.611 154.904 295.004 155.25C295.413 155.6 295.731 156.006 295.957 156.469L297.642 155.771C297.495 155.322 297.252 154.904 296.915 154.519C296.577 154.134 296.166 153.8 295.68 153.518C295.209 153.239 294.683 153.047 294.1 152.943C293.517 152.839 292.932 152.84 292.344 152.946C291.772 153.055 291.275 153.291 290.852 153.655C290.446 154.021 290.184 154.527 290.069 155.172C289.956 155.802 290.019 156.358 290.258 156.84C290.516 157.308 290.857 157.719 291.282 158.071C291.725 158.41 292.166 158.717 292.605 158.99C293.002 159.224 293.372 159.469 293.717 159.725C294.064 159.966 294.331 160.242 294.52 160.552C294.727 160.849 294.796 161.186 294.729 161.564C294.653 161.99 294.435 162.3 294.075 162.496C293.733 162.678 293.295 162.722 292.759 162.626C292.318 162.547 291.923 162.395 291.573 162.17C291.242 161.932 290.96 161.646 290.727 161.312C290.494 160.978 290.297 160.626 290.135 160.255ZM301.365 149.853C301.303 150.2 301.374 150.53 301.578 150.842C301.801 151.142 302.086 151.323 302.432 151.385C302.794 151.45 303.124 151.379 303.421 151.172C303.721 150.949 303.902 150.665 303.964 150.318C304.029 149.956 303.958 149.626 303.751 149.329C303.544 149.032 303.259 148.851 302.897 148.786C302.55 148.724 302.221 148.796 301.908 149C301.611 149.207 301.43 149.491 301.365 149.853ZM300.917 154.406L298.974 165.273L300.864 165.611L302.807 154.744L300.917 154.406ZM312.909 160.938L311.726 167.553L313.616 167.891L314.841 161.04C314.999 160.158 314.976 159.374 314.774 158.687C314.587 158.004 314.249 157.439 313.76 156.994C313.271 156.549 312.64 156.258 311.869 156.12C311.16 155.993 310.502 156.038 309.894 156.254C309.302 156.474 308.766 156.882 308.286 157.478L308.59 155.777L306.7 155.44L304.757 166.307L306.647 166.645L307.829 160.03C307.925 159.494 308.12 159.042 308.414 158.672C308.723 158.304 309.102 158.047 309.551 157.9C310.019 157.74 310.528 157.709 311.079 157.807C311.583 157.897 311.99 158.076 312.3 158.342C312.61 158.609 312.815 158.963 312.915 159.403C313.018 159.828 313.016 160.34 312.909 160.938ZM328.615 151.556L325.32 169.984L327.21 170.321L330.505 151.894L328.615 151.556ZM317.196 162.924C316.987 164.089 317.051 165.141 317.387 166.079C317.724 167.016 318.26 167.787 318.998 168.39C319.735 168.993 320.592 169.382 321.569 169.557C322.246 169.678 322.883 169.662 323.479 169.508C324.094 169.342 324.642 169.05 325.123 168.632C325.62 168.217 326.04 167.682 326.385 167.029C326.732 166.359 326.984 165.584 327.142 164.702C327.3 163.82 327.33 163.013 327.234 162.28C327.14 161.532 326.932 160.877 326.61 160.316C326.303 159.757 325.889 159.301 325.367 158.948C324.864 158.581 324.273 158.338 323.596 158.216C322.619 158.042 321.681 158.11 320.78 158.42C319.88 158.73 319.109 159.267 318.469 160.03C317.831 160.778 317.407 161.742 317.196 162.924ZM319.109 163.266C319.259 162.431 319.551 161.752 319.986 161.228C320.436 160.707 320.972 160.348 321.592 160.15C322.213 159.952 322.854 159.912 323.515 160.031C323.925 160.104 324.319 160.264 324.697 160.51C325.076 160.757 325.401 161.075 325.673 161.465C325.96 161.857 326.163 162.316 326.28 162.841C326.4 163.35 326.404 163.92 326.291 164.55C326.179 165.18 325.976 165.721 325.684 166.172C325.395 166.608 325.048 166.96 324.642 167.229C324.252 167.501 323.837 167.687 323.397 167.787C322.956 167.887 322.531 167.9 322.122 167.827C321.46 167.709 320.873 167.449 320.359 167.049C319.846 166.648 319.468 166.125 319.225 165.481C318.999 164.839 318.96 164.1 319.109 163.266ZM62.8715 161.453C62.7943 162.431 62.9114 163.321 63.2228 164.125C63.5343 164.928 64.0866 165.612 64.8796 166.176C65.6699 166.756 66.7501 167.169 68.1204 167.414C69.2072 167.608 70.2346 167.589 71.2028 167.356C72.1867 167.125 73.0238 166.625 73.7142 165.854C74.4046 165.084 74.8751 163.997 75.1257 162.596L77.0265 151.964L73.6008 151.352L71.7 161.983C71.5846 162.629 71.36 163.158 71.0264 163.569C70.7084 163.984 70.325 164.265 69.8761 164.412C69.4272 164.559 68.9507 164.588 68.4467 164.498C67.9899 164.416 67.5931 164.272 67.2562 164.066C66.935 163.862 66.6988 163.592 66.5476 163.256C66.3963 162.92 66.3286 162.526 66.3445 162.074L62.8715 161.453ZM63.7715 155.056C63.5547 156.269 63.6158 157.336 63.9548 158.258C64.2966 159.164 64.8168 159.891 65.5153 160.439C66.2296 160.989 67.0357 161.344 67.9334 161.505C68.6107 161.626 69.254 161.619 69.8632 161.484C70.491 161.336 71.0519 161.063 71.5459 160.664C72.0556 160.267 72.497 159.753 72.8701 159.12C73.246 158.473 73.5128 157.708 73.6705 156.826C73.8282 155.944 73.8416 155.141 73.7107 154.419C73.5826 153.681 73.3481 153.038 73.0073 152.489C72.6823 151.943 72.2495 151.5 71.709 151.16C71.1871 150.807 70.5875 150.569 69.9102 150.448C69.0124 150.288 68.1332 150.342 67.2725 150.61C66.4275 150.882 65.6877 151.384 65.053 152.115C64.4183 152.847 63.9911 153.827 63.7715 155.056ZM67.5279 155.727C67.6293 155.16 67.8333 154.701 68.14 154.35C68.4466 153.998 68.8151 153.755 69.2455 153.621C69.6758 153.486 70.1273 153.461 70.5998 153.546C70.899 153.599 71.1884 153.708 71.468 153.872C71.7475 154.036 71.9857 154.249 72.1825 154.512C72.3951 154.777 72.5427 155.088 72.6253 155.444C72.7237 155.803 72.7335 156.203 72.6546 156.644C72.5758 157.085 72.428 157.457 72.2114 157.759C72.0133 158.049 71.7672 158.289 71.4729 158.481C71.1973 158.659 70.8999 158.776 70.581 158.833C70.262 158.89 69.9529 158.891 69.6536 158.838C69.1811 158.754 68.7663 158.574 68.4092 158.299C68.052 158.023 67.7905 157.668 67.6246 157.232C67.4588 156.796 67.4265 156.294 67.5279 155.727ZM82.3491 159.742L83.5317 153.127L79.7517 152.451L78.5056 159.421C78.3508 160.287 78.3588 161.061 78.5296 161.741C78.7033 162.406 79.0441 162.955 79.552 163.387C80.0756 163.822 80.7863 164.12 81.6841 164.28C82.4873 164.424 83.1863 164.378 83.7809 164.143C84.3941 163.895 84.9182 163.509 85.3531 162.986L85.0617 164.616L88.6291 165.254L90.5721 154.386L87.0047 153.748L85.822 160.363C85.7488 160.773 85.5988 161.112 85.372 161.38C85.161 161.651 84.8997 161.84 84.588 161.947C84.2764 162.054 83.9315 162.073 83.5535 162.006C83.1913 161.941 82.9061 161.809 82.698 161.609C82.5057 161.412 82.3797 161.162 82.3201 160.859C82.2634 160.54 82.273 160.168 82.3491 159.742ZM92.0887 154.657L91.5608 157.61L98.8374 158.911L99.3654 155.958L92.0887 154.657ZM94.6782 151.219L92.0594 165.867L95.5087 166.484L98.1275 151.836L94.6782 151.219ZM107 157.323L106.472 160.276L113.891 161.603L114.419 158.649L107 157.323ZM114.803 154.452L116.69 152.083C116.56 151.897 116.377 151.694 116.141 151.472C115.922 151.238 115.62 151.022 115.233 150.823C114.864 150.61 114.412 150.456 113.877 150.361C112.995 150.203 112.211 150.225 111.524 150.428C110.854 150.633 110.317 151 109.913 151.529C109.51 152.059 109.235 152.733 109.089 153.552L106.428 168.436L109.853 169.048L112.35 155.086C112.42 154.692 112.523 154.385 112.66 154.166C112.797 153.947 112.954 153.796 113.131 153.714C113.324 153.634 113.539 153.616 113.775 153.658C114.011 153.7 114.208 153.784 114.364 153.91C114.539 154.022 114.685 154.203 114.803 154.452ZM121.377 171.108L124.944 171.746L126.887 160.879L123.319 160.241L121.377 171.108ZM118.664 166.235L119.847 159.62L116.066 158.944L114.82 165.913C114.66 166.811 114.665 167.6 114.836 168.281C115.01 168.946 115.352 169.487 115.863 169.903C116.389 170.322 117.101 170.612 117.999 170.773C118.897 170.933 119.674 170.861 120.329 170.556C121.004 170.237 121.554 169.75 121.98 169.095C122.409 168.424 122.698 167.671 122.847 166.837L122.137 166.856C122.061 167.281 121.909 167.628 121.683 167.896C121.474 168.151 121.215 168.333 120.903 168.439C120.591 168.546 120.246 168.566 119.868 168.498C119.506 168.433 119.221 168.301 119.013 168.101C118.808 167.886 118.675 167.627 118.616 167.323C118.572 167.023 118.588 166.66 118.664 166.235ZM122.984 156.255C122.879 156.838 122.992 157.346 123.321 157.779C123.666 158.214 124.129 158.484 124.712 158.588C125.295 158.692 125.815 158.598 126.274 158.307C126.748 158.017 127.038 157.582 127.142 156.999C127.243 156.432 127.12 155.938 126.772 155.519C126.443 155.086 125.988 154.818 125.405 154.713C124.822 154.609 124.294 154.702 123.819 154.991C123.364 155.267 123.085 155.688 122.984 156.255ZM117.219 155.225C117.115 155.808 117.227 156.315 117.556 156.748C117.901 157.183 118.365 157.453 118.947 157.557C119.53 157.662 120.051 157.568 120.509 157.276C120.984 156.987 121.273 156.551 121.377 155.968C121.478 155.401 121.355 154.908 121.008 154.488C120.679 154.055 120.223 153.787 119.64 153.683C119.057 153.579 118.529 153.671 118.055 153.96C117.599 154.236 117.32 154.658 117.219 155.225ZM133.2 162.007L129.656 161.374L127.713 172.241L131.257 172.875L133.2 162.007ZM135.679 166.278L137.791 163.462C137.66 163.195 137.421 162.941 137.074 162.7C136.743 162.462 136.38 162.308 135.987 162.237C135.372 162.127 134.754 162.22 134.133 162.515C133.527 162.813 132.99 163.27 132.522 163.885C132.055 164.501 131.744 165.241 131.589 166.108L132.215 167.512C132.308 166.992 132.458 166.564 132.665 166.227C132.887 165.893 133.147 165.663 133.446 165.538C133.748 165.396 134.064 165.355 134.394 165.415C134.709 165.471 134.959 165.573 135.145 165.719C135.345 165.869 135.523 166.055 135.679 166.278ZM156.095 158.299L152.801 176.727L156.368 177.364L159.663 158.937L156.095 158.299ZM144.889 169.705C144.672 170.917 144.732 171.993 145.068 172.93C145.404 173.868 145.919 174.627 146.612 175.206C147.323 175.772 148.128 176.135 149.026 176.295C149.703 176.417 150.348 176.402 150.96 176.251C151.59 176.088 152.162 175.8 152.675 175.387C153.187 174.975 153.623 174.444 153.984 173.793C154.347 173.126 154.607 172.352 154.765 171.47C154.922 170.588 154.945 169.779 154.833 169.044C154.723 168.293 154.499 167.636 154.161 167.071C153.823 166.507 153.386 166.047 152.848 165.691C152.329 165.321 151.731 165.076 151.053 164.955C150.156 164.795 149.273 164.865 148.407 165.165C147.559 165.452 146.815 165.977 146.175 166.741C145.537 167.488 145.109 168.476 144.889 169.705ZM148.646 170.376C148.747 169.809 148.952 169.342 149.262 168.975C149.574 168.592 149.947 168.325 150.38 168.175C150.816 168.009 151.27 167.969 151.743 168.053C152.026 168.104 152.306 168.219 152.583 168.398C152.876 168.581 153.118 168.819 153.309 169.113C153.518 169.394 153.663 169.721 153.743 170.093C153.841 170.452 153.853 170.844 153.777 171.269C153.695 171.726 153.544 172.113 153.325 172.432C153.124 172.737 152.875 172.993 152.578 173.2C152.299 173.394 151.999 173.528 151.678 173.6C151.356 173.673 151.053 173.683 150.77 173.633C150.281 173.546 149.86 173.356 149.506 173.066C149.154 172.759 148.897 172.38 148.734 171.928C148.574 171.46 148.544 170.943 148.646 170.376ZM161.594 162.89C161.492 163.457 161.608 163.949 161.939 164.366C162.271 164.783 162.736 165.045 163.335 165.152C163.918 165.256 164.437 165.17 164.893 164.894C165.364 164.621 165.65 164.201 165.752 163.633C165.853 163.066 165.732 162.565 165.387 162.13C165.058 161.697 164.602 161.429 164.019 161.325C163.421 161.218 162.892 161.31 162.434 161.602C161.975 161.894 161.695 162.323 161.594 162.89ZM161.198 167.013L159.255 177.88L162.728 178.501L164.671 167.634L161.198 167.013ZM171.199 180.26C172.585 180.507 173.806 180.45 174.863 180.086C175.919 179.722 176.835 179.057 177.609 178.09L174.535 176.736C174.199 177.163 173.781 177.454 173.282 177.609C172.783 177.763 172.219 177.784 171.589 177.672C171.053 177.576 170.611 177.367 170.262 177.045C169.929 176.725 169.709 176.32 169.602 175.829C169.497 175.323 169.512 174.741 169.646 174.082C169.745 173.531 169.876 173.067 170.041 172.69C170.225 172.3 170.443 171.989 170.695 171.758C170.948 171.527 171.235 171.375 171.557 171.303C171.897 171.217 172.272 171.211 172.682 171.285C173.091 171.358 173.437 171.517 173.718 171.762C174.015 172.01 174.211 172.322 174.307 172.697C174.405 173.055 174.41 173.479 174.323 173.967C174.303 174.078 174.256 174.207 174.18 174.356C174.108 174.49 174.02 174.62 173.915 174.748L174.96 173.813L168.251 172.613L167.896 174.598L177.842 176.376C177.88 176.253 177.914 176.113 177.942 175.955C177.97 175.798 178 175.632 178.031 175.459C178.239 174.294 178.188 173.26 177.878 172.36C177.567 171.459 177.017 170.719 176.227 170.139C175.439 169.543 174.416 169.132 173.156 168.907C172.211 168.738 171.336 168.72 170.532 168.852C169.731 168.969 169.019 169.224 168.396 169.616C167.774 170.009 167.257 170.534 166.847 171.192C166.455 171.837 166.181 172.601 166.023 173.483C165.817 174.633 165.89 175.678 166.242 176.619C166.594 177.559 167.185 178.347 168.014 178.983C168.862 179.606 169.923 180.032 171.199 180.26ZM189.532 166.227L187.547 177.331C187.361 178.371 187.364 179.306 187.557 180.137C187.753 180.952 188.103 181.673 188.609 182.3C189.133 182.913 189.776 183.41 190.537 183.79C191.295 184.186 192.146 184.468 193.091 184.637C194.005 184.8 194.886 184.828 195.734 184.719C196.595 184.63 197.37 184.386 198.059 183.989C198.766 183.579 199.353 183.026 199.819 182.329C200.303 181.619 200.638 180.744 200.824 179.705L202.809 168.601L198.817 167.887L196.882 178.708C196.781 179.275 196.59 179.752 196.309 180.141C196.047 180.517 195.698 180.788 195.262 180.953C194.841 181.122 194.34 181.154 193.757 181.05C193.143 180.94 192.66 180.732 192.308 180.425C191.973 180.122 191.739 179.747 191.607 179.3C191.479 178.839 191.465 178.324 191.566 177.757L193.501 166.937L189.532 166.227ZM220.716 181.652C220.871 180.786 220.893 180.026 220.782 179.372C220.674 178.703 220.397 178.165 219.949 177.76C219.52 177.342 218.88 177.057 218.03 176.905C217.289 176.773 216.6 176.812 215.961 177.023C215.324 177.218 214.757 177.572 214.259 178.084C214.188 177.665 214.042 177.298 213.822 176.982C213.603 176.666 213.291 176.408 212.888 176.205C212.504 175.991 212.029 175.832 211.462 175.731C210.973 175.644 210.51 175.642 210.073 175.726C209.654 175.798 209.271 175.941 208.923 176.155C208.592 176.372 208.28 176.666 207.986 177.036L208.273 175.429L204.8 174.808L202.857 185.676L206.33 186.297L207.513 179.682C207.589 179.256 207.717 178.905 207.896 178.629C208.091 178.355 208.32 178.168 208.581 178.069C208.862 177.956 209.159 177.928 209.474 177.984C209.805 178.043 210.051 178.169 210.212 178.36C210.391 178.538 210.501 178.786 210.542 179.102C210.586 179.402 210.568 179.773 210.49 180.214L209.307 186.829L212.898 187.471L214.081 180.856C214.157 180.431 214.283 180.088 214.46 179.827C214.639 179.55 214.869 179.355 215.149 179.243C215.429 179.13 215.727 179.102 216.042 179.159C216.373 179.218 216.619 179.343 216.779 179.534C216.959 179.713 217.061 179.958 217.086 180.272C217.13 180.572 217.113 180.943 217.034 181.384L215.851 187.999L219.466 188.645L220.716 181.652ZM222.506 177.974L226.087 190.536L230.736 184.711L233.174 191.803L240.863 181.256L237.13 180.588L233.841 185.754L231.797 178.781L227.561 184.607L226.262 178.645L222.506 177.974ZM245.282 193.505C246.668 193.752 247.889 193.694 248.946 193.331C250.002 192.967 250.918 192.302 251.692 191.335L248.618 189.981C248.282 190.408 247.864 190.699 247.365 190.854C246.866 191.008 246.302 191.029 245.672 190.917C245.136 190.821 244.694 190.612 244.345 190.29C244.012 189.97 243.792 189.565 243.685 189.074C243.58 188.568 243.595 187.986 243.729 187.327C243.828 186.776 243.959 186.312 244.124 185.935C244.308 185.545 244.526 185.234 244.778 185.003C245.031 184.772 245.318 184.62 245.64 184.548C245.98 184.462 246.355 184.456 246.765 184.529C247.174 184.603 247.52 184.762 247.801 185.007C248.098 185.255 248.294 185.567 248.39 185.941C248.488 186.3 248.494 186.724 248.406 187.212C248.387 187.322 248.339 187.452 248.264 187.601C248.191 187.734 248.103 187.865 247.999 187.993L249.043 187.058L242.334 185.858L241.979 187.843L251.925 189.621C251.964 189.498 251.997 189.358 252.025 189.2C252.053 189.043 252.083 188.877 252.114 188.704C252.322 187.538 252.271 186.505 251.961 185.605C251.65 184.704 251.1 183.964 250.31 183.383C249.522 182.788 248.499 182.377 247.239 182.152C246.294 181.983 245.419 181.965 244.615 182.097C243.814 182.214 243.102 182.469 242.48 182.861C241.857 183.254 241.34 183.779 240.93 184.437C240.538 185.082 240.264 185.846 240.106 186.728C239.9 187.878 239.974 188.923 240.326 189.863C240.678 190.804 241.268 191.592 242.097 192.228C242.945 192.851 244.006 193.276 245.282 193.505ZM256.586 176.265L253.292 194.693L256.907 195.339L260.201 176.911L256.586 176.265ZM260.35 184.74L259.822 187.693L267.099 188.994L267.627 186.041L260.35 184.74ZM262.94 181.302L260.321 195.949L263.77 196.566L266.389 181.918L262.94 181.302Z" fill="#3D3D3D"/>
<defs>
<filter id="filter0_d" x="0" y="0" width="415" height="370" filterUnits="userSpaceOnUse" color-interpolation-filters="sRGB">
<feFlood flood-opacity="0" result="BackgroundImageFix"/>
<feColorMatrix in="SourceAlpha" type="matrix" values="0 0 0 0 0 0 0 0 0 0 0 0 0 0 0 0 0 0 127 0"/>
<feOffset dx="9" dy="5"/>
<feGaussianBlur stdDeviation="17"/>
<feColorMatrix type="matrix" values="0 0 0 0 0.770041 0 0 0 0 0.798386 0 0 0 0 0.543281 0 0 0 0.56 0"/>
<feBlend mode="normal" in2="BackgroundImageFix" result="effect1_dropShadow"/>
<feBlend mode="normal" in="SourceGraphic" in2="effect1_dropShadow" result="shape"/>
</filter>
<linearGradient id="paint0_linear" x1="25" y1="15.535" x2="333.733" y2="324.086" gradientUnits="userSpaceOnUse">
<stop stop-color="#F6F7ED"/>
<stop offset="1" stop-color="#CFD59F"/>
</linearGradient>
</defs>
</svg>
