<svg width="364" height="281" viewBox="0 0 364 281" fill="none" xmlns="http://www.w3.org/2000/svg">
<path d="M14.9777 33.4466L14.9776 33.4466C3.04583 50.5802 0.445502 72.4022 1.091 91.0561C1.73654 109.711 5.63486 125.352 6.86233 130.277L6.86658 130.294L6.86666 130.294C9.94045 142.61 13.747 150.861 18.6168 160.447C19.3718 161.933 20.1523 163.452 20.9597 165.022C25.3521 173.566 30.5424 183.662 36.7689 198.606C49.9992 230.364 56.8947 257.588 60.5979 275.057L61.1281 277.558L62.4355 275.361C69.9189 262.786 81.6334 247.517 99.9125 236.395L99.3927 235.54L99.9125 236.395C118.376 225.16 135.476 217.65 160.055 214.592C184.678 211.529 216.848 212.929 265.45 219.613C270.389 220.296 308.35 224.881 337.049 197.059L336.376 196.365L337.049 197.058C356.694 178.008 360.647 154.764 361.617 147.096L361.618 147.087L361.619 147.079C363.767 127.535 365.941 81.7267 337.009 47.3071C323.483 31.2166 306.958 22.2813 284.324 16.6313C261.74 10.9939 232.997 8.60991 195.007 5.65393L194.929 6.65052L195.007 5.65393C150.122 2.16317 111.992 -0.697528 81.7077 2.18164C51.4135 5.06178 28.7256 13.7065 14.9777 33.4466Z" fill="url(#paint0_linear)" stroke="#C19D82" stroke-width="2"/>
<path d="M307.846 214.323C287.231 221.862 268.457 219.583 265.094 219.12C167.84 205.745 136 213.463 98.9 236.038C80.4346 247.274 68.6169 262.689 61.0835 275.347C65.2035 264.838 73.0902 248.443 87.9681 232.306C94.0933 225.663 107.797 211.079 128.272 202.451C156.063 190.743 182.604 195.788 194.451 197.973C239.717 206.312 277.334 210.96 307.846 214.323Z" fill="#FAEADD"/>
<path d="M48.9748 71.4204H55.8608V69.6604H48.9748V71.4204ZM48.9748 77.5804H55.6408V75.8204H48.9748V77.5804ZM47.9408 69.6604V85.0604H49.8108V69.6604H47.9408Z" fill="#C19D82"/>
<path d="M65.3208 85.0604H67.0808V74.9404H65.3208V85.0604ZM60.5908 81.1004V74.9404H58.8308V81.3204C58.8308 82.6257 59.1461 83.6157 59.7768 84.2904C60.4221 84.9504 61.2655 85.2804 62.3068 85.2804C63.0108 85.2804 63.6488 85.0971 64.2208 84.7304C64.7928 84.3637 65.2475 83.8724 65.5848 83.2564C65.9368 82.6257 66.1128 81.9071 66.1128 81.1004H65.3208C65.3208 81.5844 65.2108 82.0171 64.9908 82.3984C64.7855 82.7797 64.4848 83.0804 64.0888 83.3004C63.7075 83.5204 63.2601 83.6304 62.7468 83.6304C62.0281 83.6304 61.4855 83.4177 61.1188 82.9924C60.7668 82.5671 60.5908 81.9364 60.5908 81.1004ZM63.9568 71.7504C63.9568 72.0731 64.0741 72.3591 64.3088 72.6084C64.5435 72.8431 64.8221 72.9604 65.1448 72.9604C65.4821 72.9604 65.7681 72.8431 66.0028 72.6084C66.2521 72.3591 66.3768 72.0731 66.3768 71.7504C66.3768 71.4131 66.2521 71.1271 66.0028 70.8924C65.7681 70.6577 65.4821 70.5404 65.1448 70.5404C64.8221 70.5404 64.5435 70.6577 64.3088 70.8924C64.0741 71.1271 63.9568 71.4131 63.9568 71.7504ZM59.5568 71.7504C59.5568 72.0731 59.6741 72.3591 59.9088 72.6084C60.1435 72.8431 60.4221 72.9604 60.7448 72.9604C61.0821 72.9604 61.3681 72.8431 61.6028 72.6084C61.8521 72.3591 61.9768 72.0731 61.9768 71.7504C61.9768 71.4131 61.8521 71.1271 61.6028 70.8924C61.3681 70.6577 61.0821 70.5404 60.7448 70.5404C60.4221 70.5404 60.1435 70.6577 59.9088 70.8924C59.6741 71.1271 59.5568 71.4131 59.5568 71.7504Z" fill="#C19D82"/>
<path d="M72.1494 74.9404H70.3894V85.0604H72.1494V74.9404ZM75.2074 76.8764L76.1754 75.4244C75.9114 75.1457 75.6181 74.9624 75.2954 74.8744C74.9874 74.7717 74.6501 74.7204 74.2834 74.7204C73.8141 74.7204 73.3521 74.9037 72.8974 75.2704C72.4427 75.6371 72.0687 76.1357 71.7754 76.7664C71.4967 77.3824 71.3574 78.0937 71.3574 78.9004H72.1494C72.1494 78.4164 72.1934 77.9837 72.2814 77.6024C72.3841 77.2211 72.5601 76.9204 72.8094 76.7004C73.0587 76.4804 73.4034 76.3704 73.8434 76.3704C74.1367 76.3704 74.3787 76.4144 74.5694 76.5024C74.7601 76.5757 74.9727 76.7004 75.2074 76.8764Z" fill="#C19D82"/>
<path d="M92.1161 67.9004V85.0604H93.8761V67.9004H92.1161ZM83.6461 80.0004C83.6461 81.0857 83.8734 82.0244 84.3281 82.8164C84.7828 83.6084 85.3914 84.2171 86.1541 84.6424C86.9168 85.0677 87.7528 85.2804 88.6621 85.2804C89.5128 85.2804 90.2534 85.0677 90.8841 84.6424C91.5148 84.2171 92.0061 83.6084 92.3581 82.8164C92.7248 82.0244 92.9081 81.0857 92.9081 80.0004C92.9081 78.9004 92.7248 77.9617 92.3581 77.1844C92.0061 76.3924 91.5148 75.7837 90.8841 75.3584C90.2534 74.9331 89.5128 74.7204 88.6621 74.7204C87.7528 74.7204 86.9168 74.9331 86.1541 75.3584C85.3914 75.7837 84.7828 76.3924 84.3281 77.1844C83.8734 77.9617 83.6461 78.9004 83.6461 80.0004ZM85.4281 80.0004C85.4281 79.2231 85.5821 78.5631 85.8901 78.0204C86.2128 77.4777 86.6381 77.0671 87.1661 76.7884C87.6941 76.5097 88.2661 76.3704 88.8821 76.3704C89.3954 76.3704 89.9014 76.5097 90.4001 76.7884C90.8988 77.0671 91.3094 77.4777 91.6321 78.0204C91.9548 78.5631 92.1161 79.2231 92.1161 80.0004C92.1161 80.7777 91.9548 81.4377 91.6321 81.9804C91.3094 82.5231 90.8988 82.9337 90.4001 83.2124C89.9014 83.4911 89.3954 83.6304 88.8821 83.6304C88.2661 83.6304 87.6941 83.4911 87.1661 83.2124C86.6381 82.9337 86.2128 82.5231 85.8901 81.9804C85.5821 81.4377 85.4281 80.7777 85.4281 80.0004Z" fill="#C19D82"/>
<path d="M97.073 70.7604C97.073 71.0831 97.1903 71.3691 97.425 71.6184C97.6743 71.8531 97.9603 71.9704 98.283 71.9704C98.6203 71.9704 98.9063 71.8531 99.141 71.6184C99.3756 71.3691 99.493 71.0831 99.493 70.7604C99.493 70.4231 99.3756 70.1371 99.141 69.9024C98.9063 69.6677 98.6203 69.5504 98.283 69.5504C97.9603 69.5504 97.6743 69.6677 97.425 69.9024C97.1903 70.1371 97.073 70.4231 97.073 70.7604ZM97.403 74.9404V85.0604H99.163V74.9404H97.403Z" fill="#C19D82"/>
<path d="M106.704 85.2804C107.789 85.2804 108.728 85.0677 109.52 84.6424C110.326 84.2024 110.994 83.5571 111.522 82.7064L110.092 81.8044C109.725 82.4204 109.278 82.8824 108.75 83.1904C108.222 83.4837 107.613 83.6304 106.924 83.6304C106.234 83.6304 105.648 83.4837 105.164 83.1904C104.68 82.8971 104.313 82.4717 104.064 81.9144C103.814 81.3571 103.69 80.6824 103.69 79.8904C103.704 79.1131 103.836 78.4604 104.086 77.9324C104.35 77.3897 104.716 76.9791 105.186 76.7004C105.67 76.4071 106.249 76.2604 106.924 76.2604C107.496 76.2604 107.994 76.3851 108.42 76.6344C108.845 76.8837 109.175 77.2284 109.41 77.6684C109.659 78.1084 109.784 78.6291 109.784 79.2304C109.784 79.3331 109.762 79.4651 109.718 79.6264C109.674 79.7731 109.63 79.8831 109.586 79.9564L110.29 78.9444H103.03V80.4404H111.676C111.676 80.4111 111.676 80.3451 111.676 80.2424C111.69 80.1251 111.698 80.0151 111.698 79.9124C111.698 78.8417 111.507 77.9177 111.126 77.1404C110.744 76.3631 110.194 75.7691 109.476 75.3584C108.772 74.9331 107.921 74.7204 106.924 74.7204C105.926 74.7204 105.046 74.9404 104.284 75.3804C103.536 75.8204 102.949 76.4364 102.524 77.2284C102.113 78.0204 101.908 78.9444 101.908 80.0004C101.908 81.0417 102.106 81.9584 102.502 82.7504C102.912 83.5424 103.477 84.1657 104.196 84.6204C104.929 85.0604 105.765 85.2804 106.704 85.2804Z" fill="#C19D82"/>
<path d="M120.706 69.6604V80.0004C120.706 80.7631 120.823 81.4671 121.058 82.1124C121.307 82.7577 121.659 83.3151 122.114 83.7844C122.583 84.2537 123.14 84.6204 123.786 84.8844C124.431 85.1484 125.15 85.2804 125.942 85.2804C126.734 85.2804 127.452 85.1484 128.098 84.8844C128.743 84.6204 129.293 84.2537 129.748 83.7844C130.217 83.3151 130.569 82.7577 130.804 82.1124C131.053 81.4671 131.178 80.7631 131.178 80.0004V69.6604H129.308V80.0004C129.308 81.0564 129.022 81.9071 128.45 82.5524C127.878 83.1977 127.042 83.5204 125.942 83.5204C124.842 83.5204 124.006 83.1977 123.434 82.5524C122.862 81.9071 122.576 81.0564 122.576 80.0004V69.6604H120.706Z" fill="#C19D82"/>
<path d="M148.337 78.6804C148.337 77.8444 148.205 77.1331 147.941 76.5464C147.692 75.9451 147.325 75.4904 146.841 75.1824C146.357 74.8744 145.771 74.7204 145.081 74.7204C144.407 74.7204 143.805 74.8817 143.277 75.2044C142.749 75.5124 142.309 75.9817 141.957 76.6124C141.723 76.0111 141.349 75.5491 140.835 75.2264C140.337 74.8891 139.735 74.7204 139.031 74.7204C138.401 74.7204 137.851 74.8597 137.381 75.1384C136.927 75.4171 136.545 75.8424 136.237 76.4144V74.9404H134.477V85.0604H136.237V78.9004C136.237 78.3724 136.333 77.9177 136.523 77.5364C136.714 77.1551 136.985 76.8691 137.337 76.6784C137.689 76.4731 138.107 76.3704 138.591 76.3704C139.251 76.3704 139.735 76.5757 140.043 76.9864C140.366 77.3971 140.527 78.0351 140.527 78.9004V85.0604H142.287V78.9004C142.287 78.3724 142.383 77.9177 142.573 77.5364C142.764 77.1551 143.035 76.8691 143.387 76.6784C143.739 76.4731 144.157 76.3704 144.641 76.3704C145.301 76.3704 145.785 76.5757 146.093 76.9864C146.416 77.3971 146.577 78.0351 146.577 78.9004V85.0604H148.337V78.6804Z" fill="#C19D82"/>
<path d="M149.996 74.9404L154.396 85.8304L157.278 78.4604L160.336 85.8304L164.736 74.9404H162.756L160.204 81.5624L157.256 74.1704L154.506 81.5184L151.976 74.9404H149.996Z" fill="#C19D82"/>
<path d="M170.083 85.2804C171.168 85.2804 172.107 85.0677 172.899 84.6424C173.705 84.2024 174.373 83.5571 174.901 82.7064L173.471 81.8044C173.104 82.4204 172.657 82.8824 172.129 83.1904C171.601 83.4837 170.992 83.6304 170.303 83.6304C169.613 83.6304 169.027 83.4837 168.543 83.1904C168.059 82.8971 167.692 82.4717 167.443 81.9144C167.193 81.3571 167.069 80.6824 167.069 79.8904C167.083 79.1131 167.215 78.4604 167.465 77.9324C167.729 77.3897 168.095 76.9791 168.565 76.7004C169.049 76.4071 169.628 76.2604 170.303 76.2604C170.875 76.2604 171.373 76.3851 171.799 76.6344C172.224 76.8837 172.554 77.2284 172.789 77.6684C173.038 78.1084 173.163 78.6291 173.163 79.2304C173.163 79.3331 173.141 79.4651 173.097 79.6264C173.053 79.7731 173.009 79.8831 172.965 79.9564L173.669 78.9444H166.409V80.4404H175.055C175.055 80.4111 175.055 80.3451 175.055 80.2424C175.069 80.1251 175.077 80.0151 175.077 79.9124C175.077 78.8417 174.886 77.9177 174.505 77.1404C174.123 76.3631 173.573 75.7691 172.855 75.3584C172.151 74.9331 171.3 74.7204 170.303 74.7204C169.305 74.7204 168.425 74.9404 167.663 75.3804C166.915 75.8204 166.328 76.4364 165.903 77.2284C165.492 78.0204 165.287 78.9444 165.287 80.0004C165.287 81.0417 165.485 81.9584 165.881 82.7504C166.291 83.5424 166.856 84.1657 167.575 84.6204C168.308 85.0604 169.144 85.2804 170.083 85.2804Z" fill="#C19D82"/>
<path d="M177.489 67.9004V85.0604H179.249V67.9004H177.489Z" fill="#C19D82"/>
<path d="M181.019 74.9404V76.5904H186.079V74.9404H181.019ZM182.669 71.4204V85.0604H184.429V71.4204H182.669Z" fill="#C19D82"/>
<path d="M194.858 81.9584L193.472 82.8164C193.663 83.2124 193.941 83.6011 194.308 83.9824C194.689 84.3637 195.152 84.6791 195.694 84.9284C196.237 85.1631 196.845 85.2804 197.52 85.2804C198.561 85.2804 199.398 84.9871 200.028 84.4004C200.674 83.8137 200.996 83.0804 200.996 82.2004C200.996 81.5991 200.85 81.1077 200.556 80.7264C200.278 80.3451 199.896 80.0224 199.412 79.7584C198.928 79.4797 198.393 79.2231 197.806 78.9884C197.454 78.8417 197.117 78.6877 196.794 78.5264C196.471 78.3651 196.208 78.1817 196.002 77.9764C195.797 77.7711 195.694 77.5364 195.694 77.2724C195.694 76.9351 195.826 76.6857 196.09 76.5244C196.354 76.3631 196.669 76.2824 197.036 76.2824C197.564 76.2824 198.034 76.4071 198.444 76.6564C198.87 76.9057 199.222 77.2211 199.5 77.6024L200.908 76.7004C200.703 76.3191 200.417 75.9817 200.05 75.6884C199.683 75.3951 199.258 75.1604 198.774 74.9844C198.305 74.8084 197.799 74.7204 197.256 74.7204C196.713 74.7204 196.185 74.8157 195.672 75.0064C195.173 75.1971 194.763 75.4904 194.44 75.8864C194.132 76.2824 193.978 76.7811 193.978 77.3824C193.978 77.9691 194.125 78.4604 194.418 78.8564C194.726 79.2377 195.1 79.5531 195.54 79.8024C195.995 80.0371 196.442 80.2424 196.882 80.4184C197.278 80.5651 197.652 80.7264 198.004 80.9024C198.356 81.0637 198.642 81.2691 198.862 81.5184C199.097 81.7531 199.214 82.0464 199.214 82.3984C199.214 82.7944 199.067 83.1097 198.774 83.3444C198.495 83.5644 198.107 83.6744 197.608 83.6744C197.198 83.6744 196.816 83.6011 196.464 83.4544C196.127 83.2931 195.826 83.0804 195.562 82.8164C195.298 82.5524 195.064 82.2664 194.858 81.9584Z" fill="#C19D82"/>
<path d="M204.105 80.0004C204.105 79.2964 204.252 78.6731 204.545 78.1304C204.853 77.5731 205.264 77.1404 205.777 76.8324C206.305 76.5244 206.899 76.3704 207.559 76.3704C208.102 76.3704 208.608 76.4584 209.077 76.6344C209.561 76.7957 209.979 77.0157 210.331 77.2944C210.683 77.5731 210.933 77.8811 211.079 78.2184V76.0184C210.727 75.6077 210.221 75.2924 209.561 75.0724C208.916 74.8377 208.249 74.7204 207.559 74.7204C206.577 74.7204 205.689 74.9477 204.897 75.4024C204.105 75.8571 203.475 76.4804 203.005 77.2724C202.551 78.0644 202.323 78.9737 202.323 80.0004C202.323 81.0124 202.551 81.9217 203.005 82.7284C203.475 83.5204 204.105 84.1437 204.897 84.5984C205.689 85.0531 206.577 85.2804 207.559 85.2804C208.249 85.2804 208.916 85.1704 209.561 84.9504C210.221 84.7157 210.727 84.3931 211.079 83.9824V81.7824C210.933 82.1051 210.683 82.4131 210.331 82.7064C209.979 82.9851 209.561 83.2124 209.077 83.3884C208.608 83.5497 208.102 83.6304 207.559 83.6304C206.899 83.6304 206.305 83.4764 205.777 83.1684C205.264 82.8457 204.853 82.4131 204.545 81.8704C204.252 81.3277 204.105 80.7044 204.105 80.0004Z" fill="#C19D82"/>
<path d="M215.579 67.9004H213.819V85.0604H215.579V67.9004ZM220.309 78.9004V85.0604H222.069V78.6804C222.069 77.8004 221.922 77.0671 221.629 76.4804C221.35 75.8937 220.947 75.4537 220.419 75.1604C219.906 74.8671 219.297 74.7204 218.593 74.7204C217.889 74.7204 217.266 74.9037 216.723 75.2704C216.195 75.6371 215.777 76.1357 215.469 76.7664C215.161 77.3824 215.007 78.0937 215.007 78.9004H215.579C215.579 78.4164 215.682 77.9837 215.887 77.6024C216.107 77.2211 216.408 76.9204 216.789 76.7004C217.185 76.4804 217.64 76.3704 218.153 76.3704C218.872 76.3704 219.407 76.5831 219.759 77.0084C220.126 77.4337 220.309 78.0644 220.309 78.9004Z" fill="#C19D82"/>
<path d="M227.138 74.9404H225.378V85.0604H227.138V74.9404ZM230.196 76.8764L231.164 75.4244C230.9 75.1457 230.606 74.9624 230.284 74.8744C229.976 74.7717 229.638 74.7204 229.272 74.7204C228.802 74.7204 228.34 74.9037 227.886 75.2704C227.431 75.6371 227.057 76.1357 226.764 76.7664C226.485 77.3824 226.346 78.0937 226.346 78.9004H227.138C227.138 78.4164 227.182 77.9837 227.27 77.6024C227.372 77.2211 227.548 76.9204 227.798 76.7004C228.047 76.4804 228.392 76.3704 228.832 76.3704C229.125 76.3704 229.367 76.4144 229.558 76.5024C229.748 76.5757 229.961 76.7004 230.196 76.8764Z" fill="#C19D82"/>
<path d="M233.711 82.0904C233.711 81.6797 233.806 81.3277 233.997 81.0344C234.187 80.7411 234.473 80.5137 234.855 80.3524C235.251 80.1911 235.742 80.1104 236.329 80.1104C236.974 80.1104 237.553 80.1984 238.067 80.3744C238.58 80.5357 239.086 80.7924 239.585 81.1444V80.1104C239.482 79.9784 239.291 79.8097 239.013 79.6044C238.734 79.3844 238.36 79.1937 237.891 79.0324C237.436 78.8564 236.886 78.7684 236.241 78.7684C235.434 78.7684 234.701 78.9004 234.041 79.1644C233.395 79.4284 232.882 79.8244 232.501 80.3524C232.119 80.8657 231.929 81.5184 231.929 82.3104C231.929 82.9264 232.068 83.4544 232.347 83.8944C232.64 84.3344 233.051 84.6791 233.579 84.9284C234.107 85.1631 234.715 85.2804 235.405 85.2804C236.109 85.2804 236.747 85.1631 237.319 84.9284C237.891 84.6791 238.345 84.3271 238.683 83.8724C239.035 83.4031 239.211 82.8457 239.211 82.2004L238.859 81.1004C238.859 81.7311 238.727 82.2371 238.463 82.6184C238.213 82.9997 237.861 83.2784 237.407 83.4544C236.952 83.6304 236.431 83.7184 235.845 83.7184C235.375 83.7184 234.979 83.6597 234.657 83.5424C234.349 83.4104 234.114 83.2271 233.953 82.9924C233.791 82.7431 233.711 82.4424 233.711 82.0904ZM233.711 77.3164C233.872 77.1991 234.092 77.0597 234.371 76.8984C234.664 76.7224 235.009 76.5757 235.405 76.4584C235.801 76.3264 236.241 76.2604 236.725 76.2604C237.282 76.2604 237.773 76.3924 238.199 76.6564C238.639 76.9057 238.859 77.2871 238.859 77.8004V85.0604H240.619V77.8004C240.619 77.1404 240.45 76.5831 240.113 76.1284C239.79 75.6737 239.335 75.3291 238.749 75.0944C238.177 74.8451 237.502 74.7204 236.725 74.7204C235.815 74.7204 235.038 74.8597 234.393 75.1384C233.747 75.4171 233.234 75.6957 232.853 75.9744L233.711 77.3164ZM237.715 72.1904C237.715 72.5131 237.832 72.7991 238.067 73.0484C238.316 73.2831 238.602 73.4004 238.925 73.4004C239.262 73.4004 239.548 73.2831 239.783 73.0484C240.017 72.7991 240.135 72.5131 240.135 72.1904C240.135 71.8531 240.017 71.5671 239.783 71.3324C239.548 71.0977 239.262 70.9804 238.925 70.9804C238.602 70.9804 238.316 71.0977 238.067 71.3324C237.832 71.5671 237.715 71.8531 237.715 72.1904ZM233.315 72.1904C233.315 72.5131 233.432 72.7991 233.667 73.0484C233.916 73.2831 234.202 73.4004 234.525 73.4004C234.862 73.4004 235.148 73.2831 235.383 73.0484C235.617 72.7991 235.735 72.5131 235.735 72.1904C235.735 71.8531 235.617 71.5671 235.383 71.3324C235.148 71.0977 234.862 70.9804 234.525 70.9804C234.202 70.9804 233.916 71.0977 233.667 71.3324C233.432 71.5671 233.315 71.8531 233.315 72.1904Z" fill="#C19D82"/>
<path d="M250.086 78.9004V85.0604H251.846V78.6804C251.846 77.4631 251.531 76.5024 250.9 75.7984C250.284 75.0797 249.441 74.7204 248.37 74.7204C247.71 74.7204 247.124 74.8671 246.61 75.1604C246.112 75.4537 245.694 75.9084 245.356 76.5244V74.9404H243.596V85.0604H245.356V78.9004C245.356 78.4017 245.459 77.9617 245.664 77.5804C245.884 77.1991 246.185 76.9057 246.566 76.7004C246.962 76.4804 247.417 76.3704 247.93 76.3704C248.634 76.3704 249.17 76.5831 249.536 77.0084C249.903 77.4337 250.086 78.0644 250.086 78.9004Z" fill="#C19D82"/>
<path d="M255.045 67.9004V85.0604H256.805V67.9004H255.045ZM260.545 74.9404L256.145 79.1204L260.985 85.0604H263.185L258.345 79.1204L262.745 74.9404H260.545Z" fill="#C19D82"/>
<path d="M268.438 85.2804C269.524 85.2804 270.462 85.0677 271.254 84.6424C272.061 84.2024 272.728 83.5571 273.256 82.7064L271.826 81.8044C271.46 82.4204 271.012 82.8824 270.484 83.1904C269.956 83.4837 269.348 83.6304 268.658 83.6304C267.969 83.6304 267.382 83.4837 266.898 83.1904C266.414 82.8971 266.048 82.4717 265.798 81.9144C265.549 81.3571 265.424 80.6824 265.424 79.8904C265.439 79.1131 265.571 78.4604 265.82 77.9324C266.084 77.3897 266.451 76.9791 266.92 76.7004C267.404 76.4071 267.984 76.2604 268.658 76.2604C269.23 76.2604 269.729 76.3851 270.154 76.6344C270.58 76.8837 270.91 77.2284 271.144 77.6684C271.394 78.1084 271.518 78.6291 271.518 79.2304C271.518 79.3331 271.496 79.4651 271.452 79.6264C271.408 79.7731 271.364 79.8831 271.32 79.9564L272.024 78.9444H264.764V80.4404H273.41C273.41 80.4111 273.41 80.3451 273.41 80.2424C273.425 80.1251 273.432 80.0151 273.432 79.9124C273.432 78.8417 273.242 77.9177 272.86 77.1404C272.479 76.3631 271.929 75.7691 271.21 75.3584C270.506 74.9331 269.656 74.7204 268.658 74.7204C267.661 74.7204 266.781 74.9404 266.018 75.3804C265.27 75.8204 264.684 76.4364 264.258 77.2284C263.848 78.0204 263.642 78.9444 263.642 80.0004C263.642 81.0417 263.84 81.9584 264.236 82.7504C264.647 83.5424 265.212 84.1657 265.93 84.6204C266.664 85.0604 267.5 85.2804 268.438 85.2804Z" fill="#C19D82"/>
<path d="M282.44 70.7604C282.44 71.0831 282.557 71.3691 282.792 71.6184C283.041 71.8531 283.327 71.9704 283.65 71.9704C283.987 71.9704 284.273 71.8531 284.508 71.6184C284.743 71.3691 284.86 71.0831 284.86 70.7604C284.86 70.4231 284.743 70.1371 284.508 69.9024C284.273 69.6677 283.987 69.5504 283.65 69.5504C283.327 69.5504 283.041 69.6677 282.792 69.9024C282.557 70.1371 282.44 70.4231 282.44 70.7604ZM282.77 74.9404V85.0604H284.53V74.9404H282.77Z" fill="#C19D82"/>
<path d="M288.947 80.0004C288.947 79.2964 289.094 78.6731 289.387 78.1304C289.695 77.5731 290.106 77.1404 290.619 76.8324C291.147 76.5244 291.741 76.3704 292.401 76.3704C292.944 76.3704 293.45 76.4584 293.919 76.6344C294.403 76.7957 294.821 77.0157 295.173 77.2944C295.525 77.5731 295.774 77.8811 295.921 78.2184V76.0184C295.569 75.6077 295.063 75.2924 294.403 75.0724C293.758 74.8377 293.09 74.7204 292.401 74.7204C291.418 74.7204 290.531 74.9477 289.739 75.4024C288.947 75.8571 288.316 76.4804 287.847 77.2724C287.392 78.0644 287.165 78.9737 287.165 80.0004C287.165 81.0124 287.392 81.9217 287.847 82.7284C288.316 83.5204 288.947 84.1437 289.739 84.5984C290.531 85.0531 291.418 85.2804 292.401 85.2804C293.09 85.2804 293.758 85.1704 294.403 84.9504C295.063 84.7157 295.569 84.3931 295.921 83.9824V81.7824C295.774 82.1051 295.525 82.4131 295.173 82.7064C294.821 82.9851 294.403 83.2124 293.919 83.3884C293.45 83.5497 292.944 83.6304 292.401 83.6304C291.741 83.6304 291.147 83.4764 290.619 83.1684C290.106 82.8457 289.695 82.4131 289.387 81.8704C289.094 81.3277 288.947 80.7044 288.947 80.0004Z" fill="#C19D82"/>
<path d="M300.421 67.9004H298.661V85.0604H300.421V67.9004ZM305.151 78.9004V85.0604H306.911V78.6804C306.911 77.8004 306.764 77.0671 306.471 76.4804C306.192 75.8937 305.789 75.4537 305.261 75.1604C304.748 74.8671 304.139 74.7204 303.435 74.7204C302.731 74.7204 302.108 74.9037 301.565 75.2704C301.037 75.6371 300.619 76.1357 300.311 76.7664C300.003 77.3824 299.849 78.0937 299.849 78.9004H300.421C300.421 78.4164 300.524 77.9837 300.729 77.6024C300.949 77.2211 301.25 76.9204 301.631 76.7004C302.027 76.4804 302.482 76.3704 302.995 76.3704C303.714 76.3704 304.249 76.5831 304.601 77.0084C304.968 77.4337 305.151 78.0644 305.151 78.9004Z" fill="#C19D82"/>
<path d="M78.2875 110.68C78.2875 109.844 78.1555 109.133 77.8915 108.546C77.6421 107.945 77.2755 107.49 76.7915 107.182C76.3075 106.874 75.7208 106.72 75.0315 106.72C74.3568 106.72 73.7555 106.882 73.2275 107.204C72.6995 107.512 72.2595 107.982 71.9075 108.612C71.6728 108.011 71.2988 107.549 70.7855 107.226C70.2868 106.889 69.6855 106.72 68.9815 106.72C68.3508 106.72 67.8008 106.86 67.3315 107.138C66.8768 107.417 66.4955 107.842 66.1875 108.414V106.94H64.4275V117.06H66.1875V110.9C66.1875 110.372 66.2828 109.918 66.4735 109.536C66.6641 109.155 66.9355 108.869 67.2875 108.678C67.6395 108.473 68.0575 108.37 68.5415 108.37C69.2015 108.37 69.6855 108.576 69.9935 108.986C70.3161 109.397 70.4775 110.035 70.4775 110.9V117.06H72.2375V110.9C72.2375 110.372 72.3328 109.918 72.5235 109.536C72.7141 109.155 72.9855 108.869 73.3375 108.678C73.6895 108.473 74.1075 108.37 74.5915 108.37C75.2515 108.37 75.7355 108.576 76.0435 108.986C76.3661 109.397 76.5275 110.035 76.5275 110.9V117.06H78.2875V110.68Z" fill="#C19D82"/>
<path d="M81.5935 102.76C81.5935 103.083 81.7108 103.369 81.9455 103.618C82.1948 103.853 82.4808 103.97 82.8035 103.97C83.1408 103.97 83.4268 103.853 83.6615 103.618C83.8962 103.369 84.0135 103.083 84.0135 102.76C84.0135 102.423 83.8962 102.137 83.6615 101.902C83.4268 101.668 83.1408 101.55 82.8035 101.55C82.4808 101.55 82.1948 101.668 81.9455 101.902C81.7108 102.137 81.5935 102.423 81.5935 102.76ZM81.9235 106.94V117.06H83.6835V106.94H81.9235Z" fill="#C19D82"/>
<path d="M88.1003 112C88.1003 111.296 88.247 110.673 88.5403 110.13C88.8483 109.573 89.259 109.14 89.7723 108.832C90.3003 108.524 90.8943 108.37 91.5543 108.37C92.097 108.37 92.603 108.458 93.0723 108.634C93.5563 108.796 93.9743 109.016 94.3263 109.294C94.6783 109.573 94.9277 109.881 95.0743 110.218V108.018C94.7223 107.608 94.2163 107.292 93.5563 107.072C92.911 106.838 92.2437 106.72 91.5543 106.72C90.5717 106.72 89.6843 106.948 88.8923 107.402C88.1003 107.857 87.4697 108.48 87.0003 109.272C86.5457 110.064 86.3183 110.974 86.3183 112C86.3183 113.012 86.5457 113.922 87.0003 114.728C87.4697 115.52 88.1003 116.144 88.8923 116.598C89.6843 117.053 90.5717 117.28 91.5543 117.28C92.2437 117.28 92.911 117.17 93.5563 116.95C94.2163 116.716 94.7223 116.393 95.0743 115.982V113.782C94.9277 114.105 94.6783 114.413 94.3263 114.706C93.9743 114.985 93.5563 115.212 93.0723 115.388C92.603 115.55 92.097 115.63 91.5543 115.63C90.8943 115.63 90.3003 115.476 89.7723 115.168C89.259 114.846 88.8483 114.413 88.5403 113.87C88.247 113.328 88.1003 112.704 88.1003 112Z" fill="#C19D82"/>
<path d="M99.5742 99.9004H97.8142V117.06H99.5742V99.9004ZM104.304 110.9V117.06H106.064V110.68C106.064 109.8 105.918 109.067 105.624 108.48C105.346 107.894 104.942 107.454 104.414 107.16C103.901 106.867 103.292 106.72 102.588 106.72C101.884 106.72 101.261 106.904 100.718 107.27C100.19 107.637 99.7722 108.136 99.4642 108.766C99.1562 109.382 99.0022 110.094 99.0022 110.9H99.5742C99.5742 110.416 99.6769 109.984 99.8822 109.602C100.102 109.221 100.403 108.92 100.784 108.7C101.18 108.48 101.635 108.37 102.148 108.37C102.867 108.37 103.402 108.583 103.754 109.008C104.121 109.434 104.304 110.064 104.304 110.9Z" fill="#C19D82"/>
<path d="M115.968 102.76C115.968 103.083 116.086 103.369 116.32 103.618C116.57 103.853 116.856 103.97 117.178 103.97C117.516 103.97 117.802 103.853 118.036 103.618C118.271 103.369 118.388 103.083 118.388 102.76C118.388 102.423 118.271 102.137 118.036 101.902C117.802 101.668 117.516 101.55 117.178 101.55C116.856 101.55 116.57 101.668 116.32 101.902C116.086 102.137 115.968 102.423 115.968 102.76ZM116.298 106.94V117.06H118.058V106.94H116.298Z" fill="#C19D82"/>
<path d="M128.173 110.9V117.06H129.933V110.68C129.933 109.463 129.618 108.502 128.987 107.798C128.371 107.08 127.528 106.72 126.457 106.72C125.797 106.72 125.211 106.867 124.697 107.16C124.199 107.454 123.781 107.908 123.443 108.524V106.94H121.683V117.06H123.443V110.9C123.443 110.402 123.546 109.962 123.751 109.58C123.971 109.199 124.272 108.906 124.653 108.7C125.049 108.48 125.504 108.37 126.017 108.37C126.721 108.37 127.257 108.583 127.623 109.008C127.99 109.434 128.173 110.064 128.173 110.9Z" fill="#C19D82"/>
<path d="M153.698 110.68C153.698 109.844 153.566 109.133 153.302 108.546C153.052 107.945 152.686 107.49 152.202 107.182C151.718 106.874 151.131 106.72 150.442 106.72C149.767 106.72 149.166 106.882 148.638 107.204C148.11 107.512 147.67 107.982 147.318 108.612C147.083 108.011 146.709 107.549 146.196 107.226C145.697 106.889 145.096 106.72 144.392 106.72C143.761 106.72 143.211 106.86 142.742 107.138C142.287 107.417 141.906 107.842 141.598 108.414V106.94H139.838V117.06H141.598V110.9C141.598 110.372 141.693 109.918 141.884 109.536C142.074 109.155 142.346 108.869 142.698 108.678C143.05 108.473 143.468 108.37 143.952 108.37C144.612 108.37 145.096 108.576 145.404 108.986C145.726 109.397 145.888 110.035 145.888 110.9V117.06H147.648V110.9C147.648 110.372 147.743 109.918 147.934 109.536C148.124 109.155 148.396 108.869 148.748 108.678C149.1 108.473 149.518 108.37 150.002 108.37C150.662 108.37 151.146 108.576 151.454 108.986C151.776 109.397 151.938 110.035 151.938 110.9V117.06H153.698V110.68Z" fill="#C19D82"/>
<path d="M160.92 117.28C162.005 117.28 162.944 117.068 163.736 116.642C164.542 116.202 165.21 115.557 165.738 114.706L164.308 113.804C163.941 114.42 163.494 114.882 162.966 115.19C162.438 115.484 161.829 115.63 161.14 115.63C160.45 115.63 159.864 115.484 159.38 115.19C158.896 114.897 158.529 114.472 158.28 113.914C158.03 113.357 157.906 112.682 157.906 111.89C157.92 111.113 158.052 110.46 158.302 109.932C158.566 109.39 158.932 108.979 159.402 108.7C159.886 108.407 160.465 108.26 161.14 108.26C161.712 108.26 162.21 108.385 162.636 108.634C163.061 108.884 163.391 109.228 163.626 109.668C163.875 110.108 164 110.629 164 111.23C164 111.333 163.978 111.465 163.934 111.626C163.89 111.773 163.846 111.883 163.802 111.956L164.506 110.944H157.246V112.44H165.892C165.892 112.411 165.892 112.345 165.892 112.242C165.906 112.125 165.914 112.015 165.914 111.912C165.914 110.842 165.723 109.918 165.342 109.14C164.96 108.363 164.41 107.769 163.692 107.358C162.988 106.933 162.137 106.72 161.14 106.72C160.142 106.72 159.262 106.94 158.5 107.38C157.752 107.82 157.165 108.436 156.74 109.228C156.329 110.02 156.124 110.944 156.124 112C156.124 113.042 156.322 113.958 156.718 114.75C157.128 115.542 157.693 116.166 158.412 116.62C159.145 117.06 159.981 117.28 160.92 117.28Z" fill="#C19D82"/>
<path d="M168.326 102.76C168.326 103.083 168.443 103.369 168.678 103.618C168.927 103.853 169.213 103.97 169.536 103.97C169.873 103.97 170.159 103.853 170.394 103.618C170.629 103.369 170.746 103.083 170.746 102.76C170.746 102.423 170.629 102.137 170.394 101.902C170.159 101.668 169.873 101.55 169.536 101.55C169.213 101.55 168.927 101.668 168.678 101.902C168.443 102.137 168.326 102.423 168.326 102.76ZM168.656 106.94V117.06H170.416V106.94H168.656Z" fill="#C19D82"/>
<path d="M180.531 110.9V117.06H182.291V110.68C182.291 109.463 181.975 108.502 181.345 107.798C180.729 107.08 179.885 106.72 178.815 106.72C178.155 106.72 177.568 106.867 177.055 107.16C176.556 107.454 176.138 107.908 175.801 108.524V106.94H174.041V117.06H175.801V110.9C175.801 110.402 175.903 109.962 176.109 109.58C176.329 109.199 176.629 108.906 177.011 108.7C177.407 108.48 177.861 108.37 178.375 108.37C179.079 108.37 179.614 108.583 179.981 109.008C180.347 109.434 180.531 110.064 180.531 110.9Z" fill="#C19D82"/>
<path d="M189.515 117.28C190.601 117.28 191.539 117.068 192.331 116.642C193.138 116.202 193.805 115.557 194.333 114.706L192.903 113.804C192.537 114.42 192.089 114.882 191.561 115.19C191.033 115.484 190.425 115.63 189.735 115.63C189.046 115.63 188.459 115.484 187.975 115.19C187.491 114.897 187.125 114.472 186.875 113.914C186.626 113.357 186.501 112.682 186.501 111.89C186.516 111.113 186.648 110.46 186.897 109.932C187.161 109.39 187.528 108.979 187.997 108.7C188.481 108.407 189.061 108.26 189.735 108.26C190.307 108.26 190.806 108.385 191.231 108.634C191.657 108.884 191.987 109.228 192.221 109.668C192.471 110.108 192.595 110.629 192.595 111.23C192.595 111.333 192.573 111.465 192.529 111.626C192.485 111.773 192.441 111.883 192.397 111.956L193.101 110.944H185.841V112.44H194.487C194.487 112.411 194.487 112.345 194.487 112.242C194.502 112.125 194.509 112.015 194.509 111.912C194.509 110.842 194.319 109.918 193.937 109.14C193.556 108.363 193.006 107.769 192.287 107.358C191.583 106.933 190.733 106.72 189.735 106.72C188.738 106.72 187.858 106.94 187.095 107.38C186.347 107.82 185.761 108.436 185.335 109.228C184.925 110.02 184.719 110.944 184.719 112C184.719 113.042 184.917 113.958 185.313 114.75C185.724 115.542 186.289 116.166 187.007 116.62C187.741 117.06 188.577 117.28 189.515 117.28Z" fill="#C19D82"/>
<path d="M210.782 110.68C210.782 109.844 210.65 109.133 210.386 108.546C210.136 107.945 209.77 107.49 209.286 107.182C208.802 106.874 208.215 106.72 207.526 106.72C206.851 106.72 206.25 106.882 205.722 107.204C205.194 107.512 204.754 107.982 204.402 108.612C204.167 108.011 203.793 107.549 203.28 107.226C202.781 106.889 202.18 106.72 201.476 106.72C200.845 106.72 200.295 106.86 199.826 107.138C199.371 107.417 198.99 107.842 198.682 108.414V106.94H196.922V117.06H198.682V110.9C198.682 110.372 198.777 109.918 198.968 109.536C199.158 109.155 199.43 108.869 199.782 108.678C200.134 108.473 200.552 108.37 201.036 108.37C201.696 108.37 202.18 108.576 202.488 108.986C202.81 109.397 202.972 110.035 202.972 110.9V117.06H204.732V110.9C204.732 110.372 204.827 109.918 205.018 109.536C205.208 109.155 205.48 108.869 205.832 108.678C206.184 108.473 206.602 108.37 207.086 108.37C207.746 108.37 208.23 108.576 208.538 108.986C208.86 109.397 209.022 110.035 209.022 110.9V117.06H210.782V110.68Z" fill="#C19D82"/>
<path d="M220.793 101.66V117.06H222.663V101.66H220.793ZM228.713 101.66L222.091 108.92L229.043 117.06H231.353L224.357 108.876L231.023 101.66H228.713Z" fill="#C19D82"/>
<path d="M231.577 112C231.577 113.012 231.804 113.922 232.259 114.728C232.728 115.52 233.359 116.144 234.151 116.598C234.943 117.053 235.83 117.28 236.813 117.28C237.81 117.28 238.697 117.053 239.475 116.598C240.267 116.144 240.89 115.52 241.345 114.728C241.814 113.922 242.049 113.012 242.049 112C242.049 110.974 241.814 110.064 241.345 109.272C240.89 108.48 240.267 107.857 239.475 107.402C238.697 106.948 237.81 106.72 236.813 106.72C235.83 106.72 234.943 106.948 234.151 107.402C233.359 107.857 232.728 108.48 232.259 109.272C231.804 110.064 231.577 110.974 231.577 112ZM233.359 112C233.359 111.296 233.505 110.673 233.799 110.13C234.107 109.573 234.517 109.14 235.031 108.832C235.559 108.524 236.153 108.37 236.813 108.37C237.473 108.37 238.059 108.524 238.573 108.832C239.101 109.14 239.511 109.573 239.805 110.13C240.113 110.673 240.267 111.296 240.267 112C240.267 112.704 240.113 113.328 239.805 113.87C239.511 114.413 239.101 114.846 238.573 115.168C238.059 115.476 237.473 115.63 236.813 115.63C236.153 115.63 235.559 115.476 235.031 115.168C234.517 114.846 234.107 114.413 233.799 113.87C233.505 113.328 233.359 112.704 233.359 112Z" fill="#C19D82"/>
<path d="M250.957 110.9V117.06H252.717V110.68C252.717 109.463 252.401 108.502 251.771 107.798C251.155 107.08 250.311 106.72 249.241 106.72C248.581 106.72 247.994 106.867 247.481 107.16C246.982 107.454 246.564 107.908 246.227 108.524V106.94H244.467V117.06H246.227V110.9C246.227 110.402 246.329 109.962 246.535 109.58C246.755 109.199 247.055 108.906 247.437 108.7C247.833 108.48 248.287 108.37 248.801 108.37C249.505 108.37 250.04 108.583 250.407 109.008C250.773 109.434 250.957 110.064 250.957 110.9Z" fill="#C19D82"/>
<path d="M256.443 113.958L255.057 114.816C255.248 115.212 255.526 115.601 255.893 115.982C256.274 116.364 256.736 116.679 257.279 116.928C257.822 117.163 258.43 117.28 259.105 117.28C260.146 117.28 260.982 116.987 261.613 116.4C262.258 115.814 262.581 115.08 262.581 114.2C262.581 113.599 262.434 113.108 262.141 112.726C261.862 112.345 261.481 112.022 260.997 111.758C260.513 111.48 259.978 111.223 259.391 110.988C259.039 110.842 258.702 110.688 258.379 110.526C258.056 110.365 257.792 110.182 257.587 109.976C257.382 109.771 257.279 109.536 257.279 109.272C257.279 108.935 257.411 108.686 257.675 108.524C257.939 108.363 258.254 108.282 258.621 108.282C259.149 108.282 259.618 108.407 260.029 108.656C260.454 108.906 260.806 109.221 261.085 109.602L262.493 108.7C262.288 108.319 262.002 107.982 261.635 107.688C261.268 107.395 260.843 107.16 260.359 106.984C259.89 106.808 259.384 106.72 258.841 106.72C258.298 106.72 257.77 106.816 257.257 107.006C256.758 107.197 256.348 107.49 256.025 107.886C255.717 108.282 255.563 108.781 255.563 109.382C255.563 109.969 255.71 110.46 256.003 110.856C256.311 111.238 256.685 111.553 257.125 111.802C257.58 112.037 258.027 112.242 258.467 112.418C258.863 112.565 259.237 112.726 259.589 112.902C259.941 113.064 260.227 113.269 260.447 113.518C260.682 113.753 260.799 114.046 260.799 114.398C260.799 114.794 260.652 115.11 260.359 115.344C260.08 115.564 259.692 115.674 259.193 115.674C258.782 115.674 258.401 115.601 258.049 115.454C257.712 115.293 257.411 115.08 257.147 114.816C256.883 114.552 256.648 114.266 256.443 113.958Z" fill="#C19D82"/>
<path d="M266.658 113.1V106.94H264.898V113.32C264.898 114.523 265.213 115.484 265.844 116.202C266.475 116.921 267.318 117.28 268.374 117.28C269.049 117.28 269.636 117.134 270.134 116.84C270.633 116.532 271.051 116.078 271.388 115.476V117.06H273.148V106.94H271.388V113.1C271.388 113.599 271.278 114.039 271.058 114.42C270.853 114.802 270.552 115.102 270.156 115.322C269.775 115.528 269.327 115.63 268.814 115.63C268.11 115.63 267.575 115.41 267.208 114.97C266.841 114.53 266.658 113.907 266.658 113.1Z" fill="#C19D82"/>
<path d="M290.317 110.68C290.317 109.844 290.185 109.133 289.921 108.546C289.671 107.945 289.305 107.49 288.821 107.182C288.337 106.874 287.75 106.72 287.061 106.72C286.386 106.72 285.785 106.882 285.257 107.204C284.729 107.512 284.289 107.982 283.937 108.612C283.702 108.011 283.328 107.549 282.815 107.226C282.316 106.889 281.715 106.72 281.011 106.72C280.38 106.72 279.83 106.86 279.361 107.138C278.906 107.417 278.525 107.842 278.217 108.414V106.94H276.457V117.06H278.217V110.9C278.217 110.372 278.312 109.918 278.503 109.536C278.693 109.155 278.965 108.869 279.317 108.678C279.669 108.473 280.087 108.37 280.571 108.37C281.231 108.37 281.715 108.576 282.023 108.986C282.345 109.397 282.507 110.035 282.507 110.9V117.06H284.267V110.9C284.267 110.372 284.362 109.918 284.553 109.536C284.743 109.155 285.015 108.869 285.367 108.678C285.719 108.473 286.137 108.37 286.621 108.37C287.281 108.37 287.765 108.576 288.073 108.986C288.395 109.397 288.557 110.035 288.557 110.9V117.06H290.317V110.68Z" fill="#C19D82"/>
<path d="M145.608 142.9V149.06H147.368V142.68C147.368 141.463 147.053 140.502 146.422 139.798C145.806 139.08 144.963 138.72 143.892 138.72C143.232 138.72 142.645 138.867 142.132 139.16C141.633 139.454 141.215 139.908 140.878 140.524V138.94H139.118V149.06H140.878V142.9C140.878 142.402 140.981 141.962 141.186 141.58C141.406 141.199 141.707 140.906 142.088 140.7C142.484 140.48 142.939 140.37 143.452 140.37C144.156 140.37 144.691 140.583 145.058 141.008C145.425 141.434 145.608 142.064 145.608 142.9Z" fill="#C19D82"/>
<path d="M150.676 134.76C150.676 135.083 150.794 135.369 151.028 135.618C151.278 135.853 151.564 135.97 151.886 135.97C152.224 135.97 152.51 135.853 152.744 135.618C152.979 135.369 153.096 135.083 153.096 134.76C153.096 134.423 152.979 134.137 152.744 133.902C152.51 133.668 152.224 133.55 151.886 133.55C151.564 133.55 151.278 133.668 151.028 133.902C150.794 134.137 150.676 134.423 150.676 134.76ZM151.006 138.94V149.06H152.766V138.94H151.006Z" fill="#C19D82"/>
<path d="M157.183 144C157.183 143.296 157.33 142.673 157.623 142.13C157.931 141.573 158.342 141.14 158.855 140.832C159.383 140.524 159.977 140.37 160.637 140.37C161.18 140.37 161.686 140.458 162.155 140.634C162.639 140.796 163.057 141.016 163.409 141.294C163.761 141.573 164.011 141.881 164.157 142.218V140.018C163.805 139.608 163.299 139.292 162.639 139.072C161.994 138.838 161.327 138.72 160.637 138.72C159.655 138.72 158.767 138.948 157.975 139.402C157.183 139.857 156.553 140.48 156.083 141.272C155.629 142.064 155.401 142.974 155.401 144C155.401 145.012 155.629 145.922 156.083 146.728C156.553 147.52 157.183 148.144 157.975 148.598C158.767 149.053 159.655 149.28 160.637 149.28C161.327 149.28 161.994 149.17 162.639 148.95C163.299 148.716 163.805 148.393 164.157 147.982V145.782C164.011 146.105 163.761 146.413 163.409 146.706C163.057 146.985 162.639 147.212 162.155 147.388C161.686 147.55 161.18 147.63 160.637 147.63C159.977 147.63 159.383 147.476 158.855 147.168C158.342 146.846 157.931 146.413 157.623 145.87C157.33 145.328 157.183 144.704 157.183 144Z" fill="#C19D82"/>
<path d="M168.657 131.9H166.897V149.06H168.657V131.9ZM173.387 142.9V149.06H175.147V142.68C175.147 141.8 175.001 141.067 174.707 140.48C174.429 139.894 174.025 139.454 173.497 139.16C172.984 138.867 172.375 138.72 171.671 138.72C170.967 138.72 170.344 138.904 169.801 139.27C169.273 139.637 168.855 140.136 168.547 140.766C168.239 141.382 168.085 142.094 168.085 142.9H168.657C168.657 142.416 168.76 141.984 168.965 141.602C169.185 141.221 169.486 140.92 169.867 140.7C170.263 140.48 170.718 140.37 171.231 140.37C171.95 140.37 172.485 140.583 172.837 141.008C173.204 141.434 173.387 142.064 173.387 142.9Z" fill="#C19D82"/>
<path d="M176.916 138.94V140.59H181.976V138.94H176.916ZM178.566 135.42V149.06H180.326V135.42H178.566Z" fill="#C19D82"/>
<path d="M194.253 149.28C195.338 149.28 196.277 149.068 197.069 148.642C197.875 148.202 198.543 147.557 199.071 146.706L197.641 145.804C197.274 146.42 196.827 146.882 196.299 147.19C195.771 147.484 195.162 147.63 194.473 147.63C193.783 147.63 193.197 147.484 192.713 147.19C192.229 146.897 191.862 146.472 191.613 145.914C191.363 145.357 191.239 144.682 191.239 143.89C191.253 143.113 191.385 142.46 191.635 141.932C191.899 141.39 192.265 140.979 192.735 140.7C193.219 140.407 193.798 140.26 194.473 140.26C195.045 140.26 195.543 140.385 195.969 140.634C196.394 140.884 196.724 141.228 196.959 141.668C197.208 142.108 197.333 142.629 197.333 143.23C197.333 143.333 197.311 143.465 197.267 143.626C197.223 143.773 197.179 143.883 197.135 143.956L197.839 142.944H190.579V144.44H199.225C199.225 144.411 199.225 144.345 199.225 144.242C199.239 144.125 199.247 144.015 199.247 143.912C199.247 142.842 199.056 141.918 198.675 141.14C198.293 140.363 197.743 139.769 197.025 139.358C196.321 138.933 195.47 138.72 194.473 138.72C193.475 138.72 192.595 138.94 191.833 139.38C191.085 139.82 190.498 140.436 190.073 141.228C189.662 142.02 189.457 142.944 189.457 144C189.457 145.042 189.655 145.958 190.051 146.75C190.461 147.542 191.026 148.166 191.745 148.62C192.478 149.06 193.314 149.28 194.253 149.28Z" fill="#C19D82"/>
<path d="M201.659 134.76C201.659 135.083 201.776 135.369 202.011 135.618C202.26 135.853 202.546 135.97 202.869 135.97C203.206 135.97 203.492 135.853 203.727 135.618C203.962 135.369 204.079 135.083 204.079 134.76C204.079 134.423 203.962 134.137 203.727 133.902C203.492 133.668 203.206 133.55 202.869 133.55C202.546 133.55 202.26 133.668 202.011 133.902C201.776 134.137 201.659 134.423 201.659 134.76ZM201.989 138.94V149.06H203.749V138.94H201.989Z" fill="#C19D82"/>
<path d="M213.864 142.9V149.06H215.624V142.68C215.624 141.463 215.308 140.502 214.678 139.798C214.062 139.08 213.218 138.72 212.148 138.72C211.488 138.72 210.901 138.867 210.388 139.16C209.889 139.454 209.471 139.908 209.134 140.524V138.94H207.374V149.06H209.134V142.9C209.134 142.402 209.236 141.962 209.442 141.58C209.662 141.199 209.962 140.906 210.344 140.7C210.74 140.48 211.194 140.37 211.708 140.37C212.412 140.37 212.947 140.583 213.314 141.008C213.68 141.434 213.864 142.064 213.864 142.9Z" fill="#C19D82"/>
<defs>
<linearGradient id="paint0_linear" x1="15" y1="24" x2="323" y2="221" gradientUnits="userSpaceOnUse">
<stop stop-color="#FEF9F6"/>
<stop offset="1" stop-color="#FCEBDF"/>
</linearGradient>
</defs>
</svg>
