<svg width="404" height="322" viewBox="0 0 404 322" fill="none" xmlns="http://www.w3.org/2000/svg">
<g filter="url(#filter0_d)">
<path d="M324.736 29H57.3119C35.0384 29 20.9635 45.177 26.0342 64.9344L62.1457 205.566C67.2165 225.324 89.5847 240.508 111.811 239.344L254.456 231.751C267.062 231.104 283.527 227.524 294.264 229.638C305 231.751 315.764 235.5 321.5 243.5C330.104 255.5 337.721 283 337.721 283C337.721 283 344.118 205.825 346.82 180.114C349.853 151.47 360.752 65.6678 360.752 65.6678C363.217 45.4789 347.009 29 324.736 29Z" fill="url(#paint0_linear)"/>
</g>
<g style="mix-blend-mode:overlay" opacity="0.4">
<path d="M69.64 110.819C67.4743 110.876 65.4853 110.173 63.6731 108.708C61.9248 107.176 60.5252 105.174 59.4742 102.702C58.4233 100.231 57.8602 97.5815 57.785 94.755C57.6625 90.1536 58.3682 85.8262 59.9021 81.7728C61.4343 77.6536 63.3769 74.1484 65.7298 71.2572C68.081 68.3003 70.3557 66.1677 72.5538 64.8593L72.6522 64.8567L76.5834 68.2055L76.6254 69.7831C75.0249 71.3387 73.5404 73.5489 72.1719 76.4139C70.8689 79.2772 70.2726 82.7794 70.3829 86.9206C70.4371 88.9584 70.7771 90.6267 71.4027 91.9257C72.0284 93.2246 72.9183 94.5823 74.0725 95.9987C75.0919 97.2872 75.8453 98.4512 76.3327 99.4907C76.8184 100.464 77.0813 101.707 77.1216 103.219C77.1776 105.323 76.4701 107.118 74.9992 108.604C73.5921 110.023 71.8057 110.761 69.64 110.819ZM97.9912 110.064C95.8255 110.121 93.8366 109.418 92.0243 107.953C90.276 106.421 88.8764 104.419 87.8255 101.947C86.7745 99.4758 86.2115 96.8267 86.1362 94.0001C86.0137 89.3988 86.7194 85.0714 88.2533 81.0179C89.7855 76.8988 91.7281 73.3936 94.0811 70.5024C96.4323 67.5454 98.7069 65.4128 100.905 64.1044L101.003 64.1018L104.935 67.4506L104.977 69.0282C103.376 70.5838 101.893 72.8269 100.526 75.7577C99.1572 78.6226 98.5272 82.0929 98.6357 86.1684C98.6899 88.2061 99.0299 89.8745 99.6555 91.1734C100.281 92.4724 101.171 93.83 102.325 95.2465C103.345 96.5349 104.098 97.6989 104.586 98.7384C105.071 99.7122 105.334 100.955 105.374 102.467C105.43 104.57 104.756 106.364 103.35 107.849C101.943 109.268 100.157 110.006 97.9912 110.064Z" fill="#3D3D3D"/>
</g>
<g style="mix-blend-mode:overlay" opacity="0.4">
<path d="M280.23 167.138C281.968 167.112 283.557 167.695 284.998 168.887C286.386 170.132 287.491 171.751 288.311 173.744C289.131 175.736 289.558 177.867 289.592 180.135C289.648 183.828 289.042 187.293 287.774 190.53C286.506 193.821 284.916 196.615 283.001 198.913C281.087 201.263 279.243 202.953 277.467 203.982L277.388 203.983L274.266 201.26L274.246 199.994C275.545 198.761 276.756 197.002 277.881 194.716C278.952 192.431 279.463 189.627 279.413 186.304C279.388 184.668 279.131 183.327 278.641 182.279C278.151 181.231 277.45 180.133 276.537 178.986C275.731 177.943 275.138 177.003 274.756 176.164C274.376 175.378 274.176 174.379 274.158 173.166C274.132 171.478 274.717 170.044 275.91 168.865C277.052 167.74 278.492 167.164 280.23 167.138ZM257.478 167.481C259.216 167.455 260.806 168.038 262.246 169.23C263.634 170.475 264.739 172.094 265.559 174.087C266.379 176.079 266.806 178.21 266.841 180.478C266.896 184.171 266.29 187.636 265.022 190.874C263.755 194.164 262.164 196.958 260.249 199.256C258.336 201.606 256.491 203.296 254.715 204.325L254.636 204.327L251.514 201.604L251.495 200.338C252.793 199.104 254.004 197.319 255.128 194.98C256.252 192.694 256.79 189.916 256.74 186.645C256.716 185.01 256.458 183.669 255.968 182.621C255.479 181.573 254.777 180.475 253.864 179.328C253.058 178.285 252.465 177.344 252.083 176.506C251.703 175.72 251.503 174.721 251.485 173.508C251.46 171.819 252.017 170.386 253.159 169.208C254.301 168.083 255.74 167.507 257.478 167.481Z" fill="#3D3D3D"/>
</g>
<path d="M84.3596 101.866L89.95 101.734C89.8215 102.393 89.6041 103.015 89.2977 103.598C89.0073 104.181 88.6275 104.702 88.1582 105.161C87.6889 105.62 87.1213 105.986 86.4555 106.258C85.8053 106.513 85.0644 106.651 84.2326 106.67C83.3529 106.691 82.5173 106.55 81.726 106.249C80.9507 105.947 80.2683 105.515 79.6789 104.953C79.0892 104.375 78.6169 103.689 78.2622 102.898C77.923 102.089 77.742 101.197 77.719 100.222C77.6961 99.2459 77.8351 98.3544 78.1362 97.547C78.4529 96.7234 78.8924 96.0168 79.4547 95.4274C80.0166 94.822 80.6777 94.3503 81.4379 94.0124C82.2142 93.674 83.0422 93.4945 83.9219 93.4737C85.2016 93.4436 86.3193 93.6734 87.2751 94.163C88.2305 94.6367 88.9827 95.3151 89.5316 96.1985L90.9401 94.8449C90.4418 94.0725 89.8345 93.4306 89.1183 92.9193C88.4181 92.4076 87.6249 92.0262 86.7387 91.775C85.8686 91.5234 84.9136 91.4098 83.8739 91.4343C82.6582 91.4629 81.5356 91.7054 80.5061 92.1618C79.4762 92.6021 78.5866 93.2232 77.8372 94.0251C77.0875 94.811 76.5091 95.7368 76.1021 96.8027C75.7111 97.8682 75.5303 99.0248 75.5596 100.272C75.589 101.52 75.8241 102.667 76.2648 103.713C76.7215 104.758 77.343 105.664 78.1293 106.43C78.9151 107.179 79.833 107.758 80.8829 108.165C81.9324 108.557 83.065 108.738 84.2806 108.71C85.5603 108.679 86.6905 108.421 87.6713 107.933C88.6677 107.43 89.5002 106.762 90.1688 105.93C90.8374 105.098 91.3355 104.158 91.6629 103.11C91.9899 102.046 92.1397 100.93 92.1122 99.7627L84.3144 99.9463L84.3596 101.866ZM99.4778 108.352C100.661 108.324 101.68 108.068 102.533 107.584C103.401 107.083 104.112 106.362 104.666 105.421L103.084 104.474C102.699 105.155 102.223 105.67 101.656 106.02C101.087 106.353 100.427 106.529 99.6754 106.547C98.9236 106.564 98.28 106.419 97.7446 106.112C97.2092 105.804 96.7984 105.35 96.5122 104.749C96.2259 104.147 96.0726 103.415 96.0523 102.551C96.0376 101.927 96.1044 101.365 96.2527 100.866C96.401 100.366 96.6231 99.9446 96.9191 99.6015C97.2151 99.2585 97.577 98.9939 98.0047 98.8078C98.4485 98.6213 98.9423 98.5216 99.4861 98.5088C100.11 98.4941 100.657 98.6173 101.127 98.8783C101.598 99.1393 101.966 99.5067 102.234 99.9805C102.517 100.454 102.666 101.019 102.682 101.674C102.684 101.786 102.664 101.931 102.62 102.108C102.575 102.269 102.53 102.39 102.484 102.471L103.226 101.35L95.3082 101.536L95.3466 103.168L104.776 102.946C104.775 102.914 104.774 102.842 104.771 102.73C104.784 102.601 104.789 102.481 104.786 102.369C104.759 101.201 104.527 100.199 104.091 99.3606C103.656 98.5227 103.041 97.889 102.246 97.4596C101.467 97.0138 100.534 96.8037 99.4466 96.8293C98.6308 96.8485 97.8904 97.0099 97.2254 97.3137C96.56 97.6014 95.9933 98.0069 95.5255 98.53C95.0573 99.0372 94.6956 99.6459 94.4402 100.356C94.2008 101.066 94.0913 101.853 94.1117 102.716C94.1384 103.852 94.3779 104.847 94.8301 105.7C95.2983 106.554 95.9301 107.219 96.7256 107.696C97.5367 108.157 98.4541 108.376 99.4778 108.352ZM108.908 89.1644L106.989 89.2096L107.429 107.924L109.349 107.879L108.908 89.1644ZM118.456 102.143C118.428 100.944 118.156 99.9258 117.64 99.0897C117.124 98.2376 116.445 97.5894 115.602 97.1451C114.775 96.7004 113.858 96.49 112.85 96.5137C112.163 96.5299 111.534 96.6807 110.965 96.9662C110.411 97.2353 109.932 97.6227 109.528 98.1284C109.139 98.6336 108.842 99.2488 108.635 99.9739C108.427 100.683 108.334 101.485 108.355 102.381C108.376 103.277 108.507 104.082 108.748 104.797C108.989 105.495 109.315 106.088 109.726 106.574C110.154 107.06 110.651 107.432 111.217 107.691C111.799 107.934 112.434 108.047 113.122 108.031C114.129 108.007 115.036 107.753 115.84 107.27C116.661 106.787 117.309 106.107 117.785 105.232C118.261 104.357 118.484 103.327 118.456 102.143ZM116.513 102.189C116.533 103.037 116.374 103.761 116.036 104.361C115.714 104.961 115.269 105.419 114.7 105.737C114.147 106.054 113.527 106.22 112.839 106.237C112.423 106.246 112.005 106.168 111.585 106.002C111.165 105.836 110.775 105.589 110.416 105.261C110.072 104.933 109.79 104.532 109.571 104.057C109.351 103.566 109.234 103.001 109.219 102.361C109.204 101.721 109.295 101.159 109.491 100.674C109.688 100.173 109.95 99.7509 110.278 99.4071C110.622 99.0629 111 98.7979 111.411 98.6122C111.823 98.4264 112.237 98.3286 112.653 98.3189C113.341 98.3027 113.968 98.4399 114.535 98.7307C115.118 99.021 115.584 99.4582 115.934 100.042C116.3 100.626 116.493 101.341 116.513 102.189ZM122.893 96.5173L120.973 96.5625L121.233 107.599L123.153 107.554L122.893 96.5173ZM126.278 98.5502L127.296 96.9418C127.001 96.6447 126.676 96.4523 126.322 96.3646C125.984 96.2605 125.614 96.2132 125.214 96.2226C124.703 96.2347 124.203 96.4465 123.717 96.858C123.231 97.2696 122.836 97.823 122.532 98.5184C122.244 99.1974 122.11 99.9767 122.131 100.856L122.994 100.836C122.982 100.308 123.019 99.8353 123.105 99.4171C123.207 98.9986 123.392 98.6662 123.658 98.4199C123.924 98.1735 124.297 98.0447 124.777 98.0334C125.097 98.0259 125.362 98.0677 125.572 98.1587C125.782 98.2338 126.017 98.3643 126.278 98.5502ZM130.241 103.978C130.232 103.579 130.319 103.232 130.505 102.94C130.69 102.648 130.972 102.417 131.353 102.248C131.749 102.078 132.259 101.986 132.883 101.972C133.554 101.956 134.188 102.029 134.784 102.191C135.38 102.337 135.962 102.595 136.531 102.966L136.504 101.838C136.389 101.697 136.169 101.518 135.844 101.302C135.518 101.069 135.081 100.872 134.533 100.709C134.001 100.529 133.335 100.449 132.535 100.467C131.639 100.489 130.867 100.659 130.218 100.978C129.585 101.281 129.099 101.701 128.76 102.237C128.436 102.773 128.283 103.4 128.3 104.12C128.317 104.872 128.509 105.508 128.873 106.027C129.237 106.547 129.711 106.944 130.293 107.218C130.892 107.476 131.527 107.597 132.198 107.581C132.806 107.567 133.411 107.441 134.014 107.203C134.632 106.964 135.144 106.608 135.549 106.134C135.97 105.66 136.172 105.071 136.156 104.367L135.738 102.937C135.752 103.513 135.62 104.028 135.342 104.483C135.081 104.921 134.713 105.266 134.238 105.517C133.78 105.768 133.255 105.9 132.663 105.914C132.199 105.925 131.782 105.863 131.41 105.727C131.055 105.576 130.769 105.35 130.554 105.051C130.355 104.752 130.251 104.394 130.241 103.978ZM129.833 98.8986C130.006 98.7665 130.243 98.6089 130.542 98.4258C130.842 98.2427 131.206 98.0821 131.635 97.944C132.08 97.8055 132.575 97.7298 133.118 97.717C133.454 97.7091 133.775 97.7335 134.08 97.7904C134.386 97.8472 134.652 97.945 134.88 98.0836C135.123 98.222 135.312 98.4176 135.446 98.6705C135.579 98.9074 135.65 99.2178 135.659 99.6017L135.84 107.256L137.759 107.21L137.573 99.2926C137.556 98.5728 137.358 97.9693 136.978 97.4821C136.614 96.9945 136.102 96.6305 135.44 96.39C134.794 96.1331 134.039 96.0149 133.175 96.0352C132.151 96.0593 131.275 96.232 130.546 96.5532C129.834 96.8741 129.273 97.1914 128.864 97.5051L129.833 98.8986ZM142.827 102.77L142.669 96.0518L140.749 96.0969L140.913 103.055C140.934 103.935 141.104 104.699 141.423 105.348C141.758 105.98 142.21 106.465 142.778 106.804C143.362 107.143 144.038 107.303 144.806 107.285C145.541 107.267 146.177 107.092 146.714 106.76C147.25 106.411 147.694 105.904 148.046 105.24L148.087 106.967L150.006 106.922L149.747 95.8851L147.827 95.9303L147.985 102.648C147.998 103.192 147.889 103.675 147.659 104.097C147.445 104.518 147.125 104.853 146.699 105.103C146.288 105.337 145.803 105.461 145.243 105.474C144.731 105.486 144.297 105.392 143.94 105.192C143.583 104.977 143.312 104.671 143.126 104.275C142.941 103.864 142.841 103.362 142.827 102.77ZM154.349 101.298C154.331 100.531 154.475 99.8469 154.781 99.2476C155.102 98.6318 155.539 98.1494 156.091 97.8003C156.659 97.4509 157.303 97.2677 158.022 97.2507C158.614 97.2368 159.168 97.3198 159.685 97.4996C160.217 97.6632 160.678 97.8924 161.069 98.1872C161.46 98.4821 161.74 98.8116 161.909 99.1758L161.852 96.7764C161.458 96.3376 160.898 96.0067 160.172 95.7837C159.463 95.5443 158.732 95.4335 157.98 95.4512C156.908 95.4764 155.946 95.7471 155.094 96.2633C154.242 96.7795 153.57 97.4756 153.079 98.3514C152.603 99.2268 152.379 100.224 152.405 101.344C152.431 102.448 152.702 103.434 153.219 104.302C153.751 105.153 154.455 105.817 155.33 106.293C156.206 106.768 157.179 106.993 158.251 106.968C159.003 106.95 159.728 106.813 160.426 106.557C161.14 106.284 161.683 105.919 162.057 105.462L162 103.063C161.849 103.418 161.585 103.761 161.208 104.09C160.832 104.403 160.381 104.661 159.858 104.866C159.35 105.054 158.801 105.155 158.209 105.169C157.489 105.185 156.837 105.033 156.253 104.71C155.685 104.372 155.226 103.91 154.877 103.326C154.543 102.742 154.367 102.066 154.349 101.298ZM166.551 87.8073L164.632 87.8525L165.073 106.567L166.992 106.522L166.551 87.8073ZM171.992 99.6826L172.151 106.401L174.07 106.356L173.906 99.3974C173.884 98.4377 173.705 97.6417 173.37 97.0094C173.051 96.3767 172.6 95.9072 172.016 95.6009C171.449 95.2941 170.781 95.1498 170.014 95.1679C169.246 95.186 168.571 95.4019 167.988 95.8157C167.422 96.2292 166.979 96.7838 166.659 97.4795C166.339 98.1592 166.189 98.9389 166.21 99.8187L166.834 99.804C166.821 99.2762 166.922 98.8017 167.136 98.3805C167.367 97.959 167.687 97.6233 168.097 97.3736C168.523 97.1235 169.016 96.9919 169.576 96.9787C170.104 96.9663 170.538 97.0601 170.879 97.2601C171.236 97.4598 171.507 97.7655 171.693 98.1772C171.878 98.5729 171.978 99.0747 171.992 99.6826ZM175.739 95.2732L175.781 97.0727L181.3 96.9427L181.258 95.1432L175.739 95.2732ZM177.448 91.3919L177.798 106.268L179.718 106.223L179.368 91.3467L177.448 91.3919ZM187.719 106.274C188.903 106.246 189.921 105.99 190.774 105.506C191.642 105.006 192.353 104.285 192.907 103.343L191.325 102.396C190.941 103.078 190.465 103.593 189.897 103.942C189.328 104.276 188.668 104.451 187.917 104.469C187.165 104.487 186.521 104.342 185.986 104.034C185.45 103.727 185.04 103.272 184.753 102.671C184.467 102.07 184.314 101.337 184.293 100.473C184.279 99.8494 184.346 99.2877 184.494 98.7881C184.642 98.2884 184.864 97.8671 185.16 97.524C185.456 97.181 185.818 96.9164 186.246 96.7303C186.69 96.5438 187.183 96.4441 187.727 96.4313C188.351 96.4166 188.898 96.5398 189.368 96.8008C189.839 97.0618 190.207 97.4292 190.475 97.9031C190.758 98.3765 190.907 98.9412 190.923 99.597C190.925 99.709 190.905 99.8535 190.861 100.031C190.817 100.192 190.771 100.313 190.725 100.394L191.467 99.2721L183.549 99.4585L183.588 101.09L193.017 100.868C193.016 100.836 193.015 100.764 193.012 100.652C193.025 100.524 193.03 100.404 193.028 100.292C193 99.124 192.768 98.1211 192.333 97.2832C191.897 96.4452 191.282 95.8115 190.487 95.3821C189.709 94.9363 188.775 94.7262 187.688 94.7518C186.872 94.771 186.132 94.9325 185.467 95.2362C184.801 95.5239 184.235 95.9294 183.767 96.4525C183.299 96.9597 182.937 97.5684 182.681 98.2786C182.442 98.9884 182.333 99.7752 182.353 100.639C182.38 101.775 182.619 102.769 183.071 103.623C183.539 104.476 184.171 105.141 184.967 105.619C185.778 106.08 186.695 106.298 187.719 106.274ZM202.709 88.8766L203.104 105.672L205.143 105.624L204.748 88.8286L202.709 88.8766ZM203.881 90.7695L207.312 90.6888C208.032 90.6718 208.667 90.7769 209.216 91.004C209.781 91.2148 210.221 91.5485 210.536 92.0052C210.867 92.4616 211.041 93.0337 211.057 93.7215C211.073 94.4093 210.927 94.9889 210.618 95.4603C210.325 95.9313 209.901 96.2934 209.347 96.5465C208.808 96.7832 208.179 96.9101 207.459 96.927L204.028 97.0078L204.073 98.9273L207.504 98.8465C208.592 98.8209 209.555 98.5982 210.394 98.1783C211.248 97.7421 211.914 97.1422 212.392 96.3788C212.886 95.5989 213.12 94.6972 213.096 93.6735C213.072 92.6337 212.795 91.744 212.265 91.0043C211.752 90.2642 211.058 89.7043 210.185 89.3248C209.328 88.9288 208.355 88.7437 207.267 88.7693L203.836 88.8501L203.881 90.7695ZM217.32 94.2942L215.4 94.3394L215.66 105.376L217.58 105.331L217.32 94.2942ZM220.705 96.3271L221.723 94.7187C221.428 94.4216 221.103 94.2291 220.749 94.1415C220.411 94.0374 220.041 93.9901 219.641 93.9995C219.13 94.0115 218.63 94.2233 218.144 94.6349C217.658 95.0465 217.262 95.5999 216.959 96.2953C216.671 96.9742 216.537 97.7536 216.558 98.6334L217.421 98.613C217.409 98.0852 217.446 97.6122 217.532 97.194C217.634 96.7755 217.818 96.4431 218.085 96.1967C218.351 95.9504 218.724 95.8216 219.204 95.8103C219.524 95.8028 219.789 95.8445 219.999 95.9356C220.209 96.0107 220.444 96.1412 220.705 96.3271ZM222.443 99.6951C222.469 100.799 222.741 101.785 223.257 102.653C223.789 103.504 224.493 104.168 225.369 104.644C226.244 105.119 227.218 105.344 228.289 105.319C229.377 105.293 230.339 105.023 231.175 104.507C232.027 103.991 232.691 103.295 233.166 102.419C233.658 101.528 233.89 100.53 233.864 99.4262C233.838 98.3065 233.558 97.3208 233.026 96.4691C232.51 95.6171 231.814 94.9532 230.939 94.4777C230.079 94.0018 229.106 93.7767 228.018 93.8023C226.946 93.8275 225.985 94.0982 225.132 94.6144C224.28 95.1306 223.609 95.8266 223.117 96.7024C222.642 97.5779 222.417 98.5754 222.443 99.6951ZM224.387 99.6494C224.369 98.8816 224.513 98.198 224.819 97.5986C225.14 96.9829 225.577 96.5005 226.129 96.1514C226.697 95.8019 227.341 95.6187 228.061 95.6018C228.78 95.5848 229.424 95.7377 229.992 96.0604C230.576 96.3828 231.035 96.8441 231.369 97.4444C231.719 98.0283 231.903 98.7042 231.921 99.472C231.939 100.24 231.787 100.924 231.465 101.523C231.159 102.123 230.722 102.605 230.155 102.971C229.603 103.32 228.967 103.503 228.247 103.52C227.527 103.537 226.875 103.384 226.292 103.061C225.723 102.723 225.264 102.261 224.915 101.678C224.581 101.093 224.405 100.417 224.387 99.6494ZM244.468 85.9729L244.909 104.688L246.828 104.643L246.387 85.9277L244.468 85.9729ZM235.541 99.3868C235.569 100.57 235.841 101.588 236.357 102.44C236.874 103.292 237.553 103.941 238.396 104.385C239.238 104.829 240.156 105.04 241.147 105.016C241.835 105 242.456 104.858 243.01 104.588C243.579 104.303 244.058 103.908 244.446 103.402C244.85 102.897 245.156 102.289 245.364 101.58C245.571 100.855 245.664 100.045 245.642 99.1489C245.621 98.2532 245.491 97.456 245.25 96.7575C245.009 96.043 244.675 95.4427 244.247 94.9566C243.836 94.4702 243.339 94.1058 242.757 93.8634C242.191 93.6046 241.564 93.4834 240.876 93.4996C239.884 93.5229 238.978 93.7763 238.157 94.2598C237.336 94.7432 236.688 95.4227 236.213 96.2981C235.737 97.1575 235.513 98.1871 235.541 99.3868ZM237.485 99.341C237.465 98.4932 237.616 97.7695 237.938 97.1697C238.276 96.5696 238.729 96.1108 239.298 95.7933C239.866 95.4759 240.487 95.3092 241.158 95.2934C241.574 95.2836 241.992 95.3618 242.412 95.528C242.832 95.6941 243.214 95.9412 243.558 96.2692C243.918 96.5968 244.208 97.0061 244.427 97.4971C244.646 97.9721 244.764 98.5295 244.779 99.1693C244.794 99.8091 244.703 100.379 244.507 100.88C244.31 101.365 244.04 101.779 243.696 102.124C243.368 102.467 242.998 102.732 242.586 102.918C242.175 103.104 241.761 103.201 241.345 103.211C240.673 103.227 240.046 103.09 239.463 102.799C238.88 102.509 238.405 102.072 238.039 101.489C237.69 100.905 237.505 100.189 237.485 99.341ZM252.132 100.196L251.974 93.4783L250.055 93.5235L250.219 100.482C250.239 101.361 250.409 102.126 250.729 102.774C251.064 103.407 251.515 103.892 252.083 104.231C252.667 104.569 253.343 104.729 254.111 104.711C254.847 104.694 255.483 104.519 256.019 104.186C256.555 103.837 256.999 103.331 257.352 102.666L257.393 104.394L259.312 104.349L259.052 93.3117L257.133 93.3569L257.291 100.075C257.304 100.619 257.195 101.102 256.965 101.523C256.751 101.944 256.431 102.28 256.004 102.53C255.594 102.764 255.109 102.887 254.549 102.9C254.037 102.912 253.603 102.819 253.246 102.619C252.889 102.403 252.617 102.098 252.432 101.702C252.246 101.29 252.146 100.788 252.132 100.196ZM262.36 85.5517L262.801 104.267L264.72 104.221L264.279 85.5065L262.36 85.5517ZM268.539 93.0883L263.848 97.7601L269.279 104.114L271.678 104.058L266.247 97.7036L270.938 93.0319L268.539 93.0883ZM271.548 93.0175L271.591 94.817L277.109 94.6871L277.067 92.8876L271.548 93.0175ZM273.258 89.1362L273.608 104.012L275.527 103.967L275.177 89.091L273.258 89.1362ZM283.528 104.019C284.712 103.991 285.73 103.735 286.583 103.25C287.452 102.75 288.163 102.029 288.717 101.088L287.134 100.141C286.75 100.822 286.274 101.337 285.706 101.687C285.138 102.02 284.478 102.196 283.726 102.213C282.974 102.231 282.331 102.086 281.795 101.779C281.26 101.471 280.849 101.017 280.563 100.415C280.276 99.814 280.123 99.0814 280.103 98.2176C280.088 97.5938 280.155 97.032 280.303 96.5324C280.452 96.0328 280.674 95.6114 280.97 95.2684C281.266 94.9253 281.628 94.6607 282.055 94.4746C282.499 94.2881 282.993 94.1885 283.537 94.1757C284.161 94.161 284.708 94.2841 285.178 94.5451C285.648 94.8061 286.017 95.1736 286.284 95.6474C286.567 96.1209 286.717 96.6855 286.732 97.3413C286.735 97.4533 286.714 97.5978 286.67 97.7749C286.626 97.936 286.581 98.0571 286.535 98.1382L287.277 97.0164L279.359 97.2028L279.397 98.8344L288.827 98.6124C288.826 98.5804 288.824 98.5084 288.821 98.3964C288.834 98.2681 288.84 98.1479 288.837 98.036C288.81 96.8683 288.578 95.8655 288.142 95.0275C287.706 94.1895 287.091 93.5558 286.297 93.1264C285.518 92.6806 284.585 92.4705 283.497 92.4961C282.681 92.5153 281.941 92.6768 281.276 92.9805C280.611 93.2683 280.044 93.6737 279.576 94.1969C279.108 94.704 278.746 95.3127 278.491 96.0229C278.251 96.7328 278.142 97.5196 278.162 98.3833C278.189 99.519 278.428 100.514 278.881 101.367C279.349 102.22 279.981 102.886 280.776 103.363C281.587 103.824 282.505 104.043 283.528 104.019ZM92.2308 141.908L90.7413 142.879C90.9594 143.306 91.2733 143.723 91.683 144.129C92.1086 144.535 92.6206 144.867 93.2188 145.125C93.8167 145.367 94.4835 145.48 95.2193 145.462C95.9711 145.445 96.6235 145.285 97.1766 144.984C97.7453 144.667 98.1838 144.256 98.492 143.753C98.7999 143.233 98.9462 142.654 98.9312 142.014C98.9157 141.358 98.7432 140.826 98.4135 140.418C98.0998 140.009 97.6756 139.667 97.141 139.391C96.606 139.1 96.0155 138.834 95.3697 138.593C94.982 138.442 94.6102 138.283 94.2541 138.115C93.8981 137.947 93.6054 137.754 93.3762 137.535C93.147 137.317 93.029 137.063 93.0223 136.776C93.0136 136.408 93.1512 136.132 93.4349 135.95C93.7187 135.767 94.0605 135.671 94.4604 135.661C95.0363 135.648 95.5513 135.772 96.0056 136.033C96.4759 136.294 96.8679 136.629 97.1816 137.038L98.694 136.018C98.4603 135.607 98.1397 135.247 97.7323 134.936C97.3248 134.626 96.8549 134.381 96.3226 134.201C95.8062 134.021 95.2521 133.938 94.6603 133.952C94.0684 133.966 93.495 134.084 92.9401 134.305C92.4011 134.526 91.9608 134.856 91.619 135.296C91.2933 135.736 91.1382 136.284 91.1536 136.94C91.1687 137.579 91.3412 138.111 91.6713 138.536C92.017 138.944 92.433 139.278 92.9193 139.539C93.4211 139.783 93.9143 139.995 94.3987 140.176C94.8343 140.326 95.2463 140.492 95.6348 140.675C96.0228 140.842 96.34 141.059 96.5863 141.325C96.8483 141.575 96.9838 141.892 96.9928 142.276C97.003 142.707 96.8511 143.055 96.5372 143.319C96.239 143.566 95.8179 143.696 95.2741 143.708C94.8262 143.719 94.4084 143.649 94.0208 143.498C93.6487 143.331 93.3153 143.106 93.0206 142.825C92.7259 142.544 92.4627 142.238 92.2308 141.908ZM101.164 129.478C101.173 129.83 101.308 130.139 101.57 130.405C101.848 130.654 102.163 130.775 102.515 130.766C102.883 130.758 103.192 130.622 103.442 130.361C103.691 130.083 103.812 129.768 103.804 129.416C103.795 129.048 103.66 128.739 103.398 128.489C103.136 128.239 102.821 128.119 102.453 128.127C102.101 128.135 101.792 128.271 101.526 128.533C101.276 128.795 101.156 129.11 101.164 129.478ZM101.632 134.028L101.892 145.065L103.811 145.02L103.551 133.983L101.632 134.028ZM114.684 138.042L114.842 144.76L116.762 144.715L116.598 137.757C116.577 136.861 116.399 136.097 116.064 135.465C115.745 134.832 115.301 134.346 114.733 134.008C114.165 133.669 113.489 133.509 112.705 133.527C111.986 133.544 111.349 133.719 110.797 134.052C110.261 134.385 109.817 134.892 109.465 135.572L109.424 133.845L107.504 133.89L107.764 144.927L109.684 144.882L109.526 138.163C109.513 137.62 109.613 137.137 109.828 136.716C110.058 136.294 110.378 135.967 110.789 135.733C111.215 135.483 111.708 135.351 112.268 135.338C112.78 135.326 113.214 135.42 113.571 135.62C113.928 135.819 114.199 136.125 114.385 136.537C114.57 136.932 114.67 137.434 114.684 138.042ZM128.207 125.72L128.648 144.435L130.567 144.39L130.127 125.675L128.207 125.72ZM119.28 139.134C119.308 140.318 119.58 141.336 120.097 142.188C120.613 143.04 121.292 143.688 122.135 144.132C122.978 144.577 123.895 144.787 124.887 144.764C125.574 144.748 126.195 144.605 126.749 144.336C127.318 144.05 127.797 143.655 128.185 143.15C128.59 142.644 128.895 142.037 129.103 141.328C129.31 140.603 129.403 139.792 129.382 138.896C129.361 138.001 129.23 137.203 128.989 136.505C128.748 135.79 128.414 135.19 127.987 134.704C127.575 134.218 127.078 133.853 126.496 133.611C125.93 133.352 125.303 133.231 124.615 133.247C123.624 133.27 122.717 133.524 121.897 134.007C121.076 134.491 120.427 135.17 119.952 136.046C119.476 136.905 119.252 137.934 119.28 139.134ZM121.224 139.088C121.204 138.241 121.355 137.517 121.677 136.917C122.015 136.317 122.468 135.858 123.037 135.541C123.606 135.223 124.226 135.057 124.898 135.041C125.314 135.031 125.732 135.109 126.152 135.275C126.572 135.442 126.954 135.689 127.297 136.017C127.657 136.344 127.947 136.754 128.166 137.244C128.386 137.719 128.503 138.277 128.518 138.917C128.533 139.557 128.442 140.127 128.246 140.628C128.049 141.112 127.779 141.527 127.435 141.871C127.107 142.215 126.737 142.48 126.326 142.665C125.914 142.851 125.5 142.949 125.084 142.959C124.412 142.974 123.785 142.837 123.202 142.547C122.619 142.256 122.144 141.819 121.779 141.236C121.429 140.652 121.244 139.936 121.224 139.088ZM145.524 144.278C146.707 144.25 147.726 143.994 148.578 143.51C149.447 143.009 150.158 142.288 150.712 141.347L149.129 140.4C148.745 141.081 148.269 141.597 147.701 141.946C147.133 142.279 146.473 142.455 145.721 142.473C144.969 142.49 144.326 142.346 143.79 142.038C143.255 141.731 142.844 141.276 142.558 140.675C142.272 140.073 142.118 139.341 142.098 138.477C142.083 137.853 142.15 137.291 142.299 136.792C142.447 136.292 142.669 135.871 142.965 135.528C143.261 135.185 143.623 134.92 144.051 134.734C144.494 134.547 144.988 134.448 145.532 134.435C146.156 134.42 146.703 134.543 147.173 134.804C147.643 135.065 148.012 135.433 148.279 135.907C148.563 136.38 148.712 136.945 148.727 137.601C148.73 137.713 148.709 137.857 148.666 138.034C148.621 138.195 148.576 138.316 148.53 138.398L149.272 137.276L141.354 137.462L141.392 139.094L150.822 138.872C150.821 138.84 150.819 138.768 150.817 138.656C150.83 138.527 150.835 138.407 150.832 138.295C150.805 137.128 150.573 136.125 150.137 135.287C149.701 134.449 149.086 133.815 148.292 133.386C147.513 132.94 146.58 132.73 145.492 132.755C144.677 132.775 143.936 132.936 143.271 133.24C142.606 133.528 142.039 133.933 141.571 134.456C141.103 134.963 140.741 135.572 140.486 136.282C140.247 136.992 140.137 137.779 140.158 138.643C140.184 139.778 140.424 140.773 140.876 141.627C141.344 142.48 141.976 143.145 142.771 143.623C143.583 144.084 144.5 144.302 145.524 144.278ZM151.656 132.85L151.698 134.65L157.217 134.52L157.174 132.72L151.656 132.85ZM153.365 128.969L153.715 143.845L155.635 143.8L155.285 128.924L153.365 128.969ZM157.42 132.715L162.498 144.478L165.452 136.367L168.976 144.326L173.495 132.336L171.336 132.387L168.723 139.675L165.318 131.689L162.507 139.773L159.579 132.664L157.42 132.715ZM176.451 139.901C176.441 139.501 176.529 139.155 176.714 138.862C176.9 138.57 177.182 138.339 177.562 138.17C177.959 138.001 178.469 137.909 179.092 137.894C179.764 137.878 180.398 137.951 180.994 138.113C181.59 138.259 182.172 138.518 182.741 138.888L182.714 137.761C182.599 137.619 182.379 137.441 182.053 137.224C181.728 136.992 181.291 136.794 180.743 136.631C180.211 136.451 179.545 136.371 178.745 136.39C177.849 136.411 177.077 136.581 176.428 136.9C175.795 137.203 175.309 137.623 174.969 138.159C174.646 138.695 174.493 139.323 174.51 140.043C174.527 140.794 174.718 141.43 175.083 141.95C175.447 142.469 175.921 142.866 176.503 143.14C177.101 143.398 177.736 143.52 178.408 143.504C179.016 143.489 179.621 143.363 180.224 143.125C180.842 142.886 181.354 142.53 181.759 142.056C182.18 141.582 182.382 140.993 182.366 140.29L181.948 138.859C181.961 139.435 181.83 139.95 181.552 140.405C181.29 140.843 180.922 141.188 180.448 141.439C179.99 141.69 179.465 141.822 178.873 141.836C178.409 141.847 177.992 141.785 177.62 141.65C177.265 141.498 176.979 141.273 176.764 140.974C176.565 140.674 176.461 140.317 176.451 139.901ZM176.043 134.821C176.216 134.689 176.452 134.531 176.752 134.348C177.052 134.165 177.416 134.004 177.845 133.866C178.29 133.728 178.784 133.652 179.328 133.639C179.664 133.631 179.985 133.656 180.29 133.713C180.596 133.77 180.862 133.867 181.089 134.006C181.333 134.144 181.521 134.34 181.655 134.593C181.789 134.83 181.86 135.14 181.869 135.524L182.05 143.178L183.969 143.133L183.783 135.215C183.766 134.495 183.567 133.892 183.188 133.404C182.824 132.917 182.312 132.553 181.65 132.312C181.003 132.055 180.248 131.937 179.385 131.958C178.361 131.982 177.485 132.154 176.756 132.476C176.044 132.796 175.483 133.114 175.074 133.427L176.043 134.821ZM187.595 139.662L186.105 140.634C186.324 141.061 186.637 141.477 187.047 141.884C187.473 142.29 187.985 142.622 188.583 142.88C189.181 143.122 189.848 143.234 190.584 143.217C191.335 143.199 191.988 143.04 192.541 142.739C193.109 142.421 193.548 142.011 193.856 141.508C194.164 140.988 194.31 140.409 194.295 139.769C194.28 139.113 194.107 138.581 193.778 138.172C193.464 137.764 193.04 137.422 192.505 137.146C191.97 136.855 191.38 136.588 190.734 136.348C190.346 136.197 189.974 136.037 189.618 135.87C189.262 135.702 188.97 135.509 188.74 135.29C188.511 135.072 188.393 134.818 188.386 134.53C188.378 134.162 188.515 133.887 188.799 133.704C189.083 133.522 189.425 133.426 189.825 133.416C190.4 133.403 190.916 133.527 191.37 133.788C191.84 134.049 192.232 134.384 192.546 134.793L194.058 133.773C193.824 133.362 193.504 133.001 193.096 132.691C192.689 132.38 192.219 132.135 191.687 131.956C191.17 131.776 190.616 131.693 190.024 131.707C189.433 131.721 188.859 131.838 188.304 132.06C187.765 132.28 187.325 132.611 186.983 133.051C186.658 133.491 186.502 134.039 186.518 134.694C186.533 135.334 186.705 135.866 187.036 136.291C187.381 136.699 187.797 137.033 188.283 137.294C188.785 137.538 189.278 137.75 189.763 137.931C190.199 138.081 190.611 138.247 190.999 138.43C191.387 138.597 191.704 138.813 191.951 139.08C192.212 139.33 192.348 139.647 192.357 140.03C192.367 140.462 192.215 140.81 191.901 141.073C191.603 141.321 191.182 141.45 190.638 141.463C190.19 141.474 189.773 141.404 189.385 141.253C189.013 141.085 188.68 140.861 188.385 140.58C188.09 140.299 187.827 139.993 187.595 139.662ZM202.99 131.642L203.032 133.441L208.55 133.311L208.508 131.512L202.99 131.642ZM208.19 126.142L209.208 124.534C209.092 124.376 208.929 124.228 208.717 124.089C208.522 123.95 208.287 123.835 208.013 123.745C207.739 123.656 207.426 123.615 207.074 123.623C206.402 123.639 205.83 123.797 205.357 124.096C204.899 124.379 204.549 124.803 204.306 125.369C204.063 125.935 203.952 126.658 203.973 127.538L204.329 142.653L206.249 142.608L205.898 127.732C205.886 127.204 205.924 126.779 206.012 126.457C206.101 126.135 206.223 125.908 206.38 125.776C206.553 125.628 206.759 125.551 206.999 125.546C207.191 125.541 207.392 125.577 207.602 125.652C207.827 125.71 208.023 125.874 208.19 126.142ZM218.032 142.331L219.952 142.286L219.692 131.249L217.773 131.294L218.032 142.331ZM212.772 138.133L212.614 131.415L210.695 131.46L210.858 138.419C210.881 139.362 211.051 140.158 211.371 140.807C211.706 141.439 212.165 141.909 212.748 142.215C213.332 142.521 213.999 142.666 214.751 142.648C215.519 142.63 216.21 142.414 216.824 141.999C217.439 141.585 217.922 141.037 218.274 140.357C218.642 139.66 218.815 138.871 218.795 137.992L217.931 138.012C217.943 138.54 217.834 139.014 217.604 139.436C217.39 139.857 217.07 140.193 216.644 140.443C216.233 140.693 215.748 140.824 215.189 140.837C214.677 140.849 214.242 140.756 213.886 140.556C213.529 140.356 213.258 140.059 213.072 139.663C212.887 139.251 212.787 138.741 212.772 138.133ZM216.203 127.85C216.211 128.202 216.347 128.511 216.609 128.776C216.871 129.026 217.178 129.147 217.53 129.139C217.898 129.13 218.207 128.995 218.457 128.733C218.722 128.455 218.851 128.14 218.842 127.788C218.834 127.42 218.69 127.111 218.412 126.862C218.151 126.612 217.836 126.491 217.468 126.5C217.116 126.508 216.815 126.643 216.565 126.905C216.315 127.167 216.194 127.482 216.203 127.85ZM211.404 127.963C211.413 128.315 211.548 128.624 211.81 128.889C212.072 129.139 212.379 129.26 212.731 129.252C213.099 129.243 213.408 129.108 213.658 128.846C213.923 128.568 214.052 128.253 214.044 127.901C214.035 127.533 213.892 127.224 213.614 126.974C213.352 126.725 213.037 126.604 212.669 126.613C212.317 126.621 212.016 126.756 211.766 127.018C211.516 127.28 211.396 127.595 211.404 127.963ZM225.22 131.118L223.3 131.164L223.56 142.201L225.48 142.155L225.22 131.118ZM228.605 133.151L229.623 131.543C229.328 131.246 229.003 131.053 228.649 130.966C228.311 130.862 227.942 130.814 227.542 130.824C227.03 130.836 226.531 131.048 226.044 131.459C225.558 131.871 225.163 132.424 224.859 133.12C224.571 133.798 224.437 134.578 224.458 135.458L225.322 135.437C225.309 134.909 225.346 134.436 225.432 134.018C225.534 133.6 225.719 133.267 225.985 133.021C226.251 132.775 226.624 132.646 227.104 132.635C227.424 132.627 227.689 132.669 227.899 132.76C228.109 132.835 228.344 132.965 228.605 133.151ZM241.344 138.325C241.337 138.037 241.388 137.804 241.495 137.625C241.619 137.446 241.808 137.306 242.062 137.204C242.331 137.101 242.674 137.045 243.09 137.036C243.65 137.022 244.18 137.09 244.679 137.238C245.194 137.37 245.647 137.575 246.038 137.854L246 136.247C245.819 136.043 245.527 135.85 245.122 135.667C244.734 135.484 244.267 135.343 243.72 135.244C243.173 135.129 242.58 135.079 241.94 135.094C240.98 135.117 240.184 135.271 239.55 135.558C238.932 135.829 238.462 136.232 238.138 136.768C237.83 137.287 237.685 137.899 237.701 138.603C237.719 139.355 237.91 139.99 238.274 140.51C238.655 141.029 239.144 141.418 239.742 141.676C240.34 141.918 240.991 142.03 241.695 142.014C242.399 141.997 243.052 141.862 243.654 141.608C244.272 141.337 244.759 140.957 245.115 140.469C245.488 139.964 245.665 139.36 245.649 138.656L245.231 137.225C245.243 137.737 245.141 138.172 244.926 138.529C244.71 138.886 244.428 139.157 244.081 139.341C243.733 139.525 243.351 139.622 242.935 139.632C242.647 139.639 242.382 139.589 242.139 139.483C241.897 139.376 241.701 139.229 241.553 139.04C241.42 138.851 241.351 138.613 241.344 138.325ZM239.613 134.165C239.755 134.065 240 133.939 240.349 133.787C240.713 133.619 241.134 133.473 241.611 133.349C242.088 133.226 242.575 133.159 243.07 133.147C243.406 133.139 243.703 133.164 243.96 133.222C244.218 133.28 244.436 133.379 244.616 133.519C244.811 133.642 244.951 133.815 245.036 134.037C245.121 134.243 245.166 134.474 245.172 134.73L245.336 141.688L248.815 141.606L248.632 133.808C248.614 133.056 248.375 132.422 247.915 131.905C247.454 131.387 246.837 131.002 246.063 130.748C245.304 130.478 244.429 130.354 243.437 130.377C242.398 130.402 241.441 130.561 240.568 130.853C239.71 131.129 238.965 131.427 238.332 131.746L239.613 134.165ZM254.843 130.421L251.244 130.506L251.504 141.543L255.103 141.458L254.843 130.421ZM258.123 134.113L259.632 130.932C259.451 130.697 259.166 130.495 258.778 130.328C258.406 130.161 258.02 130.082 257.62 130.092C256.996 130.106 256.409 130.32 255.859 130.733C255.324 131.146 254.889 131.7 254.553 132.396C254.218 133.093 254.06 133.88 254.081 134.76L254.975 136.011C254.962 135.484 255.024 135.034 255.159 134.663C255.31 134.291 255.52 134.014 255.788 133.832C256.055 133.633 256.357 133.53 256.693 133.522C257.012 133.515 257.278 133.565 257.488 133.672C257.715 133.778 257.926 133.925 258.123 134.113ZM278.092 133.811C278.071 132.931 277.942 132.182 277.703 131.563C277.464 130.929 277.085 130.458 276.565 130.15C276.062 129.825 275.378 129.674 274.514 129.694C273.762 129.712 273.094 129.887 272.51 130.221C271.925 130.539 271.44 130.999 271.054 131.6C270.901 131.203 270.685 130.872 270.406 130.607C270.128 130.341 269.771 130.15 269.337 130.032C268.917 129.898 268.42 129.837 267.844 129.851C267.348 129.863 266.894 129.953 266.482 130.123C266.085 130.276 265.738 130.493 265.441 130.772C265.159 131.05 264.912 131.4 264.697 131.821L264.659 130.19L261.132 130.273L261.392 141.31L264.919 141.227L264.761 134.509C264.75 134.077 264.806 133.707 264.927 133.401C265.063 133.093 265.25 132.865 265.487 132.715C265.739 132.549 266.025 132.462 266.345 132.455C266.681 132.447 266.946 132.521 267.142 132.676C267.354 132.815 267.511 133.036 267.614 133.337C267.717 133.623 267.773 133.99 267.784 134.438L267.942 141.156L271.589 141.07L271.431 134.352C271.421 133.92 271.476 133.558 271.597 133.267C271.718 132.961 271.905 132.724 272.157 132.558C272.409 132.392 272.695 132.305 273.015 132.298C273.351 132.29 273.617 132.364 273.812 132.519C274.024 132.658 274.173 132.879 274.26 133.181C274.363 133.466 274.419 133.833 274.43 134.281L274.588 140.999L278.259 140.913L278.092 133.811ZM286.742 140.953C288.15 140.92 289.335 140.62 290.298 140.053C291.261 139.486 292.025 138.652 292.591 137.551L289.31 136.836C289.065 137.321 288.714 137.69 288.255 137.941C287.797 138.192 287.248 138.325 286.608 138.34C286.065 138.352 285.59 138.236 285.184 137.989C284.794 137.742 284.497 137.389 284.295 136.93C284.091 136.454 283.99 135.881 283.99 135.208C283.977 134.649 284.013 134.168 284.1 133.765C284.202 133.347 284.354 132.999 284.556 132.722C284.757 132.446 285.008 132.24 285.309 132.104C285.626 131.953 285.992 131.872 286.408 131.863C286.824 131.853 287.194 131.94 287.518 132.124C287.859 132.308 288.113 132.575 288.281 132.923C288.449 133.255 288.539 133.669 288.551 134.165C288.553 134.277 288.532 134.413 288.488 134.574C288.444 134.719 288.383 134.865 288.306 135.011L289.144 133.887L282.33 134.047L282.378 136.063L292.479 135.825C292.492 135.696 292.496 135.552 292.493 135.392C292.489 135.232 292.485 135.064 292.481 134.888C292.453 133.705 292.197 132.702 291.714 131.882C291.23 131.061 290.544 130.445 289.654 130.034C288.763 129.606 287.678 129.408 286.399 129.438C285.439 129.461 284.579 129.617 283.817 129.907C283.055 130.181 282.408 130.572 281.876 131.081C281.344 131.59 280.942 132.207 280.672 132.934C280.416 133.644 280.299 134.447 280.32 135.343C280.348 136.51 280.627 137.52 281.16 138.372C281.692 139.224 282.427 139.878 283.366 140.336C284.321 140.778 285.446 140.984 286.742 140.953ZM111.23 173.309L115.977 180.183L120.395 173.093L121.628 181.611L125.923 181.51L122.748 163.939L115.839 174.329L108.424 164.277L106.152 181.975L110.399 181.875L111.23 173.309ZM133.741 181.566C135.149 181.532 136.334 181.232 137.297 180.666C138.26 180.099 139.025 179.265 139.591 178.163L136.309 177.448C136.065 177.934 135.713 178.302 135.255 178.553C134.797 178.804 134.248 178.937 133.608 178.952C133.064 178.965 132.589 178.848 132.183 178.601C131.793 178.355 131.497 178.001 131.294 177.542C131.091 177.067 130.989 176.493 130.989 175.821C130.976 175.261 131.013 174.78 131.099 174.378C131.202 173.959 131.353 173.612 131.555 173.335C131.757 173.058 132.008 172.852 132.309 172.717C132.625 172.565 132.991 172.485 133.407 172.475C133.823 172.465 134.193 172.552 134.518 172.737C134.858 172.921 135.113 173.187 135.281 173.535C135.449 173.867 135.538 174.281 135.55 174.777C135.553 174.889 135.532 175.026 135.488 175.187C135.443 175.332 135.383 175.477 135.306 175.623L136.144 174.499L129.33 174.659L129.377 176.675L139.478 176.437C139.491 176.309 139.496 176.165 139.492 176.005C139.488 175.845 139.484 175.677 139.48 175.501C139.452 174.317 139.197 173.315 138.713 172.494C138.23 171.673 137.543 171.057 136.653 170.646C135.763 170.219 134.678 170.02 133.398 170.05C132.439 170.073 131.578 170.229 130.817 170.519C130.055 170.793 129.408 171.185 128.876 171.693C128.343 172.202 127.942 172.82 127.671 173.546C127.416 174.256 127.298 175.059 127.32 175.955C127.347 177.123 127.627 178.133 128.159 178.984C128.691 179.836 129.427 180.491 130.366 180.949C131.321 181.39 132.446 181.596 133.741 181.566ZM148.867 174.248L149.025 180.966L152.816 180.876L152.649 173.774C152.628 172.895 152.467 172.146 152.164 171.529C151.877 170.912 151.434 170.442 150.835 170.12C150.251 169.798 149.503 169.647 148.591 169.669C147.792 169.688 147.116 169.872 146.564 170.221C146.012 170.57 145.583 171.052 145.277 171.667L145.238 170.012L141.567 170.098L141.827 181.135L145.498 181.049L145.34 174.331C145.33 173.915 145.402 173.553 145.555 173.245C145.707 172.922 145.926 172.684 146.21 172.534C146.494 172.367 146.828 172.279 147.212 172.27C147.612 172.261 147.926 172.333 148.154 172.488C148.397 172.626 148.57 172.846 148.673 173.148C148.792 173.449 148.857 173.816 148.867 174.248ZM156.158 176.789L154.703 179.224C155.207 179.596 155.752 179.935 156.335 180.241C156.918 180.532 157.547 180.757 158.223 180.917C158.916 181.093 159.662 181.171 160.462 181.153C161.341 181.132 162.082 180.978 162.683 180.692C163.301 180.406 163.763 179.995 164.071 179.459C164.394 178.923 164.547 178.264 164.528 177.48C164.512 176.792 164.347 176.244 164.033 175.835C163.736 175.426 163.344 175.091 162.857 174.83C162.387 174.569 161.854 174.342 161.257 174.148C160.708 173.953 160.24 173.796 159.853 173.677C159.482 173.541 159.191 173.396 158.979 173.241C158.783 173.086 158.683 172.888 158.677 172.648C158.672 172.44 158.756 172.27 158.929 172.138C159.102 172.006 159.34 171.936 159.644 171.929C160.14 171.918 160.695 172.049 161.31 172.322C161.925 172.596 162.453 172.943 162.895 173.365L164.135 170.959C163.711 170.649 163.249 170.38 162.747 170.152C162.262 169.923 161.737 169.743 161.174 169.613C160.627 169.481 160.025 169.424 159.37 169.439C158.586 169.457 157.885 169.594 157.267 169.849C156.648 170.103 156.161 170.467 155.804 170.939C155.463 171.411 155.3 171.983 155.316 172.655C155.333 173.359 155.498 173.931 155.813 174.372C156.127 174.813 156.527 175.163 157.014 175.424C157.516 175.684 158.017 175.905 158.518 176.085C159.13 176.247 159.606 176.403 159.945 176.555C160.285 176.691 160.528 176.846 160.676 177.018C160.824 177.175 160.901 177.365 160.906 177.589C160.912 177.861 160.829 178.079 160.657 178.243C160.485 178.407 160.215 178.494 159.847 178.502C159.591 178.508 159.286 178.467 158.932 178.38C158.577 178.276 158.165 178.102 157.695 177.857C157.241 177.595 156.728 177.239 156.158 176.789ZM169.536 174.961C169.523 174.417 169.64 173.935 169.886 173.513C170.147 173.074 170.491 172.722 170.917 172.456C171.359 172.19 171.852 172.05 172.396 172.037C172.796 172.028 173.205 172.082 173.624 172.2C174.042 172.302 174.43 172.469 174.788 172.701C175.161 172.932 175.464 173.221 175.697 173.568L175.613 170.017C175.222 169.738 174.729 169.518 174.133 169.355C173.553 169.193 172.847 169.122 172.015 169.141C170.784 169.17 169.694 169.436 168.745 169.938C167.797 170.441 167.053 171.131 166.513 172.008C165.989 172.868 165.741 173.882 165.769 175.05C165.796 176.202 166.091 177.203 166.656 178.054C167.236 178.904 168.011 179.558 168.982 180.016C169.953 180.473 171.055 180.687 172.287 180.658C173.118 180.638 173.82 180.534 174.392 180.344C174.979 180.139 175.461 179.879 175.838 179.566L175.755 176.039C175.539 176.396 175.258 176.699 174.912 176.947C174.582 177.195 174.21 177.388 173.797 177.526C173.4 177.647 172.977 177.713 172.529 177.724C171.986 177.736 171.487 177.636 171.034 177.423C170.596 177.193 170.237 176.873 169.955 176.464C169.689 176.054 169.55 175.553 169.536 174.961ZM181.633 161.473L177.962 161.559L178.403 180.274L182.074 180.188L181.633 161.473ZM185.443 173.386L185.601 180.105L189.224 180.019L189.053 172.773C189.032 171.862 188.886 171.097 188.615 170.479C188.361 169.861 187.95 169.398 187.382 169.092C186.815 168.769 186.075 168.618 185.163 168.64C184.251 168.661 183.505 168.895 182.923 169.341C182.357 169.786 181.939 170.372 181.668 171.099C181.397 171.809 181.271 172.604 181.292 173.484L181.916 173.469C181.905 173.022 181.977 172.652 182.13 172.36C182.283 172.052 182.501 171.823 182.786 171.672C183.07 171.506 183.404 171.418 183.788 171.409C184.188 171.399 184.502 171.472 184.729 171.627C184.973 171.765 185.146 171.985 185.249 172.287C185.368 172.588 185.433 172.955 185.443 173.386ZM197.708 180.06C199.116 180.026 200.301 179.726 201.264 179.16C202.227 178.593 202.991 177.759 203.558 176.657L200.276 175.942C200.031 176.428 199.68 176.796 199.222 177.047C198.763 177.298 198.214 177.431 197.574 177.446C197.031 177.459 196.556 177.342 196.15 177.095C195.76 176.849 195.464 176.495 195.261 176.036C195.057 175.561 194.956 174.987 194.956 174.315C194.943 173.755 194.98 173.274 195.066 172.872C195.168 172.453 195.32 172.106 195.522 171.829C195.723 171.552 195.974 171.346 196.275 171.211C196.592 171.059 196.958 170.979 197.374 170.969C197.79 170.959 198.16 171.046 198.484 171.231C198.825 171.415 199.079 171.681 199.247 172.029C199.415 172.361 199.505 172.775 199.517 173.271C199.519 173.383 199.499 173.52 199.454 173.681C199.41 173.826 199.349 173.971 199.273 174.117L200.11 172.993L193.296 173.153L193.344 175.169L203.445 174.931C203.458 174.803 203.462 174.659 203.459 174.499C203.455 174.339 203.451 174.171 203.447 173.995C203.419 172.811 203.163 171.809 202.68 170.988C202.196 170.167 201.51 169.551 200.62 169.14C199.73 168.713 198.645 168.514 197.365 168.544C196.405 168.567 195.545 168.723 194.783 169.013C194.021 169.287 193.374 169.679 192.842 170.187C192.31 170.696 191.909 171.314 191.638 172.04C191.382 172.75 191.265 173.553 191.286 174.449C191.314 175.617 191.594 176.627 192.126 177.478C192.658 178.33 193.394 178.985 194.333 179.443C195.287 179.885 196.412 180.09 197.708 180.06ZM212.834 172.742L212.992 179.46L216.783 179.37L216.616 172.268C216.595 171.389 216.433 170.64 216.131 170.023C215.844 169.406 215.401 168.936 214.801 168.614C214.217 168.292 213.47 168.141 212.558 168.163C211.758 168.182 211.082 168.366 210.53 168.715C209.978 169.064 209.55 169.546 209.244 170.161L209.205 168.506L205.534 168.592L205.794 179.629L209.465 179.543L209.307 172.825C209.297 172.409 209.368 172.047 209.521 171.739C209.674 171.416 209.892 171.178 210.177 171.028C210.461 170.861 210.795 170.773 211.179 170.764C211.579 170.755 211.892 170.827 212.12 170.982C212.363 171.12 212.537 171.34 212.64 171.642C212.759 171.943 212.824 172.31 212.834 172.742Z" fill="#3D3D3D"/>
<defs>
<filter id="filter0_d" x="0" y="0" width="404" height="322" filterUnits="userSpaceOnUse" color-interpolation-filters="sRGB">
<feFlood flood-opacity="0" result="BackgroundImageFix"/>
<feColorMatrix in="SourceAlpha" type="matrix" values="0 0 0 0 0 0 0 0 0 0 0 0 0 0 0 0 0 0 127 0"/>
<feOffset dx="9" dy="5"/>
<feGaussianBlur stdDeviation="17"/>
<feColorMatrix type="matrix" values="0 0 0 0 0.647396 0 0 0 0 0.368058 0 0 0 0 0.294271 0 0 0 0.33 0"/>
<feBlend mode="normal" in2="BackgroundImageFix" result="effect1_dropShadow"/>
<feBlend mode="normal" in="SourceGraphic" in2="effect1_dropShadow" result="shape"/>
</filter>
<linearGradient id="paint0_linear" x1="25" y1="29" x2="308.5" y2="312.5" gradientUnits="userSpaceOnUse">
<stop stop-color="#E1C4BD"/>
<stop offset="1" stop-color="#C18878"/>
</linearGradient>
</defs>
</svg>
