<svg width="299" height="232" viewBox="0 0 299 232" fill="none" xmlns="http://www.w3.org/2000/svg">
<path d="M12.4941 27.8848L12.4941 27.8848C2.67725 41.9813 0.544876 59.9222 1.07473 75.2341C1.60473 90.5503 4.80503 103.391 5.81236 107.432L5.81598 107.447L5.81606 107.447C8.34129 117.564 11.4694 124.344 15.4655 132.211C16.0849 133.43 16.7251 134.675 17.3873 135.964C20.989 142.969 25.2418 151.242 30.3446 163.489C41.1881 189.517 46.8395 211.83 49.8746 226.147L50.4048 228.648L51.7122 226.451C57.8397 216.155 67.4271 203.66 82.3825 194.56C97.5069 185.357 111.505 179.21 131.629 176.707C151.796 174.198 178.156 175.343 218.006 180.824C222.061 181.385 253.269 185.158 276.868 162.28L276.172 161.562L276.868 162.28C293.021 146.616 296.27 127.506 297.067 121.203L297.068 121.195L297.069 121.187C298.832 105.154 300.623 67.5231 276.848 39.2375L276.082 39.8809L276.848 39.2375C265.726 26.0072 252.138 18.6641 233.551 14.0243C215.015 9.39717 191.428 7.44151 160.281 5.01797L160.203 6.01496L160.281 5.01797C123.48 2.15594 92.1959 -0.191799 67.3439 2.17093C42.4817 4.53464 23.8122 11.6335 12.4941 27.8848Z" fill="url(#paint0_linear)" stroke="#C19D82" stroke-width="2"/>
<path d="M252.796 176.308C235.892 182.49 220.497 180.621 217.739 180.242C137.991 169.274 111.881 175.602 81.4588 194.114C66.317 203.328 56.6265 215.968 50.449 226.348C53.8274 217.731 60.2946 204.286 72.4945 191.054C77.5173 185.607 88.7543 173.648 105.544 166.573C128.333 156.972 150.097 161.109 159.812 162.901C196.93 169.739 227.776 173.55 252.796 176.308Z" fill="#FAEADD"/>
<path d="M78.7871 41.3598H85.6731V39.5998H78.7871V41.3598ZM78.7871 47.5198H85.4531V45.7598H78.7871V47.5198ZM77.7531 39.5998V54.9998H79.6231V39.5998H77.7531Z" fill="#C19D82"/>
<path d="M95.1331 54.9998H96.8931V44.8798H95.1331V54.9998ZM90.4031 51.0398V44.8798H88.6431V51.2598C88.6431 52.5652 88.9584 53.5552 89.5891 54.2298C90.2344 54.8898 91.0777 55.2198 92.1191 55.2198C92.8231 55.2198 93.4611 55.0365 94.0331 54.6698C94.6051 54.3032 95.0597 53.8118 95.3971 53.1958C95.7491 52.5652 95.9251 51.8465 95.9251 51.0398H95.1331C95.1331 51.5238 95.0231 51.9565 94.8031 52.3378C94.5977 52.7192 94.2971 53.0198 93.9011 53.2398C93.5197 53.4598 93.0724 53.5698 92.5591 53.5698C91.8404 53.5698 91.2977 53.3572 90.9311 52.9318C90.5791 52.5065 90.4031 51.8758 90.4031 51.0398ZM93.7691 41.6898C93.7691 42.0125 93.8864 42.2985 94.1211 42.5478C94.3557 42.7825 94.6344 42.8998 94.9571 42.8998C95.2944 42.8998 95.5804 42.7825 95.8151 42.5478C96.0644 42.2985 96.1891 42.0125 96.1891 41.6898C96.1891 41.3525 96.0644 41.0665 95.8151 40.8318C95.5804 40.5972 95.2944 40.4798 94.9571 40.4798C94.6344 40.4798 94.3557 40.5972 94.1211 40.8318C93.8864 41.0665 93.7691 41.3525 93.7691 41.6898ZM89.3691 41.6898C89.3691 42.0125 89.4864 42.2985 89.7211 42.5478C89.9557 42.7825 90.2344 42.8998 90.5571 42.8998C90.8944 42.8998 91.1804 42.7825 91.4151 42.5478C91.6644 42.2985 91.7891 42.0125 91.7891 41.6898C91.7891 41.3525 91.6644 41.0665 91.4151 40.8318C91.1804 40.5972 90.8944 40.4798 90.5571 40.4798C90.2344 40.4798 89.9557 40.5972 89.7211 40.8318C89.4864 41.0665 89.3691 41.3525 89.3691 41.6898Z" fill="#C19D82"/>
<path d="M101.962 44.8798H100.202V54.9998H101.962V44.8798ZM105.02 46.8158L105.988 45.3638C105.724 45.0852 105.43 44.9018 105.108 44.8138C104.8 44.7112 104.462 44.6598 104.096 44.6598C103.626 44.6598 103.164 44.8432 102.71 45.2098C102.255 45.5765 101.881 46.0752 101.588 46.7058C101.309 47.3218 101.17 48.0332 101.17 48.8398H101.962C101.962 48.3558 102.006 47.9232 102.094 47.5418C102.196 47.1605 102.372 46.8598 102.622 46.6398C102.871 46.4198 103.216 46.3098 103.656 46.3098C103.949 46.3098 104.191 46.3538 104.382 46.4418C104.572 46.5152 104.785 46.6398 105.02 46.8158Z" fill="#C19D82"/>
<path d="M121.928 37.8398V54.9998H123.688V37.8398H121.928ZM113.458 49.9398C113.458 51.0252 113.686 51.9638 114.14 52.7558C114.595 53.5478 115.204 54.1565 115.966 54.5818C116.729 55.0072 117.565 55.2198 118.474 55.2198C119.325 55.2198 120.066 55.0072 120.696 54.5818C121.327 54.1565 121.818 53.5478 122.17 52.7558C122.537 51.9638 122.72 51.0252 122.72 49.9398C122.72 48.8398 122.537 47.9012 122.17 47.1238C121.818 46.3318 121.327 45.7232 120.696 45.2978C120.066 44.8725 119.325 44.6598 118.474 44.6598C117.565 44.6598 116.729 44.8725 115.966 45.2978C115.204 45.7232 114.595 46.3318 114.14 47.1238C113.686 47.9012 113.458 48.8398 113.458 49.9398ZM115.24 49.9398C115.24 49.1625 115.394 48.5025 115.702 47.9598C116.025 47.4172 116.45 47.0065 116.978 46.7278C117.506 46.4492 118.078 46.3098 118.694 46.3098C119.208 46.3098 119.714 46.4492 120.212 46.7278C120.711 47.0065 121.122 47.4172 121.444 47.9598C121.767 48.5025 121.928 49.1625 121.928 49.9398C121.928 50.7172 121.767 51.3772 121.444 51.9198C121.122 52.4625 120.711 52.8732 120.212 53.1518C119.714 53.4305 119.208 53.5698 118.694 53.5698C118.078 53.5698 117.506 53.4305 116.978 53.1518C116.45 52.8732 116.025 52.4625 115.702 51.9198C115.394 51.3772 115.24 50.7172 115.24 49.9398Z" fill="#C19D82"/>
<path d="M126.885 40.6998C126.885 41.0225 127.003 41.3085 127.237 41.5578C127.487 41.7925 127.773 41.9098 128.095 41.9098C128.433 41.9098 128.719 41.7925 128.953 41.5578C129.188 41.3085 129.305 41.0225 129.305 40.6998C129.305 40.3625 129.188 40.0765 128.953 39.8418C128.719 39.6072 128.433 39.4898 128.095 39.4898C127.773 39.4898 127.487 39.6072 127.237 39.8418C127.003 40.0765 126.885 40.3625 126.885 40.6998ZM127.215 44.8798V54.9998H128.975V44.8798H127.215Z" fill="#C19D82"/>
<path d="M136.516 55.2198C137.601 55.2198 138.54 55.0072 139.332 54.5818C140.139 54.1418 140.806 53.4965 141.334 52.6458L139.904 51.7438C139.537 52.3598 139.09 52.8218 138.562 53.1298C138.034 53.4232 137.425 53.5698 136.736 53.5698C136.047 53.5698 135.46 53.4232 134.976 53.1298C134.492 52.8365 134.125 52.4112 133.876 51.8538C133.627 51.2965 133.502 50.6218 133.502 49.8298C133.517 49.0525 133.649 48.3998 133.898 47.8718C134.162 47.3292 134.529 46.9185 134.998 46.6398C135.482 46.3465 136.061 46.1998 136.736 46.1998C137.308 46.1998 137.807 46.3245 138.232 46.5738C138.657 46.8232 138.987 47.1678 139.222 47.6078C139.471 48.0478 139.596 48.5685 139.596 49.1698C139.596 49.2725 139.574 49.4045 139.53 49.5658C139.486 49.7125 139.442 49.8225 139.398 49.8958L140.102 48.8838H132.842V50.3798H141.488C141.488 50.3505 141.488 50.2845 141.488 50.1818C141.503 50.0645 141.51 49.9545 141.51 49.8518C141.51 48.7812 141.319 47.8572 140.938 47.0798C140.557 46.3025 140.007 45.7085 139.288 45.2978C138.584 44.8725 137.733 44.6598 136.736 44.6598C135.739 44.6598 134.859 44.8798 134.096 45.3198C133.348 45.7598 132.761 46.3758 132.336 47.1678C131.925 47.9598 131.72 48.8838 131.72 49.9398C131.72 50.9812 131.918 51.8978 132.314 52.6898C132.725 53.4818 133.289 54.1052 134.008 54.5598C134.741 54.9998 135.577 55.2198 136.516 55.2198Z" fill="#C19D82"/>
<path d="M150.518 39.5998V49.9398C150.518 50.7025 150.635 51.4065 150.87 52.0518C151.119 52.6972 151.471 53.2545 151.926 53.7238C152.395 54.1932 152.953 54.5598 153.598 54.8238C154.243 55.0878 154.962 55.2198 155.754 55.2198C156.546 55.2198 157.265 55.0878 157.91 54.8238C158.555 54.5598 159.105 54.1932 159.56 53.7238C160.029 53.2545 160.381 52.6972 160.616 52.0518C160.865 51.4065 160.99 50.7025 160.99 49.9398V39.5998H159.12V49.9398C159.12 50.9958 158.834 51.8465 158.262 52.4918C157.69 53.1372 156.854 53.4598 155.754 53.4598C154.654 53.4598 153.818 53.1372 153.246 52.4918C152.674 51.8465 152.388 50.9958 152.388 49.9398V39.5998H150.518Z" fill="#C19D82"/>
<path d="M178.15 48.6198C178.15 47.7838 178.018 47.0725 177.754 46.4858C177.504 45.8845 177.138 45.4298 176.654 45.1218C176.17 44.8138 175.583 44.6598 174.894 44.6598C174.219 44.6598 173.618 44.8212 173.09 45.1438C172.562 45.4518 172.122 45.9212 171.77 46.5518C171.535 45.9505 171.161 45.4885 170.648 45.1658C170.149 44.8285 169.548 44.6598 168.844 44.6598C168.213 44.6598 167.663 44.7992 167.194 45.0778C166.739 45.3565 166.358 45.7818 166.05 46.3538V44.8798H164.29V54.9998H166.05V48.8398C166.05 48.3118 166.145 47.8572 166.336 47.4758C166.526 47.0945 166.798 46.8085 167.15 46.6178C167.502 46.4125 167.92 46.3098 168.404 46.3098C169.064 46.3098 169.548 46.5152 169.856 46.9258C170.178 47.3365 170.34 47.9745 170.34 48.8398V54.9998H172.1V48.8398C172.1 48.3118 172.195 47.8572 172.386 47.4758C172.576 47.0945 172.848 46.8085 173.2 46.6178C173.552 46.4125 173.97 46.3098 174.454 46.3098C175.114 46.3098 175.598 46.5152 175.906 46.9258C176.228 47.3365 176.39 47.9745 176.39 48.8398V54.9998H178.15V48.6198Z" fill="#C19D82"/>
<path d="M179.808 44.8798L184.208 55.7698L187.09 48.3998L190.148 55.7698L194.548 44.8798H192.568L190.016 51.5018L187.068 44.1098L184.318 51.4578L181.788 44.8798H179.808Z" fill="#C19D82"/>
<path d="M199.895 55.2198C200.98 55.2198 201.919 55.0072 202.711 54.5818C203.518 54.1418 204.185 53.4965 204.713 52.6458L203.283 51.7438C202.916 52.3598 202.469 52.8218 201.941 53.1298C201.413 53.4232 200.804 53.5698 200.115 53.5698C199.426 53.5698 198.839 53.4232 198.355 53.1298C197.871 52.8365 197.504 52.4112 197.255 51.8538C197.006 51.2965 196.881 50.6218 196.881 49.8298C196.896 49.0525 197.028 48.3998 197.277 47.8718C197.541 47.3292 197.908 46.9185 198.377 46.6398C198.861 46.3465 199.44 46.1998 200.115 46.1998C200.687 46.1998 201.186 46.3245 201.611 46.5738C202.036 46.8232 202.366 47.1678 202.601 47.6078C202.85 48.0478 202.975 48.5685 202.975 49.1698C202.975 49.2725 202.953 49.4045 202.909 49.5658C202.865 49.7125 202.821 49.8225 202.777 49.8958L203.481 48.8838H196.221V50.3798H204.867C204.867 50.3505 204.867 50.2845 204.867 50.1818C204.882 50.0645 204.889 49.9545 204.889 49.8518C204.889 48.7812 204.698 47.8572 204.317 47.0798C203.936 46.3025 203.386 45.7085 202.667 45.2978C201.963 44.8725 201.112 44.6598 200.115 44.6598C199.118 44.6598 198.238 44.8798 197.475 45.3198C196.727 45.7598 196.14 46.3758 195.715 47.1678C195.304 47.9598 195.099 48.8838 195.099 49.9398C195.099 50.9812 195.297 51.8978 195.693 52.6898C196.104 53.4818 196.668 54.1052 197.387 54.5598C198.12 54.9998 198.956 55.2198 199.895 55.2198Z" fill="#C19D82"/>
<path d="M207.301 37.8398V54.9998H209.061V37.8398H207.301Z" fill="#C19D82"/>
<path d="M210.832 44.8798V46.5298H215.892V44.8798H210.832ZM212.482 41.3598V54.9998H214.242V41.3598H212.482Z" fill="#C19D82"/>
<path d="M52.4732 83.8978L51.0872 84.7558C51.2778 85.1518 51.5565 85.5405 51.9232 85.9218C52.3045 86.3032 52.7665 86.6185 53.3092 86.8678C53.8518 87.1025 54.4605 87.2198 55.1352 87.2198C56.1765 87.2198 57.0125 86.9265 57.6432 86.3398C58.2885 85.7532 58.6112 85.0198 58.6112 84.1398C58.6112 83.5385 58.4645 83.0472 58.1712 82.6658C57.8925 82.2845 57.5112 81.9618 57.0272 81.6978C56.5432 81.4192 56.0078 81.1625 55.4212 80.9278C55.0692 80.7812 54.7318 80.6272 54.4092 80.4658C54.0865 80.3045 53.8225 80.1212 53.6172 79.9158C53.4118 79.7105 53.3092 79.4758 53.3092 79.2118C53.3092 78.8745 53.4412 78.6252 53.7052 78.4638C53.9692 78.3025 54.2845 78.2218 54.6512 78.2218C55.1792 78.2218 55.6485 78.3465 56.0592 78.5958C56.4845 78.8452 56.8365 79.1605 57.1152 79.5418L58.5232 78.6398C58.3178 78.2585 58.0318 77.9212 57.6652 77.6278C57.2985 77.3345 56.8732 77.0998 56.3892 76.9238C55.9198 76.7478 55.4138 76.6598 54.8712 76.6598C54.3285 76.6598 53.8005 76.7552 53.2872 76.9458C52.7885 77.1365 52.3778 77.4298 52.0552 77.8258C51.7472 78.2218 51.5932 78.7205 51.5932 79.3218C51.5932 79.9085 51.7398 80.3998 52.0332 80.7958C52.3412 81.1772 52.7152 81.4925 53.1552 81.7418C53.6098 81.9765 54.0572 82.1818 54.4972 82.3578C54.8932 82.5045 55.2672 82.6658 55.6192 82.8418C55.9712 83.0032 56.2572 83.2085 56.4772 83.4578C56.7118 83.6925 56.8292 83.9858 56.8292 84.3378C56.8292 84.7338 56.6825 85.0492 56.3892 85.2838C56.1105 85.5038 55.7218 85.6138 55.2232 85.6138C54.8125 85.6138 54.4312 85.5405 54.0792 85.3938C53.7418 85.2325 53.4412 85.0198 53.1772 84.7558C52.9132 84.4918 52.6785 84.2058 52.4732 83.8978Z" fill="#C19D82"/>
<path d="M61.7202 81.9398C61.7202 81.2358 61.8669 80.6125 62.1602 80.0698C62.4682 79.5125 62.8789 79.0798 63.3922 78.7718C63.9202 78.4638 64.5142 78.3098 65.1742 78.3098C65.7169 78.3098 66.2229 78.3978 66.6922 78.5738C67.1762 78.7352 67.5942 78.9552 67.9462 79.2338C68.2982 79.5125 68.5476 79.8205 68.6942 80.1578V77.9578C68.3422 77.5472 67.8362 77.2318 67.1762 77.0118C66.5309 76.7772 65.8636 76.6598 65.1742 76.6598C64.1916 76.6598 63.3042 76.8872 62.5122 77.3418C61.7202 77.7965 61.0896 78.4198 60.6202 79.2118C60.1656 80.0038 59.9382 80.9132 59.9382 81.9398C59.9382 82.9518 60.1656 83.8612 60.6202 84.6678C61.0896 85.4598 61.7202 86.0832 62.5122 86.5378C63.3042 86.9925 64.1916 87.2198 65.1742 87.2198C65.8636 87.2198 66.5309 87.1098 67.1762 86.8898C67.8362 86.6552 68.3422 86.3325 68.6942 85.9218V83.7218C68.5476 84.0445 68.2982 84.3525 67.9462 84.6458C67.5942 84.9245 67.1762 85.1518 66.6922 85.3278C66.2229 85.4892 65.7169 85.5698 65.1742 85.5698C64.5142 85.5698 63.9202 85.4158 63.3922 85.1078C62.8789 84.7852 62.4682 84.3525 62.1602 83.8098C61.8669 83.2672 61.7202 82.6438 61.7202 81.9398Z" fill="#C19D82"/>
<path d="M73.1941 69.8398H71.4341V86.9998H73.1941V69.8398ZM77.9241 80.8398V86.9998H79.6841V80.6198C79.6841 79.7398 79.5374 79.0065 79.2441 78.4198C78.9654 77.8332 78.5621 77.3932 78.0341 77.0998C77.5207 76.8065 76.9121 76.6598 76.2081 76.6598C75.5041 76.6598 74.8807 76.8432 74.3381 77.2098C73.8101 77.5765 73.3921 78.0752 73.0841 78.7058C72.7761 79.3218 72.6221 80.0332 72.6221 80.8398H73.1941C73.1941 80.3558 73.2967 79.9232 73.5021 79.5418C73.7221 79.1605 74.0227 78.8598 74.4041 78.6398C74.8001 78.4198 75.2547 78.3098 75.7681 78.3098C76.4867 78.3098 77.0221 78.5225 77.3741 78.9478C77.7407 79.3732 77.9241 80.0038 77.9241 80.8398Z" fill="#C19D82"/>
<path d="M84.7527 76.8798H82.9927V86.9998H84.7527V76.8798ZM87.8107 78.8158L88.7787 77.3638C88.5147 77.0852 88.2213 76.9018 87.8987 76.8138C87.5907 76.7112 87.2533 76.6598 86.8867 76.6598C86.4173 76.6598 85.9553 76.8432 85.5007 77.2098C85.046 77.5765 84.672 78.0752 84.3787 78.7058C84.1 79.3218 83.9607 80.0332 83.9607 80.8398H84.7527C84.7527 80.3558 84.7967 79.9232 84.8847 79.5418C84.9873 79.1605 85.1633 78.8598 85.4127 78.6398C85.662 78.4198 86.0067 78.3098 86.4467 78.3098C86.74 78.3098 86.982 78.3538 87.1727 78.4418C87.3633 78.5152 87.576 78.6398 87.8107 78.8158Z" fill="#C19D82"/>
<path d="M91.3257 84.0298C91.3257 83.6192 91.421 83.2672 91.6117 82.9738C91.8024 82.6805 92.0884 82.4532 92.4697 82.2918C92.8657 82.1305 93.357 82.0498 93.9437 82.0498C94.589 82.0498 95.1684 82.1378 95.6817 82.3138C96.195 82.4752 96.701 82.7318 97.1997 83.0838V82.0498C97.097 81.9178 96.9064 81.7492 96.6277 81.5438C96.349 81.3238 95.975 81.1332 95.5057 80.9718C95.051 80.7958 94.501 80.7078 93.8557 80.7078C93.049 80.7078 92.3157 80.8398 91.6557 81.1038C91.0104 81.3678 90.497 81.7638 90.1157 82.2918C89.7344 82.8052 89.5437 83.4578 89.5437 84.2498C89.5437 84.8658 89.683 85.3938 89.9617 85.8338C90.255 86.2738 90.6657 86.6185 91.1937 86.8678C91.7217 87.1025 92.3304 87.2198 93.0197 87.2198C93.7237 87.2198 94.3617 87.1025 94.9337 86.8678C95.5057 86.6185 95.9604 86.2665 96.2977 85.8118C96.6497 85.3425 96.8257 84.7852 96.8257 84.1398L96.4737 83.0398C96.4737 83.6705 96.3417 84.1765 96.0777 84.5578C95.8284 84.9392 95.4764 85.2178 95.0217 85.3938C94.567 85.5698 94.0464 85.6578 93.4597 85.6578C92.9904 85.6578 92.5944 85.5992 92.2717 85.4818C91.9637 85.3498 91.729 85.1665 91.5677 84.9318C91.4064 84.6825 91.3257 84.3818 91.3257 84.0298ZM91.3257 79.2558C91.487 79.1385 91.707 78.9992 91.9857 78.8378C92.279 78.6618 92.6237 78.5152 93.0197 78.3978C93.4157 78.2658 93.8557 78.1998 94.3397 78.1998C94.897 78.1998 95.3884 78.3318 95.8137 78.5958C96.2537 78.8452 96.4737 79.2265 96.4737 79.7398V86.9998H98.2337V79.7398C98.2337 79.0798 98.065 78.5225 97.7277 78.0678C97.405 77.6132 96.9504 77.2685 96.3637 77.0338C95.7917 76.7845 95.117 76.6598 94.3397 76.6598C93.4304 76.6598 92.653 76.7992 92.0077 77.0778C91.3624 77.3565 90.849 77.6352 90.4677 77.9138L91.3257 79.2558ZM95.3297 74.1298C95.3297 74.4525 95.447 74.7385 95.6817 74.9878C95.931 75.2225 96.217 75.3398 96.5397 75.3398C96.877 75.3398 97.163 75.2225 97.3977 74.9878C97.6324 74.7385 97.7497 74.4525 97.7497 74.1298C97.7497 73.7925 97.6324 73.5065 97.3977 73.2718C97.163 73.0372 96.877 72.9198 96.5397 72.9198C96.217 72.9198 95.931 73.0372 95.6817 73.2718C95.447 73.5065 95.3297 73.7925 95.3297 74.1298ZM90.9297 74.1298C90.9297 74.4525 91.047 74.7385 91.2817 74.9878C91.531 75.2225 91.817 75.3398 92.1397 75.3398C92.477 75.3398 92.763 75.2225 92.9977 74.9878C93.2324 74.7385 93.3497 74.4525 93.3497 74.1298C93.3497 73.7925 93.2324 73.5065 92.9977 73.2718C92.763 73.0372 92.477 72.9198 92.1397 72.9198C91.817 72.9198 91.531 73.0372 91.2817 73.2718C91.047 73.5065 90.9297 73.7925 90.9297 74.1298Z" fill="#C19D82"/>
<path d="M107.701 80.8398V86.9998H109.461V80.6198C109.461 79.4025 109.146 78.4418 108.515 77.7378C107.899 77.0192 107.056 76.6598 105.985 76.6598C105.325 76.6598 104.739 76.8065 104.225 77.0998C103.727 77.3932 103.309 77.8478 102.971 78.4638V76.8798H101.211V86.9998H102.971V80.8398C102.971 80.3412 103.074 79.9012 103.279 79.5198C103.499 79.1385 103.8 78.8452 104.181 78.6398C104.577 78.4198 105.032 78.3098 105.545 78.3098C106.249 78.3098 106.785 78.5225 107.151 78.9478C107.518 79.3732 107.701 80.0038 107.701 80.8398Z" fill="#C19D82"/>
<path d="M112.66 69.8398V86.9998H114.42V69.8398H112.66ZM118.16 76.8798L113.76 81.0598L118.6 86.9998H120.8L115.96 81.0598L120.36 76.8798H118.16Z" fill="#C19D82"/>
<path d="M126.053 87.2198C127.139 87.2198 128.077 87.0072 128.869 86.5818C129.676 86.1418 130.343 85.4965 130.871 84.6458L129.441 83.7438C129.075 84.3598 128.627 84.8218 128.099 85.1298C127.571 85.4232 126.963 85.5698 126.273 85.5698C125.584 85.5698 124.997 85.4232 124.513 85.1298C124.029 84.8365 123.663 84.4112 123.413 83.8538C123.164 83.2965 123.039 82.6218 123.039 81.8298C123.054 81.0525 123.186 80.3998 123.435 79.8718C123.699 79.3292 124.066 78.9185 124.535 78.6398C125.019 78.3465 125.599 78.1998 126.273 78.1998C126.845 78.1998 127.344 78.3245 127.769 78.5738C128.195 78.8232 128.525 79.1678 128.759 79.6078C129.009 80.0478 129.133 80.5685 129.133 81.1698C129.133 81.2725 129.111 81.4045 129.067 81.5658C129.023 81.7125 128.979 81.8225 128.935 81.8958L129.639 80.8838H122.379V82.3798H131.025C131.025 82.3505 131.025 82.2845 131.025 82.1818C131.04 82.0645 131.047 81.9545 131.047 81.8518C131.047 80.7812 130.857 79.8572 130.475 79.0798C130.094 78.3025 129.544 77.7085 128.825 77.2978C128.121 76.8725 127.271 76.6598 126.273 76.6598C125.276 76.6598 124.396 76.8798 123.633 77.3198C122.885 77.7598 122.299 78.3758 121.873 79.1678C121.463 79.9598 121.257 80.8838 121.257 81.9398C121.257 82.9812 121.455 83.8978 121.851 84.6898C122.262 85.4818 122.827 86.1052 123.545 86.5598C124.279 86.9998 125.115 87.2198 126.053 87.2198Z" fill="#C19D82"/>
<path d="M140.055 72.6998C140.055 73.0225 140.173 73.3085 140.407 73.5578C140.657 73.7925 140.943 73.9098 141.265 73.9098C141.603 73.9098 141.889 73.7925 142.123 73.5578C142.358 73.3085 142.475 73.0225 142.475 72.6998C142.475 72.3625 142.358 72.0765 142.123 71.8418C141.889 71.6072 141.603 71.4898 141.265 71.4898C140.943 71.4898 140.657 71.6072 140.407 71.8418C140.173 72.0765 140.055 72.3625 140.055 72.6998ZM140.385 76.8798V86.9998H142.145V76.8798H140.385Z" fill="#C19D82"/>
<path d="M146.562 81.9398C146.562 81.2358 146.709 80.6125 147.002 80.0698C147.31 79.5125 147.721 79.0798 148.234 78.7718C148.762 78.4638 149.356 78.3098 150.016 78.3098C150.559 78.3098 151.065 78.3978 151.534 78.5738C152.018 78.7352 152.436 78.9552 152.788 79.2338C153.14 79.5125 153.389 79.8205 153.536 80.1578V77.9578C153.184 77.5472 152.678 77.2318 152.018 77.0118C151.373 76.7772 150.705 76.6598 150.016 76.6598C149.033 76.6598 148.146 76.8872 147.354 77.3418C146.562 77.7965 145.931 78.4198 145.462 79.2118C145.007 80.0038 144.78 80.9132 144.78 81.9398C144.78 82.9518 145.007 83.8612 145.462 84.6678C145.931 85.4598 146.562 86.0832 147.354 86.5378C148.146 86.9925 149.033 87.2198 150.016 87.2198C150.705 87.2198 151.373 87.1098 152.018 86.8898C152.678 86.6552 153.184 86.3325 153.536 85.9218V83.7218C153.389 84.0445 153.14 84.3525 152.788 84.6458C152.436 84.9245 152.018 85.1518 151.534 85.3278C151.065 85.4892 150.559 85.5698 150.016 85.5698C149.356 85.5698 148.762 85.4158 148.234 85.1078C147.721 84.7852 147.31 84.3525 147.002 83.8098C146.709 83.2672 146.562 82.6438 146.562 81.9398Z" fill="#C19D82"/>
<path d="M158.036 69.8398H156.276V86.9998H158.036V69.8398ZM162.766 80.8398V86.9998H164.526V80.6198C164.526 79.7398 164.379 79.0065 164.086 78.4198C163.807 77.8332 163.404 77.3932 162.876 77.0998C162.363 76.8065 161.754 76.6598 161.05 76.6598C160.346 76.6598 159.723 76.8432 159.18 77.2098C158.652 77.5765 158.234 78.0752 157.926 78.7058C157.618 79.3218 157.464 80.0332 157.464 80.8398H158.036C158.036 80.3558 158.139 79.9232 158.344 79.5418C158.564 79.1605 158.865 78.8598 159.246 78.6398C159.642 78.4198 160.097 78.3098 160.61 78.3098C161.329 78.3098 161.864 78.5225 162.216 78.9478C162.583 79.3732 162.766 80.0038 162.766 80.8398Z" fill="#C19D82"/>
<path d="M188.29 80.6198C188.29 79.7838 188.158 79.0725 187.894 78.4858C187.645 77.8845 187.278 77.4298 186.794 77.1218C186.31 76.8138 185.723 76.6598 185.034 76.6598C184.359 76.6598 183.758 76.8212 183.23 77.1438C182.702 77.4518 182.262 77.9212 181.91 78.5518C181.675 77.9505 181.301 77.4885 180.788 77.1658C180.289 76.8285 179.688 76.6598 178.984 76.6598C178.353 76.6598 177.804 76.7992 177.334 77.0778C176.88 77.3565 176.498 77.7818 176.19 78.3538V76.8798H174.43V86.9998H176.19V80.8398C176.19 80.3118 176.285 79.8572 176.476 79.4758C176.667 79.0945 176.938 78.8085 177.29 78.6178C177.642 78.4125 178.06 78.3098 178.544 78.3098C179.204 78.3098 179.688 78.5152 179.996 78.9258C180.319 79.3365 180.48 79.9745 180.48 80.8398V86.9998H182.24V80.8398C182.24 80.3118 182.335 79.8572 182.526 79.4758C182.717 79.0945 182.988 78.8085 183.34 78.6178C183.692 78.4125 184.11 78.3098 184.594 78.3098C185.254 78.3098 185.738 78.5152 186.046 78.9258C186.369 79.3365 186.53 79.9745 186.53 80.8398V86.9998H188.29V80.6198Z" fill="#C19D82"/>
<path d="M191.596 72.6998C191.596 73.0225 191.714 73.3085 191.948 73.5578C192.198 73.7925 192.484 73.9098 192.806 73.9098C193.144 73.9098 193.43 73.7925 193.664 73.5578C193.899 73.3085 194.016 73.0225 194.016 72.6998C194.016 72.3625 193.899 72.0765 193.664 71.8418C193.43 71.6072 193.144 71.4898 192.806 71.4898C192.484 71.4898 192.198 71.6072 191.948 71.8418C191.714 72.0765 191.596 72.3625 191.596 72.6998ZM191.926 76.8798V86.9998H193.686V76.8798H191.926Z" fill="#C19D82"/>
<path d="M198.103 81.9398C198.103 81.2358 198.25 80.6125 198.543 80.0698C198.851 79.5125 199.262 79.0798 199.775 78.7718C200.303 78.4638 200.897 78.3098 201.557 78.3098C202.1 78.3098 202.606 78.3978 203.075 78.5738C203.559 78.7352 203.977 78.9552 204.329 79.2338C204.681 79.5125 204.93 79.8205 205.077 80.1578V77.9578C204.725 77.5472 204.219 77.2318 203.559 77.0118C202.914 76.7772 202.246 76.6598 201.557 76.6598C200.574 76.6598 199.687 76.8872 198.895 77.3418C198.103 77.7965 197.472 78.4198 197.003 79.2118C196.548 80.0038 196.321 80.9132 196.321 81.9398C196.321 82.9518 196.548 83.8612 197.003 84.6678C197.472 85.4598 198.103 86.0832 198.895 86.5378C199.687 86.9925 200.574 87.2198 201.557 87.2198C202.246 87.2198 202.914 87.1098 203.559 86.8898C204.219 86.6552 204.725 86.3325 205.077 85.9218V83.7218C204.93 84.0445 204.681 84.3525 204.329 84.6458C203.977 84.9245 203.559 85.1518 203.075 85.3278C202.606 85.4892 202.1 85.5698 201.557 85.5698C200.897 85.5698 200.303 85.4158 199.775 85.1078C199.262 84.7852 198.851 84.3525 198.543 83.8098C198.25 83.2672 198.103 82.6438 198.103 81.9398Z" fill="#C19D82"/>
<path d="M209.577 69.8398H207.817V86.9998H209.577V69.8398ZM214.307 80.8398V86.9998H216.067V80.6198C216.067 79.7398 215.92 79.0065 215.627 78.4198C215.348 77.8332 214.945 77.3932 214.417 77.0998C213.904 76.8065 213.295 76.6598 212.591 76.6598C211.887 76.6598 211.264 76.8432 210.721 77.2098C210.193 77.5765 209.775 78.0752 209.467 78.7058C209.159 79.3218 209.005 80.0332 209.005 80.8398H209.577C209.577 80.3558 209.68 79.9232 209.885 79.5418C210.105 79.1605 210.406 78.8598 210.787 78.6398C211.183 78.4198 211.638 78.3098 212.151 78.3098C212.87 78.3098 213.405 78.5225 213.757 78.9478C214.124 79.3732 214.307 80.0038 214.307 80.8398Z" fill="#C19D82"/>
<path d="M225.971 72.6998C225.971 73.0225 226.088 73.3085 226.323 73.5578C226.572 73.7925 226.859 73.9098 227.181 73.9098C227.519 73.9098 227.805 73.7925 228.039 73.5578C228.274 73.3085 228.391 73.0225 228.391 72.6998C228.391 72.3625 228.274 72.0765 228.039 71.8418C227.805 71.6072 227.519 71.4898 227.181 71.4898C226.859 71.4898 226.572 71.6072 226.323 71.8418C226.088 72.0765 225.971 72.3625 225.971 72.6998ZM226.301 76.8798V86.9998H228.061V76.8798H226.301Z" fill="#C19D82"/>
<path d="M238.176 80.8398V86.9998H239.936V80.6198C239.936 79.4025 239.621 78.4418 238.99 77.7378C238.374 77.0192 237.531 76.6598 236.46 76.6598C235.8 76.6598 235.213 76.8065 234.7 77.0998C234.201 77.3932 233.783 77.8478 233.446 78.4638V76.8798H231.686V86.9998H233.446V80.8398C233.446 80.3412 233.549 79.9012 233.754 79.5198C233.974 79.1385 234.275 78.8452 234.656 78.6398C235.052 78.4198 235.507 78.3098 236.02 78.3098C236.724 78.3098 237.259 78.5225 237.626 78.9478C237.993 79.3732 238.176 80.0038 238.176 80.8398Z" fill="#C19D82"/>
<path d="M59.0079 112.62C59.0079 111.784 58.8759 111.073 58.6119 110.486C58.3626 109.885 57.9959 109.43 57.5119 109.122C57.0279 108.814 56.4413 108.66 55.7519 108.66C55.0773 108.66 54.4759 108.821 53.9479 109.144C53.4199 109.452 52.9799 109.921 52.6279 110.552C52.3933 109.951 52.0193 109.489 51.5059 109.166C51.0073 108.829 50.4059 108.66 49.7019 108.66C49.0713 108.66 48.5213 108.799 48.0519 109.078C47.5973 109.357 47.2159 109.782 46.9079 110.354V108.88H45.1479V119H46.9079V112.84C46.9079 112.312 47.0033 111.857 47.1939 111.476C47.3846 111.095 47.6559 110.809 48.0079 110.618C48.3599 110.413 48.7779 110.31 49.2619 110.31C49.9219 110.31 50.4059 110.515 50.7139 110.926C51.0366 111.337 51.1979 111.975 51.1979 112.84V119H52.9579V112.84C52.9579 112.312 53.0533 111.857 53.2439 111.476C53.4346 111.095 53.7059 110.809 54.0579 110.618C54.4099 110.413 54.8279 110.31 55.3119 110.31C55.9719 110.31 56.4559 110.515 56.7639 110.926C57.0866 111.337 57.2479 111.975 57.2479 112.84V119H59.0079V112.62Z" fill="#C19D82"/>
<path d="M66.23 119.22C67.3153 119.22 68.254 119.007 69.046 118.582C69.8526 118.142 70.52 117.497 71.048 116.646L69.618 115.744C69.2513 116.36 68.804 116.822 68.276 117.13C67.748 117.423 67.1393 117.57 66.45 117.57C65.7606 117.57 65.174 117.423 64.69 117.13C64.206 116.837 63.8393 116.411 63.59 115.854C63.3406 115.297 63.216 114.622 63.216 113.83C63.2306 113.053 63.3626 112.4 63.612 111.872C63.876 111.329 64.2426 110.919 64.712 110.64C65.196 110.347 65.7753 110.2 66.45 110.2C67.022 110.2 67.5206 110.325 67.946 110.574C68.3713 110.823 68.7013 111.168 68.936 111.608C69.1853 112.048 69.31 112.569 69.31 113.17C69.31 113.273 69.288 113.405 69.244 113.566C69.2 113.713 69.156 113.823 69.112 113.896L69.816 112.884H62.556V114.38H71.202C71.202 114.351 71.202 114.285 71.202 114.182C71.2166 114.065 71.224 113.955 71.224 113.852C71.224 112.781 71.0333 111.857 70.652 111.08C70.2706 110.303 69.7206 109.709 69.002 109.298C68.298 108.873 67.4473 108.66 66.45 108.66C65.4526 108.66 64.5726 108.88 63.81 109.32C63.062 109.76 62.4753 110.376 62.05 111.168C61.6393 111.96 61.434 112.884 61.434 113.94C61.434 114.981 61.632 115.898 62.028 116.69C62.4386 117.482 63.0033 118.105 63.722 118.56C64.4553 119 65.2913 119.22 66.23 119.22Z" fill="#C19D82"/>
<path d="M73.6362 104.7C73.6362 105.023 73.7536 105.309 73.9882 105.558C74.2376 105.793 74.5236 105.91 74.8462 105.91C75.1836 105.91 75.4696 105.793 75.7042 105.558C75.9389 105.309 76.0562 105.023 76.0562 104.7C76.0562 104.363 75.9389 104.077 75.7042 103.842C75.4696 103.607 75.1836 103.49 74.8462 103.49C74.5236 103.49 74.2376 103.607 73.9882 103.842C73.7536 104.077 73.6362 104.363 73.6362 104.7ZM73.9662 108.88V119H75.7262V108.88H73.9662Z" fill="#C19D82"/>
<path d="M85.8411 112.84V119H87.6011V112.62C87.6011 111.403 87.2857 110.442 86.6551 109.738C86.0391 109.019 85.1957 108.66 84.1251 108.66C83.4651 108.66 82.8784 108.807 82.3651 109.1C81.8664 109.393 81.4484 109.848 81.1111 110.464V108.88H79.3511V119H81.1111V112.84C81.1111 112.341 81.2137 111.901 81.4191 111.52C81.6391 111.139 81.9397 110.845 82.3211 110.64C82.7171 110.42 83.1717 110.31 83.6851 110.31C84.3891 110.31 84.9244 110.523 85.2911 110.948C85.6577 111.373 85.8411 112.004 85.8411 112.84Z" fill="#C19D82"/>
<path d="M94.8257 119.22C95.911 119.22 96.8497 119.007 97.6417 118.582C98.4483 118.142 99.1157 117.497 99.6437 116.646L98.2137 115.744C97.847 116.36 97.3997 116.822 96.8717 117.13C96.3437 117.423 95.735 117.57 95.0457 117.57C94.3563 117.57 93.7697 117.423 93.2857 117.13C92.8017 116.837 92.435 116.411 92.1857 115.854C91.9363 115.297 91.8117 114.622 91.8117 113.83C91.8263 113.053 91.9583 112.4 92.2077 111.872C92.4717 111.329 92.8383 110.919 93.3077 110.64C93.7917 110.347 94.371 110.2 95.0457 110.2C95.6177 110.2 96.1163 110.325 96.5417 110.574C96.967 110.823 97.297 111.168 97.5317 111.608C97.781 112.048 97.9057 112.569 97.9057 113.17C97.9057 113.273 97.8837 113.405 97.8397 113.566C97.7957 113.713 97.7517 113.823 97.7077 113.896L98.4117 112.884H91.1517V114.38H99.7977C99.7977 114.351 99.7977 114.285 99.7977 114.182C99.8123 114.065 99.8197 113.955 99.8197 113.852C99.8197 112.781 99.629 111.857 99.2477 111.08C98.8663 110.303 98.3163 109.709 97.5977 109.298C96.8937 108.873 96.043 108.66 95.0457 108.66C94.0483 108.66 93.1683 108.88 92.4057 109.32C91.6577 109.76 91.071 110.376 90.6457 111.168C90.235 111.96 90.0297 112.884 90.0297 113.94C90.0297 114.981 90.2277 115.898 90.6237 116.69C91.0343 117.482 91.599 118.105 92.3177 118.56C93.051 119 93.887 119.22 94.8257 119.22Z" fill="#C19D82"/>
<path d="M116.092 112.62C116.092 111.784 115.96 111.073 115.696 110.486C115.447 109.885 115.08 109.43 114.596 109.122C114.112 108.814 113.525 108.66 112.836 108.66C112.161 108.66 111.56 108.821 111.032 109.144C110.504 109.452 110.064 109.921 109.712 110.552C109.477 109.951 109.103 109.489 108.59 109.166C108.091 108.829 107.49 108.66 106.786 108.66C106.155 108.66 105.605 108.799 105.136 109.078C104.681 109.357 104.3 109.782 103.992 110.354V108.88H102.232V119H103.992V112.84C103.992 112.312 104.087 111.857 104.278 111.476C104.469 111.095 104.74 110.809 105.092 110.618C105.444 110.413 105.862 110.31 106.346 110.31C107.006 110.31 107.49 110.515 107.798 110.926C108.121 111.337 108.282 111.975 108.282 112.84V119H110.042V112.84C110.042 112.312 110.137 111.857 110.328 111.476C110.519 111.095 110.79 110.809 111.142 110.618C111.494 110.413 111.912 110.31 112.396 110.31C113.056 110.31 113.54 110.515 113.848 110.926C114.171 111.337 114.332 111.975 114.332 112.84V119H116.092V112.62Z" fill="#C19D82"/>
<path d="M126.104 103.6V119H127.974V103.6H126.104ZM134.024 103.6L127.402 110.86L134.354 119H136.664L129.668 110.816L136.334 103.6H134.024Z" fill="#C19D82"/>
<path d="M136.887 113.94C136.887 114.952 137.114 115.861 137.569 116.668C138.038 117.46 138.669 118.083 139.461 118.538C140.253 118.993 141.14 119.22 142.123 119.22C143.12 119.22 144.008 118.993 144.785 118.538C145.577 118.083 146.2 117.46 146.655 116.668C147.124 115.861 147.359 114.952 147.359 113.94C147.359 112.913 147.124 112.004 146.655 111.212C146.2 110.42 145.577 109.797 144.785 109.342C144.008 108.887 143.12 108.66 142.123 108.66C141.14 108.66 140.253 108.887 139.461 109.342C138.669 109.797 138.038 110.42 137.569 111.212C137.114 112.004 136.887 112.913 136.887 113.94ZM138.669 113.94C138.669 113.236 138.816 112.613 139.109 112.07C139.417 111.513 139.828 111.08 140.341 110.772C140.869 110.464 141.463 110.31 142.123 110.31C142.783 110.31 143.37 110.464 143.883 110.772C144.411 111.08 144.822 111.513 145.115 112.07C145.423 112.613 145.577 113.236 145.577 113.94C145.577 114.644 145.423 115.267 145.115 115.81C144.822 116.353 144.411 116.785 143.883 117.108C143.37 117.416 142.783 117.57 142.123 117.57C141.463 117.57 140.869 117.416 140.341 117.108C139.828 116.785 139.417 116.353 139.109 115.81C138.816 115.267 138.669 114.644 138.669 113.94Z" fill="#C19D82"/>
<path d="M156.267 112.84V119H158.027V112.62C158.027 111.403 157.712 110.442 157.081 109.738C156.465 109.019 155.622 108.66 154.551 108.66C153.891 108.66 153.304 108.807 152.791 109.1C152.292 109.393 151.874 109.848 151.537 110.464V108.88H149.777V119H151.537V112.84C151.537 112.341 151.64 111.901 151.845 111.52C152.065 111.139 152.366 110.845 152.747 110.64C153.143 110.42 153.598 110.31 154.111 110.31C154.815 110.31 155.35 110.523 155.717 110.948C156.084 111.373 156.267 112.004 156.267 112.84Z" fill="#C19D82"/>
<path d="M161.753 115.898L160.367 116.756C160.558 117.152 160.837 117.541 161.203 117.922C161.585 118.303 162.047 118.619 162.589 118.868C163.132 119.103 163.741 119.22 164.415 119.22C165.457 119.22 166.293 118.927 166.923 118.34C167.569 117.753 167.891 117.02 167.891 116.14C167.891 115.539 167.745 115.047 167.451 114.666C167.173 114.285 166.791 113.962 166.307 113.698C165.823 113.419 165.288 113.163 164.701 112.928C164.349 112.781 164.012 112.627 163.689 112.466C163.367 112.305 163.103 112.121 162.897 111.916C162.692 111.711 162.589 111.476 162.589 111.212C162.589 110.875 162.721 110.625 162.985 110.464C163.249 110.303 163.565 110.222 163.931 110.222C164.459 110.222 164.929 110.347 165.339 110.596C165.765 110.845 166.117 111.161 166.395 111.542L167.803 110.64C167.598 110.259 167.312 109.921 166.945 109.628C166.579 109.335 166.153 109.1 165.669 108.924C165.2 108.748 164.694 108.66 164.151 108.66C163.609 108.66 163.081 108.755 162.567 108.946C162.069 109.137 161.658 109.43 161.335 109.826C161.027 110.222 160.873 110.721 160.873 111.322C160.873 111.909 161.02 112.4 161.313 112.796C161.621 113.177 161.995 113.493 162.435 113.742C162.89 113.977 163.337 114.182 163.777 114.358C164.173 114.505 164.547 114.666 164.899 114.842C165.251 115.003 165.537 115.209 165.757 115.458C165.992 115.693 166.109 115.986 166.109 116.338C166.109 116.734 165.963 117.049 165.669 117.284C165.391 117.504 165.002 117.614 164.503 117.614C164.093 117.614 163.711 117.541 163.359 117.394C163.022 117.233 162.721 117.02 162.457 116.756C162.193 116.492 161.959 116.206 161.753 115.898Z" fill="#C19D82"/>
<path d="M171.968 115.04V108.88H170.208V115.26C170.208 116.463 170.524 117.423 171.154 118.142C171.785 118.861 172.628 119.22 173.684 119.22C174.359 119.22 174.946 119.073 175.444 118.78C175.943 118.472 176.361 118.017 176.698 117.416V119H178.458V108.88H176.698V115.04C176.698 115.539 176.588 115.979 176.368 116.36C176.163 116.741 175.862 117.042 175.466 117.262C175.085 117.467 174.638 117.57 174.124 117.57C173.42 117.57 172.885 117.35 172.518 116.91C172.152 116.47 171.968 115.847 171.968 115.04Z" fill="#C19D82"/>
<path d="M195.627 112.62C195.627 111.784 195.495 111.073 195.231 110.486C194.982 109.885 194.615 109.43 194.131 109.122C193.647 108.814 193.06 108.66 192.371 108.66C191.696 108.66 191.095 108.821 190.567 109.144C190.039 109.452 189.599 109.921 189.247 110.552C189.012 109.951 188.638 109.489 188.125 109.166C187.626 108.829 187.025 108.66 186.321 108.66C185.69 108.66 185.14 108.799 184.671 109.078C184.216 109.357 183.835 109.782 183.527 110.354V108.88H181.767V119H183.527V112.84C183.527 112.312 183.622 111.857 183.813 111.476C184.004 111.095 184.275 110.809 184.627 110.618C184.979 110.413 185.397 110.31 185.881 110.31C186.541 110.31 187.025 110.515 187.333 110.926C187.656 111.337 187.817 111.975 187.817 112.84V119H189.577V112.84C189.577 112.312 189.672 111.857 189.863 111.476C190.054 111.095 190.325 110.809 190.677 110.618C191.029 110.413 191.447 110.31 191.931 110.31C192.591 110.31 193.075 110.515 193.383 110.926C193.706 111.337 193.867 111.975 193.867 112.84V119H195.627V112.62Z" fill="#C19D82"/>
<path d="M212.019 112.84V119H213.779V112.62C213.779 111.403 213.463 110.442 212.833 109.738C212.217 109.019 211.373 108.66 210.303 108.66C209.643 108.66 209.056 108.807 208.543 109.1C208.044 109.393 207.626 109.848 207.289 110.464V108.88H205.529V119H207.289V112.84C207.289 112.341 207.391 111.901 207.597 111.52C207.817 111.139 208.117 110.845 208.499 110.64C208.895 110.42 209.349 110.31 209.863 110.31C210.567 110.31 211.102 110.523 211.469 110.948C211.835 111.373 212.019 112.004 212.019 112.84Z" fill="#C19D82"/>
<path d="M217.087 104.7C217.087 105.023 217.205 105.309 217.439 105.558C217.689 105.793 217.975 105.91 218.297 105.91C218.635 105.91 218.921 105.793 219.155 105.558C219.39 105.309 219.507 105.023 219.507 104.7C219.507 104.363 219.39 104.077 219.155 103.842C218.921 103.607 218.635 103.49 218.297 103.49C217.975 103.49 217.689 103.607 217.439 103.842C217.205 104.077 217.087 104.363 217.087 104.7ZM217.417 108.88V119H219.177V108.88H217.417Z" fill="#C19D82"/>
<path d="M223.594 113.94C223.594 113.236 223.741 112.613 224.034 112.07C224.342 111.513 224.753 111.08 225.266 110.772C225.794 110.464 226.388 110.31 227.048 110.31C227.591 110.31 228.097 110.398 228.566 110.574C229.05 110.735 229.468 110.955 229.82 111.234C230.172 111.513 230.422 111.821 230.568 112.158V109.958C230.216 109.547 229.71 109.232 229.05 109.012C228.405 108.777 227.738 108.66 227.048 108.66C226.066 108.66 225.178 108.887 224.386 109.342C223.594 109.797 222.964 110.42 222.494 111.212C222.04 112.004 221.812 112.913 221.812 113.94C221.812 114.952 222.04 115.861 222.494 116.668C222.964 117.46 223.594 118.083 224.386 118.538C225.178 118.993 226.066 119.22 227.048 119.22C227.738 119.22 228.405 119.11 229.05 118.89C229.71 118.655 230.216 118.333 230.568 117.922V115.722C230.422 116.045 230.172 116.353 229.82 116.646C229.468 116.925 229.05 117.152 228.566 117.328C228.097 117.489 227.591 117.57 227.048 117.57C226.388 117.57 225.794 117.416 225.266 117.108C224.753 116.785 224.342 116.353 224.034 115.81C223.741 115.267 223.594 114.644 223.594 113.94Z" fill="#C19D82"/>
<path d="M235.068 101.84H233.308V119H235.068V101.84ZM239.798 112.84V119H241.558V112.62C241.558 111.74 241.411 111.007 241.118 110.42C240.839 109.833 240.436 109.393 239.908 109.1C239.395 108.807 238.786 108.66 238.082 108.66C237.378 108.66 236.755 108.843 236.212 109.21C235.684 109.577 235.266 110.075 234.958 110.706C234.65 111.322 234.496 112.033 234.496 112.84H235.068C235.068 112.356 235.171 111.923 235.376 111.542C235.596 111.161 235.897 110.86 236.278 110.64C236.674 110.42 237.129 110.31 237.642 110.31C238.361 110.31 238.896 110.523 239.248 110.948C239.615 111.373 239.798 112.004 239.798 112.84Z" fill="#C19D82"/>
<path d="M243.327 108.88V110.53H248.387V108.88H243.327ZM244.977 105.36V119H246.737V105.36H244.977Z" fill="#C19D82"/>
<path d="M137.268 151.22C138.353 151.22 139.292 151.007 140.084 150.582C140.891 150.142 141.558 149.497 142.086 148.646L140.656 147.744C140.289 148.36 139.842 148.822 139.314 149.13C138.786 149.423 138.177 149.57 137.488 149.57C136.799 149.57 136.212 149.423 135.728 149.13C135.244 148.837 134.877 148.411 134.628 147.854C134.379 147.297 134.254 146.622 134.254 145.83C134.269 145.053 134.401 144.4 134.65 143.872C134.914 143.329 135.281 142.919 135.75 142.64C136.234 142.347 136.813 142.2 137.488 142.2C138.06 142.2 138.559 142.325 138.984 142.574C139.409 142.823 139.739 143.168 139.974 143.608C140.223 144.048 140.348 144.569 140.348 145.17C140.348 145.273 140.326 145.405 140.282 145.566C140.238 145.713 140.194 145.823 140.15 145.896L140.854 144.884H133.594V146.38H142.24C142.24 146.351 142.24 146.285 142.24 146.182C142.255 146.065 142.262 145.955 142.262 145.852C142.262 144.781 142.071 143.857 141.69 143.08C141.309 142.303 140.759 141.709 140.04 141.298C139.336 140.873 138.485 140.66 137.488 140.66C136.491 140.66 135.611 140.88 134.848 141.32C134.1 141.76 133.513 142.376 133.088 143.168C132.677 143.96 132.472 144.884 132.472 145.94C132.472 146.981 132.67 147.898 133.066 148.69C133.477 149.482 134.041 150.105 134.76 150.56C135.493 151 136.329 151.22 137.268 151.22Z" fill="#C19D82"/>
<path d="M144.674 136.7C144.674 137.023 144.792 137.309 145.026 137.558C145.276 137.793 145.562 137.91 145.884 137.91C146.222 137.91 146.508 137.793 146.742 137.558C146.977 137.309 147.094 137.023 147.094 136.7C147.094 136.363 146.977 136.077 146.742 135.842C146.508 135.607 146.222 135.49 145.884 135.49C145.562 135.49 145.276 135.607 145.026 135.842C144.792 136.077 144.674 136.363 144.674 136.7ZM145.004 140.88V151H146.764V140.88H145.004Z" fill="#C19D82"/>
<path d="M156.879 144.84V151H158.639V144.62C158.639 143.403 158.324 142.442 157.693 141.738C157.077 141.019 156.234 140.66 155.163 140.66C154.503 140.66 153.916 140.807 153.403 141.1C152.904 141.393 152.486 141.848 152.149 142.464V140.88H150.389V151H152.149V144.84C152.149 144.341 152.252 143.901 152.457 143.52C152.677 143.139 152.978 142.845 153.359 142.64C153.755 142.42 154.21 142.31 154.723 142.31C155.427 142.31 155.962 142.523 156.329 142.948C156.696 143.373 156.879 144.004 156.879 144.84Z" fill="#C19D82"/>
<defs>
<linearGradient id="paint0_linear" x1="12.6601" y1="20.2413" x2="265.222" y2="181.783" gradientUnits="userSpaceOnUse">
<stop stop-color="#FEF9F6"/>
<stop offset="1" stop-color="#FCEBDF"/>
</linearGradient>
</defs>
</svg>
