<svg width="483" height="440" viewBox="0 0 483 440" fill="none" xmlns="http://www.w3.org/2000/svg">
<path d="M135.255 402.15C129.264 425.132 122.78 439.317 113.255 439.856C112.504 439.897 90.0103 439.535 89.2728 439.34C75.0735 435.639 71.63 412.982 77.9514 388.738C83.6528 366.873 94.8022 351.185 107.929 351.031C109.359 351.013 128.576 350.778 129.97 351.14C144.165 354.85 141.577 377.909 135.255 402.15Z" fill="#3E6B81"/>
<path d="M146.396 402.15C140.074 426.394 123.436 443.046 109.237 439.34C95.0375 435.639 88.6483 412.982 94.9741 388.738C101.295 364.493 117.934 347.841 132.133 351.547C146.332 355.253 152.717 377.91 146.396 402.15Z" fill="#87A5B4"/>
<path d="M135.364 398.805C131.622 413.149 122.3 423.14 114.54 421.117C106.78 419.095 103.522 405.823 107.264 391.479C111.006 377.135 120.327 367.144 128.088 369.166C135.848 371.189 139.106 384.461 135.364 398.805Z" fill="#F2F6DA"/>
<path d="M478.503 24.6474H87.0053C84.6749 24.6474 82.7881 22.7605 82.7881 20.4301V4.21725C82.7881 1.8869 84.6749 0 87.0053 0H478.503C480.834 0 482.72 1.8869 482.72 4.21725V20.4301C482.72 22.7605 480.834 24.6474 478.503 24.6474Z" fill="#B67664"/>
<path d="M411.353 346.063C417.032 346 425.367 337.782 426.132 332.859L474.033 24.2402H91.4805L139.092 401.127H343.71C348.325 401.127 352.357 397.996 353.497 393.521L356.275 381.801C357.235 377.76 358.452 373.778 360.036 369.941C367.054 352.955 388.62 346.312 411.353 346.063Z" fill="#B67664"/>
<path d="M422.702 402.15C416.711 425.132 410.226 439.317 400.701 439.856C399.95 439.897 377.457 439.535 376.719 439.34C362.52 435.639 359.076 412.982 365.398 388.738C371.099 366.873 382.249 351.185 395.375 351.031C396.805 351.013 416.023 350.778 417.416 351.14C431.616 354.85 429.023 377.909 422.702 402.15Z" fill="#3E6B81"/>
<path d="M433.847 402.15C427.525 426.394 410.887 443.046 396.688 439.34C382.489 435.639 376.099 412.982 382.421 388.738C388.742 364.493 405.38 347.841 419.58 351.547C433.779 355.253 440.168 377.91 433.847 402.15Z" fill="#87A5B4"/>
<path d="M422.815 398.805C419.073 413.149 409.751 423.14 401.991 421.117C394.231 419.095 390.973 405.823 394.715 391.479C398.457 377.135 407.778 367.144 415.539 369.166C423.294 371.189 426.552 384.461 422.815 398.805Z" fill="#F2F6DA"/>
<path d="M338.411 401.127H67.9648C60.4262 401.127 54.0686 395.521 53.1229 388.041L7.16309 24.2402H399.213L352.81 390.217C351.869 397.697 345.95 401.127 338.411 401.127Z" fill="#C18878"/>
<path d="M7.16699 24.2402L9.55617 43.1862H471.091L474.032 24.2402H91.4802H7.16699Z" fill="#E3E3E3"/>
<path d="M407.303 24.6487H4.35746C1.9502 24.6487 0 22.6984 0 20.2912V4.36338C0 1.95611 1.9502 0.00585938 4.35746 0.00585938H407.303C409.711 0.00585938 411.661 1.95611 411.661 4.36338V20.2912C411.661 22.6939 409.711 24.6487 407.303 24.6487Z" fill="#C18878"/>
<path d="M144.974 188.28C144.974 191.651 144.27 194.488 142.862 196.792C141.454 199.053 139.555 200.76 137.166 201.912C134.819 203.064 132.195 203.64 129.294 203.64C126.563 203.64 124.174 203.213 122.126 202.36C120.12 201.507 118.392 200.376 116.942 198.968C115.534 197.517 114.339 195.939 113.358 194.232L117.966 191.096C118.648 192.376 119.544 193.592 120.654 194.744C121.806 195.853 123.128 196.771 124.622 197.496C126.115 198.179 127.672 198.52 129.294 198.52C132.494 198.52 134.968 197.581 136.718 195.704C138.467 193.827 139.342 191.352 139.342 188.28C139.342 186.232 138.894 184.44 137.998 182.904C137.144 181.368 135.95 180.173 134.414 179.32C132.92 178.467 131.214 178.04 129.294 178.04C127.886 178.04 126.584 178.168 125.39 178.424C124.238 178.637 123.064 179.043 121.87 179.64C120.718 180.195 119.374 181.005 117.838 182.072L123.726 158.2H144.846V163H127.95L124.942 174.84C127.075 173.731 129.294 173.176 131.598 173.176C134.158 173.176 136.44 173.816 138.446 175.096C140.494 176.376 142.094 178.147 143.246 180.408C144.398 182.669 144.974 185.293 144.974 188.28ZM165.675 203.64C162.816 203.64 160.299 203.085 158.123 201.976C155.989 200.867 154.325 199.373 153.131 197.496C151.979 195.576 151.403 193.464 151.403 191.16H156.907C156.907 193.251 157.717 195 159.339 196.408C161.003 197.816 163.115 198.52 165.675 198.52C168.235 198.52 170.261 197.795 171.755 196.344C173.291 194.893 174.059 192.952 174.059 190.52C174.059 187.747 173.056 185.677 171.051 184.312C169.088 182.904 166.656 182.2 163.755 182.2V177.4C166.656 177.4 168.875 176.632 170.411 175.096C171.989 173.56 172.779 171.747 172.779 169.656C172.779 167.523 172.203 165.795 171.051 164.472C169.941 163.149 168.256 162.488 165.995 162.488C163.904 162.488 162.133 163.149 160.683 164.472C159.232 165.752 158.507 167.373 158.507 169.336H153.323C153.323 166.989 153.856 164.941 154.923 163.192C156.032 161.443 157.525 160.077 159.403 159.096C161.323 158.072 163.499 157.56 165.931 157.56C168.491 157.56 170.688 158.115 172.523 159.224C174.4 160.333 175.829 161.784 176.811 163.576C177.835 165.368 178.347 167.331 178.347 169.464C178.347 171.683 177.664 173.688 176.299 175.48C174.933 177.272 173.077 178.659 170.731 179.64C173.376 180.408 175.509 181.731 177.131 183.608C178.795 185.485 179.627 188.003 179.627 191.16C179.627 193.677 179.008 195.875 177.771 197.752C176.576 199.629 174.933 201.08 172.843 202.104C170.752 203.128 168.363 203.64 165.675 203.64ZM216.036 188.28C216.036 191.651 215.332 194.488 213.924 196.792C212.516 199.053 210.617 200.76 208.228 201.912C205.881 203.064 203.257 203.64 200.356 203.64C197.625 203.64 195.236 203.213 193.188 202.36C191.183 201.507 189.455 200.376 188.004 198.968C186.596 197.517 185.401 195.939 184.42 194.232L189.028 191.096C189.711 192.376 190.607 193.592 191.716 194.744C192.868 195.853 194.191 196.771 195.684 197.496C197.177 198.179 198.735 198.52 200.356 198.52C203.556 198.52 206.031 197.581 207.78 195.704C209.529 193.827 210.404 191.352 210.404 188.28C210.404 186.232 209.956 184.44 209.06 182.904C208.207 181.368 207.012 180.173 205.476 179.32C203.983 178.467 202.276 178.04 200.356 178.04C198.948 178.04 197.647 178.168 196.452 178.424C195.3 178.637 194.127 179.043 192.932 179.64C191.78 180.195 190.436 181.005 188.9 182.072L194.788 158.2H215.908V163H199.012L196.004 174.84C198.137 173.731 200.356 173.176 202.66 173.176C205.22 173.176 207.503 173.816 209.508 175.096C211.556 176.376 213.156 178.147 214.308 180.408C215.46 182.669 216.036 185.293 216.036 188.28ZM258.293 173.56H264.693L251.893 185.72L265.973 203H259.573L247.413 188.088V203H242.293V153.08H247.413V183.864L258.293 173.56ZM267.879 204.92H273.062C273.062 206.328 273.447 207.629 274.215 208.824C274.983 210.061 276.071 211.043 277.479 211.768C278.887 212.536 280.551 212.92 282.471 212.92C283.964 212.92 285.436 212.557 286.887 211.832C288.337 211.107 289.532 209.955 290.471 208.376C291.452 206.84 291.943 204.835 291.943 202.36V197.944C290.876 199.779 289.468 201.187 287.719 202.168C286.012 203.149 284.071 203.64 281.895 203.64C279.249 203.64 276.817 203.021 274.599 201.784C272.38 200.547 270.609 198.776 269.286 196.472C267.964 194.168 267.303 191.437 267.303 188.28C267.303 185.08 267.964 182.349 269.286 180.088C270.609 177.784 272.38 176.013 274.599 174.776C276.817 173.539 279.249 172.92 281.895 172.92C284.071 172.92 286.012 173.411 287.719 174.392C289.468 175.373 290.876 176.781 291.943 178.616V173.56H297.062V202.36C297.062 205.731 296.359 208.547 294.951 210.808C293.543 213.112 291.729 214.84 289.511 215.992C287.292 217.144 284.945 217.72 282.471 217.72C279.612 217.72 277.073 217.187 274.855 216.12C272.679 215.053 270.972 213.539 269.735 211.576C268.497 209.656 267.879 207.437 267.879 204.92ZM272.487 188.28C272.487 190.541 272.935 192.461 273.831 194.04C274.769 195.619 276.007 196.813 277.543 197.624C279.079 198.435 280.743 198.84 282.535 198.84C284.028 198.84 285.5 198.435 286.951 197.624C288.401 196.813 289.596 195.619 290.535 194.04C291.473 192.461 291.943 190.541 291.943 188.28C291.943 186.019 291.473 184.099 290.535 182.52C289.596 180.941 288.401 179.747 286.951 178.936C285.5 178.125 284.028 177.72 282.535 177.72C280.743 177.72 279.079 178.125 277.543 178.936C276.007 179.747 274.769 180.941 273.831 182.52C272.935 184.099 272.487 186.019 272.487 188.28Z" fill="white"/>
<path d="M107.684 233.4H111.104C111.92 233.4 112.646 233.556 113.282 233.868C113.93 234.168 114.44 234.6 114.812 235.164C115.196 235.728 115.388 236.4 115.388 237.18C115.388 237.948 115.196 238.62 114.812 239.196C114.44 239.76 113.93 240.198 113.282 240.51C112.646 240.81 111.92 240.96 111.104 240.96H109.214V246H107.684V233.4ZM111.104 234.84H109.214V239.52H111.104C111.92 239.52 112.58 239.322 113.084 238.926C113.6 238.53 113.858 237.948 113.858 237.18C113.858 236.4 113.6 235.818 113.084 235.434C112.58 235.038 111.92 234.84 111.104 234.84ZM121.046 239.304C120.854 239.16 120.68 239.058 120.524 238.998C120.368 238.926 120.17 238.89 119.93 238.89C119.39 238.89 119.024 239.088 118.832 239.484C118.64 239.868 118.544 240.36 118.544 240.96V246H117.104V237.72H118.544V238.674C118.772 238.326 119.042 238.05 119.354 237.846C119.666 237.642 119.978 237.54 120.29 237.54C120.59 237.54 120.866 237.582 121.118 237.666C121.382 237.738 121.622 237.888 121.838 238.116L121.046 239.304ZM122.29 241.86C122.29 241.02 122.476 240.276 122.848 239.628C123.232 238.98 123.748 238.47 124.396 238.098C125.044 237.726 125.77 237.54 126.574 237.54C127.39 237.54 128.116 237.726 128.752 238.098C129.4 238.47 129.91 238.98 130.282 239.628C130.666 240.276 130.858 241.02 130.858 241.86C130.858 242.688 130.666 243.432 130.282 244.092C129.91 244.74 129.4 245.25 128.752 245.622C128.116 245.994 127.39 246.18 126.574 246.18C125.77 246.18 125.044 245.994 124.396 245.622C123.748 245.25 123.232 244.74 122.848 244.092C122.476 243.432 122.29 242.688 122.29 241.86ZM123.748 241.86C123.748 242.436 123.868 242.946 124.108 243.39C124.36 243.834 124.696 244.188 125.116 244.452C125.548 244.704 126.034 244.83 126.574 244.83C127.114 244.83 127.594 244.704 128.014 244.452C128.446 244.188 128.782 243.834 129.022 243.39C129.274 242.946 129.4 242.436 129.4 241.86C129.4 241.284 129.274 240.774 129.022 240.33C128.782 239.874 128.446 239.52 128.014 239.268C127.594 239.016 127.114 238.89 126.574 238.89C126.034 238.89 125.548 239.016 125.116 239.268C124.696 239.52 124.36 239.874 124.108 240.33C123.868 240.774 123.748 241.284 123.748 241.86ZM131.576 242.4V241.05H135.176V242.4H131.576ZM136.706 233.4H138.236V238.818L143.186 233.4H145.076L139.622 239.304L145.346 246H143.456L138.236 239.88V246H136.706V233.4ZM145.528 241.86C145.528 241.02 145.714 240.276 146.086 239.628C146.47 238.98 146.986 238.47 147.634 238.098C148.282 237.726 149.008 237.54 149.812 237.54C150.628 237.54 151.354 237.726 151.99 238.098C152.638 238.47 153.148 238.98 153.52 239.628C153.904 240.276 154.096 241.02 154.096 241.86C154.096 242.688 153.904 243.432 153.52 244.092C153.148 244.74 152.638 245.25 151.99 245.622C151.354 245.994 150.628 246.18 149.812 246.18C149.008 246.18 148.282 245.994 147.634 245.622C146.986 245.25 146.47 244.74 146.086 244.092C145.714 243.432 145.528 242.688 145.528 241.86ZM146.986 241.86C146.986 242.436 147.106 242.946 147.346 243.39C147.598 243.834 147.934 244.188 148.354 244.452C148.786 244.704 149.272 244.83 149.812 244.83C150.352 244.83 150.832 244.704 151.252 244.452C151.684 244.188 152.02 243.834 152.26 243.39C152.512 242.946 152.638 242.436 152.638 241.86C152.638 241.284 152.512 240.774 152.26 240.33C152.02 239.874 151.684 239.52 151.252 239.268C150.832 239.016 150.352 238.89 149.812 238.89C149.272 238.89 148.786 239.016 148.354 239.268C147.934 239.52 147.598 239.874 147.346 240.33C147.106 240.774 146.986 241.284 146.986 241.86ZM157.425 249.96H155.985V237.72H157.425V239.142C157.725 238.626 158.115 238.23 158.595 237.954C159.087 237.678 159.639 237.54 160.251 237.54C161.007 237.54 161.691 237.714 162.303 238.062C162.927 238.41 163.425 238.908 163.797 239.556C164.169 240.192 164.355 240.96 164.355 241.86C164.355 242.748 164.169 243.516 163.797 244.164C163.425 244.812 162.927 245.31 162.303 245.658C161.691 246.006 161.007 246.18 160.251 246.18C159.639 246.18 159.087 246.042 158.595 245.766C158.115 245.49 157.725 245.094 157.425 244.578V249.96ZM162.897 241.86C162.897 241.224 162.765 240.684 162.501 240.24C162.249 239.796 161.907 239.46 161.475 239.232C161.055 239.004 160.587 238.89 160.071 238.89C159.651 238.89 159.237 239.004 158.829 239.232C158.421 239.46 158.085 239.796 157.821 240.24C157.557 240.684 157.425 241.224 157.425 241.86C157.425 242.496 157.557 243.036 157.821 243.48C158.085 243.924 158.421 244.26 158.829 244.488C159.237 244.716 159.651 244.83 160.071 244.83C160.587 244.83 161.055 244.716 161.475 244.488C161.907 244.26 162.249 243.924 162.501 243.48C162.765 243.036 162.897 242.496 162.897 241.86ZM165.71 237.72H166.52V234.66C166.52 233.676 166.73 232.95 167.15 232.482C167.57 232.014 168.158 231.78 168.914 231.78C169.298 231.78 169.622 231.858 169.886 232.014C170.162 232.158 170.366 232.32 170.498 232.5L169.706 233.688C169.586 233.484 169.442 233.358 169.274 233.31C169.118 233.25 168.968 233.22 168.824 233.22C168.56 233.22 168.35 233.34 168.194 233.58C168.038 233.82 167.96 234.24 167.96 234.84V237.72H169.85V239.07H167.96V246H166.52V239.07H165.71V237.72ZM170.231 242.4V241.05H173.831V242.4H170.231ZM184 246L182.398 242.22H177.322L175.72 246H174.01L179.86 232.77L185.71 246H184ZM179.86 236.244L177.934 240.78H181.786L179.86 236.244ZM195.433 241.86C195.433 242.748 195.247 243.516 194.875 244.164C194.503 244.812 194.005 245.31 193.381 245.658C192.769 246.006 192.085 246.18 191.329 246.18C190.717 246.18 190.165 246.042 189.673 245.766C189.193 245.49 188.803 245.094 188.503 244.578V246H187.063V231.96H188.503V239.142C188.803 238.626 189.193 238.23 189.673 237.954C190.165 237.678 190.717 237.54 191.329 237.54C192.085 237.54 192.769 237.714 193.381 238.062C194.005 238.41 194.503 238.908 194.875 239.556C195.247 240.192 195.433 240.96 195.433 241.86ZM193.975 241.86C193.975 241.224 193.843 240.684 193.579 240.24C193.327 239.796 192.985 239.46 192.553 239.232C192.133 239.004 191.665 238.89 191.149 238.89C190.729 238.89 190.315 239.004 189.907 239.232C189.499 239.46 189.163 239.796 188.899 240.24C188.635 240.684 188.503 241.224 188.503 241.86C188.503 242.496 188.635 243.036 188.899 243.48C189.163 243.924 189.499 244.26 189.907 244.488C190.315 244.716 190.729 244.83 191.149 244.83C191.665 244.83 192.133 244.716 192.553 244.488C192.985 244.26 193.327 243.924 193.579 243.48C193.843 243.036 193.975 242.496 193.975 241.86ZM196.788 237.72H197.598V234.66C197.598 233.676 197.808 232.95 198.228 232.482C198.648 232.014 199.236 231.78 199.992 231.78C200.376 231.78 200.7 231.858 200.964 232.014C201.24 232.158 201.444 232.32 201.576 232.5L200.784 233.688C200.664 233.484 200.52 233.358 200.352 233.31C200.196 233.25 200.046 233.22 199.902 233.22C199.638 233.22 199.428 233.34 199.272 233.58C199.116 233.82 199.038 234.24 199.038 234.84V237.72H200.928V239.07H199.038V246H197.598V239.07H196.788V237.72ZM203.001 239.628L202.299 238.566C202.611 238.338 203.037 238.11 203.577 237.882C204.129 237.654 204.789 237.54 205.557 237.54C206.517 237.54 207.297 237.762 207.897 238.206C208.497 238.638 208.797 239.256 208.797 240.06V246H207.357V244.884C207.093 245.316 206.697 245.64 206.169 245.856C205.641 246.072 205.125 246.18 204.621 246.18C204.117 246.18 203.643 246.078 203.199 245.874C202.767 245.658 202.419 245.352 202.155 244.956C201.891 244.56 201.759 244.08 201.759 243.516C201.759 242.712 202.041 242.07 202.605 241.59C203.181 241.098 203.979 240.852 204.999 240.852C205.551 240.852 206.019 240.918 206.403 241.05C206.799 241.17 207.117 241.308 207.357 241.464V240.258C207.357 239.694 207.171 239.31 206.799 239.106C206.439 238.902 206.001 238.8 205.485 238.8C204.861 238.8 204.339 238.902 203.919 239.106C203.499 239.31 203.193 239.484 203.001 239.628ZM203.217 243.444C203.217 243.924 203.379 244.296 203.703 244.56C204.039 244.812 204.471 244.938 204.999 244.938C205.659 244.938 206.217 244.74 206.673 244.344C207.129 243.948 207.357 243.42 207.357 242.76V242.454C207.021 242.286 206.679 242.166 206.331 242.094C205.983 242.022 205.617 241.986 205.233 241.986C204.537 241.986 204.027 242.118 203.703 242.382C203.379 242.634 203.217 242.988 203.217 243.444ZM211.235 231.96H212.675V246H211.235V231.96ZM215.383 231.96H216.823V246H215.383V231.96ZM219.964 239.628L219.262 238.566C219.574 238.338 220 238.11 220.54 237.882C221.092 237.654 221.752 237.54 222.52 237.54C223.48 237.54 224.26 237.762 224.86 238.206C225.46 238.638 225.76 239.256 225.76 240.06V246H224.32V244.884C224.056 245.316 223.66 245.64 223.132 245.856C222.604 246.072 222.088 246.18 221.584 246.18C221.08 246.18 220.606 246.078 220.162 245.874C219.73 245.658 219.382 245.352 219.118 244.956C218.854 244.56 218.722 244.08 218.722 243.516C218.722 242.712 219.004 242.07 219.568 241.59C220.144 241.098 220.942 240.852 221.962 240.852C222.514 240.852 222.982 240.918 223.366 241.05C223.762 241.17 224.08 241.308 224.32 241.464V240.258C224.32 239.694 224.134 239.31 223.762 239.106C223.402 238.902 222.964 238.8 222.448 238.8C221.824 238.8 221.302 238.902 220.882 239.106C220.462 239.31 220.156 239.484 219.964 239.628ZM220.18 243.444C220.18 243.924 220.342 244.296 220.666 244.56C221.002 244.812 221.434 244.938 221.962 244.938C222.622 244.938 223.18 244.74 223.636 244.344C224.092 243.948 224.32 243.42 224.32 242.76V242.454C223.984 242.286 223.642 242.166 223.294 242.094C222.946 242.022 222.58 241.986 222.196 241.986C221.5 241.986 220.99 242.118 220.666 242.382C220.342 242.634 220.18 242.988 220.18 243.444ZM229.638 242.76C229.638 243.42 229.788 243.93 230.088 244.29C230.388 244.65 230.826 244.83 231.402 244.83C232.038 244.83 232.548 244.638 232.932 244.254C233.316 243.87 233.508 243.372 233.508 242.76V237.72H234.948V246H233.508V244.704C232.956 245.688 232.134 246.18 231.042 246.18C230.178 246.18 229.488 245.886 228.972 245.298C228.456 244.71 228.198 243.924 228.198 242.94V237.72H229.638V242.76ZM237.025 237.72H237.835V234.66C237.835 233.676 238.045 232.95 238.465 232.482C238.885 232.014 239.473 231.78 240.229 231.78C240.613 231.78 240.937 231.858 241.201 232.014C241.477 232.158 241.681 232.32 241.813 232.5L241.021 233.688C240.901 233.484 240.757 233.358 240.589 233.31C240.433 233.25 240.283 233.22 240.139 233.22C239.875 233.22 239.665 233.34 239.509 233.58C239.353 233.82 239.275 234.24 239.275 234.84V237.72H241.165V239.07H239.275V246H237.835V239.07H237.025V237.72ZM247.215 237.72H249.015L245.415 241.14L249.375 246H247.575L244.155 241.806V246H242.715V231.96H244.155V240.618L247.215 237.72ZM249.749 241.86C249.749 241.02 249.935 240.276 250.307 239.628C250.691 238.98 251.207 238.47 251.855 238.098C252.503 237.726 253.229 237.54 254.033 237.54C254.849 237.54 255.575 237.726 256.211 238.098C256.859 238.47 257.369 238.98 257.741 239.628C258.125 240.276 258.317 241.02 258.317 241.86C258.317 242.688 258.125 243.432 257.741 244.092C257.369 244.74 256.859 245.25 256.211 245.622C255.575 245.994 254.849 246.18 254.033 246.18C253.229 246.18 252.503 245.994 251.855 245.622C251.207 245.25 250.691 244.74 250.307 244.092C249.935 243.432 249.749 242.688 249.749 241.86ZM251.207 241.86C251.207 242.436 251.327 242.946 251.567 243.39C251.819 243.834 252.155 244.188 252.575 244.452C253.007 244.704 253.493 244.83 254.033 244.83C254.573 244.83 255.053 244.704 255.473 244.452C255.905 244.188 256.241 243.834 256.481 243.39C256.733 242.946 256.859 242.436 256.859 241.86C256.859 241.284 256.733 240.774 256.481 240.33C256.241 239.874 255.905 239.52 255.473 239.268C255.053 239.016 254.573 238.89 254.033 238.89C253.493 238.89 253.007 239.016 252.575 239.268C252.155 239.52 251.819 239.874 251.567 240.33C251.327 240.774 251.207 241.284 251.207 241.86ZM271.635 240.78V246H270.195V240.96C270.195 240.252 270.063 239.73 269.799 239.394C269.547 239.058 269.151 238.89 268.611 238.89C268.023 238.89 267.555 239.076 267.207 239.448C266.859 239.808 266.685 240.312 266.685 240.96V246H265.245V240.96C265.245 240.252 265.113 239.73 264.849 239.394C264.597 239.058 264.201 238.89 263.661 238.89C263.073 238.89 262.605 239.076 262.257 239.448C261.909 239.808 261.735 240.312 261.735 240.96V246H260.295V237.72H261.735V238.926C262.227 238.002 262.989 237.54 264.021 237.54C264.597 237.54 265.089 237.678 265.497 237.954C265.917 238.218 266.223 238.596 266.415 239.088C266.991 238.056 267.843 237.54 268.971 237.54C269.823 237.54 270.477 237.822 270.933 238.386C271.401 238.95 271.635 239.748 271.635 240.78ZM285.68 240.78V246H284.24V240.96C284.24 240.252 284.108 239.73 283.844 239.394C283.592 239.058 283.196 238.89 282.656 238.89C282.068 238.89 281.6 239.076 281.252 239.448C280.904 239.808 280.73 240.312 280.73 240.96V246H279.29V240.96C279.29 240.252 279.158 239.73 278.894 239.394C278.642 239.058 278.246 238.89 277.706 238.89C277.118 238.89 276.65 239.076 276.302 239.448C275.954 239.808 275.78 240.312 275.78 240.96V246H274.34V237.72H275.78V238.926C276.272 238.002 277.034 237.54 278.066 237.54C278.642 237.54 279.134 237.678 279.542 237.954C279.962 238.218 280.268 238.596 280.46 239.088C281.036 238.056 281.888 237.54 283.016 237.54C283.868 237.54 284.522 237.822 284.978 238.386C285.446 238.95 285.68 239.748 285.68 240.78ZM291.589 246.18C290.821 246.18 290.137 246 289.537 245.64C288.949 245.268 288.487 244.758 288.151 244.11C287.827 243.462 287.665 242.712 287.665 241.86C287.665 240.996 287.833 240.24 288.169 239.592C288.517 238.944 288.997 238.44 289.609 238.08C290.233 237.72 290.953 237.54 291.769 237.54C292.981 237.54 293.935 237.918 294.631 238.674C295.327 239.43 295.675 240.468 295.675 241.788C295.675 241.872 295.669 241.962 295.657 242.058C295.657 242.142 295.657 242.196 295.657 242.22H289.141C289.201 243.048 289.459 243.69 289.915 244.146C290.371 244.602 290.989 244.83 291.769 244.83C292.897 244.83 293.761 244.332 294.361 243.336L295.531 244.074C294.667 245.478 293.353 246.18 291.589 246.18ZM291.769 238.8C291.061 238.8 290.485 238.992 290.041 239.376C289.597 239.748 289.315 240.288 289.195 240.996H294.109C294.061 240.336 293.821 239.808 293.389 239.412C292.969 239.004 292.429 238.8 291.769 238.8ZM302.959 240.96C302.959 239.58 302.371 238.89 301.195 238.89C300.571 238.89 300.061 239.082 299.665 239.466C299.281 239.85 299.089 240.348 299.089 240.96V246H297.649V237.72H299.089V239.016C299.629 238.032 300.451 237.54 301.555 237.54C302.431 237.54 303.121 237.834 303.625 238.422C304.141 238.998 304.399 239.784 304.399 240.78V246H302.959V240.96Z" fill="white"/>
</svg>
