<svg width="483" height="440" viewBox="0 0 483 440" fill="none" xmlns="http://www.w3.org/2000/svg">
<path d="M135.255 402.15C129.264 425.132 122.779 439.317 113.254 439.856C112.503 439.897 90.0099 439.535 89.2723 439.34C75.073 435.639 71.6295 412.982 77.9509 388.738C83.6523 366.873 94.8018 351.185 107.929 351.031C109.358 351.013 128.576 350.778 129.97 351.14C144.164 354.85 141.576 377.909 135.255 402.15Z" fill="#3E6B81"/>
<path d="M146.395 402.15C140.074 426.394 123.436 443.046 109.237 439.34C95.0372 435.639 88.648 412.982 94.9739 388.738C101.295 364.493 117.933 347.841 132.133 351.547C146.332 355.253 152.717 377.91 146.395 402.15Z" fill="#87A5B4"/>
<path d="M135.363 398.805C131.621 413.149 122.3 423.14 114.54 421.117C106.779 419.095 103.521 405.823 107.263 391.479C111.006 377.135 120.327 367.144 128.087 369.166C135.848 371.189 139.106 384.461 135.363 398.805Z" fill="#F2F6DA"/>
<path d="M478.503 24.6474H87.0055C84.6752 24.6474 82.7883 22.7605 82.7883 20.4301V4.21725C82.7883 1.8869 84.6752 0 87.0055 0H478.503C480.834 0 482.721 1.8869 482.721 4.21725V20.4301C482.721 22.7605 480.834 24.6474 478.503 24.6474Z" fill="#B67664"/>
<path d="M411.353 346.063C417.032 346 425.367 337.782 426.132 332.859L474.033 24.2402H91.4807L139.092 401.127H343.71C348.325 401.127 352.357 397.996 353.497 393.521L356.276 381.801C357.235 377.76 358.452 373.778 360.036 369.941C367.054 352.955 388.62 346.312 411.353 346.063Z" fill="#B67664"/>
<path d="M422.702 402.15C416.711 425.132 410.226 439.317 400.701 439.856C399.95 439.897 377.457 439.535 376.719 439.34C362.52 435.639 359.077 412.982 365.398 388.738C371.099 366.873 382.249 351.185 395.376 351.031C396.806 351.013 416.023 350.778 417.417 351.14C431.616 354.85 429.023 377.909 422.702 402.15Z" fill="#3E6B81"/>
<path d="M433.847 402.15C427.525 426.394 410.887 443.046 396.688 439.34C382.489 435.639 376.1 412.982 382.421 388.738C388.742 364.493 405.38 347.841 419.58 351.547C433.779 355.253 440.168 377.91 433.847 402.15Z" fill="#87A5B4"/>
<path d="M422.815 398.805C419.073 413.149 409.751 423.14 401.991 421.117C394.231 419.095 390.973 405.823 394.715 391.479C398.457 377.135 407.778 367.144 415.539 369.166C423.294 371.189 426.552 384.461 422.815 398.805Z" fill="#F2F6DA"/>
<path d="M338.411 401.127H67.9645C60.426 401.127 54.0684 395.521 53.1227 388.041L7.16284 24.2402H399.213L352.81 390.217C351.868 397.697 345.95 401.127 338.411 401.127Z" fill="#C18878"/>
<path d="M7.16748 24.2402L9.55666 43.1862H471.092L474.033 24.2402H91.4807H7.16748Z" fill="#E3E3E3"/>
<path d="M407.303 24.6487H4.35746C1.9502 24.6487 0 22.6984 0 20.2912V4.36338C0 1.95611 1.9502 0.00585938 4.35746 0.00585938H407.303C409.711 0.00585938 411.661 1.95611 411.661 4.36338V20.2912C411.661 22.6939 409.711 24.6487 407.303 24.6487Z" fill="#C18878"/>
<path d="M143.939 175.6C143.939 172.528 143.299 169.925 142.019 167.792C140.739 165.616 139.053 163.952 136.963 162.8C134.915 161.605 132.696 161.008 130.307 161.008C128.899 161.008 127.533 161.115 126.211 161.328C124.931 161.541 123.693 161.947 122.499 162.544L125.059 154.608H143.043V145.2H117.187L110.851 171.056C112.387 170.331 113.901 169.755 115.395 169.328C116.888 168.901 118.317 168.624 119.683 168.496C121.048 168.325 122.307 168.24 123.459 168.24C124.952 168.24 126.339 168.475 127.619 168.944C128.941 169.371 130.008 170.053 130.819 170.992C131.629 171.888 132.035 173.061 132.035 174.512C132.035 175.963 131.693 177.157 131.011 178.096C130.371 179.035 129.389 179.739 128.067 180.208C126.787 180.677 125.251 180.912 123.459 180.912C122.349 180.912 121.133 180.72 119.811 180.336C118.531 179.952 117.229 179.397 115.907 178.672C114.584 177.947 113.325 177.093 112.131 176.112L107.907 185.008C109.315 186.032 110.872 186.992 112.579 187.888C114.328 188.784 116.291 189.488 118.467 190C120.685 190.555 123.16 190.832 125.891 190.832C128.067 190.832 130.221 190.533 132.355 189.936C134.488 189.339 136.429 188.443 138.179 187.248C139.928 186.011 141.315 184.432 142.339 182.512C143.405 180.592 143.939 178.288 143.939 175.6ZM164.069 168.24C166.714 168.24 169.189 168.027 171.493 167.6C173.797 167.131 175.802 166.427 177.509 165.488C179.258 164.549 180.623 163.355 181.605 161.904C182.586 160.411 183.077 158.683 183.077 156.72C183.077 154.459 182.458 152.389 181.221 150.512C179.983 148.635 178.191 147.141 175.845 146.032C173.498 144.923 170.639 144.368 167.269 144.368C164.069 144.368 161.274 144.987 158.885 146.224C156.538 147.461 154.703 149.125 153.381 151.216C152.101 153.264 151.461 155.632 151.461 158.32H161.445C161.445 157.296 161.701 156.379 162.213 155.568C162.725 154.757 163.407 154.139 164.261 153.712C165.157 153.243 166.181 153.008 167.333 153.008C168.442 153.008 169.359 153.2 170.085 153.584C170.853 153.968 171.407 154.501 171.749 155.184C172.133 155.824 172.325 156.592 172.325 157.488C172.325 158.299 172.133 159.067 171.749 159.792C171.365 160.475 170.81 161.093 170.085 161.648C169.359 162.203 168.485 162.651 167.461 162.992C166.437 163.291 165.306 163.44 164.069 163.44V168.24ZM166.757 190.96C170.426 190.96 173.562 190.405 176.165 189.296C178.81 188.187 180.837 186.651 182.245 184.688C183.653 182.683 184.357 180.379 184.357 177.776C184.357 175.472 183.845 173.509 182.821 171.888C181.839 170.267 180.453 168.944 178.661 167.92C176.869 166.896 174.714 166.149 172.197 165.68C169.722 165.168 167.013 164.912 164.069 164.912V170.416C165.69 170.416 167.098 170.565 168.293 170.864C169.53 171.163 170.533 171.589 171.301 172.144C172.069 172.699 172.645 173.36 173.029 174.128C173.413 174.896 173.605 175.749 173.605 176.688C173.605 177.968 173.327 179.013 172.773 179.824C172.261 180.635 171.514 181.253 170.533 181.68C169.551 182.107 168.442 182.32 167.205 182.32C165.967 182.32 164.815 182.085 163.749 181.616C162.682 181.147 161.829 180.421 161.189 179.44C160.549 178.459 160.229 177.221 160.229 175.728H149.541C149.541 177.776 149.903 179.717 150.629 181.552C151.397 183.344 152.527 184.965 154.021 186.416C155.557 187.824 157.391 188.933 159.525 189.744C161.658 190.555 164.069 190.96 166.757 190.96ZM224.939 175.6C224.939 172.528 224.299 169.925 223.019 167.792C221.739 165.616 220.053 163.952 217.963 162.8C215.915 161.605 213.696 161.008 211.307 161.008C209.899 161.008 208.533 161.115 207.211 161.328C205.931 161.541 204.693 161.947 203.499 162.544L206.059 154.608H224.043V145.2H198.187L191.851 171.056C193.387 170.331 194.901 169.755 196.395 169.328C197.888 168.901 199.317 168.624 200.683 168.496C202.048 168.325 203.307 168.24 204.459 168.24C205.952 168.24 207.339 168.475 208.619 168.944C209.941 169.371 211.008 170.053 211.819 170.992C212.629 171.888 213.035 173.061 213.035 174.512C213.035 175.963 212.693 177.157 212.011 178.096C211.371 179.035 210.389 179.739 209.067 180.208C207.787 180.677 206.251 180.912 204.459 180.912C203.349 180.912 202.133 180.72 200.811 180.336C199.531 179.952 198.229 179.397 196.907 178.672C195.584 177.947 194.325 177.093 193.131 176.112L188.907 185.008C190.315 186.032 191.872 186.992 193.579 187.888C195.328 188.784 197.291 189.488 199.467 190C201.685 190.555 204.16 190.832 206.891 190.832C209.067 190.832 211.221 190.533 213.355 189.936C215.488 189.339 217.429 188.443 219.179 187.248C220.928 186.011 222.315 184.432 223.339 182.512C224.405 180.592 224.939 178.288 224.939 175.6ZM250.368 140.08V190H259.648V140.08H250.368ZM270.4 160.56L257.856 172.72L271.808 190H283.2L269.312 172.72L281.92 160.56H270.4ZM285.407 192.112C285.663 194.715 286.388 196.997 287.583 198.96C288.777 200.923 290.548 202.459 292.895 203.568C295.241 204.72 298.271 205.296 301.983 205.296C304.927 205.296 307.615 204.763 310.047 203.696C312.521 202.629 314.484 200.923 315.935 198.576C317.385 196.229 318.111 193.157 318.111 189.36V160.56H308.831V189.36C308.831 191.109 308.489 192.603 307.807 193.84C307.167 195.077 306.292 195.995 305.183 196.592C304.073 197.189 302.836 197.488 301.471 197.488C300.233 197.488 299.124 197.296 298.143 196.912C297.204 196.528 296.457 195.931 295.903 195.12C295.348 194.309 294.985 193.307 294.815 192.112H285.407ZM284.767 174.896C284.767 178.181 285.428 180.955 286.751 183.216C288.073 185.435 289.78 187.099 291.871 188.208C294.004 189.317 296.287 189.872 298.719 189.872C300.553 189.872 302.239 189.552 303.775 188.912C305.353 188.229 306.697 187.248 307.807 185.968C308.959 184.688 309.876 183.131 310.559 181.296C311.241 179.419 311.583 177.285 311.583 174.896C311.583 172.507 311.241 170.395 310.559 168.56C309.876 166.683 308.959 165.104 307.807 163.824C306.697 162.544 305.353 161.584 303.775 160.944C302.239 160.261 300.553 159.92 298.719 159.92C296.287 159.92 294.004 160.475 291.871 161.584C289.78 162.693 288.073 164.357 286.751 166.576C285.428 168.795 284.767 171.568 284.767 174.896ZM294.943 174.896C294.943 173.36 295.263 172.059 295.903 170.992C296.543 169.925 297.396 169.115 298.463 168.56C299.529 168.005 300.703 167.728 301.983 167.728C302.793 167.728 303.604 167.877 304.415 168.176C305.225 168.475 305.951 168.923 306.591 169.52C307.273 170.117 307.807 170.864 308.191 171.76C308.617 172.656 308.831 173.701 308.831 174.896C308.831 176.091 308.617 177.136 308.191 178.032C307.807 178.885 307.273 179.632 306.591 180.272C305.951 180.869 305.225 181.317 304.415 181.616C303.604 181.915 302.793 182.064 301.983 182.064C300.703 182.064 299.529 181.787 298.463 181.232C297.396 180.677 296.543 179.867 295.903 178.8C295.263 177.733 294.943 176.432 294.943 174.896Z" fill="white"/>
<path d="M191.36 223.57H198.02L197.804 221.248H191.558L191.36 223.57ZM194.672 218.044L196.436 222.094L196.31 222.904L197.804 226H201.278L194.672 212.608L188.03 226H191.468L193.016 222.796L192.89 222.094L194.672 218.044ZM205.029 211.96H202.311V226H205.029V211.96ZM211.797 221.86C211.797 220.924 211.605 220.138 211.221 219.502C210.849 218.854 210.363 218.368 209.763 218.044C209.163 217.708 208.527 217.54 207.855 217.54C207.339 217.54 206.865 217.642 206.433 217.846C206.001 218.038 205.623 218.32 205.299 218.692C204.987 219.064 204.735 219.52 204.543 220.06C204.363 220.588 204.273 221.188 204.273 221.86C204.273 222.532 204.363 223.138 204.543 223.678C204.735 224.206 204.987 224.656 205.299 225.028C205.623 225.4 206.001 225.688 206.433 225.892C206.865 226.084 207.339 226.18 207.855 226.18C208.527 226.18 209.163 226.018 209.763 225.694C210.363 225.358 210.849 224.866 211.221 224.218C211.605 223.57 211.797 222.784 211.797 221.86ZM208.917 221.86C208.917 222.292 208.827 222.67 208.647 222.994C208.467 223.306 208.227 223.552 207.927 223.732C207.639 223.9 207.315 223.984 206.955 223.984C206.727 223.984 206.499 223.936 206.271 223.84C206.043 223.744 205.833 223.606 205.641 223.426C205.461 223.246 205.311 223.024 205.191 222.76C205.083 222.496 205.029 222.19 205.029 221.842C205.029 221.506 205.083 221.212 205.191 220.96C205.311 220.708 205.461 220.492 205.641 220.312C205.833 220.12 206.043 219.976 206.271 219.88C206.499 219.784 206.727 219.736 206.955 219.736C207.315 219.736 207.639 219.826 207.927 220.006C208.227 220.174 208.467 220.42 208.647 220.744C208.827 221.056 208.917 221.428 208.917 221.86ZM212.7 217.72V219.97H218.352V217.72H212.7ZM218.082 214.57L219.162 212.572C219.042 212.452 218.88 212.326 218.676 212.194C218.484 212.05 218.232 211.93 217.92 211.834C217.62 211.726 217.266 211.672 216.858 211.672C216.186 211.672 215.61 211.792 215.13 212.032C214.662 212.272 214.314 212.614 214.086 213.058C213.858 213.502 213.744 214.036 213.744 214.66V226H216.354V215.362C216.354 215.062 216.39 214.822 216.462 214.642C216.534 214.462 216.63 214.33 216.75 214.246C216.882 214.162 217.038 214.12 217.218 214.12C217.398 214.12 217.554 214.156 217.686 214.228C217.83 214.288 217.962 214.402 218.082 214.57ZM221.749 223.408C221.749 223.192 221.791 223.018 221.875 222.886C221.971 222.754 222.115 222.652 222.307 222.58C222.511 222.508 222.769 222.472 223.081 222.472C223.501 222.472 223.897 222.532 224.269 222.652C224.653 222.76 224.989 222.922 225.277 223.138V221.932C225.145 221.776 224.929 221.626 224.629 221.482C224.341 221.338 223.993 221.224 223.585 221.14C223.177 221.044 222.733 220.996 222.253 220.996C221.533 220.996 220.933 221.098 220.453 221.302C219.985 221.494 219.625 221.788 219.373 222.184C219.133 222.568 219.013 223.024 219.013 223.552C219.013 224.116 219.145 224.596 219.409 224.992C219.685 225.388 220.045 225.688 220.489 225.892C220.933 226.084 221.419 226.18 221.947 226.18C222.475 226.18 222.967 226.09 223.423 225.91C223.891 225.718 224.263 225.442 224.539 225.082C224.827 224.71 224.971 224.26 224.971 223.732L224.683 222.652C224.683 223.036 224.599 223.36 224.431 223.624C224.263 223.888 224.047 224.086 223.783 224.218C223.519 224.35 223.231 224.416 222.919 224.416C222.703 224.416 222.505 224.374 222.325 224.29C222.145 224.206 222.001 224.092 221.893 223.948C221.797 223.804 221.749 223.624 221.749 223.408ZM220.525 220.258C220.633 220.186 220.819 220.096 221.083 219.988C221.359 219.868 221.677 219.766 222.037 219.682C222.397 219.598 222.763 219.556 223.135 219.556C223.387 219.556 223.609 219.58 223.801 219.628C223.993 219.676 224.155 219.754 224.287 219.862C224.431 219.958 224.533 220.09 224.593 220.258C224.653 220.414 224.683 220.588 224.683 220.78V226H227.293V220.15C227.293 219.586 227.125 219.106 226.789 218.71C226.453 218.314 225.997 218.014 225.421 217.81C224.857 217.594 224.203 217.486 223.459 217.486C222.679 217.486 221.959 217.588 221.299 217.792C220.651 217.984 220.087 218.194 219.607 218.422L220.525 220.258ZM229.311 211.96V226H232.065V211.96H229.311ZM234.162 211.96V226H236.916V211.96H234.162Z" fill="white"/>
<path d="M114.431 259.72L118.391 268.63L122.351 259.72H120.731L118.391 265.57L116.051 259.72H114.431ZM126.649 268.18C127.537 268.18 128.305 268.006 128.953 267.658C129.613 267.298 130.159 266.77 130.591 266.074L129.421 265.336C129.121 265.84 128.755 266.218 128.323 266.47C127.891 266.71 127.393 266.83 126.829 266.83C126.265 266.83 125.785 266.71 125.389 266.47C124.993 266.23 124.693 265.882 124.489 265.426C124.285 264.97 124.183 264.418 124.183 263.77C124.183 263.302 124.243 262.882 124.363 262.51C124.483 262.138 124.657 261.826 124.885 261.574C125.113 261.322 125.389 261.13 125.713 260.998C126.049 260.866 126.421 260.8 126.829 260.8C127.297 260.8 127.705 260.902 128.053 261.106C128.401 261.31 128.671 261.592 128.863 261.952C129.067 262.312 129.169 262.738 129.169 263.23C129.169 263.314 129.151 263.422 129.115 263.554C129.079 263.674 129.043 263.764 129.007 263.824L129.583 262.996H123.643V264.22H130.717C130.717 264.196 130.717 264.142 130.717 264.058C130.729 263.962 130.735 263.872 130.735 263.788C130.735 262.912 130.579 262.156 130.267 261.52C129.955 260.884 129.505 260.398 128.917 260.062C128.341 259.714 127.645 259.54 126.829 259.54C126.217 259.54 125.659 259.648 125.155 259.864C124.651 260.068 124.219 260.362 123.859 260.746C123.499 261.118 123.217 261.568 123.013 262.096C122.821 262.624 122.725 263.212 122.725 263.86C122.725 264.712 122.887 265.462 123.211 266.11C123.547 266.758 124.009 267.268 124.597 267.64C125.197 268 125.881 268.18 126.649 268.18ZM134.148 259.72H132.708V268H134.148V259.72ZM136.65 261.304L137.442 260.116C137.226 259.888 136.986 259.738 136.722 259.666C136.47 259.582 136.194 259.54 135.894 259.54C135.51 259.54 135.132 259.69 134.76 259.99C134.388 260.29 134.082 260.698 133.842 261.214C133.614 261.718 133.5 262.3 133.5 262.96H134.148C134.148 262.564 134.184 262.21 134.256 261.898C134.34 261.586 134.484 261.34 134.688 261.16C134.892 260.98 135.174 260.89 135.534 260.89C135.774 260.89 135.972 260.926 136.128 260.998C136.284 261.058 136.458 261.16 136.65 261.304ZM140.318 264.76V259.72H138.878V264.94C138.878 265.6 138.992 266.176 139.22 266.668C139.46 267.148 139.79 267.52 140.21 267.784C140.642 268.048 141.146 268.18 141.722 268.18C142.274 268.18 142.754 268.06 143.162 267.82C143.57 267.568 143.912 267.196 144.188 266.704V268H145.628V259.72H144.188V264.76C144.188 265.168 144.098 265.528 143.918 265.84C143.75 266.152 143.504 266.398 143.18 266.578C142.868 266.746 142.502 266.83 142.082 266.83C141.698 266.83 141.374 266.752 141.11 266.596C140.846 266.428 140.648 266.194 140.516 265.894C140.384 265.582 140.318 265.204 140.318 264.76ZM149.775 259.72H148.335V268H149.775V259.72ZM152.277 261.304L153.069 260.116C152.853 259.888 152.613 259.738 152.349 259.666C152.097 259.582 151.821 259.54 151.521 259.54C151.137 259.54 150.759 259.69 150.387 259.99C150.015 260.29 149.709 260.698 149.469 261.214C149.241 261.718 149.127 262.3 149.127 262.96H149.775C149.775 262.564 149.811 262.21 149.883 261.898C149.967 261.586 150.111 261.34 150.315 261.16C150.519 260.98 150.801 260.89 151.161 260.89C151.401 260.89 151.599 260.926 151.755 260.998C151.911 261.058 152.085 261.16 152.277 261.304ZM154.847 265.462L153.713 266.164C153.869 266.488 154.097 266.806 154.397 267.118C154.709 267.43 155.087 267.688 155.531 267.892C155.975 268.084 156.473 268.18 157.025 268.18C157.589 268.18 158.081 268.072 158.501 267.856C158.933 267.628 159.269 267.328 159.509 266.956C159.749 266.572 159.869 266.14 159.869 265.66C159.869 265.168 159.749 264.766 159.509 264.454C159.281 264.142 158.969 263.878 158.573 263.662C158.177 263.434 157.739 263.224 157.259 263.032C156.971 262.912 156.695 262.786 156.431 262.654C156.167 262.522 155.951 262.372 155.783 262.204C155.615 262.036 155.531 261.844 155.531 261.628C155.531 261.352 155.639 261.148 155.855 261.016C156.071 260.884 156.329 260.818 156.629 260.818C157.061 260.818 157.445 260.92 157.781 261.124C158.129 261.328 158.417 261.586 158.645 261.898L159.797 261.16C159.629 260.848 159.395 260.572 159.095 260.332C158.795 260.092 158.447 259.9 158.051 259.756C157.667 259.612 157.253 259.54 156.809 259.54C156.365 259.54 155.933 259.618 155.513 259.774C155.105 259.93 154.769 260.17 154.505 260.494C154.253 260.818 154.127 261.226 154.127 261.718C154.127 262.198 154.247 262.6 154.487 262.924C154.739 263.236 155.045 263.494 155.405 263.698C155.777 263.89 156.143 264.058 156.503 264.202C156.827 264.322 157.133 264.454 157.421 264.598C157.709 264.73 157.943 264.898 158.123 265.102C158.315 265.294 158.411 265.534 158.411 265.822C158.411 266.146 158.291 266.404 158.051 266.596C157.823 266.776 157.505 266.866 157.097 266.866C156.761 266.866 156.449 266.806 156.161 266.686C155.885 266.554 155.639 266.38 155.423 266.164C155.207 265.948 155.015 265.714 154.847 265.462ZM162.413 265.444C162.413 265.144 162.485 264.886 162.629 264.67C162.773 264.454 162.989 264.286 163.277 264.166C163.577 264.046 163.961 263.986 164.429 263.986C164.933 263.986 165.407 264.052 165.851 264.184C166.295 264.304 166.727 264.508 167.147 264.796V263.95C167.063 263.842 166.901 263.704 166.661 263.536C166.421 263.356 166.097 263.2 165.689 263.068C165.293 262.924 164.795 262.852 164.195 262.852C163.523 262.852 162.941 262.966 162.449 263.194C161.969 263.41 161.597 263.716 161.333 264.112C161.081 264.508 160.955 264.976 160.955 265.516C160.955 266.08 161.087 266.56 161.351 266.956C161.615 267.352 161.963 267.658 162.395 267.874C162.839 268.078 163.313 268.18 163.817 268.18C164.273 268.18 164.729 268.096 165.185 267.928C165.653 267.76 166.043 267.502 166.355 267.154C166.679 266.806 166.841 266.368 166.841 265.84L166.553 264.76C166.553 265.192 166.445 265.576 166.229 265.912C166.025 266.236 165.743 266.488 165.383 266.668C165.035 266.848 164.639 266.938 164.195 266.938C163.847 266.938 163.535 266.884 163.259 266.776C162.995 266.656 162.785 266.482 162.629 266.254C162.485 266.026 162.413 265.756 162.413 265.444ZM162.197 261.628C162.329 261.532 162.509 261.418 162.737 261.286C162.965 261.154 163.241 261.04 163.565 260.944C163.901 260.848 164.273 260.8 164.681 260.8C164.933 260.8 165.173 260.824 165.401 260.872C165.629 260.92 165.827 260.998 165.995 261.106C166.175 261.214 166.313 261.364 166.409 261.556C166.505 261.736 166.553 261.97 166.553 262.258V268H167.993V262.06C167.993 261.52 167.855 261.064 167.579 260.692C167.315 260.32 166.937 260.038 166.445 259.846C165.965 259.642 165.401 259.54 164.753 259.54C163.985 259.54 163.325 259.654 162.773 259.882C162.233 260.11 161.807 260.338 161.495 260.566L162.197 261.628ZM171.079 263.86C171.079 263.284 171.199 262.774 171.439 262.33C171.691 261.874 172.027 261.52 172.447 261.268C172.879 261.016 173.365 260.89 173.905 260.89C174.349 260.89 174.763 260.962 175.147 261.106C175.543 261.238 175.885 261.418 176.173 261.646C176.461 261.874 176.665 262.126 176.785 262.402V260.602C176.497 260.266 176.083 260.008 175.543 259.828C175.015 259.636 174.469 259.54 173.905 259.54C173.101 259.54 172.375 259.726 171.727 260.098C171.079 260.47 170.563 260.98 170.179 261.628C169.807 262.276 169.621 263.02 169.621 263.86C169.621 264.688 169.807 265.432 170.179 266.092C170.563 266.74 171.079 267.25 171.727 267.622C172.375 267.994 173.101 268.18 173.905 268.18C174.469 268.18 175.015 268.09 175.543 267.91C176.083 267.718 176.497 267.454 176.785 267.118V265.318C176.665 265.582 176.461 265.834 176.173 266.074C175.885 266.302 175.543 266.488 175.147 266.632C174.763 266.764 174.349 266.83 173.905 266.83C173.365 266.83 172.879 266.704 172.447 266.452C172.027 266.188 171.691 265.834 171.439 265.39C171.199 264.946 171.079 264.436 171.079 263.86ZM180.467 253.96H179.027V268H180.467V253.96ZM184.337 262.96V268H185.777V262.78C185.777 262.06 185.657 261.46 185.417 260.98C185.189 260.5 184.859 260.14 184.427 259.9C184.007 259.66 183.509 259.54 182.933 259.54C182.357 259.54 181.847 259.69 181.403 259.99C180.971 260.29 180.629 260.698 180.377 261.214C180.125 261.718 179.999 262.3 179.999 262.96H180.467C180.467 262.564 180.551 262.21 180.719 261.898C180.899 261.586 181.145 261.34 181.457 261.16C181.781 260.98 182.153 260.89 182.573 260.89C182.969 260.89 183.293 260.968 183.545 261.124C183.809 261.28 184.007 261.514 184.139 261.826C184.271 262.126 184.337 262.504 184.337 262.96ZM187.224 259.72V261.07H191.364V259.72H187.224ZM188.574 256.84V268H190.014V256.84H188.574ZM197.97 256.3C197.97 256.564 198.066 256.792 198.258 256.984C198.45 257.176 198.678 257.272 198.942 257.272C199.218 257.272 199.446 257.176 199.626 256.984C199.818 256.792 199.914 256.564 199.914 256.3C199.914 256.024 199.818 255.796 199.626 255.616C199.446 255.424 199.218 255.328 198.942 255.328C198.678 255.328 198.45 255.424 198.258 255.616C198.066 255.796 197.97 256.024 197.97 256.3ZM196.548 270.052L195.756 271.24C195.876 271.396 196.014 271.528 196.17 271.636C196.326 271.744 196.5 271.822 196.692 271.87C196.884 271.93 197.1 271.96 197.34 271.96C197.844 271.96 198.276 271.846 198.636 271.618C198.996 271.39 199.266 271.06 199.446 270.628C199.638 270.196 199.734 269.68 199.734 269.08V259.72H198.294V268.9C198.294 269.284 198.264 269.596 198.204 269.836C198.144 270.076 198.048 270.25 197.916 270.358C197.796 270.466 197.634 270.52 197.43 270.52C197.238 270.52 197.064 270.478 196.908 270.394C196.764 270.31 196.644 270.196 196.548 270.052ZM205.908 268.18C206.796 268.18 207.564 268.006 208.212 267.658C208.872 267.298 209.418 266.77 209.85 266.074L208.68 265.336C208.38 265.84 208.014 266.218 207.582 266.47C207.15 266.71 206.652 266.83 206.088 266.83C205.524 266.83 205.044 266.71 204.648 266.47C204.252 266.23 203.952 265.882 203.748 265.426C203.544 264.97 203.442 264.418 203.442 263.77C203.442 263.302 203.502 262.882 203.622 262.51C203.742 262.138 203.916 261.826 204.144 261.574C204.372 261.322 204.648 261.13 204.972 260.998C205.308 260.866 205.68 260.8 206.088 260.8C206.556 260.8 206.964 260.902 207.312 261.106C207.66 261.31 207.93 261.592 208.122 261.952C208.326 262.312 208.428 262.738 208.428 263.23C208.428 263.314 208.41 263.422 208.374 263.554C208.338 263.674 208.302 263.764 208.266 263.824L208.842 262.996H202.902V264.22H209.976C209.976 264.196 209.976 264.142 209.976 264.058C209.988 263.962 209.994 263.872 209.994 263.788C209.994 262.912 209.838 262.156 209.526 261.52C209.214 260.884 208.764 260.398 208.176 260.062C207.6 259.714 206.904 259.54 206.088 259.54C205.476 259.54 204.918 259.648 204.414 259.864C203.91 260.068 203.478 260.362 203.118 260.746C202.758 261.118 202.476 261.568 202.272 262.096C202.08 262.624 201.984 263.212 201.984 263.86C201.984 264.712 202.146 265.462 202.47 266.11C202.806 266.758 203.268 267.268 203.856 267.64C204.456 268 205.14 268.18 205.908 268.18ZM218.178 253.96V268H219.618V253.96H218.178ZM211.248 263.86C211.248 264.748 211.434 265.516 211.806 266.164C212.178 266.812 212.676 267.31 213.3 267.658C213.924 268.006 214.608 268.18 215.352 268.18C215.868 268.18 216.336 268.084 216.756 267.892C217.188 267.688 217.554 267.4 217.854 267.028C218.166 266.656 218.406 266.206 218.574 265.678C218.742 265.138 218.826 264.532 218.826 263.86C218.826 263.188 218.742 262.588 218.574 262.06C218.406 261.52 218.166 261.064 217.854 260.692C217.554 260.32 217.188 260.038 216.756 259.846C216.336 259.642 215.868 259.54 215.352 259.54C214.608 259.54 213.924 259.714 213.3 260.062C212.676 260.41 212.178 260.908 211.806 261.556C211.434 262.192 211.248 262.96 211.248 263.86ZM212.706 263.86C212.706 263.224 212.832 262.684 213.084 262.24C213.348 261.796 213.696 261.46 214.128 261.232C214.56 261.004 215.028 260.89 215.532 260.89C215.844 260.89 216.156 260.956 216.468 261.088C216.78 261.22 217.062 261.412 217.314 261.664C217.578 261.916 217.788 262.228 217.944 262.6C218.1 262.96 218.178 263.38 218.178 263.86C218.178 264.34 218.1 264.766 217.944 265.138C217.788 265.498 217.578 265.804 217.314 266.056C217.062 266.308 216.78 266.5 216.468 266.632C216.156 266.764 215.844 266.83 215.532 266.83C215.028 266.83 214.56 266.716 214.128 266.488C213.696 266.26 213.348 265.924 213.084 265.48C212.832 265.036 212.706 264.496 212.706 263.86ZM225.438 268.18C226.326 268.18 227.094 268.006 227.742 267.658C228.402 267.298 228.948 266.77 229.38 266.074L228.21 265.336C227.91 265.84 227.544 266.218 227.112 266.47C226.68 266.71 226.182 266.83 225.618 266.83C225.054 266.83 224.574 266.71 224.178 266.47C223.782 266.23 223.482 265.882 223.278 265.426C223.074 264.97 222.972 264.418 222.972 263.77C222.972 263.302 223.032 262.882 223.152 262.51C223.272 262.138 223.446 261.826 223.674 261.574C223.902 261.322 224.178 261.13 224.502 260.998C224.838 260.866 225.21 260.8 225.618 260.8C226.086 260.8 226.494 260.902 226.842 261.106C227.19 261.31 227.46 261.592 227.652 261.952C227.856 262.312 227.958 262.738 227.958 263.23C227.958 263.314 227.94 263.422 227.904 263.554C227.868 263.674 227.832 263.764 227.796 263.824L228.372 262.996H222.432V264.22H229.506C229.506 264.196 229.506 264.142 229.506 264.058C229.518 263.962 229.524 263.872 229.524 263.788C229.524 262.912 229.368 262.156 229.056 261.52C228.744 260.884 228.294 260.398 227.706 260.062C227.13 259.714 226.434 259.54 225.618 259.54C225.006 259.54 224.448 259.648 223.944 259.864C223.44 260.068 223.008 260.362 222.648 260.746C222.288 261.118 222.006 261.568 221.802 262.096C221.61 262.624 221.514 263.212 221.514 263.86C221.514 264.712 221.676 265.462 222 266.11C222.336 266.758 222.798 267.268 223.386 267.64C223.986 268 224.67 268.18 225.438 268.18ZM232.937 259.72H231.497V268H232.937V259.72ZM235.439 261.304L236.231 260.116C236.015 259.888 235.775 259.738 235.511 259.666C235.259 259.582 234.983 259.54 234.683 259.54C234.299 259.54 233.921 259.69 233.549 259.99C233.177 260.29 232.871 260.698 232.631 261.214C232.403 261.718 232.289 262.3 232.289 262.96H232.937C232.937 262.564 232.973 262.21 233.045 261.898C233.129 261.586 233.273 261.34 233.477 261.16C233.681 260.98 233.963 260.89 234.323 260.89C234.563 260.89 234.761 260.926 234.917 260.998C235.073 261.058 235.247 261.16 235.439 261.304ZM243.154 255.4V268H244.684V255.4H243.154ZM246.934 268C247.858 268 248.704 267.85 249.472 267.55C250.24 267.25 250.9 266.824 251.452 266.272C252.016 265.708 252.454 265.042 252.766 264.274C253.078 263.494 253.234 262.636 253.234 261.7C253.234 260.764 253.078 259.912 252.766 259.144C252.454 258.364 252.016 257.698 251.452 257.146C250.9 256.582 250.24 256.15 249.472 255.85C248.704 255.55 247.858 255.4 246.934 255.4H244V256.93H246.934C247.642 256.93 248.29 257.044 248.878 257.272C249.466 257.488 249.97 257.806 250.39 258.226C250.81 258.634 251.134 259.132 251.362 259.72C251.59 260.308 251.704 260.968 251.704 261.7C251.704 262.432 251.59 263.092 251.362 263.68C251.134 264.268 250.81 264.772 250.39 265.192C249.97 265.6 249.466 265.918 248.878 266.146C248.29 266.362 247.642 266.47 246.934 266.47H244V268H246.934ZM258.502 268.18C259.39 268.18 260.158 268.006 260.806 267.658C261.466 267.298 262.012 266.77 262.444 266.074L261.274 265.336C260.974 265.84 260.608 266.218 260.176 266.47C259.744 266.71 259.246 266.83 258.682 266.83C258.118 266.83 257.638 266.71 257.242 266.47C256.846 266.23 256.546 265.882 256.342 265.426C256.138 264.97 256.036 264.418 256.036 263.77C256.036 263.302 256.096 262.882 256.216 262.51C256.336 262.138 256.51 261.826 256.738 261.574C256.966 261.322 257.242 261.13 257.566 260.998C257.902 260.866 258.274 260.8 258.682 260.8C259.15 260.8 259.558 260.902 259.906 261.106C260.254 261.31 260.524 261.592 260.716 261.952C260.92 262.312 261.022 262.738 261.022 263.23C261.022 263.314 261.004 263.422 260.968 263.554C260.932 263.674 260.896 263.764 260.86 263.824L261.436 262.996H255.496V264.22H262.57C262.57 264.196 262.57 264.142 262.57 264.058C262.582 263.962 262.588 263.872 262.588 263.788C262.588 262.912 262.432 262.156 262.12 261.52C261.808 260.884 261.358 260.398 260.77 260.062C260.194 259.714 259.498 259.54 258.682 259.54C258.07 259.54 257.512 259.648 257.008 259.864C256.504 260.068 256.072 260.362 255.712 260.746C255.352 261.118 255.07 261.568 254.866 262.096C254.674 262.624 254.578 263.212 254.578 263.86C254.578 264.712 254.74 265.462 255.064 266.11C255.4 266.758 255.862 267.268 256.45 267.64C257.05 268 257.734 268.18 258.502 268.18ZM266.002 264.76V259.72H264.562V264.94C264.562 265.6 264.676 266.176 264.904 266.668C265.144 267.148 265.474 267.52 265.894 267.784C266.326 268.048 266.83 268.18 267.406 268.18C267.958 268.18 268.438 268.06 268.846 267.82C269.254 267.568 269.596 267.196 269.872 266.704V268H271.312V259.72H269.872V264.76C269.872 265.168 269.782 265.528 269.602 265.84C269.434 266.152 269.188 266.398 268.864 266.578C268.552 266.746 268.186 266.83 267.766 266.83C267.382 266.83 267.058 266.752 266.794 266.596C266.53 266.428 266.332 266.194 266.2 265.894C266.068 265.582 266.002 265.204 266.002 264.76ZM272.759 259.72V261.07H276.899V259.72H272.759ZM274.109 256.84V268H275.549V256.84H274.109ZM278.685 265.462L277.551 266.164C277.707 266.488 277.935 266.806 278.235 267.118C278.547 267.43 278.925 267.688 279.369 267.892C279.813 268.084 280.311 268.18 280.863 268.18C281.427 268.18 281.919 268.072 282.339 267.856C282.771 267.628 283.107 267.328 283.347 266.956C283.587 266.572 283.707 266.14 283.707 265.66C283.707 265.168 283.587 264.766 283.347 264.454C283.119 264.142 282.807 263.878 282.411 263.662C282.015 263.434 281.577 263.224 281.097 263.032C280.809 262.912 280.533 262.786 280.269 262.654C280.005 262.522 279.789 262.372 279.621 262.204C279.453 262.036 279.369 261.844 279.369 261.628C279.369 261.352 279.477 261.148 279.693 261.016C279.909 260.884 280.167 260.818 280.467 260.818C280.899 260.818 281.283 260.92 281.619 261.124C281.967 261.328 282.255 261.586 282.483 261.898L283.635 261.16C283.467 260.848 283.233 260.572 282.933 260.332C282.633 260.092 282.285 259.9 281.889 259.756C281.505 259.612 281.091 259.54 280.647 259.54C280.203 259.54 279.771 259.618 279.351 259.774C278.943 259.93 278.607 260.17 278.343 260.494C278.091 260.818 277.965 261.226 277.965 261.718C277.965 262.198 278.085 262.6 278.325 262.924C278.577 263.236 278.883 263.494 279.243 263.698C279.615 263.89 279.981 264.058 280.341 264.202C280.665 264.322 280.971 264.454 281.259 264.598C281.547 264.73 281.781 264.898 281.961 265.102C282.153 265.294 282.249 265.534 282.249 265.822C282.249 266.146 282.129 266.404 281.889 266.596C281.661 266.776 281.343 266.866 280.935 266.866C280.599 266.866 280.287 266.806 279.999 266.686C279.723 266.554 279.477 266.38 279.261 266.164C279.045 265.948 278.853 265.714 278.685 265.462ZM286.251 263.86C286.251 263.284 286.371 262.774 286.611 262.33C286.863 261.874 287.199 261.52 287.619 261.268C288.051 261.016 288.537 260.89 289.077 260.89C289.521 260.89 289.935 260.962 290.319 261.106C290.715 261.238 291.057 261.418 291.345 261.646C291.633 261.874 291.837 262.126 291.957 262.402V260.602C291.669 260.266 291.255 260.008 290.715 259.828C290.187 259.636 289.641 259.54 289.077 259.54C288.273 259.54 287.547 259.726 286.899 260.098C286.251 260.47 285.735 260.98 285.351 261.628C284.979 262.276 284.793 263.02 284.793 263.86C284.793 264.688 284.979 265.432 285.351 266.092C285.735 266.74 286.251 267.25 286.899 267.622C287.547 267.994 288.273 268.18 289.077 268.18C289.641 268.18 290.187 268.09 290.715 267.91C291.255 267.718 291.669 267.454 291.957 267.118V265.318C291.837 265.582 291.633 265.834 291.345 266.074C291.057 266.302 290.715 266.488 290.319 266.632C289.935 266.764 289.521 266.83 289.077 266.83C288.537 266.83 288.051 266.704 287.619 266.452C287.199 266.188 286.863 265.834 286.611 265.39C286.371 264.946 286.251 264.436 286.251 263.86ZM295.639 253.96H294.199V268H295.639V253.96ZM299.509 262.96V268H300.949V262.78C300.949 262.06 300.829 261.46 300.589 260.98C300.361 260.5 300.031 260.14 299.599 259.9C299.179 259.66 298.681 259.54 298.105 259.54C297.529 259.54 297.019 259.69 296.575 259.99C296.143 260.29 295.801 260.698 295.549 261.214C295.297 261.718 295.171 262.3 295.171 262.96H295.639C295.639 262.564 295.723 262.21 295.891 261.898C296.071 261.586 296.317 261.34 296.629 261.16C296.953 260.98 297.325 260.89 297.745 260.89C298.141 260.89 298.465 260.968 298.717 261.124C298.981 261.28 299.179 261.514 299.311 261.826C299.443 262.126 299.509 262.504 299.509 262.96ZM306.86 268.18C307.748 268.18 308.516 268.006 309.164 267.658C309.824 267.298 310.37 266.77 310.802 266.074L309.632 265.336C309.332 265.84 308.966 266.218 308.534 266.47C308.102 266.71 307.604 266.83 307.04 266.83C306.476 266.83 305.996 266.71 305.6 266.47C305.204 266.23 304.904 265.882 304.7 265.426C304.496 264.97 304.394 264.418 304.394 263.77C304.394 263.302 304.454 262.882 304.574 262.51C304.694 262.138 304.868 261.826 305.096 261.574C305.324 261.322 305.6 261.13 305.924 260.998C306.26 260.866 306.632 260.8 307.04 260.8C307.508 260.8 307.916 260.902 308.264 261.106C308.612 261.31 308.882 261.592 309.074 261.952C309.278 262.312 309.38 262.738 309.38 263.23C309.38 263.314 309.362 263.422 309.326 263.554C309.29 263.674 309.254 263.764 309.218 263.824L309.794 262.996H303.854V264.22H310.928C310.928 264.196 310.928 264.142 310.928 264.058C310.94 263.962 310.946 263.872 310.946 263.788C310.946 262.912 310.79 262.156 310.478 261.52C310.166 260.884 309.716 260.398 309.128 260.062C308.552 259.714 307.856 259.54 307.04 259.54C306.428 259.54 305.87 259.648 305.366 259.864C304.862 260.068 304.43 260.362 304.07 260.746C303.71 261.118 303.428 261.568 303.224 262.096C303.032 262.624 302.936 263.212 302.936 263.86C302.936 264.712 303.098 265.462 303.422 266.11C303.758 266.758 304.22 267.268 304.808 267.64C305.408 268 306.092 268.18 306.86 268.18ZM185.694 297.96V285.72H184.254V297.96H185.694ZM192.624 289.86C192.624 288.96 192.438 288.192 192.066 287.556C191.694 286.908 191.196 286.41 190.572 286.062C189.96 285.714 189.276 285.54 188.52 285.54C188.004 285.54 187.53 285.642 187.098 285.846C186.678 286.038 186.312 286.32 186 286.692C185.7 287.064 185.466 287.52 185.298 288.06C185.13 288.588 185.046 289.188 185.046 289.86C185.046 290.532 185.13 291.138 185.298 291.678C185.466 292.206 185.7 292.656 186 293.028C186.312 293.4 186.678 293.688 187.098 293.892C187.53 294.084 188.004 294.18 188.52 294.18C189.276 294.18 189.96 294.006 190.572 293.658C191.196 293.31 191.694 292.812 192.066 292.164C192.438 291.516 192.624 290.748 192.624 289.86ZM191.166 289.86C191.166 290.496 191.034 291.036 190.77 291.48C190.518 291.924 190.176 292.26 189.744 292.488C189.324 292.716 188.856 292.83 188.34 292.83C188.028 292.83 187.716 292.764 187.404 292.632C187.092 292.5 186.804 292.308 186.54 292.056C186.288 291.804 186.084 291.498 185.928 291.138C185.772 290.766 185.694 290.34 185.694 289.86C185.694 289.38 185.772 288.96 185.928 288.6C186.084 288.228 186.288 287.916 186.54 287.664C186.804 287.412 187.092 287.22 187.404 287.088C187.716 286.956 188.028 286.89 188.34 286.89C188.856 286.89 189.324 287.004 189.744 287.232C190.176 287.46 190.518 287.796 190.77 288.24C191.034 288.684 191.166 289.224 191.166 289.86ZM196.05 285.72H194.61V294H196.05V285.72ZM198.552 287.304L199.344 286.116C199.128 285.888 198.888 285.738 198.624 285.666C198.372 285.582 198.096 285.54 197.796 285.54C197.412 285.54 197.034 285.69 196.662 285.99C196.29 286.29 195.984 286.698 195.744 287.214C195.516 287.718 195.402 288.3 195.402 288.96H196.05C196.05 288.564 196.086 288.21 196.158 287.898C196.242 287.586 196.386 287.34 196.59 287.16C196.794 286.98 197.076 286.89 197.436 286.89C197.676 286.89 197.874 286.926 198.03 286.998C198.186 287.058 198.36 287.16 198.552 287.304ZM199.796 289.86C199.796 290.688 199.982 291.432 200.354 292.092C200.738 292.74 201.254 293.25 201.902 293.622C202.55 293.994 203.276 294.18 204.08 294.18C204.896 294.18 205.622 293.994 206.258 293.622C206.906 293.25 207.416 292.74 207.788 292.092C208.172 291.432 208.364 290.688 208.364 289.86C208.364 289.02 208.172 288.276 207.788 287.628C207.416 286.98 206.906 286.47 206.258 286.098C205.622 285.726 204.896 285.54 204.08 285.54C203.276 285.54 202.55 285.726 201.902 286.098C201.254 286.47 200.738 286.98 200.354 287.628C199.982 288.276 199.796 289.02 199.796 289.86ZM201.254 289.86C201.254 289.284 201.374 288.774 201.614 288.33C201.866 287.874 202.202 287.52 202.622 287.268C203.054 287.016 203.54 286.89 204.08 286.89C204.62 286.89 205.1 287.016 205.52 287.268C205.952 287.52 206.288 287.874 206.528 288.33C206.78 288.774 206.906 289.284 206.906 289.86C206.906 290.436 206.78 290.946 206.528 291.39C206.288 291.834 205.952 292.188 205.52 292.452C205.1 292.704 204.62 292.83 204.08 292.83C203.54 292.83 203.054 292.704 202.622 292.452C202.202 292.188 201.866 291.834 201.614 291.39C201.374 290.946 201.254 290.436 201.254 289.86ZM213.183 295.872L212.391 297.06C212.487 297.18 212.643 297.306 212.859 297.438C213.063 297.582 213.315 297.702 213.615 297.798C213.903 297.906 214.203 297.96 214.515 297.96C214.935 297.96 215.313 297.9 215.649 297.78C215.997 297.672 216.291 297.498 216.531 297.258C216.771 297.018 216.951 296.718 217.071 296.358C217.203 295.998 217.269 295.572 217.269 295.08V281.4H215.829V294.9C215.829 295.488 215.691 295.902 215.415 296.142C215.151 296.394 214.881 296.52 214.605 296.52C214.281 296.52 213.999 296.46 213.759 296.34C213.507 296.232 213.315 296.076 213.183 295.872ZM220.711 291.444C220.711 291.144 220.783 290.886 220.927 290.67C221.071 290.454 221.287 290.286 221.575 290.166C221.875 290.046 222.259 289.986 222.727 289.986C223.231 289.986 223.705 290.052 224.149 290.184C224.593 290.304 225.025 290.508 225.445 290.796V289.95C225.361 289.842 225.199 289.704 224.959 289.536C224.719 289.356 224.395 289.2 223.987 289.068C223.591 288.924 223.093 288.852 222.493 288.852C221.821 288.852 221.239 288.966 220.747 289.194C220.267 289.41 219.895 289.716 219.631 290.112C219.379 290.508 219.253 290.976 219.253 291.516C219.253 292.08 219.385 292.56 219.649 292.956C219.913 293.352 220.261 293.658 220.693 293.874C221.137 294.078 221.611 294.18 222.115 294.18C222.571 294.18 223.027 294.096 223.483 293.928C223.951 293.76 224.341 293.502 224.653 293.154C224.977 292.806 225.139 292.368 225.139 291.84L224.851 290.76C224.851 291.192 224.743 291.576 224.527 291.912C224.323 292.236 224.041 292.488 223.681 292.668C223.333 292.848 222.937 292.938 222.493 292.938C222.145 292.938 221.833 292.884 221.557 292.776C221.293 292.656 221.083 292.482 220.927 292.254C220.783 292.026 220.711 291.756 220.711 291.444ZM220.495 287.628C220.627 287.532 220.807 287.418 221.035 287.286C221.263 287.154 221.539 287.04 221.863 286.944C222.199 286.848 222.571 286.8 222.979 286.8C223.231 286.8 223.471 286.824 223.699 286.872C223.927 286.92 224.125 286.998 224.293 287.106C224.473 287.214 224.611 287.364 224.707 287.556C224.803 287.736 224.851 287.97 224.851 288.258V294H226.291V288.06C226.291 287.52 226.153 287.064 225.877 286.692C225.613 286.32 225.235 286.038 224.743 285.846C224.263 285.642 223.699 285.54 223.051 285.54C222.283 285.54 221.623 285.654 221.071 285.882C220.531 286.11 220.105 286.338 219.793 286.566L220.495 287.628ZM230.169 279.96H228.729V294H230.169V279.96ZM234.039 288.96V294H235.479V288.78C235.479 288.06 235.359 287.46 235.119 286.98C234.891 286.5 234.561 286.14 234.129 285.9C233.709 285.66 233.211 285.54 232.635 285.54C232.059 285.54 231.549 285.69 231.105 285.99C230.673 286.29 230.331 286.698 230.079 287.214C229.827 287.718 229.701 288.3 229.701 288.96H230.169C230.169 288.564 230.253 288.21 230.421 287.898C230.601 287.586 230.847 287.34 231.159 287.16C231.483 286.98 231.855 286.89 232.275 286.89C232.671 286.89 232.995 286.968 233.247 287.124C233.511 287.28 233.709 287.514 233.841 287.826C233.973 288.126 234.039 288.504 234.039 288.96ZM239.626 285.72H238.186V294H239.626V285.72ZM242.128 287.304L242.92 286.116C242.704 285.888 242.464 285.738 242.2 285.666C241.948 285.582 241.672 285.54 241.372 285.54C240.988 285.54 240.61 285.69 240.238 285.99C239.866 286.29 239.56 286.698 239.32 287.214C239.092 287.718 238.978 288.3 238.978 288.96H239.626C239.626 288.564 239.662 288.21 239.734 287.898C239.818 287.586 239.962 287.34 240.166 287.16C240.37 286.98 240.652 286.89 241.012 286.89C241.252 286.89 241.45 286.926 241.606 286.998C241.762 287.058 241.936 287.16 242.128 287.304Z" fill="white"/>
</svg>
